<svg width="80" height="80" viewBox="0 0 80 80" fill="none" xmlns="http://www.w3.org/2000/svg">
<g id="Layer_x0020_1">
<path id="Vector" d="M40.0001 8.75C48.6294 8.75 56.442 12.2478 62.0972 17.903C67.7524 23.5582 71.2502 31.3708 71.2502 40.0001C71.2502 48.6294 67.7524 56.442 62.0972 62.0972C56.442 67.7524 48.6294 71.2502 40.0001 71.2502C31.3708 71.2502 23.5582 67.7524 17.903 62.0972C12.2478 56.442 8.75 48.6294 8.75 40.0001C8.75 31.3708 12.2478 23.5582 17.903 17.903C23.5582 12.2478 31.3708 8.75 40.0001 8.75ZM60.3296 19.6706C55.127 14.468 47.9394 11.25 40.0001 11.25C32.0609 11.25 24.8733 14.4679 19.6706 19.6706C14.468 24.8732 11.2501 32.0608 11.2501 40.0001C11.2501 47.9393 14.468 55.1269 19.6706 60.3296C24.8733 65.5322 32.0609 68.7501 40.0001 68.7501C47.9394 68.7501 55.127 65.5322 60.3296 60.3296C65.5322 55.1269 68.7502 47.9393 68.7502 40.0001C68.7502 32.0608 65.5323 24.8732 60.3296 19.6706Z" fill="url(#paint0_linear_138_2705)"/>
<path id="Vector_2" fill-rule="evenodd" clip-rule="evenodd" d="M29.9084 29.9111C31.3383 29.9111 32.4975 31.0703 32.4975 32.5002C32.4975 33.9301 31.3383 35.0893 29.9084 35.0893C28.4785 35.0893 27.3193 33.9301 27.3193 32.5002C27.3193 31.0703 28.4785 29.9111 29.9084 29.9111Z" fill="url(#paint1_linear_138_2705)"/>
<path id="Vector_3" fill-rule="evenodd" clip-rule="evenodd" d="M50.091 29.9111C51.5209 29.9111 52.6801 31.0703 52.6801 32.5002C52.6801 33.9301 51.5209 35.0893 50.091 35.0893C48.6611 35.0893 47.502 33.9301 47.502 32.5002C47.502 31.0703 48.6611 29.9111 50.091 29.9111Z" fill="url(#paint2_linear_138_2705)"/>
<path id="Vector_4" d="M55.114 46.8526C55.3917 46.2243 55.1075 45.4897 54.4792 45.212C53.8509 44.9342 53.1163 45.2184 52.8386 45.8467C51.4998 48.8596 49.13 50.9876 46.3362 52.2291C44.3741 53.1009 42.1925 53.5369 39.9999 53.5369C37.8072 53.5369 35.6257 53.1009 33.6636 52.2291C30.8698 50.9876 28.5 48.8596 27.1612 45.8467C26.8834 45.2184 26.1488 44.9342 25.5206 45.212C24.8923 45.4897 24.6081 46.2243 24.8858 46.8526C26.4949 50.4739 29.3264 53.0241 32.6578 54.5044C34.9569 55.5261 37.484 56.0369 39.9999 56.0369C42.5158 56.0369 45.043 55.526 47.3421 54.5044C50.6736 53.0241 53.505 50.4739 55.1141 46.8526H55.114Z" fill="url(#paint3_linear_138_2705)"/>
</g>
<defs>
<linearGradient id="paint0_linear_138_2705" x1="13.7591" y1="76.1651" x2="74.2824" y2="18.9005" gradientUnits="userSpaceOnUse">
<stop stop-color="#36F1B9"/>
<stop offset="1" stop-color="#3484A4"/>
</linearGradient>
<linearGradient id="paint1_linear_138_2705" x1="27.7343" y1="35.4965" x2="32.7487" y2="30.7521" gradientUnits="userSpaceOnUse">
<stop stop-color="#36F1B9"/>
<stop offset="1" stop-color="#3484A4"/>
</linearGradient>
<linearGradient id="paint2_linear_138_2705" x1="47.917" y1="35.4965" x2="52.9313" y2="30.7521" gradientUnits="userSpaceOnUse">
<stop stop-color="#36F1B9"/>
<stop offset="1" stop-color="#3484A4"/>
</linearGradient>
<linearGradient id="paint3_linear_138_2705" x1="27.219" y1="56.8965" x2="34.2533" y2="38.3625" gradientUnits="userSpaceOnUse">
<stop stop-color="#36F1B9"/>
<stop offset="1" stop-color="#3484A4"/>
</linearGradient>
</defs>
</svg>
