<svg width="33" height="32" viewBox="0 0 33 32" fill="none" xmlns="http://www.w3.org/2000/svg">
<g id="Frame" clip-path="url(#clip0_185_11058)">
<path id="Vector" fill-rule="evenodd" clip-rule="evenodd" d="M16.4389 31.9999L16.4532 31.9999H16.4482L16.4389 31.9999ZM16.5518 31.9999H16.5468L16.5611 31.9999L16.5518 31.9999ZM16.39 31.9996L16.4054 31.9997H16.3966L16.39 31.9996ZM16.6034 31.9997H16.5946L16.61 31.9996L16.6034 31.9997ZM16.3429 31.9993L16.3532 31.9993L16.3449 31.9993H16.3429ZM16.6551 31.9993L16.6468 31.9993L16.6571 31.9993H16.6551ZM16.7067 31.9987L16.7031 31.9988L16.717 31.9986L16.7067 31.9987ZM16.283 31.9986L16.2969 31.9988L16.2933 31.9987L16.283 31.9986ZM16.7582 31.9979L16.7498 31.9981L16.767 31.9978L16.7582 31.9979ZM16.233 31.9978L16.2502 31.9981L16.2417 31.9979L16.233 31.9978ZM16.8097 31.9971L16.7984 31.9973L16.8143 31.9969L16.8097 31.9971ZM16.1858 31.9969L16.2016 31.9973L16.1903 31.9971L16.1858 31.9969ZM16.1272 31.9958L16.1412 31.9961L16.1388 31.996L16.1272 31.9958ZM16.8612 31.996L16.8587 31.9961L16.8728 31.9958L16.8612 31.996ZM16.0758 31.9944L16.0951 31.9949L16.0873 31.9948L16.0758 31.9944ZM16.9127 31.9948L16.9049 31.9949L16.9242 31.9944L16.9127 31.9948ZM16.9641 31.9934L16.9516 31.9938L16.9713 31.9932L16.9641 31.9934ZM16.0287 31.9932L16.0484 31.9938L16.0359 31.9934L16.0287 31.9932ZM15.9837 31.9918L15.9978 31.9923L15.9845 31.9918L15.9724 31.9914L15.9837 31.9918ZM17.0155 31.9918L17.0023 31.9923L17.0163 31.9918L17.0276 31.9914L17.0155 31.9918ZM17.0668 31.9901L17.0598 31.9904L17.0814 31.9896L17.0668 31.9901ZM15.9186 31.9896L15.9402 31.9904L15.9332 31.9901L15.9186 31.9896ZM15.8718 31.9879L15.8944 31.9887L15.8819 31.9883L15.8718 31.9879ZM17.1181 31.9883L17.1056 31.9887L17.1282 31.9879L17.1181 31.9883ZM15.8259 31.986L15.848 31.9869L15.8307 31.9863L15.8259 31.986ZM17.1693 31.9863L17.152 31.9869L17.1741 31.986L17.1693 31.9863ZM15.7615 31.9832L15.7852 31.9843L15.7794 31.9841L15.7615 31.9832ZM17.2206 31.9841L17.2148 31.9843L17.2385 31.9832L17.2206 31.9841ZM15.7153 31.9811L15.7399 31.9822L15.7283 31.9817L15.7153 31.9811ZM17.2717 31.9817L17.2601 31.9822L17.2847 31.9811L17.2717 31.9817ZM15.6698 31.9788L15.6946 31.98L15.6772 31.9792L15.6698 31.9788ZM17.3228 31.9792L17.3054 31.98L17.3302 31.9788L17.3228 31.9792ZM17.3739 31.9765L17.3513 31.9777L17.3714 31.9766L17.395 31.9753L17.3739 31.9765ZM15.6286 31.9766L15.6487 31.9777L15.6261 31.9765L15.605 31.9753L15.6286 31.9766ZM17.4249 31.9736L17.4149 31.9742L17.4403 31.9728L17.4249 31.9736ZM15.5597 31.9728L15.5851 31.9742L15.5751 31.9736L15.5597 31.9728ZM15.5146 31.9701L15.5399 31.9716L15.5241 31.9707L15.5146 31.9701ZM17.4759 31.9707L17.4601 31.9716L17.4854 31.9701L17.4759 31.9707ZM15.4715 31.9674L15.4943 31.9688L15.4731 31.9675L15.4517 31.9661L15.4715 31.9674ZM17.5269 31.9675L17.5057 31.9688L17.5285 31.9674L17.5483 31.9661L17.5269 31.9675ZM17.5778 31.9642L17.5702 31.9647L17.5944 31.9631L17.5778 31.9642ZM15.4056 31.9631L15.4298 31.9647L15.4222 31.9642L15.4056 31.9631ZM15.3606 31.9599L15.3843 31.9616L15.3713 31.9608L15.3606 31.9599ZM17.6287 31.9608L17.6157 31.9616L17.6394 31.9599L17.6287 31.9608ZM15.3156 31.9568L15.3374 31.9583L15.3205 31.9571L15.3156 31.9568ZM17.6795 31.9571L17.6626 31.9583L17.6844 31.9568L17.6795 31.9571ZM15.2552 31.9522L15.2743 31.9536L15.2697 31.9533L15.2552 31.9522ZM17.7303 31.9533L17.7257 31.9536L17.7448 31.9522L17.7303 31.9533ZM17.781 31.9494L17.7719 31.9501L17.7913 31.9485L17.781 31.9494ZM15.2087 31.9485L15.2281 31.9501L15.219 31.9494L15.2087 31.9485ZM15.1634 31.9448L15.1799 31.9462L15.1683 31.9453L15.1634 31.9448ZM17.8318 31.9453L17.8201 31.9462L17.8366 31.9448L17.8318 31.9453ZM15.1135 31.9406L15.1184 31.9411L15.1176 31.941L15.1135 31.9406ZM17.8824 31.941L17.8816 31.9411L17.8865 31.9406L17.8824 31.941ZM17.933 31.9366L17.9285 31.9369L17.9398 31.9359L17.933 31.9366ZM15.0602 31.9359L15.0715 31.9369L15.067 31.9366L15.0602 31.9359ZM15.0133 31.9317L15.0218 31.9325L15.0165 31.932L15.0133 31.9317ZM17.9835 31.932L17.9783 31.9325L17.9867 31.9317L17.9835 31.932ZM14 31.8054C6.35506 30.6038 0.5 23.9803 0.5 16C0.5 7.16938 7.66938 0 16.5 0C25.3306 0 32.5 7.16938 32.5 16C32.5 23.9803 26.6449 30.6038 19 31.8054V20.625H22.7281L23.4375 16H19V12.9987C19 11.7334 19.6199 10.5 21.6074 10.5H23.625V6.5625C23.625 6.5625 21.794 6.25 20.0434 6.25C16.3887 6.25 14 8.465 14 12.475V16H9.9375V20.625H14V31.8054Z" fill="#2E8168"/>
</g>
<defs>
<clipPath id="clip0_185_11058">
<rect width="32" height="32" fill="white" transform="translate(0.5)"/>
</clipPath>
</defs>
</svg>
