<svg width="33" height="32" viewBox="0 0 33 32" fill="none" xmlns="http://www.w3.org/2000/svg">
<g clip-path="url(#clip0_185_11064)">
<path fill-rule="evenodd" clip-rule="evenodd" d="M16.4716 0.166016C25.2008 0.166016 32.2771 7.24239 32.2771 15.9716C32.2771 24.7008 25.2008 31.7771 16.4716 31.7771C7.74239 31.7771 0.666016 24.7008 0.666016 15.9716C0.666016 7.24239 7.74239 0.166016 16.4716 0.166016Z" fill="#2E8168"/>
<path fill-rule="evenodd" clip-rule="evenodd" d="M25.8006 12.4005C25.8189 12.5226 25.8327 12.6447 25.8327 12.7714V20.4641C25.8327 21.043 25.6103 21.5721 25.2491 21.9661L25.2325 21.9905L25.2112 22.0065C25.0441 22.1798 24.8493 22.3249 24.6346 22.4344L24.6188 22.4461L24.5991 22.452C24.4016 22.5481 24.1878 22.6141 23.9636 22.6439L23.95 22.6481H23.9297C23.8505 22.6573 23.7703 22.6622 23.6889 22.6622H23.6259L23.6294 22.6668L20.0495 22.6622H12.8898L9.30996 22.6668L9.31347 22.6622H9.30996C9.22867 22.6622 9.14834 22.6573 9.0692 22.6481H8.98927L8.90096 22.6214C8.77045 22.5952 8.64392 22.5568 8.52275 22.5073L8.32044 22.4461L7.70665 21.9905L7.32644 21.4269L7.27044 21.1384C7.21907 20.9771 7.18556 20.8078 7.17232 20.6329L7.16602 20.6003L7.17016 20.5979C7.16753 20.5536 7.16602 20.509 7.16602 20.4641V12.7713C7.16602 12.6305 7.17974 12.4895 7.20726 12.3533L16.4773 17.7589L18.4666 16.5988L18.4878 16.6249L25.8049 12.3956L25.8004 12.4003L25.8006 12.4005ZM9.30996 9.33358H23.6889C24.7425 9.33358 25.6265 10.1274 25.8006 11.1605L16.4972 16.5379L7.20287 11.1182C7.39529 10.1085 8.27026 9.33824 9.30996 9.33824V9.3335V9.33358Z" fill="white"/>
</g>
<defs>
<clipPath id="clip0_185_11064">
<rect width="32" height="32" fill="white" transform="translate(0.5)"/>
</clipPath>
</defs>
</svg>
