<svg width="33" height="32" viewBox="0 0 33 32" fill="none" xmlns="http://www.w3.org/2000/svg">
<g id="Frame" clip-path="url(#clip0_185_11060)">
<path id="Vector" fill-rule="evenodd" clip-rule="evenodd" d="M16.5 0C25.3306 0 32.5 7.16938 32.5 16C32.5 24.8306 25.3306 32 16.5 32C7.66938 32 0.5 24.8306 0.5 16C0.5 7.16938 7.66938 0 16.5 0ZM11.4977 24.9919V12.4969H7.34369V24.9919H11.4977ZM26.4739 24.9919V17.8266C26.4739 13.9885 24.4248 12.2031 21.6921 12.2031C19.4887 12.2031 18.5017 13.4149 17.9491 14.266V12.4969H13.7961C13.8512 13.6692 13.7961 24.9919 13.7961 24.9919H17.949V18.0138C17.949 17.6403 17.9759 17.2669 18.0859 17C18.3856 16.2541 19.0695 15.4813 20.2169 15.4813C21.719 15.4813 22.3208 16.6276 22.3208 18.3066V24.9919H26.4739ZM9.44875 6.47188C8.0275 6.47188 7.09894 7.40625 7.09894 8.63094C7.09894 9.82981 7.99925 10.7899 9.39375 10.7899H9.42056C10.869 10.7899 11.7706 9.82981 11.7706 8.63094C11.7437 7.40625 10.8691 6.47188 9.44875 6.47188Z" fill="#2E8168"/>
</g>
<defs>
<clipPath id="clip0_185_11060">
<rect width="32" height="32" fill="white" transform="translate(0.5)"/>
</clipPath>
</defs>
</svg>
