<svg width="36" height="36" viewBox="0 0 36 36" fill="none" xmlns="http://www.w3.org/2000/svg">
<path d="M20.1589 23.1404C20.1589 23.5061 20.4557 23.8029 20.8214 23.8029C21.1874 23.8029 21.4839 23.5064 21.4839 23.1407V12.4973C21.4839 12.1316 21.1871 11.8348 20.8214 11.8348C20.4557 11.8348 20.1589 12.1316 20.1589 12.4973V23.1404Z" fill="white" stroke="white" stroke-width="0.2"/>
<path d="M14.5161 23.1404C14.5161 23.5061 14.8129 23.8029 15.1786 23.8029C15.5443 23.8029 15.8411 23.5065 15.8411 23.1407V12.4973C15.8411 12.1316 15.5443 11.8348 15.1786 11.8348C14.8129 11.8348 14.5161 12.1316 14.5161 12.4973V23.1404Z" fill="white" stroke="white" stroke-width="0.2"/>
<path d="M3.80121 18.0107C3.80121 25.8402 10.1705 32.2095 18 32.2095C25.8295 32.2095 32.1988 25.8402 32.1988 18.0107C32.1988 10.1814 25.8295 3.81191 18 3.81191C10.1705 3.81191 3.80121 10.1814 3.80121 18.0107ZM5.12621 18.0107C5.12621 10.912 10.9013 5.13691 18 5.13691C25.0986 5.13691 30.8738 10.912 30.8738 18.0107C30.8738 25.1093 25.0986 30.8845 18 30.8845C10.9013 30.8845 5.12621 25.1093 5.12621 18.0107Z" fill="white" stroke="white" stroke-width="0.2"/>
</svg>
