<svg width="36" height="36" viewBox="0 0 36 36" fill="none" xmlns="http://www.w3.org/2000/svg">
<path d="M3.80121 18.0107C3.80121 25.8402 10.1705 32.2095 18 32.2095C25.8295 32.2095 32.1988 25.8402 32.1988 18.0107C32.1988 10.1814 25.8295 3.81191 18 3.81191C10.1705 3.81191 3.80121 10.1814 3.80121 18.0107ZM5.12621 18.0107C5.12621 10.912 10.9013 5.13691 18 5.13691C25.0986 5.13691 30.8738 10.912 30.8738 18.0107C30.8738 25.1093 25.0986 30.8845 18 30.8845C10.9013 30.8845 5.12621 25.1093 5.12621 18.0107Z" fill="white" stroke="white" stroke-width="0.2"/>
<path d="M24.3187 17.3271C24.634 17.5226 24.634 17.9814 24.3187 18.177L15.6398 23.5589C15.3067 23.7655 14.8763 23.5259 14.8763 23.134L14.8763 12.3701C14.8763 11.9782 15.3067 11.7386 15.6398 11.9452L24.3187 17.3271Z" fill="white"/>
</svg>
