<svg width="33" height="32" viewBox="0 0 33 32" fill="none" xmlns="http://www.w3.org/2000/svg">
<g id="Frame" clip-path="url(#clip0_185_11062)">
<path id="Vector" fill-rule="evenodd" clip-rule="evenodd" d="M16.5 0C25.3306 0 32.5 7.16938 32.5 16C32.5 24.8306 25.3306 32 16.5 32C7.66938 32 0.5 24.8306 0.5 16C0.5 7.16938 7.66938 0 16.5 0ZM26.0822 11.1861C25.8522 10.3256 25.1746 9.648 24.3141 9.418C22.7542 9 16.5 9 16.5 9C16.5 9 10.2458 9 8.68594 9.418C7.82563 9.648 7.14781 10.3256 6.91781 11.1861C6.5 12.7458 6.5 16.0001 6.5 16.0001C6.5 16.0001 6.5 19.2543 6.91781 20.8139C7.14781 21.6744 7.82563 22.3523 8.68594 22.5822C10.2458 23 16.5 23 16.5 23C16.5 23 22.7542 23 24.3141 22.5822C25.1746 22.3523 25.8522 21.6744 26.0822 20.8139C26.5 19.2543 26.5 16.0001 26.5 16.0001C26.5 16.0001 26.5 12.7458 26.0822 11.1861ZM14.4999 19.0002V13.0001L19.696 16.0001L14.4999 19.0002Z" fill="#2E8168"/>
</g>
<defs>
<clipPath id="clip0_185_11062">
<rect width="32" height="32" fill="white" transform="translate(0.5)"/>
</clipPath>
</defs>
</svg>
