<svg width="158" height="158" viewBox="0 0 158 158" fill="none" xmlns="http://www.w3.org/2000/svg">
<g clip-path="url(#clip0_40_445)">
<path d="M0 158L158 158L158 -1.52588e-05L0 -1.52588e-05L0 158Z" fill="#A6C780"/>
<path d="M12.0007 66.6965H65.9795V12.7177L12.0007 12.7177L12.0007 66.6965Z" fill="#282828"/>
<path d="M24.7025 49.1341C23.5232 48.5922 22.4714 47.6997 21.5151 46.4566L22.5829 45.5164C23.4276 46.6638 24.336 47.4766 25.2922 47.9388C26.2484 48.4169 27.4915 48.656 29.0056 48.656C30.9818 48.656 32.5117 48.2575 33.6114 47.4766C34.711 46.6957 35.2529 45.596 35.2529 44.1936C35.2529 43.3489 35.0457 42.6636 34.6473 42.1536C34.2488 41.6437 33.5476 41.1974 32.5595 40.8149C31.5714 40.4484 30.1371 40.0818 28.2406 39.7153C26.1369 39.3009 24.591 38.6475 23.6188 37.7709C22.6467 36.8944 22.1686 35.6991 22.1686 34.1692C22.1686 33.0376 22.4554 32.0655 23.0292 31.2049C23.6029 30.3602 24.4157 29.7068 25.4835 29.2446C26.5512 28.7984 27.7784 28.5593 29.1809 28.5593C30.8224 28.5593 32.2248 28.8303 33.4042 29.3881C34.5835 29.9459 35.4919 30.7586 36.1454 31.8424L35.0457 32.703C34.472 31.7786 33.691 31.0614 32.687 30.5674C31.683 30.0733 30.5196 29.8343 29.149 29.8343C27.5234 29.8343 26.2166 30.2327 25.2125 31.0136C24.2085 31.8105 23.6985 32.8464 23.6985 34.1214C23.6985 35.2688 24.1448 36.1772 25.0213 36.8625C25.8978 37.5478 27.3322 38.0738 29.2924 38.4403C31.2208 38.8228 32.7189 39.2372 33.7867 39.6993C34.8545 40.1615 35.6194 40.7512 36.0816 41.4524C36.5438 42.1536 36.7828 43.062 36.7828 44.1617C36.7828 46.0104 36.1135 47.4447 34.7907 48.4328C33.4679 49.4209 31.5555 49.9309 29.0693 49.9309C27.3322 49.9309 25.8819 49.66 24.7025 49.1181V49.1341Z" fill="#A6C780"/>
<path d="M40.5598 28.9097H47.8112C49.9467 28.9097 51.6361 29.2444 52.8792 29.9138C54.1382 30.5831 55.0466 31.6668 55.6044 33.1649C56.1622 34.663 56.4491 36.703 56.4491 39.2688C56.4491 41.8347 56.1622 43.8587 55.6044 45.3568C55.0466 46.8549 54.1382 47.9386 52.8951 48.6079C51.652 49.2773 49.9627 49.612 47.8112 49.612H40.5598V28.8938V28.9097ZM47.7952 48.353C49.5483 48.353 50.9348 48.0501 51.9707 47.4605C53.0067 46.8708 53.7398 45.9146 54.2019 44.6077C54.6641 43.3009 54.9032 41.516 54.9032 39.2688C54.9032 37.0217 54.6641 35.2686 54.2019 33.9458C53.7398 32.6231 52.9907 31.6668 51.9707 31.0772C50.9508 30.4875 49.5483 30.1847 47.7952 30.1847H42.0898V48.353H47.7952Z" fill="#A6C780"/>
<path d="M16.5746 120.134C15.9212 119.926 15.3474 119.64 14.8853 119.257C14.4231 118.875 13.945 118.365 13.4509 117.727L15.1084 116.341C15.6662 117.122 16.2399 117.679 16.8136 118.014C17.3874 118.349 18.1045 118.508 18.9652 118.508C20.1286 118.508 20.9892 118.317 21.547 117.95C22.1048 117.584 22.3916 117.01 22.3916 116.229C22.3916 115.799 22.2641 115.448 22.0251 115.177C21.786 114.906 21.3557 114.667 20.766 114.476C20.1604 114.269 19.268 114.046 18.0886 113.807C16.734 113.536 15.7299 113.042 15.0606 112.356C14.3912 111.671 14.0725 110.747 14.0725 109.599C14.0725 108.755 14.2797 108.021 14.71 107.4C15.1403 106.778 15.7459 106.284 16.5268 105.95C17.3077 105.615 18.232 105.44 19.2998 105.44C20.5907 105.44 21.6585 105.647 22.4872 106.045C23.316 106.444 23.9694 107.033 24.4475 107.83L22.8379 109.153C22.296 108.531 21.7701 108.085 21.2601 107.798C20.7342 107.512 20.0967 107.368 19.2998 107.368C18.4233 107.368 17.738 107.559 17.2439 107.958C16.7658 108.356 16.5108 108.914 16.5108 109.631C16.5108 110.285 16.7818 110.779 17.3236 111.113C17.8655 111.448 18.6145 111.719 19.5548 111.926C20.782 112.181 21.7701 112.452 22.5032 112.739C23.2363 113.026 23.81 113.456 24.2244 114.014C24.6387 114.572 24.8459 115.305 24.8459 116.229C24.8459 119.034 22.8857 120.436 18.9811 120.436C18.0249 120.436 17.228 120.341 16.5746 120.134Z" fill="#282828"/>
<path d="M29.5473 112.213V116.819C29.5473 117.408 29.6429 117.839 29.8501 118.11C30.0573 118.365 30.392 118.508 30.8701 118.508H32.3682V120.245H30.8701C29.5792 120.245 28.6548 119.99 28.097 119.464C27.5552 118.938 27.2843 118.062 27.2843 116.819V108.691C27.2843 108.356 27.2205 108.085 27.093 107.878C26.9655 107.671 26.7424 107.432 26.4077 107.177L27.9217 105.854C28.5273 106.173 28.9576 106.539 29.1808 106.938C29.4198 107.352 29.5314 107.91 29.5314 108.643V110.444H32.3522V112.197H29.5314L29.5473 112.213Z" fill="#282828"/>
<path d="M41.7073 110.715L41.1335 112.627C40.8785 112.468 40.6395 112.34 40.3845 112.261C40.1295 112.181 39.8426 112.149 39.508 112.149C38.4242 112.149 37.6752 112.946 37.229 114.54V120.197H34.9659V113.057C34.9659 112.723 34.9021 112.452 34.7746 112.245C34.6472 112.038 34.424 111.798 34.0894 111.543L35.6034 110.221C36.0815 110.476 36.448 110.747 36.6871 111.033C36.9262 111.336 37.0855 111.703 37.1493 112.149C37.4361 111.559 37.8186 111.081 38.3127 110.747C38.8067 110.412 39.3645 110.221 40.0339 110.221C40.7032 110.221 41.2292 110.396 41.7073 110.747V110.715Z" fill="#282828"/>
<path d="M51.7636 118.412C51.8911 118.62 52.1142 118.859 52.4489 119.114L50.9349 120.436C50.154 120.054 49.6759 119.544 49.4687 118.907C49.15 119.353 48.7197 119.719 48.1619 120.006C47.6041 120.293 46.9506 120.436 46.1857 120.436C45.1976 120.436 44.4007 120.182 43.827 119.687C43.2532 119.177 42.9504 118.46 42.9504 117.536C42.9504 116.468 43.317 115.719 44.0501 115.273C44.7832 114.827 45.7075 114.54 46.8391 114.428L48.0344 114.301C48.4806 114.253 48.7834 114.173 48.9746 114.062C49.1659 113.95 49.2615 113.775 49.2934 113.536C49.2137 112.372 48.5125 111.799 47.2056 111.799C46.6956 111.799 46.2494 111.878 45.8829 112.054C45.5163 112.229 45.1657 112.516 44.831 112.914L43.2851 111.815C43.6517 111.305 44.1617 110.906 44.7832 110.619C45.4047 110.332 46.2175 110.189 47.2056 110.189C48.6559 110.189 49.7396 110.492 50.4727 111.097C51.2058 111.703 51.5564 112.58 51.5564 113.711V117.584C51.5564 117.918 51.6202 118.189 51.7477 118.397L51.7636 118.412ZM48.624 118.173C49.0862 117.775 49.3093 117.265 49.3093 116.659V115.544C49.0384 115.655 48.5922 115.751 47.9387 115.815L47.0144 115.91C45.7394 116.054 45.1019 116.548 45.1019 117.424C45.1019 117.871 45.2454 118.205 45.5322 118.428C45.8191 118.652 46.2175 118.763 46.7435 118.763C47.5403 118.763 48.1778 118.556 48.624 118.157V118.173Z" fill="#282828"/>
<path d="M56.5925 112.213V116.819C56.5925 117.408 56.6881 117.839 56.8953 118.11C57.1025 118.365 57.4371 118.508 57.9153 118.508H59.4133V120.245H57.9153C56.6244 120.245 55.7 119.99 55.1422 119.464C54.6003 118.938 54.3294 118.062 54.3294 116.819V108.691C54.3294 108.356 54.2657 108.085 54.1382 107.878C54.0107 107.671 53.7876 107.432 53.4529 107.177L54.9669 105.854C55.5725 106.173 56.0028 106.539 56.2259 106.938C56.465 107.352 56.5765 107.91 56.5765 108.643V110.444H59.3974V112.197H56.5765L56.5925 112.213Z" fill="#282828"/>
<path d="M66.9995 118.476C67.3661 118.333 67.7326 118.078 68.1151 117.727L69.4698 118.97C69.0554 119.448 68.5295 119.815 67.9079 120.07C67.2864 120.325 66.5214 120.436 65.613 120.436C64.1149 120.436 63.0152 120.134 62.2981 119.512C61.5809 118.89 61.2144 117.95 61.2144 116.691V113.663C61.2144 112.595 61.5968 111.767 62.3459 111.145C63.0949 110.523 64.1308 110.221 65.4377 110.221C66.7445 110.221 67.8282 110.555 68.5613 111.209C69.3104 111.862 69.6769 112.803 69.6769 114.03C69.6769 114.603 69.6291 115.034 69.5176 115.352C69.406 115.671 69.2148 115.894 68.912 116.054C68.6251 116.197 68.1948 116.277 67.6211 116.277H63.4296V116.691C63.4296 118.03 64.1627 118.699 65.6289 118.699C66.1708 118.699 66.617 118.62 66.9836 118.476H66.9995ZM63.9715 112.468C63.6209 112.818 63.4455 113.265 63.4455 113.838V114.731H66.4098C66.7923 114.731 67.0633 114.667 67.2226 114.54C67.382 114.412 67.4457 114.173 67.4457 113.838C67.4457 113.233 67.2704 112.771 66.9198 112.436C66.5692 112.117 66.0592 111.942 65.4217 111.942C64.8161 111.942 64.338 112.117 63.9874 112.452L63.9715 112.468Z" fill="#282828"/>
<path d="M81.9963 111.528C81.6616 111.799 81.4385 112.022 81.311 112.229C81.1835 112.436 81.1197 112.707 81.1197 113.042V120.628C81.1197 121.919 80.7691 122.859 80.0679 123.449C79.3667 124.038 78.267 124.341 76.7371 124.341H74.0915V122.604H76.7371C77.4542 122.604 77.9801 122.444 78.3308 122.126C78.6814 121.807 78.8567 121.313 78.8567 120.628V118.811C78.5379 119.273 78.1395 119.608 77.6614 119.847C77.1833 120.086 76.5617 120.197 75.7968 120.197C74.5059 120.197 73.47 119.767 72.689 118.906C71.9081 118.046 71.5256 116.882 71.5256 115.416V115.002C71.5256 114.109 71.685 113.297 72.0197 112.564C72.3384 111.83 72.8325 111.273 73.47 110.842C74.1074 110.428 74.8884 110.205 75.7808 110.205C77.1992 110.205 78.2829 110.763 79.032 111.862C79.1117 111.496 79.271 111.193 79.4942 110.938C79.7173 110.683 80.052 110.444 80.4982 110.205L81.9963 111.528ZM78.8567 116.58V113.823C78.4742 112.579 77.6455 111.958 76.3705 111.958C75.5577 111.958 74.9202 112.245 74.4581 112.819C73.9959 113.392 73.7728 114.109 73.7728 114.986V115.4C73.7728 116.277 73.9959 116.994 74.4581 117.568C74.9202 118.141 75.5418 118.428 76.3705 118.428C77.6455 118.428 78.4742 117.807 78.8567 116.58Z" fill="#282828"/>
<path d="M84.355 108.452C84.084 108.181 83.9565 107.862 83.9565 107.495C83.9565 107.129 84.084 106.826 84.355 106.555C84.6259 106.284 84.9446 106.157 85.3112 106.157C85.6777 106.157 85.9805 106.284 86.2515 106.555C86.5224 106.826 86.6499 107.145 86.6499 107.495C86.6499 107.846 86.5224 108.197 86.2515 108.452C85.9805 108.723 85.6618 108.85 85.3112 108.85C84.9606 108.85 84.61 108.723 84.355 108.452ZM84.5462 119.337C84.3072 118.922 84.1797 118.349 84.1797 117.631V110.444H86.4427V117.584C86.4427 117.918 86.5065 118.189 86.634 118.396C86.7615 118.604 86.9846 118.843 87.3193 119.098L85.8212 120.42C85.2156 120.102 84.7853 119.735 84.5462 119.321V119.337Z" fill="#282828"/>
<path d="M90.1559 119.464C89.391 118.811 89.0244 117.886 89.0244 116.675V113.982C89.0244 112.787 89.4069 111.846 90.1719 111.193C90.9369 110.54 92.0206 110.205 93.4071 110.205C95.1283 110.205 96.4033 110.747 97.2001 111.846L95.6542 113.105C95.3036 112.691 94.9689 112.404 94.6502 112.229C94.3315 112.054 93.9171 111.974 93.423 111.974C92.7537 111.974 92.2278 112.149 91.8453 112.5C91.4787 112.85 91.2875 113.344 91.2875 113.982V116.675C91.2875 117.329 91.4628 117.823 91.8293 118.173C92.1959 118.524 92.7218 118.683 93.4071 118.683C93.9171 118.683 94.3474 118.604 94.6821 118.428C95.0167 118.253 95.3514 117.966 95.6702 117.568L97.2161 118.827C96.8176 119.369 96.3076 119.767 95.702 120.038C95.0964 120.309 94.3315 120.436 93.4071 120.436C92.0046 120.436 90.9209 120.118 90.1559 119.464Z" fill="#282828"/>
<path d="M14.4868 128.006H19.8098C21.4035 128.006 22.6625 128.246 23.5869 128.708C24.5112 129.17 25.1806 129.935 25.5949 130.971C26.0093 132.007 26.2165 133.441 26.2165 135.242C26.2165 137.043 26.0093 138.477 25.5949 139.513C25.1806 140.549 24.5112 141.314 23.5869 141.776C22.6625 142.238 21.4035 142.477 19.8098 142.477H14.4868V127.975V128.006ZM19.8257 140.581C20.8138 140.581 21.5788 140.406 22.1525 140.055C22.7263 139.704 23.1406 139.146 23.3956 138.382C23.6506 137.617 23.7781 136.565 23.7781 135.242C23.7781 133.919 23.6506 132.867 23.3956 132.102C23.1406 131.337 22.7263 130.78 22.1525 130.429C21.5788 130.078 20.7979 129.903 19.8257 129.903H16.9411V140.549H19.8257V140.581Z" fill="#282828"/>
<path d="M34.2009 140.788C34.5675 140.645 34.934 140.39 35.3165 140.039L36.6712 141.282C36.2568 141.76 35.7309 142.127 35.1093 142.382C34.4878 142.637 33.7228 142.748 32.8144 142.748C31.3163 142.748 30.2167 142.446 29.4995 141.824C28.7823 141.202 28.4158 140.262 28.4158 139.003V135.975C28.4158 134.907 28.7983 134.079 29.5473 133.457C30.2963 132.836 31.3323 132.533 32.6391 132.533C33.9459 132.533 35.0297 132.867 35.7628 133.521C36.5118 134.174 36.8783 135.115 36.8783 136.358C36.8783 136.931 36.8305 137.362 36.719 137.68C36.6074 137.999 36.4162 138.222 36.1134 138.382C35.8265 138.525 35.3962 138.605 34.8225 138.605H30.631V139.019C30.631 140.358 31.3641 141.027 32.8303 141.027C33.3722 141.027 33.8184 140.947 34.185 140.804L34.2009 140.788ZM31.1729 134.78C30.8223 135.13 30.647 135.577 30.647 136.15V137.043H33.6113C33.9937 137.043 34.2647 136.979 34.424 136.852C34.5834 136.724 34.6472 136.485 34.6472 136.15C34.6472 135.545 34.4719 135.083 34.1212 134.748C33.7706 134.429 33.2606 134.254 32.6232 134.254C32.0175 134.254 31.5394 134.429 31.1888 134.78H31.1729Z" fill="#282828"/>
<path d="M41.3727 142.238C40.9902 141.903 40.6714 141.33 40.4483 140.549L38.0259 132.756H40.2252L42.5042 140.342C42.5839 140.597 42.6476 140.772 42.6954 140.868C42.7432 140.947 42.8229 140.995 42.9345 140.995C43.0301 140.995 43.1098 140.947 43.1735 140.868C43.2373 140.788 43.301 140.613 43.3648 140.358L45.6279 132.772H47.8112L45.4207 140.565C45.1816 141.346 44.8788 141.919 44.4963 142.254C44.1138 142.589 43.5879 142.764 42.9345 142.764C42.2811 142.764 41.7711 142.589 41.3727 142.254V142.238Z" fill="#282828"/>
<path d="M54.8872 140.788C55.2538 140.645 55.6203 140.39 56.0028 140.039L57.3575 141.282C56.9431 141.76 56.4172 142.127 55.7956 142.382C55.1741 142.637 54.4091 142.748 53.5007 142.748C52.0026 142.748 50.9029 142.446 50.1858 141.824C49.4686 141.202 49.1021 140.262 49.1021 139.003V135.975C49.1021 134.907 49.4845 134.079 50.2336 133.457C50.9826 132.836 52.0185 132.533 53.3254 132.533C54.6322 132.533 55.7159 132.867 56.449 133.521C57.1981 134.174 57.5646 135.115 57.5646 136.358C57.5646 136.931 57.5168 137.362 57.4053 137.68C57.2937 137.999 57.1025 138.222 56.7996 138.382C56.5128 138.525 56.0825 138.605 55.5088 138.605H51.3173V139.019C51.3173 140.358 52.0504 141.027 53.5166 141.027C54.0585 141.027 54.5047 140.947 54.8713 140.804L54.8872 140.788ZM51.8592 134.78C51.5085 135.13 51.3332 135.577 51.3332 136.15V137.043H54.2975C54.68 137.043 54.951 136.979 55.1103 136.852C55.2697 136.724 55.3334 136.485 55.3334 136.15C55.3334 135.545 55.1581 135.083 54.8075 134.748C54.4569 134.429 53.9469 134.254 53.3094 134.254C52.7038 134.254 52.2257 134.429 51.8751 134.78H51.8592Z" fill="#282828"/>
<path d="M60.1147 141.649C59.8756 141.234 59.7481 140.661 59.7481 139.943V129.951C59.7481 129.6 59.6844 129.329 59.5569 129.122C59.4294 128.915 59.2063 128.692 58.8716 128.437L60.3856 127.114C60.9912 127.433 61.4215 127.799 61.6446 128.198C61.8837 128.596 61.9953 129.17 61.9953 129.903V139.896C61.9953 140.23 62.059 140.501 62.1865 140.708C62.314 140.916 62.553 141.155 62.8877 141.41L61.3737 142.732C60.7681 142.414 60.3378 142.047 60.0987 141.633L60.1147 141.649Z" fill="#282828"/>
<path d="M65.6926 141.76C64.9277 141.091 64.5452 140.166 64.5452 138.939V136.326C64.5452 135.114 64.9277 134.174 65.6926 133.505C66.4576 132.835 67.5254 132.517 68.896 132.517C70.2666 132.517 71.3662 132.851 72.1312 133.505C72.8962 134.174 73.2627 135.098 73.2627 136.326V138.939C73.2627 140.15 72.8802 141.091 72.1312 141.76C71.3662 142.429 70.2984 142.748 68.896 142.748C67.4935 142.748 66.4417 142.414 65.6926 141.76ZM70.4738 140.453C70.8403 140.103 71.0156 139.593 71.0156 138.923V136.31C71.0156 135.64 70.8244 135.146 70.4738 134.78C70.1231 134.413 69.5813 134.254 68.9119 134.254C68.2426 134.254 67.7326 134.429 67.366 134.78C66.9995 135.13 66.8242 135.64 66.8242 136.31V138.923C66.8242 139.593 66.9995 140.087 67.366 140.453C67.7326 140.804 68.2426 140.979 68.9119 140.979C69.5813 140.979 70.1072 140.804 70.4738 140.453Z" fill="#282828"/>
<path d="M83.4784 133.17C84.1159 133.6 84.594 134.19 84.9127 134.907C85.2314 135.624 85.3908 136.437 85.3908 137.298V137.967C85.3908 138.844 85.2314 139.64 84.9127 140.358C84.594 141.091 84.1159 141.664 83.4784 142.095C82.8409 142.525 82.0759 142.748 81.1516 142.748C80.3547 142.748 79.7172 142.621 79.2391 142.382C78.761 142.143 78.3626 141.792 78.0438 141.362V147.035H75.7808V135.353C75.7808 135.019 75.717 134.748 75.5895 134.541C75.462 134.333 75.2389 134.094 74.9202 133.839L76.4342 132.517C76.8645 132.74 77.1992 132.979 77.4223 133.25C77.6454 133.521 77.8207 133.839 77.9004 134.19C78.6176 133.074 79.7013 132.517 81.1516 132.517C82.06 132.517 82.8409 132.74 83.4784 133.17ZM83.1118 137.298C83.1118 136.421 82.8887 135.704 82.4265 135.13C81.9644 134.557 81.3428 134.27 80.5141 134.27C79.2391 134.27 78.4104 134.891 78.0279 136.15V139.099C78.4104 140.358 79.2391 140.979 80.5141 140.979C81.3269 140.979 81.9644 140.692 82.4265 140.119C82.8887 139.545 83.1118 138.828 83.1118 137.951V137.282V137.298Z" fill="#282828"/>
<path d="M100.882 133.393C101.407 133.983 101.678 134.812 101.678 135.864V142.493H99.4154V136.087C99.4154 135.513 99.2879 135.083 99.0329 134.748C98.7779 134.429 98.4273 134.254 97.9651 134.254C97.4232 134.254 96.977 134.445 96.6104 134.828C96.2439 135.21 95.973 135.72 95.7977 136.342V142.477H93.5346V136.071C93.5346 135.497 93.4071 135.067 93.168 134.732C92.913 134.413 92.5624 134.238 92.1162 134.238C91.5743 134.238 91.1281 134.429 90.7456 134.812C90.3791 135.194 90.1081 135.704 89.9328 136.326V142.461H87.6697V135.322C87.6697 134.987 87.606 134.716 87.4785 134.509C87.351 134.302 87.1279 134.063 86.7932 133.808L88.3072 132.485C89.12 132.883 89.6141 133.457 89.8053 134.19C90.4906 133.059 91.4787 132.485 92.7696 132.485C93.4868 132.485 94.0924 132.644 94.5705 132.979C95.0486 133.314 95.3833 133.792 95.5586 134.429C95.8136 133.84 96.1961 133.361 96.722 133.011C97.2479 132.66 97.8854 132.485 98.6344 132.485C99.6066 132.485 100.356 132.772 100.882 133.361V133.393Z" fill="#282828"/>
<path d="M109.791 140.788C110.157 140.645 110.524 140.39 110.906 140.039L112.245 141.282C111.83 141.76 111.32 142.127 110.699 142.382C110.077 142.637 109.312 142.748 108.404 142.748C106.906 142.748 105.806 142.446 105.089 141.824C104.372 141.202 104.005 140.262 104.005 139.003V135.975C104.005 134.907 104.388 134.079 105.137 133.457C105.886 132.836 106.922 132.533 108.229 132.533C109.536 132.533 110.619 132.867 111.352 133.521C112.101 134.174 112.468 135.115 112.468 136.358C112.468 136.931 112.42 137.362 112.309 137.68C112.197 137.999 112.006 138.222 111.703 138.382C111.416 138.525 110.986 138.605 110.412 138.605H106.221V139.019C106.221 140.358 106.954 141.027 108.42 141.027C108.962 141.027 109.408 140.947 109.775 140.804L109.791 140.788ZM106.762 134.78C106.412 135.13 106.237 135.577 106.237 136.15V137.043H109.201C109.583 137.043 109.854 136.979 110.014 136.852C110.157 136.724 110.237 136.485 110.237 136.15C110.237 135.545 110.061 135.083 109.711 134.748C109.36 134.413 108.85 134.254 108.213 134.254C107.607 134.254 107.129 134.429 106.778 134.78H106.762Z" fill="#282828"/>
<path d="M122.492 133.393C123.05 133.983 123.337 134.812 123.337 135.864V142.493H121.074V136.087C121.074 135.513 120.93 135.083 120.644 134.748C120.357 134.429 119.958 134.254 119.448 134.254C118.859 134.254 118.365 134.445 117.982 134.828C117.6 135.21 117.297 135.704 117.09 136.326V142.477H114.826V135.338C114.826 135.003 114.763 134.732 114.635 134.525C114.508 134.318 114.285 134.079 113.95 133.824L115.464 132.501C115.91 132.74 116.245 132.995 116.484 133.25C116.723 133.505 116.882 133.84 116.978 134.206C117.265 133.68 117.679 133.266 118.205 132.947C118.731 132.644 119.353 132.485 120.07 132.485C121.122 132.485 121.918 132.772 122.476 133.361L122.492 133.393Z" fill="#282828"/>
<path d="M128.118 134.525V139.13C128.118 139.72 128.23 140.15 128.437 140.421C128.644 140.676 128.979 140.82 129.457 140.82H130.955V142.557H129.457C128.166 142.557 127.242 142.302 126.684 141.776C126.142 141.25 125.871 140.374 125.871 139.13V131.003C125.871 130.668 125.807 130.397 125.68 130.19C125.552 129.983 125.329 129.744 124.994 129.489L126.508 128.166C127.114 128.485 127.544 128.851 127.767 129.249C128.006 129.664 128.118 130.222 128.118 130.955V132.756H130.939V134.509H128.118V134.525Z" fill="#282828"/>
</g>
<defs>
<clipPath id="clip0_40_445">
<rect width="158" height="158" fill="white"/>
</clipPath>
</defs>
</svg>
