<svg width="158" height="158" viewBox="0 0 158 158" fill="none" xmlns="http://www.w3.org/2000/svg">
<g clip-path="url(#clip0_40_411)">
<path d="M0 158.25L158 158.25L158 0.25L0 0.25L0 158.25Z" fill="#282828"/>
<path d="M75.3665 107.942H70.6013L66.3461 91.6222C65.5333 88.5622 64.593 86.1876 63.5252 84.5142C62.4574 82.8408 60.9434 81.5977 58.9672 80.785C57.007 79.9722 54.3136 79.5737 50.9031 79.5737H35.3644V107.942H30.8542V47.2056H57.3257C61.8996 47.2056 65.7245 48.5443 68.8163 51.2376C71.9081 53.931 73.454 57.8993 73.454 63.1745C73.454 67.4616 72.3703 70.904 70.2028 73.5017C68.0354 76.0995 65.1189 77.6932 61.4853 78.2828C64.083 79.2072 66.0911 80.7053 67.4776 82.793C68.8641 84.8808 70.0754 87.8291 71.1272 91.6381L75.3824 107.958L75.3665 107.942ZM56.2739 75.8285C60.1466 75.8285 63.2224 74.7607 65.5174 72.6252C67.7964 70.4896 68.9438 67.4138 68.9438 63.4295C68.9438 59.4452 67.8123 56.21 65.5652 54.1063C63.3021 52.0026 60.2103 50.9348 56.2739 50.9348H35.3644V75.8445H56.2739V75.8285Z" fill="#74C2CA"/>
<path d="M120.054 86.857H91.5903L84.9924 107.942H80.4822L96.4511 56.4809C97.6145 52.656 98.8735 50.0105 100.276 48.4965C101.663 46.9984 103.511 46.2334 105.822 46.2334C108.133 46.2334 109.982 46.9824 111.368 48.4965C112.755 49.9945 114.03 52.656 115.193 56.4809L131.162 107.942H126.556L120.054 86.857ZM118.938 83.2074L110.603 56.4809C109.854 54.2179 109.137 52.656 108.484 51.7954C107.814 50.9348 106.938 50.4886 105.838 50.4886C104.738 50.4886 103.862 50.903 103.192 51.7476C102.523 52.5923 101.822 54.1701 101.073 56.4809L92.7378 83.2074H118.938Z" fill="#74C2CA"/>
</g>
<defs>
<clipPath id="clip0_40_411">
<rect width="158" height="158" fill="white"/>
</clipPath>
</defs>
</svg>
