<svg width="158" height="158" viewBox="0 0 158 158" fill="none" xmlns="http://www.w3.org/2000/svg">
<g clip-path="url(#clip0_40_495)">
<path d="M0 158L158 158L158 -1.52588e-05L0 -1.52588e-05L0 158Z" fill="#E5CB60"/>
<path d="M12.0007 66.6965H65.9795V12.7177L12.0007 12.7177L12.0007 66.6965Z" fill="#282828"/>
<path d="M25.595 48.0025C24.1766 46.7116 23.4753 44.847 23.4753 42.3927V36.0816C23.4753 33.6592 24.1606 31.7945 25.5312 30.5036C26.9018 29.2127 28.8621 28.5593 31.4279 28.5593C33.1013 28.5593 34.5516 28.8143 35.7628 29.3402C36.974 29.8662 37.994 30.663 38.7909 31.7467L37.6912 32.5755C36.974 31.6511 36.1134 30.9499 35.1094 30.5036C34.0894 30.0415 32.8782 29.8184 31.4917 29.8184C29.3721 29.8184 27.7783 30.3443 26.6628 31.4121C25.5631 32.4798 25.0053 34.0257 25.0053 36.0657V42.3768C25.0053 44.4167 25.579 45.9626 26.7265 47.0304C27.874 48.0982 29.5314 48.6241 31.6989 48.6241C33.1332 48.6241 34.3604 48.401 35.3803 47.9388C36.4003 47.4926 37.2609 46.7754 37.9621 45.8032L39.0299 46.6957C38.1693 47.8272 37.1493 48.64 35.9859 49.15C34.8225 49.66 33.3882 49.915 31.6989 49.915C29.0374 49.915 26.9974 49.2616 25.595 47.9707V48.0025Z" fill="#E5CB60"/>
<path d="M43.0938 48.1139C42.0101 47.1099 41.4683 45.564 41.4683 43.4921V34.9977C41.4683 32.9259 42.0101 31.3959 43.0938 30.3919C44.1776 29.3878 45.851 28.8938 48.0981 28.8938H55.2857V30.1688H48.0981C46.345 30.1688 45.0541 30.5513 44.2413 31.3322C43.4285 32.1131 43.0142 33.3243 43.0142 34.9818V38.5835H53.7239V39.8585H43.0142V43.4603C43.0142 45.1177 43.4285 46.3449 44.2572 47.1258C45.086 47.9226 46.3609 48.3051 48.0981 48.3051H55.4929V49.5801H48.0981C45.851 49.5801 44.1776 49.0701 43.0938 48.0661V48.1139Z" fill="#E5CB60"/>
<path d="M14.8215 96.4829C13.8015 95.5905 13.2915 94.2677 13.2915 92.5465V88.116C13.2915 86.3948 13.8015 85.072 14.8055 84.1795C15.8096 83.2871 17.2758 82.8408 19.1723 82.8408C20.4791 82.8408 21.5628 83.048 22.4234 83.4783C23.284 83.9086 23.9693 84.562 24.4953 85.4226L22.7581 86.6498C22.3119 85.9804 21.8338 85.5023 21.2919 85.2154C20.766 84.9126 20.0648 84.7692 19.1882 84.7692C16.8773 84.7692 15.7299 85.8848 15.7299 88.1319V92.5624C15.7299 94.7936 16.8933 95.9251 19.236 95.9251C20.1604 95.9251 20.9094 95.7658 21.4672 95.447C22.0409 95.1283 22.5191 94.6342 22.9334 93.949L24.6706 95.2399C24.0171 96.1483 23.284 96.8176 22.4713 97.232C21.6585 97.6463 20.5747 97.8535 19.236 97.8535C17.3076 97.8535 15.8255 97.4073 14.8055 96.5148L14.8215 96.4829Z" fill="#282828"/>
<path d="M35.3484 95.7975C35.4758 96.0047 35.699 96.2437 36.0336 96.4987L34.5196 97.8215C33.7387 97.439 33.2606 96.929 33.0534 96.2915C32.7347 96.7378 32.3044 97.1043 31.7466 97.3912C31.1888 97.6781 30.5354 97.8215 29.7704 97.8215C28.7823 97.8215 27.9854 97.5665 27.4117 97.0725C26.838 96.5625 26.5352 95.8453 26.5352 94.921C26.5352 93.8532 26.9017 93.1041 27.6348 92.6579C28.3679 92.2117 29.2923 91.9248 30.4238 91.8132L31.6191 91.6857C32.0653 91.6379 32.3681 91.5582 32.5594 91.4467C32.7506 91.3351 32.8462 91.1598 32.8781 90.9208C32.7984 89.7573 32.0972 89.1836 30.7904 89.1836C30.2804 89.1836 29.8341 89.2633 29.4676 89.4386C29.101 89.6139 28.7504 89.9008 28.4157 90.2992L26.8698 89.1996C27.2364 88.6896 27.7464 88.2911 28.3679 88.0043C28.9895 87.7174 29.8023 87.574 30.7904 87.574C32.2406 87.574 33.3243 87.8768 34.0575 88.4824C34.7906 89.088 35.1412 89.9645 35.1412 91.0961V94.9688C35.1412 95.3034 35.2049 95.5744 35.3324 95.7816L35.3484 95.7975ZM32.2247 95.5744C32.6869 95.176 32.91 94.666 32.91 94.0604V92.9448C32.6391 93.0563 32.1928 93.1519 31.5394 93.2157L30.615 93.3113C29.3401 93.4547 28.7026 93.9488 28.7026 94.8253C28.7026 95.2716 28.846 95.6063 29.1329 95.8294C29.4198 96.0525 29.8182 96.164 30.3441 96.164C31.141 96.164 31.7784 95.9569 32.2247 95.5584V95.5744Z" fill="#282828"/>
<path d="M51.3491 88.4665C51.875 89.0562 52.146 89.8849 52.146 90.9368V97.5666H49.8829V91.1599C49.8829 90.6021 49.7554 90.1558 49.5004 89.8212C49.2454 89.4865 48.8948 89.3271 48.4326 89.3271C47.8908 89.3271 47.4445 89.5184 47.078 89.9009C46.7114 90.2833 46.4405 90.7933 46.2652 91.4149V97.5506H44.0021V91.1439C44.0021 90.5861 43.8746 90.1399 43.6356 89.8052C43.3965 89.4706 43.03 89.3112 42.5837 89.3112C42.0419 89.3112 41.5956 89.5024 41.2131 89.8849C40.8466 90.2674 40.5757 90.7774 40.4003 91.3989V97.5347H38.1373V90.3949C38.1373 90.0602 38.0735 89.7893 37.946 89.5821C37.8185 89.3749 37.5954 89.1359 37.2607 88.8809L38.7748 87.5581C39.5876 87.9565 40.0816 88.5303 40.2728 89.2634C40.9581 88.1318 41.9462 87.5581 43.2371 87.5581C43.9543 87.5581 44.5599 87.7175 45.038 88.0522C45.5161 88.3868 45.8508 88.8649 46.0261 89.5024C46.2811 88.9128 46.6636 88.4346 47.1895 88.084C47.7155 87.7334 48.3529 87.5581 49.102 87.5581C50.0741 87.5581 50.8232 87.845 51.3491 88.4346V88.4665Z" fill="#282828"/>
<path d="M62.6168 88.2435C63.2543 88.6738 63.7324 89.2635 64.0511 89.9806C64.3699 90.7138 64.5292 91.5106 64.5292 92.3712V93.0406C64.5292 93.9171 64.3699 94.714 64.0511 95.4311C63.7324 96.1642 63.2543 96.738 62.6168 97.1683C61.9793 97.5986 61.2143 97.8217 60.29 97.8217C59.4931 97.8217 58.8557 97.6942 58.3775 97.4551C57.8994 97.2161 57.501 96.8655 57.1823 96.4352V102.109H54.9192V90.4269C54.9192 90.0922 54.8554 89.8213 54.728 89.6141C54.6005 89.4069 54.3773 89.1679 54.0586 88.9129L55.5726 87.5901C56.0029 87.8132 56.3376 88.0523 56.5607 88.3232C56.7838 88.5941 56.9591 88.9129 57.0388 89.2635C57.756 88.1479 58.8397 87.5901 60.29 87.5901C61.1984 87.5901 61.9793 87.8132 62.6168 88.2435ZM62.2662 92.3712C62.2662 91.4947 62.0431 90.7775 61.5809 90.2038C61.1187 89.63 60.4972 89.3432 59.6684 89.3432C58.3935 89.3432 57.5648 89.9647 57.1823 91.2237V94.1721C57.5648 95.4311 58.3935 96.0527 59.6684 96.0527C60.4812 96.0527 61.1187 95.7658 61.5809 95.1921C62.0431 94.6183 62.2662 93.9012 62.2662 93.0246V92.3553V92.3712Z" fill="#282828"/>
<path d="M75.239 95.7975C75.3665 96.0047 75.5896 96.2437 75.9243 96.4987L74.4102 97.8215C73.6293 97.439 73.1512 96.929 72.944 96.2915C72.6253 96.7378 72.195 97.1043 71.6372 97.3912C71.0794 97.6781 70.426 97.8215 69.661 97.8215C68.6729 97.8215 67.8761 97.5665 67.3023 97.0725C66.7286 96.5625 66.4258 95.8453 66.4258 94.921C66.4258 93.8532 66.7923 93.1041 67.5254 92.6579C68.2585 92.2117 69.1829 91.9248 70.3144 91.8132L71.5097 91.6857C71.9559 91.6379 72.2587 91.5582 72.45 91.4467C72.6412 91.3351 72.7369 91.1598 72.7687 90.9208C72.689 89.7573 71.9878 89.1836 70.681 89.1836C70.171 89.1836 69.7248 89.2633 69.3582 89.4386C68.9916 89.6139 68.641 89.9008 68.3064 90.2992L66.7605 89.1996C67.127 88.6896 67.637 88.2911 68.2585 88.0043C68.8801 87.7174 69.6929 87.574 70.681 87.574C72.1312 87.574 73.215 87.8768 73.9481 88.4824C74.6812 89.088 75.0318 89.9645 75.0318 91.0961V94.9688C75.0318 95.3034 75.0955 95.5744 75.223 95.7816L75.239 95.7975ZM72.1153 95.5744C72.5775 95.176 72.8006 94.666 72.8006 94.0604V92.9448C72.5297 93.0563 72.0834 93.1519 71.43 93.2157L70.5057 93.3113C69.2307 93.4547 68.5932 93.9488 68.5932 94.8253C68.5932 95.2716 68.7367 95.6063 69.0235 95.8294C69.3104 96.0525 69.7088 96.164 70.2347 96.164C71.0316 96.164 71.6691 95.9569 72.1153 95.5584V95.5744Z" fill="#282828"/>
<path d="M78.1553 85.8369C77.8843 85.566 77.7568 85.2473 77.7568 84.8807C77.7568 84.5142 77.8843 84.2113 78.1553 83.9404C78.4262 83.6695 78.7449 83.542 79.1115 83.542C79.478 83.542 79.7808 83.6695 80.0518 83.9404C80.3227 84.2113 80.4502 84.5301 80.4502 84.8807C80.4502 85.2313 80.3227 85.5819 80.0518 85.8369C79.7808 86.1079 79.4621 86.2354 79.1115 86.2354C78.7609 86.2354 78.4103 86.1079 78.1553 85.8369ZM78.3465 96.7219C78.1074 96.3076 77.98 95.7338 77.98 95.0167V87.8291H80.243V94.9689C80.243 95.3035 80.3068 95.5745 80.4343 95.7817C80.5618 95.9888 80.7849 96.2279 81.1196 96.4829L79.6215 97.8057C79.0159 97.4869 78.5856 97.1204 78.3465 96.706V96.7219Z" fill="#282828"/>
<path d="M93.0405 88.9129C92.7058 89.1838 92.4827 89.4069 92.3552 89.6141C92.2277 89.8213 92.1639 90.0922 92.1639 90.4269V98.0129C92.1639 99.3038 91.8133 100.244 91.1121 100.834C90.4109 101.423 89.3112 101.726 87.7812 101.726H85.1357V99.9891H87.7812C88.4984 99.9891 89.0243 99.8298 89.3749 99.511C89.7256 99.1923 89.9009 98.6982 89.9009 98.0129V96.1961C89.5821 96.6583 89.1837 96.993 88.7056 97.232C88.2275 97.4711 87.6059 97.5826 86.841 97.5826C85.5341 97.5826 84.5141 97.1523 83.7332 96.2917C82.9523 95.4311 82.5698 94.2677 82.5698 92.8015V92.3871C82.5698 91.4947 82.7292 90.6819 83.0639 89.9488C83.3985 89.2157 83.8767 88.6579 84.5141 88.2276C85.1516 87.8132 85.9325 87.5901 86.825 87.5901C88.2434 87.5901 89.3271 88.1479 90.0762 89.2475C90.1559 88.881 90.3152 88.5782 90.5384 88.3232C90.7615 88.0682 91.0961 87.8291 91.5424 87.5901L93.0405 88.9129ZM89.9168 93.9649V91.2078C89.5343 89.9647 88.7056 89.3432 87.4306 89.3432C86.6178 89.3432 85.9804 89.63 85.5182 90.2038C85.056 90.7775 84.8329 91.4947 84.8329 92.3712V92.7856C84.8329 93.6621 85.056 94.3793 85.5182 94.953C85.9804 95.5267 86.6019 95.8136 87.4306 95.8136C88.7056 95.8136 89.5343 95.1921 89.9168 93.9649Z" fill="#282828"/>
<path d="M103.304 88.4665C103.862 89.0562 104.149 89.8849 104.149 90.9368V97.5666H101.886V91.1599C101.886 90.6021 101.742 90.1558 101.455 89.8212C101.168 89.4865 100.77 89.3271 100.26 89.3271C99.6703 89.3271 99.1763 89.5184 98.7938 89.9009C98.4113 90.2833 98.1085 90.7774 97.9013 91.3989V97.5506H95.6383V90.4108C95.6383 90.0762 95.5745 89.8052 95.447 89.5981C95.3195 89.3909 95.0964 89.1518 94.7617 88.8968L96.2757 87.574C96.722 87.8131 97.0567 88.0681 97.2957 88.3231C97.5348 88.5781 97.6941 88.9128 97.7898 89.2793C98.0766 88.7534 98.491 88.339 99.0169 88.0203C99.5428 87.7175 100.164 87.5581 100.882 87.5581C101.933 87.5581 102.73 87.845 103.288 88.4346L103.304 88.4665Z" fill="#282828"/>
<path d="M14.4389 118.763C13.6421 118.014 13.2437 116.898 13.2437 115.432V109.838C13.2437 108.372 13.6421 107.272 14.4389 106.507C15.2358 105.758 16.5107 105.376 18.2798 105.376H23.1724V107.304H18.2798C17.4032 107.304 16.7498 107.511 16.3195 107.91C15.9051 108.324 15.682 108.962 15.682 109.822V111.671H22.2003V113.583H15.682V115.432C15.682 116.309 15.8892 116.946 16.3195 117.344C16.7339 117.759 17.3873 117.95 18.2798 117.95H23.2521V119.878H18.2798C16.5267 119.878 15.2517 119.496 14.4389 118.747V118.763Z" fill="#282828"/>
<path d="M31.5394 119.895L29.3082 116.532L27.1726 119.895H24.8777L28.1288 114.795L25.0211 110.157H27.3001L29.4357 113.344L31.4916 110.157H33.7706L30.615 115.113L33.8343 119.895H31.5553H31.5394Z" fill="#282828"/>
<path d="M40.7034 118.173C41.0699 118.03 41.4365 117.775 41.819 117.424L43.1577 118.667C42.7433 119.146 42.2333 119.512 41.6118 119.767C40.9902 120.022 40.2253 120.134 39.3168 120.134C37.8188 120.134 36.7191 119.831 36.0019 119.209C35.2848 118.588 34.9182 117.647 34.9182 116.388V113.36C34.9182 112.293 35.3007 111.464 36.0497 110.842C36.7988 110.221 37.8347 109.918 39.1415 109.918C40.4484 109.918 41.5321 110.253 42.2652 110.906C43.0142 111.559 43.3808 112.5 43.3808 113.727C43.3808 114.301 43.333 114.731 43.2214 115.05C43.1099 115.368 42.9027 115.592 42.6158 115.751C42.3289 115.894 41.8986 115.974 41.3249 115.974H37.1335V116.388C37.1335 117.727 37.8666 118.396 39.3328 118.396C39.8746 118.396 40.3209 118.317 40.6874 118.173H40.7034ZM37.6753 112.165C37.3247 112.516 37.1494 112.962 37.1494 113.536V114.428H40.1137C40.4962 114.428 40.7671 114.364 40.9265 114.237C41.0859 114.109 41.1496 113.87 41.1496 113.536C41.1496 112.93 40.9743 112.468 40.6237 112.133C40.2731 111.814 39.7631 111.639 39.1256 111.639C38.52 111.639 38.0419 111.814 37.6913 112.149L37.6753 112.165Z" fill="#282828"/>
<path d="M46.4246 119.161C45.6596 118.508 45.2771 117.584 45.2771 116.372V113.679C45.2771 112.484 45.6596 111.543 46.4246 110.89C47.1895 110.237 48.2733 109.902 49.6598 109.902C51.381 109.902 52.656 110.444 53.4528 111.543L51.891 112.802C51.5404 112.388 51.2057 112.101 50.8869 111.926C50.5682 111.751 50.1538 111.671 49.6598 111.671C48.9904 111.671 48.4645 111.846 48.082 112.197C47.7155 112.547 47.5242 113.041 47.5242 113.679V116.372C47.5242 117.026 47.7155 117.52 48.0661 117.87C48.4167 118.221 48.9586 118.38 49.6439 118.38C50.1538 118.38 50.5841 118.301 50.9188 118.125C51.2535 117.95 51.5882 117.663 51.9069 117.265L53.4528 118.524C53.0544 119.066 52.5444 119.464 51.9388 119.735C51.3332 120.006 50.5682 120.133 49.6439 120.133C48.2414 120.133 47.1577 119.815 46.3927 119.161H46.4246Z" fill="#282828"/>
<path d="M64.2265 118.094C64.354 118.301 64.5771 118.54 64.9277 118.795L63.4137 120.102C62.9515 119.863 62.6168 119.608 62.3778 119.353C62.1387 119.082 61.9793 118.763 61.8837 118.364C61.565 118.922 61.1506 119.353 60.6406 119.671C60.1306 119.99 59.5091 120.149 58.776 120.149C57.7082 120.149 56.8954 119.863 56.3057 119.273C55.732 118.683 55.4292 117.839 55.4292 116.755V110.173H57.6923V116.58C57.6923 117.153 57.8357 117.584 58.1544 117.918C58.4572 118.237 58.8875 118.412 59.4453 118.412C60.0031 118.412 60.5131 118.205 60.8956 117.807C61.2781 117.408 61.5809 116.882 61.7881 116.213V110.189H64.0511V117.313C64.0511 117.647 64.1149 117.918 64.2424 118.125L64.2265 118.094Z" fill="#282828"/>
<path d="M69.151 111.91V116.516C69.151 117.106 69.2626 117.536 69.4697 117.807C69.6769 118.078 70.0116 118.205 70.4897 118.205H71.9878V119.942H70.4897C69.1988 119.942 68.2745 119.687 67.7167 119.162C67.1748 118.636 66.9039 117.759 66.9039 116.516V108.388C66.9039 108.053 66.8401 107.782 66.7126 107.575C66.5851 107.368 66.362 107.129 66.0273 106.874L67.5414 105.551C68.147 105.87 68.5773 106.237 68.8004 106.635C69.0394 107.049 69.151 107.607 69.151 108.34V110.141H71.9719V111.894H69.151V111.91Z" fill="#282828"/>
<path d="M74.3144 108.149C74.0435 107.878 73.916 107.559 73.916 107.193C73.916 106.826 74.0435 106.523 74.3144 106.252C74.5854 105.982 74.9041 105.854 75.2707 105.854C75.6372 105.854 75.94 105.982 76.2109 106.252C76.4819 106.523 76.6094 106.842 76.6094 107.193C76.6094 107.543 76.4819 107.894 76.2109 108.149C75.94 108.42 75.6213 108.547 75.2707 108.547C74.92 108.547 74.5694 108.42 74.3144 108.149ZM74.5057 119.034C74.2666 118.62 74.1391 118.046 74.1391 117.329V110.141H76.4022V117.281C76.4022 117.616 76.4659 117.886 76.5934 118.094C76.7209 118.301 76.9441 118.54 77.2787 118.795L75.7806 120.118C75.175 119.799 74.7447 119.432 74.5057 119.018V119.034Z" fill="#282828"/>
<path d="M80.1157 119.145C79.3507 118.476 78.9841 117.536 78.9841 116.324V113.711C78.9841 112.5 79.3666 111.559 80.1157 110.89C80.8647 110.221 81.9484 109.902 83.319 109.902C84.6896 109.902 85.7893 110.237 86.5542 110.89C87.3192 111.543 87.6858 112.5 87.6858 113.711V116.324C87.6858 117.536 87.3033 118.476 86.5542 119.145C85.8052 119.815 84.7215 120.133 83.319 120.133C81.9165 120.133 80.8647 119.799 80.1157 119.145ZM84.8808 117.854C85.2474 117.504 85.4227 116.994 85.4227 116.324V113.711C85.4227 113.041 85.2315 112.547 84.8808 112.181C84.5143 111.83 83.9884 111.655 83.319 111.655C82.6496 111.655 82.1397 111.83 81.7731 112.181C81.4066 112.531 81.2313 113.041 81.2313 113.711V116.324C81.2313 116.994 81.4066 117.488 81.7731 117.854C82.1397 118.205 82.6496 118.38 83.319 118.38C83.9884 118.38 84.5143 118.205 84.8808 117.854Z" fill="#282828"/>
<path d="M97.8538 110.779C98.4116 111.368 98.6984 112.197 98.6984 113.249V119.879H96.4354V113.472C96.4354 112.914 96.292 112.468 96.0051 112.133C95.7182 111.798 95.3198 111.639 94.8098 111.639C94.2201 111.639 93.7261 111.83 93.3436 112.213C92.9611 112.595 92.6583 113.089 92.4511 113.711V119.863H90.1881V112.723C90.1881 112.388 90.1243 112.117 89.9968 111.91C89.8693 111.703 89.6462 111.464 89.3115 111.209L90.8255 109.886C91.2718 110.125 91.6065 110.38 91.8455 110.635C92.0846 110.89 92.2439 111.225 92.3396 111.591C92.6264 111.065 93.0408 110.651 93.5667 110.332C94.0926 110.029 94.7142 109.87 95.4314 109.87C96.4832 109.87 97.28 110.157 97.8378 110.747L97.8538 110.779Z" fill="#282828"/>
<path d="M116.707 119.894L115.799 118.874C114.651 119.719 113.233 120.133 111.527 120.133C109.95 120.133 108.707 119.751 107.782 119.002C106.858 118.237 106.396 117.217 106.396 115.942C106.396 114.986 106.651 114.205 107.177 113.583C107.703 112.962 108.452 112.388 109.44 111.83C108.882 111.193 108.468 110.619 108.181 110.093C107.894 109.583 107.75 109.041 107.75 108.483C107.75 107.464 108.101 106.651 108.802 106.045C109.503 105.44 110.46 105.137 111.639 105.137C112.818 105.137 113.775 105.44 114.492 106.045C115.209 106.651 115.56 107.464 115.56 108.468C115.56 109.28 115.352 109.966 114.922 110.523C114.492 111.081 113.775 111.671 112.771 112.277L115.655 115.464C116.085 114.587 116.372 113.504 116.5 112.229H118.938C118.747 114.269 118.189 115.958 117.281 117.281L119.608 119.847H116.707V119.894ZM114.316 117.233L110.842 113.376C110.157 113.775 109.647 114.157 109.312 114.508C108.993 114.874 108.834 115.336 108.834 115.91C108.834 116.595 109.073 117.153 109.567 117.568C110.045 117.982 110.699 118.189 111.527 118.189C112.627 118.189 113.567 117.87 114.316 117.217V117.233ZM110.603 107.464C110.332 107.719 110.205 108.069 110.205 108.499C110.205 108.866 110.3 109.233 110.476 109.551C110.651 109.87 110.954 110.284 111.368 110.747C111.99 110.38 112.436 110.045 112.707 109.711C112.978 109.376 113.121 108.978 113.121 108.483C113.121 108.053 112.994 107.703 112.723 107.448C112.452 107.193 112.101 107.049 111.655 107.049C111.209 107.049 110.874 107.177 110.603 107.448V107.464Z" fill="#282828"/>
<path d="M14.8055 141.107C13.8015 140.214 13.2915 138.891 13.2915 137.17V132.74C13.2915 131.019 13.8015 129.696 14.8055 128.803C15.8096 127.911 17.2598 127.465 19.1563 127.465C21.0529 127.465 22.4872 127.911 23.4912 128.803C24.4953 129.696 24.9893 131.019 24.9893 132.74V137.17C24.9893 138.891 24.4953 140.214 23.4912 141.107C22.4872 141.999 21.0369 142.445 19.1563 142.445C17.2758 142.445 15.8096 141.999 14.8055 141.107ZM21.6744 139.656C22.2641 139.083 22.5509 138.254 22.5509 137.154V132.724C22.5509 131.64 22.2641 130.795 21.6744 130.222C21.0847 129.648 20.2401 129.361 19.1563 129.361C18.0726 129.361 17.212 129.648 16.6223 130.222C16.0327 130.795 15.7458 131.624 15.7458 132.724V137.154C15.7458 138.254 16.0327 139.083 16.6223 139.656C17.212 140.23 18.0567 140.517 19.1563 140.517C20.256 140.517 21.0847 140.23 21.6744 139.656Z" fill="#282828"/>
<path d="M35.6192 132.867C36.2567 133.298 36.7348 133.887 37.0536 134.604C37.3723 135.338 37.5317 136.134 37.5317 136.995V137.664C37.5317 138.541 37.3723 139.338 37.0536 140.055C36.7348 140.788 36.2567 141.362 35.6192 141.792C34.9818 142.222 34.2168 142.445 33.2924 142.445C32.4956 142.445 31.8581 142.318 31.38 142.079C30.9019 141.84 30.5034 141.489 30.1847 141.059V146.733H27.9216V135.051C27.9216 134.716 27.8579 134.445 27.7304 134.238C27.6029 134.031 27.3798 133.792 27.061 133.537L28.5751 132.214C29.0054 132.437 29.34 132.676 29.5632 132.947C29.7863 133.218 29.9616 133.537 30.0413 133.887C30.7584 132.772 31.8422 132.214 33.2924 132.214C34.2008 132.214 34.9818 132.437 35.6192 132.867ZM35.2686 136.995C35.2686 136.118 35.0455 135.401 34.5833 134.828C34.1212 134.254 33.4996 133.967 32.6709 133.967C31.3959 133.967 30.5672 134.588 30.1847 135.848V138.796C30.5672 140.055 31.3959 140.676 32.6709 140.676C33.4837 140.676 34.1212 140.39 34.5833 139.816C35.0455 139.242 35.2686 138.525 35.2686 137.648V136.979V136.995Z" fill="#282828"/>
<path d="M42.0102 134.222V138.828C42.0102 139.418 42.1058 139.848 42.313 140.119C42.5202 140.374 42.8549 140.517 43.333 140.517H44.8311V142.254H43.333C42.0261 142.254 41.1177 141.999 40.5599 141.474C40.0181 140.948 39.7471 140.071 39.7471 138.828V130.7C39.7471 130.365 39.6834 130.094 39.5559 129.887C39.4284 129.68 39.2053 129.441 38.8706 129.186L40.3846 127.863C40.9902 128.182 41.4205 128.549 41.6437 128.947C41.8827 129.361 41.9943 129.919 41.9943 130.652V132.453H44.8151V134.206H41.9943L42.0102 134.222Z" fill="#282828"/>
<path d="M47.1736 130.461C46.9026 130.19 46.7751 129.871 46.7751 129.504C46.7751 129.138 46.9026 128.835 47.1736 128.564C47.4445 128.293 47.7632 128.166 48.1298 128.166C48.4963 128.166 48.7992 128.293 49.0701 128.564C49.341 128.835 49.4685 129.154 49.4685 129.504C49.4685 129.855 49.341 130.206 49.0701 130.461C48.7992 130.716 48.4804 130.859 48.1298 130.859C47.7792 130.859 47.4286 130.732 47.1736 130.461ZM47.3648 141.346C47.1258 140.931 46.9983 140.358 46.9983 139.64V132.453H49.2613V139.593C49.2613 139.927 49.3251 140.198 49.4526 140.405C49.5801 140.613 49.8032 140.852 50.1379 141.107L48.6398 142.429C48.0342 142.111 47.6039 141.744 47.3648 141.33V141.346Z" fill="#282828"/>
<path d="M65.5652 133.09C66.0911 133.68 66.362 134.509 66.362 135.561V142.19H64.099V135.784C64.099 135.21 63.9715 134.78 63.7165 134.445C63.4615 134.126 63.1109 133.951 62.6487 133.951C62.1068 133.951 61.6606 134.142 61.294 134.525C60.9275 134.907 60.6566 135.417 60.4812 136.039V142.174H58.2182V135.768C58.2182 135.194 58.0907 134.764 57.8516 134.429C57.5966 134.11 57.246 133.935 56.7998 133.935C56.2579 133.935 55.8117 134.126 55.4292 134.509C55.0626 134.891 54.7917 135.401 54.6164 136.023V142.158H52.3533V135.019C52.3533 134.684 52.2896 134.413 52.1621 134.206C52.0346 133.999 51.8115 133.76 51.4768 133.505L52.9908 132.182C53.8036 132.58 54.2977 133.154 54.4889 133.887C55.1742 132.756 56.1623 132.182 57.4532 132.182C58.1704 132.182 58.776 132.341 59.2541 132.676C59.7322 133.011 60.0669 133.489 60.2422 134.126C60.4972 133.537 60.8797 133.058 61.4056 132.708C61.9315 132.357 62.569 132.182 63.318 132.182C64.2902 132.182 65.0392 132.469 65.5652 133.058V133.09Z" fill="#282828"/>
<path d="M69.1829 130.461C68.9119 130.19 68.7844 129.871 68.7844 129.504C68.7844 129.138 68.9119 128.835 69.1829 128.564C69.4538 128.293 69.7725 128.166 70.1391 128.166C70.5056 128.166 70.8084 128.293 71.0794 128.564C71.3503 128.835 71.4778 129.154 71.4778 129.504C71.4778 129.855 71.3503 130.206 71.0794 130.461C70.8084 130.716 70.4897 130.859 70.1391 130.859C69.7885 130.859 69.4378 130.732 69.1829 130.461ZM69.3741 141.346C69.135 140.931 69.0075 140.358 69.0075 139.64V132.453H71.2706V139.593C71.2706 139.927 71.3344 140.198 71.4619 140.405C71.5893 140.613 71.8125 140.852 72.1471 141.107L70.6491 142.429C70.0435 142.111 69.6131 141.744 69.3741 141.33V141.346Z" fill="#282828"/>
<path d="M82.2353 140.453V142.19H76.0039C75.3186 142.19 74.7927 142.063 74.4261 141.808C74.0596 141.553 73.8843 141.139 73.8843 140.581V139.656L79.3985 134.206H74.0915V132.469H81.9803V134.174L75.9242 140.134C76.0198 140.358 76.227 140.469 76.5458 140.469H82.2194L82.2353 140.453Z" fill="#282828"/>
<path d="M92.7856 140.422C92.9131 140.629 93.1362 140.868 93.4709 141.123L91.9569 142.446C91.176 142.063 90.6979 141.553 90.4907 140.916C90.1719 141.362 89.7416 141.728 89.1838 142.015C88.626 142.302 87.9726 142.446 87.2076 142.446C86.2195 142.446 85.4227 142.191 84.849 141.696C84.2752 141.187 83.9724 140.485 83.9724 139.545C83.9724 138.477 84.339 137.728 85.0721 137.282C85.8052 136.836 86.7295 136.549 87.8611 136.437L89.0563 136.31C89.5026 136.262 89.8054 136.182 89.9966 136.071C90.1879 135.959 90.2835 135.784 90.3154 135.545C90.2357 134.381 89.5344 133.808 88.2276 133.808C87.7176 133.808 87.2714 133.887 86.9048 134.063C86.5383 134.238 86.1877 134.525 85.853 134.923L84.3071 133.824C84.6736 133.314 85.1836 132.915 85.8052 132.628C86.4267 132.341 87.2395 132.198 88.2276 132.198C89.6779 132.198 90.7616 132.501 91.4947 133.106C92.2278 133.712 92.5784 134.573 92.5784 135.72V139.593C92.5784 139.927 92.6422 140.198 92.7697 140.406L92.7856 140.422ZM89.646 140.198C90.1082 139.8 90.3313 139.29 90.3313 138.684V137.569C90.0604 137.68 89.6141 137.776 88.9607 137.84L88.0364 137.951C86.7614 138.095 86.1239 138.589 86.1239 139.465C86.1239 139.912 86.2674 140.246 86.5542 140.469C86.8411 140.692 87.2395 140.804 87.7654 140.804C88.5623 140.804 89.1998 140.597 89.646 140.198Z" fill="#282828"/>
<path d="M97.6147 134.222V138.828C97.6147 139.418 97.7103 139.848 97.9175 140.119C98.1247 140.374 98.4594 140.517 98.9375 140.517H100.436V142.254H98.9375C97.6306 142.254 96.7222 141.999 96.1644 141.474C95.6226 140.948 95.3516 140.071 95.3516 138.828V130.7C95.3516 130.365 95.2879 130.094 95.1604 129.887C95.0329 129.68 94.8098 129.441 94.4751 129.186L95.9891 127.863C96.5947 128.182 97.025 128.549 97.2481 128.947C97.4872 129.361 97.5988 129.919 97.5988 130.652V132.453H100.42V134.206H97.5988L97.6147 134.222Z" fill="#282828"/>
<path d="M102.778 130.461C102.507 130.19 102.38 129.871 102.38 129.504C102.38 129.138 102.507 128.835 102.778 128.564C103.049 128.293 103.368 128.166 103.734 128.166C104.101 128.166 104.404 128.293 104.675 128.564C104.946 128.835 105.073 129.154 105.073 129.504C105.073 129.855 104.946 130.206 104.675 130.461C104.404 130.716 104.085 130.859 103.734 130.859C103.384 130.859 103.033 130.732 102.778 130.461ZM102.969 141.346C102.73 140.931 102.603 140.358 102.603 139.64V132.453H104.866V139.593C104.866 139.927 104.93 140.198 105.057 140.405C105.185 140.613 105.408 140.852 105.742 141.107L104.244 142.429C103.639 142.111 103.208 141.744 102.969 141.33V141.346Z" fill="#282828"/>
<path d="M108.579 141.457C107.814 140.788 107.432 139.864 107.432 138.637V136.023C107.432 134.812 107.814 133.871 108.579 133.202C109.344 132.533 110.412 132.214 111.782 132.214C113.153 132.214 114.253 132.549 115.018 133.202C115.783 133.855 116.149 134.796 116.149 136.023V138.637C116.149 139.848 115.767 140.788 115.018 141.457C114.269 142.127 113.185 142.445 111.782 142.445C110.38 142.445 109.328 142.111 108.579 141.457ZM113.344 140.166C113.711 139.816 113.886 139.306 113.886 138.637V136.023C113.886 135.353 113.695 134.859 113.344 134.493C112.978 134.142 112.452 133.967 111.782 133.967C111.113 133.967 110.603 134.142 110.237 134.493C109.87 134.843 109.695 135.353 109.695 136.023V138.637C109.695 139.306 109.886 139.8 110.237 140.166C110.587 140.533 111.113 140.692 111.782 140.692C112.452 140.692 112.978 140.517 113.344 140.166Z" fill="#282828"/>
<path d="M126.317 133.09C126.875 133.68 127.162 134.509 127.162 135.561V142.19H124.899V135.784C124.899 135.21 124.755 134.78 124.468 134.445C124.182 134.126 123.783 133.951 123.273 133.951C122.684 133.951 122.189 134.142 121.807 134.525C121.424 134.907 121.122 135.401 120.915 136.023V142.174H118.651V135.035C118.651 134.7 118.588 134.429 118.46 134.222C118.333 134.015 118.11 133.776 117.775 133.521L119.289 132.198C119.735 132.437 120.07 132.692 120.309 132.947C120.548 133.202 120.707 133.537 120.803 133.903C121.09 133.377 121.504 132.963 122.03 132.644C122.556 132.341 123.178 132.182 123.895 132.182C124.947 132.182 125.743 132.469 126.301 133.058L126.317 133.09Z" fill="#282828"/>
</g>
<defs>
<clipPath id="clip0_40_495">
<rect width="158" height="158" fill="white"/>
</clipPath>
</defs>
</svg>
