<svg width="158" height="158" viewBox="0 0 158 158" fill="none" xmlns="http://www.w3.org/2000/svg">
<g clip-path="url(#clip0_40_416)">
<path d="M0 158L158 158L158 -1.52588e-05L0 -1.52588e-05L0 158Z" fill="#7EC4A7"/>
<path d="M12.0007 66.6965H65.9795V12.7177L12.0007 12.7177L12.0007 66.6965Z" fill="#282828"/>
<path d="M23.6348 34.9977C23.6348 32.9259 24.1766 31.3959 25.2603 30.3919C26.3441 29.3878 28.0175 28.8938 30.2646 28.8938H37.4522V30.1688H30.2646C28.5115 30.1688 27.2206 30.5513 26.4078 31.3322C25.595 32.1131 25.1807 33.3243 25.1807 34.9818V39.221H35.8904V40.496H25.1807V49.612H23.6348V34.9977Z" fill="#7EC4A7"/>
<path d="M42.3926 48.0025C40.9742 46.7116 40.2729 44.847 40.2729 42.3927V36.0816C40.2729 33.6592 40.9582 31.7945 42.3288 30.5036C43.6994 29.2127 45.6597 28.5593 48.2255 28.5593C49.8989 28.5593 51.3492 28.8143 52.5604 29.3402C53.7716 29.8662 54.7916 30.663 55.5885 31.7467L54.4888 32.5755C53.7716 31.6511 52.911 30.9499 51.907 30.5036C50.887 30.0415 49.6758 29.8184 48.2893 29.8184C46.1856 29.8184 44.576 30.3443 43.4604 31.4121C42.3607 32.4798 41.8029 34.0257 41.8029 36.0657V42.3768C41.8029 44.4167 42.3766 45.9626 43.5241 47.0304C44.6716 48.0982 46.329 48.6241 48.4965 48.6241C49.9308 48.6241 51.158 48.401 52.1779 47.9388C53.1979 47.4926 54.0585 46.7754 54.7597 45.8032L55.8275 46.6957C54.9669 47.8272 53.9469 48.64 52.7835 49.15C51.6201 49.66 50.1858 49.915 48.4965 49.915C45.835 49.915 43.795 49.2616 42.3926 47.9707V48.0025Z" fill="#7EC4A7"/>
<path d="M13.4349 110.141C13.4349 108.675 13.8333 107.575 14.6302 106.81C15.427 106.061 16.702 105.679 18.4551 105.679H23.3477V107.607H18.4551C17.5785 107.607 16.9251 107.814 16.4948 108.213C16.0804 108.627 15.8573 109.265 15.8573 110.125V112.388H22.3915V114.301H15.8573V120.181H13.4189V110.125L13.4349 110.141Z" fill="#282828"/>
<path d="M33.3403 118.412C33.4678 118.62 33.6909 118.859 34.0256 119.114L32.5116 120.436C31.7306 120.054 31.2525 119.544 31.0454 118.907C30.7266 119.353 30.2963 119.719 29.7385 120.006C29.1807 120.293 28.5273 120.436 27.7623 120.436C26.7742 120.436 25.9774 120.182 25.4036 119.687C24.8299 119.177 24.5271 118.46 24.5271 117.536C24.5271 116.468 24.8937 115.719 25.6268 115.273C26.3599 114.827 27.2842 114.54 28.4157 114.428L29.611 114.301C30.0573 114.253 30.3601 114.173 30.5513 114.062C30.7426 113.95 30.8382 113.775 30.8701 113.536C30.7904 112.372 30.0891 111.799 28.7823 111.799C28.2723 111.799 27.8261 111.878 27.4595 112.054C27.093 112.229 26.7424 112.516 26.4077 112.914L24.8618 111.815C25.2283 111.305 25.7383 110.906 26.3599 110.619C26.9814 110.332 27.7942 110.189 28.7823 110.189C30.2326 110.189 31.3163 110.492 32.0494 111.097C32.7825 111.703 33.1331 112.58 33.1331 113.711V117.584C33.1331 117.918 33.1969 118.189 33.3244 118.397L33.3403 118.412ZM30.2166 118.173C30.6788 117.775 30.9019 117.265 30.9019 116.659V115.544C30.631 115.655 30.1848 115.751 29.5313 115.815L28.607 115.91C27.332 116.054 26.6945 116.548 26.6945 117.424C26.6945 117.871 26.838 118.205 27.1248 118.428C27.4117 118.652 27.8101 118.763 28.3361 118.763C29.1329 118.763 29.7704 118.556 30.2166 118.157V118.173Z" fill="#282828"/>
<path d="M36.7507 119.464C35.9858 118.811 35.6033 117.886 35.6033 116.675V113.982C35.6033 112.787 35.9858 111.846 36.7507 111.193C37.5157 110.54 38.5994 110.205 39.986 110.205C41.7072 110.205 42.9821 110.747 43.779 111.846L42.2171 113.105C41.8665 112.691 41.5319 112.404 41.2131 112.229C40.8944 112.054 40.48 111.974 39.986 111.974C39.3166 111.974 38.7907 112.149 38.4082 112.5C38.0416 112.85 37.8504 113.344 37.8504 113.982V116.675C37.8504 117.329 38.0257 117.823 38.3923 118.173C38.7588 118.524 39.2847 118.683 39.97 118.683C40.48 118.683 40.9103 118.604 41.245 118.428C41.5797 118.253 41.9143 117.966 42.2331 117.568L43.779 118.827C43.3806 119.369 42.8706 119.767 42.265 120.038C41.6594 120.309 40.8944 120.436 39.97 120.436C38.5676 120.436 37.4838 120.118 36.7189 119.464H36.7507Z" fill="#282828"/>
<path d="M46.074 108.452C45.803 108.181 45.6755 107.862 45.6755 107.495C45.6755 107.129 45.803 106.826 46.074 106.555C46.3449 106.284 46.6636 106.157 47.0302 106.157C47.3967 106.157 47.6995 106.284 47.9705 106.555C48.2414 106.826 48.3689 107.145 48.3689 107.495C48.3689 107.846 48.2414 108.197 47.9705 108.452C47.6995 108.723 47.3808 108.85 47.0302 108.85C46.6796 108.85 46.329 108.723 46.074 108.452ZM46.2493 119.337C46.0102 118.922 45.8827 118.349 45.8827 117.631V110.444H48.1458V117.584C48.1458 117.918 48.2095 118.189 48.337 118.396C48.4645 118.604 48.6876 118.843 49.0223 119.098L47.5242 120.42C46.9186 120.102 46.4883 119.735 46.2493 119.321V119.337Z" fill="#282828"/>
<path d="M51.5724 119.337C51.3334 118.922 51.2059 118.348 51.2059 117.631V107.639C51.2059 107.288 51.1421 107.017 51.0146 106.81C50.8871 106.603 50.664 106.38 50.3293 106.125L51.8434 104.802C52.449 105.121 52.8793 105.487 53.1024 105.886C53.3414 106.3 53.453 106.858 53.453 107.591V117.584C53.453 117.918 53.5168 118.189 53.6443 118.396C53.7717 118.603 54.0108 118.843 54.3455 119.098L52.8315 120.42C52.2259 120.102 51.7956 119.735 51.5565 119.321L51.5724 119.337Z" fill="#282828"/>
<path d="M56.6882 108.452C56.4173 108.181 56.2898 107.862 56.2898 107.495C56.2898 107.129 56.4173 106.826 56.6882 106.555C56.9592 106.284 57.2779 106.157 57.6444 106.157C58.011 106.157 58.3138 106.284 58.5847 106.555C58.8557 106.826 58.9832 107.145 58.9832 107.495C58.9832 107.846 58.8557 108.197 58.5847 108.452C58.3138 108.723 57.9951 108.85 57.6444 108.85C57.2938 108.85 56.9432 108.723 56.6882 108.452ZM56.8635 119.337C56.6245 118.922 56.497 118.349 56.497 117.631V110.444H58.76V117.584C58.76 117.918 58.8238 118.189 58.9513 118.396C59.0788 118.604 59.3019 118.843 59.6366 119.098L58.1385 120.42C57.5329 120.102 57.1026 119.735 56.8635 119.321V119.337Z" fill="#282828"/>
<path d="M64.1943 112.213V116.819C64.1943 117.408 64.2899 117.839 64.4971 118.11C64.7043 118.365 65.039 118.508 65.5171 118.508H67.0151V120.245H65.5171C64.2262 120.245 63.3018 119.99 62.744 119.464C62.2022 118.938 61.9312 118.062 61.9312 116.819V108.691C61.9312 108.356 61.8675 108.085 61.74 107.878C61.6125 107.671 61.3894 107.432 61.0547 107.177L62.5687 105.854C63.1743 106.173 63.6046 106.539 63.8277 106.938C64.0668 107.352 64.1783 107.91 64.1783 108.643V110.444H66.9992V112.197H64.1783L64.1943 112.213Z" fill="#282828"/>
<path d="M77.6135 118.412C77.741 118.62 77.9641 118.859 78.2988 119.114L76.7848 120.436C76.0038 120.054 75.5257 119.544 75.3186 118.907C74.9998 119.353 74.5695 119.719 74.0117 120.006C73.4539 120.293 72.8005 120.436 72.0355 120.436C71.0474 120.436 70.2506 120.182 69.6768 119.687C69.1031 119.177 68.8003 118.46 68.8003 117.536C68.8003 116.468 69.1668 115.719 69.9 115.273C70.6331 114.827 71.5574 114.54 72.6889 114.428L73.8842 114.301C74.3305 114.253 74.6333 114.173 74.8245 114.062C75.0158 113.95 75.1114 113.775 75.1432 113.536C75.0636 112.372 74.3623 111.799 73.0555 111.799C72.5455 111.799 72.0993 111.878 71.7327 112.054C71.3662 112.229 71.0155 112.516 70.6809 112.914L69.135 111.815C69.5015 111.305 70.0115 110.906 70.6331 110.619C71.2546 110.332 72.0674 110.189 73.0555 110.189C74.5058 110.189 75.5895 110.492 76.3226 111.097C77.0557 111.703 77.4063 112.58 77.4063 113.711V117.584C77.4063 117.918 77.4701 118.189 77.5976 118.397L77.6135 118.412ZM74.4898 118.173C74.952 117.775 75.1751 117.265 75.1751 116.659V115.544C74.9042 115.655 74.458 115.751 73.8045 115.815L72.8802 115.91C71.6052 116.054 70.9677 116.548 70.9677 117.424C70.9677 117.871 71.1112 118.205 71.398 118.428C71.6849 118.652 72.0833 118.763 72.6093 118.763C73.4061 118.763 74.0436 118.556 74.4898 118.157V118.173Z" fill="#282828"/>
<path d="M82.4582 112.213V116.819C82.4582 117.408 82.5538 117.839 82.761 118.11C82.9682 118.365 83.3029 118.508 83.781 118.508H85.2791V120.245H83.781C82.4901 120.245 81.5657 119.99 81.0079 119.464C80.4661 118.938 80.1951 118.062 80.1951 116.819V108.691C80.1951 108.356 80.1314 108.085 80.0039 107.878C79.8764 107.671 79.6533 107.432 79.3186 107.177L80.8326 105.854C81.4382 106.173 81.8685 106.539 82.0916 106.938C82.3307 107.352 82.4423 107.91 82.4423 108.643V110.444H85.2631V112.197H82.4423L82.4582 112.213Z" fill="#282828"/>
<path d="M87.6221 108.452C87.3511 108.181 87.2236 107.862 87.2236 107.495C87.2236 107.129 87.3511 106.826 87.6221 106.555C87.893 106.284 88.2117 106.157 88.5783 106.157C88.9448 106.157 89.2476 106.284 89.5186 106.555C89.7895 106.826 89.917 107.145 89.917 107.495C89.917 107.846 89.7895 108.197 89.5186 108.452C89.2476 108.723 88.9289 108.85 88.5783 108.85C88.2277 108.85 87.8771 108.723 87.6221 108.452ZM87.8133 119.337C87.5742 118.922 87.4468 118.349 87.4468 117.631V110.444H89.7098V117.584C89.7098 117.918 89.7736 118.189 89.9011 118.396C90.0286 118.604 90.2517 118.843 90.5864 119.098L89.0883 120.42C88.4827 120.102 88.0524 119.735 87.8133 119.321V119.337Z" fill="#282828"/>
<path d="M93.407 119.448C92.642 118.779 92.2595 117.839 92.2595 116.627V114.014C92.2595 112.803 92.642 111.862 93.407 111.193C94.172 110.524 95.2398 110.205 96.6103 110.205C97.9809 110.205 99.0806 110.54 99.8456 111.193C100.611 111.862 100.977 112.803 100.977 114.014V116.627C100.977 117.839 100.595 118.779 99.8456 119.448C99.0806 120.118 98.0128 120.436 96.6103 120.436C95.2079 120.436 94.156 120.102 93.407 119.448ZM98.1881 118.157C98.5547 117.807 98.73 117.297 98.73 116.627V114.014C98.73 113.344 98.5387 112.85 98.1881 112.484C97.8216 112.133 97.2956 111.958 96.6263 111.958C95.9569 111.958 95.4469 112.133 95.0804 112.484C94.7138 112.834 94.5385 113.344 94.5385 114.014V116.627C94.5385 117.297 94.7138 117.791 95.0804 118.157C95.4469 118.508 95.9569 118.683 96.6263 118.683C97.2956 118.683 97.8216 118.508 98.1881 118.157Z" fill="#282828"/>
<path d="M111.161 111.081C111.719 111.671 112.006 112.5 112.006 113.552V120.181H109.743V113.775C109.743 113.217 109.599 112.771 109.312 112.436C109.025 112.101 108.627 111.942 108.117 111.942C107.527 111.942 107.033 112.133 106.651 112.516C106.268 112.898 105.965 113.392 105.758 114.014V120.165H103.495V113.026C103.495 112.691 103.431 112.42 103.304 112.213C103.176 112.006 102.953 111.767 102.619 111.512L104.133 110.189C104.579 110.428 104.914 110.683 105.153 110.938C105.392 111.193 105.551 111.528 105.647 111.894C105.934 111.368 106.348 110.954 106.874 110.635C107.4 110.332 108.021 110.173 108.738 110.173C109.79 110.173 110.587 110.46 111.145 111.049L111.161 111.081Z" fill="#282828"/>
<path d="M23.2043 142.509L22.2959 141.489C21.1485 142.334 19.7301 142.748 18.0248 142.748C16.447 142.748 15.2039 142.366 14.2796 141.617C13.3552 140.868 12.8931 139.832 12.8931 138.557C12.8931 137.601 13.1481 136.82 13.674 136.198C14.1999 135.576 14.9489 135.003 15.937 134.445C15.3792 133.807 14.9649 133.234 14.678 132.708C14.3911 132.198 14.2477 131.656 14.2477 131.098C14.2477 130.078 14.5983 129.265 15.2996 128.66C16.0008 128.054 16.957 127.767 18.1364 127.767C19.3157 127.767 20.2719 128.07 20.9891 128.676C21.7063 129.281 22.0569 130.094 22.0569 131.098C22.0569 131.911 21.8497 132.596 21.4194 133.154C20.9891 133.712 20.2719 134.302 19.2679 134.907L22.1525 138.095C22.5828 137.218 22.8697 136.134 22.9972 134.859H25.4355C25.2443 136.899 24.6865 138.589 23.7781 139.911L26.1049 142.477H23.2043V142.509ZM20.8297 139.848L17.3554 135.991C16.6701 136.389 16.1602 136.772 15.8255 137.122C15.5067 137.489 15.3314 137.951 15.3314 138.525C15.3314 139.21 15.5705 139.768 16.0645 140.182C16.5427 140.597 17.1961 140.804 18.0248 140.804C19.1245 140.804 20.0647 140.485 20.8138 139.832L20.8297 139.848ZM17.1004 130.078C16.8295 130.349 16.702 130.684 16.702 131.114C16.702 131.481 16.7976 131.847 16.973 132.166C17.1483 132.501 17.4511 132.899 17.8654 133.361C18.487 132.995 18.9332 132.66 19.2041 132.325C19.4751 131.991 19.6185 131.592 19.6185 131.098C19.6185 130.668 19.491 130.317 19.2201 130.062C18.9491 129.807 18.5985 129.664 18.1523 129.664C17.7061 129.664 17.3714 129.791 17.1004 130.062V130.078Z" fill="#282828"/>
<path d="M34.8703 141.409C33.8503 140.517 33.3403 139.194 33.3403 137.473V133.043C33.3403 131.321 33.8503 129.999 34.8544 129.106C35.8584 128.214 37.3246 127.767 39.2211 127.767C40.5279 127.767 41.6117 127.975 42.4723 128.405C43.3329 128.835 44.0182 129.489 44.5441 130.349L42.8069 131.576C42.3607 130.907 41.8826 130.429 41.3407 130.142C40.8148 129.839 40.1136 129.696 39.237 129.696C36.9262 129.696 35.7787 130.811 35.7787 133.058V137.489C35.7787 139.72 36.9421 140.852 39.2849 140.852C40.2092 140.852 40.9582 140.692 41.516 140.374C42.0738 140.055 42.5679 139.561 42.9823 138.875L44.7194 140.166C44.066 141.075 43.3329 141.744 42.5201 142.158C41.7073 142.573 40.6236 142.78 39.2849 142.78C37.3565 142.78 35.8743 142.334 34.8544 141.441L34.8703 141.409Z" fill="#282828"/>
<path d="M47.7634 141.76C46.9985 141.091 46.616 140.166 46.616 138.939V136.326C46.616 135.114 46.9985 134.174 47.7634 133.505C48.5284 132.835 49.5962 132.517 50.9668 132.517C52.3374 132.517 53.437 132.851 54.202 133.505C54.967 134.174 55.3335 135.098 55.3335 136.326V138.939C55.3335 140.15 54.951 141.091 54.202 141.76C53.437 142.429 52.3692 142.748 50.9668 142.748C49.5643 142.748 48.5125 142.414 47.7634 141.76ZM52.5286 140.453C52.8952 140.103 53.0705 139.593 53.0705 138.923V136.31C53.0705 135.64 52.8792 135.146 52.5286 134.78C52.178 134.413 51.6361 134.254 50.9668 134.254C50.2974 134.254 49.7874 134.429 49.4209 134.78C49.0543 135.13 48.879 135.64 48.879 136.31V138.923C48.879 139.593 49.0543 140.087 49.4209 140.453C49.7874 140.804 50.2974 140.979 50.9668 140.979C51.6361 140.979 52.1621 140.804 52.5286 140.453Z" fill="#282828"/>
<path d="M57.5647 136.549H63.2383V138.063H57.5647V136.549Z" fill="#282828"/>
<path d="M66.6169 141.776C65.852 141.123 65.4695 140.198 65.4695 138.987V136.294C65.4695 135.098 65.852 134.158 66.6169 133.505C67.3819 132.851 68.4656 132.517 69.8522 132.517C71.5734 132.517 72.8483 133.058 73.6452 134.158L72.0834 135.417C71.7327 135.003 71.3981 134.716 71.0793 134.541C70.7606 134.365 70.3462 134.286 69.8522 134.286C69.1828 134.286 68.6569 134.461 68.2744 134.812C67.8919 135.162 67.7166 135.656 67.7166 136.294V138.987C67.7166 139.64 67.8919 140.135 68.2585 140.485C68.625 140.836 69.1509 140.995 69.8362 140.995C70.3462 140.995 70.7765 140.915 71.1112 140.74C71.4459 140.565 71.7806 140.278 72.0993 139.88L73.6452 141.139C73.2468 141.68 72.7368 142.079 72.1312 142.35C71.5256 142.621 70.7606 142.748 69.8362 142.748C68.4338 142.748 67.3501 142.429 66.5851 141.776H66.6169Z" fill="#282828"/>
<path d="M82.9524 133.027L82.3787 134.939C82.1237 134.78 81.8846 134.652 81.6296 134.573C81.3746 134.493 81.0877 134.461 80.7531 134.461C79.6693 134.461 78.9203 135.258 78.4741 136.852V142.509H76.211V135.37C76.211 135.035 76.1473 134.764 76.0198 134.557C75.8923 134.35 75.6692 134.11 75.3345 133.855L76.8485 132.533C77.3266 132.788 77.6932 133.059 77.9322 133.345C78.1713 133.648 78.3306 134.015 78.3944 134.461C78.6813 133.871 79.0637 133.393 79.5578 133.059C80.0518 132.724 80.6096 132.533 81.279 132.533C81.9484 132.533 82.4743 132.708 82.9524 133.059V133.027Z" fill="#282828"/>
<path d="M90.0286 140.788C90.3951 140.645 90.7617 140.39 91.1442 140.039L92.4988 141.282C92.0844 141.76 91.5585 142.127 90.937 142.382C90.3154 142.637 89.5504 142.748 88.642 142.748C87.1439 142.748 86.0443 142.446 85.3271 141.824C84.61 141.202 84.2434 140.262 84.2434 139.003V135.975C84.2434 134.907 84.6259 134.079 85.3749 133.457C86.124 132.836 87.1599 132.533 88.4667 132.533C89.7736 132.533 90.8573 132.867 91.5904 133.521C92.3394 134.174 92.706 135.115 92.706 136.358C92.706 136.931 92.6582 137.362 92.5466 137.68C92.4351 137.999 92.2438 138.222 91.941 138.382C91.6541 138.525 91.2238 138.605 90.6501 138.605H86.4587V139.019C86.4587 140.358 87.1918 141.027 88.658 141.027C89.1998 141.027 89.6461 140.947 90.0126 140.804L90.0286 140.788ZM87.0165 134.78C86.6658 135.13 86.4905 135.577 86.4905 136.15V137.043H89.4548C89.8373 137.043 90.1082 136.979 90.2676 136.852C90.427 136.724 90.4907 136.485 90.4907 136.15C90.4907 135.545 90.3154 135.083 89.9648 134.748C89.6142 134.429 89.1042 134.254 88.4667 134.254C87.8611 134.254 87.383 134.429 87.0324 134.78H87.0165Z" fill="#282828"/>
<path d="M103.176 140.724C103.304 140.931 103.527 141.17 103.862 141.425L102.348 142.748C101.567 142.366 101.089 141.856 100.882 141.218C100.563 141.665 100.132 142.031 99.5747 142.318C99.0169 142.605 98.3635 142.748 97.5985 142.748C96.6104 142.748 95.8136 142.493 95.2398 141.999C94.6661 141.489 94.3633 140.788 94.3633 139.848C94.3633 138.78 94.7298 138.031 95.4629 137.585C96.196 137.138 97.1204 136.852 98.2519 136.74L99.4472 136.612C99.8934 136.565 100.196 136.485 100.387 136.373C100.579 136.262 100.674 136.087 100.706 135.848C100.627 134.684 99.9253 134.11 98.6185 134.11C98.1085 134.11 97.6623 134.19 97.2957 134.365C96.9291 134.541 96.5785 134.828 96.2439 135.226L94.698 134.126C95.0645 133.616 95.5745 133.218 96.196 132.931C96.8176 132.644 97.6304 132.501 98.6185 132.501C100.069 132.501 101.152 132.804 101.886 133.409C102.619 134.015 102.969 134.875 102.969 136.023V139.896C102.969 140.23 103.033 140.501 103.161 140.708L103.176 140.724ZM100.053 140.485C100.515 140.087 100.738 139.577 100.738 138.971V137.856C100.467 137.967 100.021 138.063 99.3675 138.127L98.4432 138.238C97.1682 138.382 96.5307 138.876 96.5307 139.752C96.5307 140.198 96.6742 140.533 96.961 140.756C97.2479 140.979 97.6463 141.091 98.1722 141.091C98.9691 141.091 99.6066 140.884 100.053 140.485Z" fill="#282828"/>
<path d="M108.021 134.525V139.13C108.021 139.72 108.117 140.15 108.324 140.421C108.531 140.676 108.866 140.82 109.344 140.82H110.842V142.557H109.344C108.053 142.557 107.129 142.302 106.571 141.776C106.029 141.25 105.758 140.374 105.758 139.13V131.003C105.758 130.668 105.695 130.397 105.567 130.19C105.44 129.983 105.217 129.744 104.882 129.489L106.396 128.166C107.001 128.485 107.432 128.851 107.655 129.249C107.894 129.664 108.005 130.222 108.005 130.955V132.756H110.826V134.509H108.005L108.021 134.525Z" fill="#282828"/>
<path d="M113.185 130.764C112.914 130.493 112.787 130.174 112.787 129.807C112.787 129.441 112.914 129.138 113.185 128.867C113.456 128.596 113.775 128.469 114.141 128.469C114.508 128.469 114.811 128.596 115.082 128.867C115.352 129.138 115.48 129.457 115.48 129.807C115.48 130.158 115.352 130.509 115.082 130.764C114.811 131.019 114.492 131.162 114.141 131.162C113.791 131.162 113.456 131.035 113.185 130.764ZM113.36 141.649C113.121 141.234 112.994 140.661 112.994 139.943V132.756H115.257V139.896C115.257 140.23 115.321 140.501 115.448 140.708C115.576 140.916 115.799 141.155 116.133 141.41L114.635 142.732C114.03 142.414 113.599 142.047 113.36 141.633V141.649Z" fill="#282828"/>
<path d="M118.97 141.76C118.205 141.091 117.839 140.166 117.839 138.939V136.326C117.839 135.114 118.221 134.174 118.97 133.505C119.719 132.835 120.803 132.517 122.174 132.517C123.544 132.517 124.644 132.851 125.409 133.505C126.174 134.158 126.54 135.098 126.54 136.326V138.939C126.54 140.15 126.158 141.091 125.409 141.76C124.66 142.429 123.576 142.748 122.174 142.748C120.771 142.748 119.719 142.414 118.97 141.76ZM123.752 140.453C124.118 140.103 124.293 139.593 124.293 138.923V136.31C124.293 135.64 124.102 135.146 123.752 134.78C123.401 134.413 122.859 134.254 122.19 134.254C121.52 134.254 121.01 134.429 120.644 134.78C120.277 135.13 120.102 135.64 120.102 136.31V138.923C120.102 139.593 120.277 140.087 120.644 140.453C121.01 140.82 121.52 140.979 122.19 140.979C122.859 140.979 123.385 140.804 123.752 140.453Z" fill="#282828"/>
<path d="M136.724 133.393C137.282 133.983 137.569 134.812 137.569 135.864V142.493H135.306V136.087C135.306 135.513 135.162 135.083 134.875 134.748C134.589 134.429 134.19 134.254 133.68 134.254C133.09 134.254 132.596 134.445 132.214 134.828C131.831 135.21 131.529 135.704 131.321 136.326V142.477H129.058V135.338C129.058 135.003 128.995 134.732 128.867 134.525C128.74 134.318 128.517 134.079 128.182 133.824L129.696 132.501C130.142 132.74 130.477 132.995 130.716 133.25C130.955 133.505 131.114 133.84 131.21 134.206C131.497 133.68 131.911 133.266 132.437 132.947C132.963 132.644 133.585 132.485 134.302 132.485C135.354 132.485 136.15 132.772 136.708 133.361L136.724 133.393Z" fill="#282828"/>
</g>
<defs>
<clipPath id="clip0_40_416">
<rect width="158" height="158" fill="white"/>
</clipPath>
</defs>
</svg>
