<svg width="158" height="158" viewBox="0 0 158 158" fill="none" xmlns="http://www.w3.org/2000/svg">
<g clip-path="url(#clip0_40_471)">
<path d="M0 158L158 158L158 -1.52588e-05L0 -1.52588e-05L0 158Z" fill="#CBC95A"/>
<path d="M12.0007 66.6965H65.9795V12.7177L12.0007 12.7177L12.0007 66.6965Z" fill="#282828"/>
<path d="M23.9854 48.0025C22.567 46.7116 21.8657 44.847 21.8657 42.3927V36.0816C21.8657 33.6592 22.551 31.7945 23.9216 30.5036C25.2922 29.2127 27.2524 28.5593 29.8183 28.5593C31.4917 28.5593 32.942 28.8143 34.1532 29.3402C35.3644 29.8662 36.3844 30.663 37.1812 31.7467L36.0816 32.5755C35.3644 31.6511 34.5038 30.9499 33.4998 30.5036C32.4798 30.0415 31.2686 29.8184 29.8821 29.8184C27.7624 29.8184 26.1687 30.3443 25.0531 31.4121C23.9535 32.4798 23.3957 34.0257 23.3957 36.0657V42.3768C23.3957 44.4167 23.9694 45.9626 25.1169 47.0304C26.2644 48.0982 27.9218 48.6241 30.0892 48.6241C31.5236 48.6241 32.7507 48.401 33.7707 47.9388C34.7907 47.4926 35.6513 46.7754 36.3525 45.8032L37.4203 46.6957C36.5597 47.8272 35.5397 48.64 34.3763 49.15C33.2129 49.66 31.7786 49.915 30.0892 49.915C27.4278 49.915 25.3878 49.2616 23.9854 47.9707V48.0025Z" fill="#CBC95A"/>
<path d="M40.7988 28.9097H48.0502C50.1858 28.9097 51.8751 29.2444 53.1182 29.9138C54.3772 30.5831 55.2856 31.6668 55.8434 33.1649C56.4012 34.663 56.6881 36.703 56.6881 39.2688C56.6881 41.8347 56.4012 43.8587 55.8434 45.3568C55.2856 46.8549 54.3772 47.9386 53.1341 48.6079C51.891 49.2773 50.2017 49.612 48.0502 49.612H40.7988V28.8938V28.9097ZM48.0502 48.353C49.8033 48.353 51.1898 48.0501 52.2257 47.4605C53.2616 46.8708 53.9947 45.9146 54.4569 44.6077C54.9191 43.3009 55.1581 41.516 55.1581 39.2688C55.1581 37.0217 54.9191 35.2686 54.4569 33.9458C53.9947 32.6231 53.2457 31.6668 52.2257 31.0772C51.2057 30.4875 49.8033 30.1847 48.0502 30.1847H42.3447V48.353H48.0502Z" fill="#CBC95A"/>
<path d="M14.2797 119.098C13.2597 118.205 12.7498 116.882 12.7498 115.161V110.731C12.7498 109.01 13.2597 107.687 14.2638 106.794C15.2678 105.902 16.734 105.456 18.6305 105.456C19.9374 105.456 21.0211 105.663 21.8817 106.093C22.7423 106.523 23.4276 107.177 23.9535 108.037L22.2164 109.265C21.7701 108.595 21.292 108.117 20.7502 107.83C20.2242 107.527 19.523 107.384 18.6465 107.384C16.3356 107.384 15.1881 108.5 15.1881 110.747V115.177C15.1881 117.408 16.3515 118.54 18.6943 118.54C19.6186 118.54 20.3677 118.381 20.9255 118.062C21.4992 117.743 21.9773 117.249 22.3917 116.564L24.1288 117.855C23.4754 118.763 22.7423 119.432 21.9295 119.847C21.1167 120.261 20.033 120.468 18.6943 120.468C16.7659 120.468 15.2837 120.022 14.2638 119.13L14.2797 119.098Z" fill="#282828"/>
<path d="M33.0854 110.715L32.5117 112.627C32.2567 112.468 32.0177 112.34 31.7627 112.261C31.5077 112.181 31.2208 112.149 30.8861 112.149C29.8024 112.149 29.0534 112.946 28.6071 114.54V120.197H26.3441V113.057C26.3441 112.723 26.2803 112.452 26.1528 112.245C26.0253 112.038 25.8022 111.798 25.4675 111.543L26.9816 110.221C27.4597 110.476 27.8262 110.747 28.0653 111.033C28.3043 111.336 28.4637 111.703 28.5274 112.149C28.8143 111.559 29.1968 111.081 29.6908 110.747C30.169 110.396 30.7427 110.221 31.4121 110.221C32.0814 110.221 32.6073 110.396 33.0854 110.747V110.715Z" fill="#282828"/>
<path d="M40.1772 118.476C40.5438 118.333 40.9103 118.078 41.2928 117.727L42.6315 118.97C42.2172 119.448 41.7072 119.815 41.0857 120.07C40.4641 120.325 39.6991 120.436 38.7907 120.436C37.2926 120.436 36.193 120.134 35.4758 119.512C34.7586 118.89 34.3921 117.95 34.3921 116.691V113.663C34.3921 112.595 34.7746 111.767 35.5236 111.145C36.2727 110.523 37.3086 110.221 38.6154 110.221C39.9222 110.221 41.006 110.555 41.7391 111.209C42.4881 111.862 42.8547 112.803 42.8547 114.03C42.8547 114.603 42.8069 115.034 42.6953 115.352C42.5837 115.671 42.3766 115.894 42.0897 116.054C41.8028 116.197 41.3725 116.277 40.7988 116.277H36.6073V116.691C36.6073 118.03 37.3404 118.699 38.8067 118.699C39.3485 118.699 39.7948 118.62 40.1613 118.476H40.1772ZM37.1492 112.468C36.7986 112.818 36.6233 113.265 36.6233 113.838V114.731H39.5876C39.9701 114.731 40.241 114.667 40.4004 114.54C40.5597 114.412 40.6235 114.173 40.6235 113.838C40.6235 113.233 40.4482 112.771 40.0976 112.436C39.7469 112.117 39.237 111.942 38.5995 111.942C37.9939 111.942 37.5158 112.117 37.1651 112.452L37.1492 112.468Z" fill="#282828"/>
<path d="M53.3095 118.412C53.437 118.62 53.6601 118.859 53.9948 119.114L52.4808 120.436C51.6999 120.054 51.2218 119.544 51.0146 118.907C50.6959 119.353 50.2656 119.719 49.7078 120.006C49.15 120.293 48.4965 120.436 47.7316 120.436C46.7435 120.436 45.9466 120.182 45.3729 119.687C44.7991 119.177 44.4963 118.46 44.4963 117.536C44.4963 116.468 44.8629 115.719 45.596 115.273C46.3291 114.827 47.2535 114.54 48.385 114.428L49.5803 114.301C50.0265 114.253 50.3293 114.173 50.5205 114.062C50.7118 113.95 50.8074 113.775 50.8393 113.536C50.7596 112.372 50.0584 111.799 48.7515 111.799C48.2415 111.799 47.7953 111.878 47.4288 112.054C47.0622 112.229 46.7116 112.516 46.3769 112.914L44.831 111.815C45.1976 111.305 45.7076 110.906 46.3291 110.619C46.9506 110.332 47.7634 110.189 48.7515 110.189C50.2018 110.189 51.2855 110.492 52.0186 111.097C52.7517 111.703 53.1023 112.58 53.1023 113.711V117.584C53.1023 117.918 53.1661 118.189 53.2936 118.397L53.3095 118.412ZM50.1859 118.173C50.648 117.775 50.8712 117.265 50.8712 116.659V115.544C50.6002 115.655 50.154 115.751 49.5006 115.815L48.5762 115.91C47.3013 116.054 46.6638 116.548 46.6638 117.424C46.6638 117.871 46.8072 118.205 47.0941 118.428C47.3809 118.652 47.7794 118.763 48.3053 118.763C49.1021 118.763 49.7396 118.556 50.1859 118.157V118.173Z" fill="#282828"/>
<path d="M58.1543 112.213V116.819C58.1543 117.408 58.2499 117.839 58.4571 118.11C58.6642 118.365 58.9989 118.508 59.477 118.508H60.9751V120.245H59.477C58.1702 120.245 57.2618 119.99 56.704 119.464C56.1621 118.938 55.8912 118.062 55.8912 116.819V108.691C55.8912 108.356 55.8274 108.085 55.6999 107.878C55.5724 107.671 55.3493 107.432 55.0146 107.177L56.5287 105.854C57.1343 106.173 57.5646 106.539 57.7877 106.938C58.0267 107.352 58.1383 107.91 58.1383 108.643V110.444H60.9592V112.197H58.1383L58.1543 112.213Z" fill="#282828"/>
<path d="M63.3179 108.452C63.0469 108.181 62.9194 107.862 62.9194 107.495C62.9194 107.129 63.0469 106.826 63.3179 106.555C63.5888 106.284 63.9075 106.157 64.2741 106.157C64.6406 106.157 64.9434 106.284 65.2144 106.555C65.4853 106.826 65.6128 107.145 65.6128 107.495C65.6128 107.846 65.4853 108.197 65.2144 108.452C64.9434 108.723 64.6247 108.85 64.2741 108.85C63.9235 108.85 63.5729 108.723 63.3179 108.452ZM63.5091 119.337C63.27 118.922 63.1426 118.349 63.1426 117.631V110.444H65.4056V117.584C65.4056 117.918 65.4694 118.189 65.5969 118.396C65.7244 118.604 65.9475 118.843 66.2822 119.098L64.7841 120.42C64.1785 120.102 63.7482 119.735 63.5091 119.321V119.337Z" fill="#282828"/>
<path d="M70.7286 119.926C70.3461 119.592 70.0274 119.018 69.8043 118.237L67.3818 110.444H69.5812L71.8602 118.03C71.9398 118.285 72.0036 118.46 72.0514 118.556C72.0992 118.635 72.1789 118.683 72.2905 118.683C72.3861 118.683 72.4658 118.635 72.5295 118.556C72.5933 118.46 72.657 118.301 72.7208 118.046L74.9838 110.46H77.1672L74.7766 118.253C74.5376 119.034 74.2348 119.608 73.8523 119.942C73.4698 120.277 72.9439 120.452 72.2905 120.452C71.637 120.452 71.127 120.277 70.7446 119.942L70.7286 119.926Z" fill="#282828"/>
<path d="M84.2434 118.476C84.61 118.333 84.9765 118.078 85.359 117.727L86.7136 118.97C86.2993 119.448 85.7734 119.815 85.1518 120.07C84.5303 120.325 83.7653 120.436 82.8569 120.436C81.3588 120.436 80.2591 120.134 79.542 119.512C78.8248 118.89 78.4583 117.95 78.4583 116.691V113.663C78.4583 112.595 78.8407 111.767 79.5898 111.145C80.3388 110.523 81.3747 110.221 82.6816 110.221C83.9884 110.221 85.0721 110.555 85.8052 111.209C86.5543 111.862 86.9208 112.803 86.9208 114.03C86.9208 114.603 86.8571 115.034 86.7615 115.352C86.6658 115.671 86.4587 115.894 86.1559 116.054C85.853 116.213 85.4387 116.277 84.8649 116.277H80.6735V116.691C80.6735 118.03 81.4066 118.699 82.8728 118.699C83.4147 118.699 83.8609 118.62 84.2275 118.476H84.2434ZM81.2154 112.468C80.8647 112.818 80.6894 113.265 80.6894 113.838V114.731H83.6537C84.0362 114.731 84.3072 114.667 84.4665 114.54C84.61 114.412 84.6896 114.173 84.6896 113.838C84.6896 113.233 84.5143 112.771 84.1637 112.436C83.8131 112.117 83.3031 111.942 82.6656 111.942C82.06 111.942 81.5819 112.117 81.2313 112.452L81.2154 112.468Z" fill="#282828"/>
<path d="M13.3552 128.006H18.6782C20.2719 128.006 21.5309 128.246 22.4553 128.708C23.3796 129.17 24.049 129.935 24.4634 130.971C24.8777 132.007 25.0849 133.441 25.0849 135.242C25.0849 137.043 24.8777 138.477 24.4634 139.513C24.049 140.549 23.3796 141.314 22.4553 141.776C21.5309 142.238 20.2719 142.477 18.6782 142.477H13.3552V127.975V128.006ZM18.6782 140.581C19.6663 140.581 20.4313 140.406 21.005 140.055C21.5787 139.704 21.9931 139.146 22.2481 138.382C22.5031 137.617 22.6306 136.565 22.6306 135.242C22.6306 133.919 22.5031 132.867 22.2481 132.102C21.9931 131.337 21.5787 130.78 21.005 130.429C20.4313 130.078 19.6504 129.903 18.6782 129.903H15.7936V140.549H18.6782V140.581Z" fill="#282828"/>
<path d="M33.0693 140.788C33.4359 140.645 33.8024 140.39 34.1849 140.039L35.5396 141.282C35.1252 141.76 34.5993 142.127 33.9777 142.382C33.3562 142.637 32.5912 142.748 31.6828 142.748C30.1847 142.748 29.0851 142.446 28.3679 141.824C27.6507 141.202 27.2842 140.262 27.2842 139.003V135.975C27.2842 134.907 27.6667 134.079 28.4157 133.457C29.1648 132.836 30.2007 132.533 31.5075 132.533C32.8143 132.533 33.8981 132.867 34.6312 133.521C35.3802 134.174 35.7468 135.115 35.7468 136.358C35.7468 136.931 35.683 137.362 35.5874 137.68C35.4918 137.999 35.2846 138.222 34.9818 138.382C34.6949 138.525 34.2646 138.605 33.6909 138.605H29.4994V139.019C29.4994 140.358 30.2325 141.027 31.6987 141.027C32.2406 141.027 32.6868 140.947 33.0534 140.804L33.0693 140.788ZM30.0413 134.78C29.6907 135.13 29.5154 135.577 29.5154 136.15V137.043H32.4797C32.8621 137.043 33.1331 136.979 33.2924 136.852C33.4359 136.724 33.5156 136.485 33.5156 136.15C33.5156 135.545 33.3403 135.083 32.9896 134.748C32.639 134.413 32.129 134.254 31.4916 134.254C30.886 134.254 30.4078 134.429 30.0572 134.78H30.0413Z" fill="#282828"/>
<path d="M40.2252 142.238C39.8427 141.903 39.524 141.33 39.3009 140.549L36.8784 132.756H39.0777L41.3567 140.342C41.4364 140.597 41.5002 140.772 41.548 140.868C41.5958 140.947 41.6755 140.995 41.787 140.995C41.8827 140.995 41.9623 140.947 42.0261 140.868C42.0898 140.788 42.1536 140.613 42.2173 140.358L44.4804 132.772H46.6638L44.2732 140.565C44.0342 141.346 43.7314 141.919 43.3489 142.254C42.9664 142.589 42.4405 142.764 41.787 142.764C41.1336 142.764 40.6236 142.589 40.2252 142.254V142.238Z" fill="#282828"/>
<path d="M53.7556 140.788C54.1222 140.645 54.4887 140.39 54.8712 140.039L56.2259 141.282C55.8115 141.76 55.2856 142.127 54.664 142.382C54.0425 142.637 53.2775 142.748 52.3691 142.748C50.871 142.748 49.7713 142.446 49.0542 141.824C48.337 141.202 47.9705 140.262 47.9705 139.003V135.975C47.9705 134.907 48.3529 134.079 49.102 133.457C49.851 132.836 50.8869 132.533 52.1938 132.533C53.5006 132.533 54.5843 132.867 55.3174 133.521C56.0665 134.174 56.433 135.115 56.433 136.358C56.433 136.931 56.3693 137.362 56.2737 137.68C56.178 137.999 55.9709 138.222 55.6681 138.382C55.3812 138.525 54.9509 138.605 54.3772 138.605H50.1857V139.019C50.1857 140.358 50.9188 141.027 52.385 141.027C52.9269 141.027 53.3731 140.947 53.7397 140.804L53.7556 140.788ZM50.7276 134.78C50.377 135.13 50.2016 135.577 50.2016 136.15V137.043H53.1659C53.5484 137.043 53.8194 136.979 53.9787 136.852C54.1222 136.724 54.2018 136.485 54.2018 136.15C54.2018 135.545 54.0265 135.083 53.6759 134.748C53.3253 134.413 52.8153 134.254 52.1778 134.254C51.5722 134.254 51.0941 134.429 50.7435 134.78H50.7276Z" fill="#282828"/>
<path d="M58.9831 141.649C58.744 141.234 58.6165 140.661 58.6165 139.943V129.951C58.6165 129.6 58.5528 129.329 58.4253 129.122C58.2978 128.915 58.0747 128.692 57.74 128.437L59.254 127.114C59.8596 127.433 60.2899 127.799 60.513 128.198C60.7521 128.596 60.8637 129.17 60.8637 129.903V139.896C60.8637 140.23 60.9274 140.501 61.0549 140.708C61.1824 140.916 61.4215 141.155 61.7561 141.41L60.2421 142.732C59.6365 142.414 59.2062 142.047 58.9671 141.633L58.9831 141.649Z" fill="#282828"/>
<path d="M64.561 141.76C63.7961 141.091 63.4136 140.166 63.4136 138.939V136.326C63.4136 135.114 63.7961 134.174 64.561 133.505C65.326 132.835 66.3938 132.517 67.7644 132.517C69.135 132.517 70.2346 132.851 70.9996 133.505C71.7646 134.174 72.1311 135.098 72.1311 136.326V138.939C72.1311 140.15 71.7487 141.091 70.9996 141.76C70.2346 142.429 69.1669 142.748 67.7644 142.748C66.3619 142.748 65.3101 142.414 64.561 141.76ZM69.3422 140.453C69.7087 140.103 69.884 139.593 69.884 138.923V136.31C69.884 135.64 69.6928 135.146 69.3422 134.78C68.9915 134.413 68.4497 134.254 67.7803 134.254C67.111 134.254 66.601 134.429 66.2344 134.78C65.8679 135.13 65.6926 135.64 65.6926 136.31V138.923C65.6926 139.593 65.8838 140.087 66.2344 140.453C66.585 140.82 67.111 140.979 67.7803 140.979C68.4497 140.979 68.9756 140.804 69.3422 140.453Z" fill="#282828"/>
<path d="M82.3468 133.17C82.9843 133.6 83.4624 134.19 83.7811 134.907C84.0999 135.624 84.2592 136.437 84.2592 137.298V137.967C84.2592 138.844 84.0999 139.64 83.7811 140.358C83.4624 141.091 82.9843 141.664 82.3468 142.095C81.7093 142.525 80.9443 142.748 80.02 142.748C79.2231 142.748 78.5856 142.621 78.1075 142.382C77.6294 142.143 77.231 141.792 76.9122 141.362V147.035H74.6492V135.353C74.6492 135.019 74.5854 134.748 74.4579 134.541C74.3304 134.333 74.1073 134.094 73.7886 133.839L75.3026 132.517C75.7329 132.74 76.0676 132.979 76.2907 133.25C76.5138 133.521 76.6891 133.839 76.7688 134.19C77.486 133.074 78.5697 132.517 80.02 132.517C80.9284 132.517 81.7093 132.74 82.3468 133.17ZM81.9802 137.298C81.9802 136.421 81.7571 135.704 81.2949 135.13C80.8328 134.557 80.2112 134.27 79.3825 134.27C78.1075 134.27 77.2788 134.891 76.8963 136.15V139.099C77.2788 140.358 78.1075 140.979 79.3825 140.979C80.1953 140.979 80.8328 140.692 81.2949 140.119C81.7571 139.545 81.9802 138.828 81.9802 137.951V137.282V137.298Z" fill="#282828"/>
<path d="M99.75 133.393C100.276 133.983 100.547 134.812 100.547 135.864V142.493H98.2838V136.087C98.2838 135.513 98.1563 135.083 97.9013 134.748C97.6463 134.429 97.2957 134.254 96.8335 134.254C96.2916 134.254 95.8454 134.445 95.4788 134.828C95.1123 135.21 94.8414 135.72 94.6661 136.342V142.477H92.403V136.071C92.403 135.497 92.2755 135.067 92.0364 134.732C91.7815 134.413 91.4308 134.238 90.9846 134.238C90.4427 134.238 89.9965 134.429 89.614 134.812C89.2475 135.194 88.9765 135.704 88.8012 136.326V142.461H86.5382V135.322C86.5382 134.987 86.4744 134.716 86.3469 134.509C86.2194 134.302 85.9963 134.063 85.6616 133.808L87.1756 132.485C87.9884 132.883 88.4825 133.457 88.6737 134.19C89.359 133.059 90.3471 132.485 91.638 132.485C92.3552 132.485 92.9608 132.644 93.4389 132.979C93.917 133.314 94.2517 133.792 94.427 134.429C94.682 133.84 95.0645 133.361 95.5904 133.011C96.1163 132.66 96.7538 132.485 97.5029 132.485C98.475 132.485 99.2241 132.772 99.75 133.361V133.393Z" fill="#282828"/>
<path d="M108.659 140.788C109.025 140.645 109.392 140.39 109.775 140.039L111.113 141.282C110.699 141.76 110.189 142.127 109.567 142.382C108.946 142.637 108.181 142.748 107.272 142.748C105.774 142.748 104.675 142.446 103.957 141.824C103.24 141.202 102.874 140.262 102.874 139.003V135.975C102.874 134.907 103.256 134.079 104.005 133.457C104.754 132.836 105.79 132.533 107.097 132.533C108.404 132.533 109.488 132.867 110.221 133.521C110.97 134.174 111.336 135.115 111.336 136.358C111.336 136.931 111.289 137.362 111.177 137.68C111.065 137.999 110.874 138.222 110.571 138.382C110.285 138.525 109.854 138.605 109.28 138.605H105.089V139.019C105.089 140.358 105.822 141.027 107.288 141.027C107.83 141.027 108.276 140.947 108.643 140.804L108.659 140.788ZM105.631 134.78C105.28 135.13 105.105 135.577 105.105 136.15V137.043H108.069C108.452 137.043 108.723 136.979 108.882 136.852C109.025 136.724 109.105 136.485 109.105 136.15C109.105 135.545 108.93 135.083 108.579 134.748C108.229 134.413 107.719 134.254 107.081 134.254C106.476 134.254 105.997 134.429 105.647 134.78H105.631Z" fill="#282828"/>
<path d="M121.345 133.393C121.903 133.983 122.189 134.812 122.189 135.864V142.493H119.926V136.087C119.926 135.513 119.783 135.083 119.496 134.748C119.209 134.429 118.811 134.254 118.301 134.254C117.711 134.254 117.217 134.445 116.835 134.828C116.452 135.21 116.149 135.704 115.942 136.326V142.477H113.679V135.338C113.679 135.003 113.615 134.732 113.488 134.525C113.36 134.318 113.137 134.079 112.802 133.824L114.317 132.501C114.763 132.74 115.097 132.995 115.336 133.25C115.576 133.505 115.735 133.84 115.831 134.206C116.117 133.68 116.532 133.266 117.058 132.947C117.584 132.644 118.205 132.485 118.922 132.485C119.974 132.485 120.771 132.772 121.329 133.361L121.345 133.393Z" fill="#282828"/>
<path d="M126.986 134.525V139.13C126.986 139.72 127.098 140.15 127.305 140.421C127.512 140.676 127.847 140.82 128.325 140.82H129.823V142.557H128.325C127.034 142.557 126.11 142.302 125.552 141.776C125.01 141.25 124.739 140.374 124.739 139.13V131.003C124.739 130.668 124.676 130.397 124.548 130.19C124.421 129.983 124.197 129.744 123.863 129.489L125.377 128.166C125.982 128.485 126.413 128.851 126.636 129.249C126.875 129.664 126.986 130.222 126.986 130.955V132.756H129.807V134.509H126.986V134.525Z" fill="#282828"/>
</g>
<defs>
<clipPath id="clip0_40_471">
<rect width="158" height="158" fill="white"/>
</clipPath>
</defs>
</svg>
