<svg width="21" height="20" viewBox="0 0 21 20" fill="none" xmlns="http://www.w3.org/2000/svg">
<path d="M3.625 17.5V5L11.125 2.5V15" stroke="url(#paint0_linear_796_22609)" stroke-miterlimit="10" stroke-linecap="round" stroke-linejoin="round"/>
<path d="M13 6.875L17.375 8.75V15.625" stroke="url(#paint1_linear_796_22609)" stroke-miterlimit="10" stroke-linecap="round" stroke-linejoin="round"/>
<path d="M1.75 17.5H19.25" stroke="url(#paint2_linear_796_22609)" stroke-miterlimit="10" stroke-linecap="round" stroke-linejoin="round"/>
<path d="M7.375 1.875V3.75" stroke="url(#paint3_linear_796_22609)" stroke-miterlimit="10" stroke-linecap="round" stroke-linejoin="round"/>
<path d="M8 7.5C8 7.1875 8.25 6.875 8.625 6.875C8.9375 6.875 9.25 7.1875 9.25 7.5C9.25 7.8125 8.9375 8.125 8.625 8.125C8.25 8.125 8 7.8125 8 7.5ZM5.5 7.5C5.5 7.1875 5.8125 6.875 6.125 6.875C6.4375 6.875 6.75 7.1875 6.75 7.5C6.75 7.8125 6.4375 8.125 6.125 8.125C5.8125 8.125 5.5 7.8125 5.5 7.5Z" fill="url(#paint4_linear_796_22609)"/>
<path d="M8 10.625C8 10.3125 8.25 10 8.625 10C8.9375 10 9.25 10.3125 9.25 10.625C9.25 10.9375 8.9375 11.25 8.625 11.25C8.25 11.25 8 10.9375 8 10.625ZM5.5 10.625C5.5 10.3125 5.8125 10 6.125 10C6.4375 10 6.75 10.3125 6.75 10.625C6.75 10.9375 6.4375 11.25 6.125 11.25C5.8125 11.25 5.5 10.9375 5.5 10.625Z" fill="url(#paint5_linear_796_22609)"/>
<path d="M8 13.75C8 13.4375 8.25 13.125 8.625 13.125C8.9375 13.125 9.25 13.4375 9.25 13.75C9.25 14.0625 8.9375 14.375 8.625 14.375C8.25 14.375 8 14.0625 8 13.75ZM5.5 13.75C5.5 13.4375 5.8125 13.125 6.125 13.125C6.4375 13.125 6.75 13.4375 6.75 13.75C6.75 14.0625 6.4375 14.375 6.125 14.375C5.8125 14.375 5.5 14.0625 5.5 13.75Z" fill="url(#paint6_linear_796_22609)"/>
<path d="M13.625 10.625H14.875" stroke="url(#paint7_linear_796_22609)" stroke-miterlimit="10" stroke-linecap="round" stroke-linejoin="round"/>
<path d="M13.625 13.75H14.875" stroke="url(#paint8_linear_796_22609)" stroke-miterlimit="10" stroke-linecap="round" stroke-linejoin="round"/>
<defs>
<linearGradient id="paint0_linear_796_22609" x1="4.22609" y1="18.6796" x2="15.4734" y2="13.3587" gradientUnits="userSpaceOnUse">
<stop stop-color="#36F1B9"/>
<stop offset="1" stop-color="#3484A4"/>
</linearGradient>
<linearGradient id="paint1_linear_796_22609" x1="13.3506" y1="16.3131" x2="19.9116" y2="13.2092" gradientUnits="userSpaceOnUse">
<stop stop-color="#36F1B9"/>
<stop offset="1" stop-color="#3484A4"/>
</linearGradient>
<linearGradient id="paint2_linear_796_22609" x1="3.15253" y1="18.5786" x2="3.26926" y2="16.646" gradientUnits="userSpaceOnUse">
<stop stop-color="#36F1B9"/>
<stop offset="1" stop-color="#3484A4"/>
</linearGradient>
<linearGradient id="paint3_linear_796_22609" x1="7.45514" y1="3.89744" x2="8.91793" y2="3.1593" gradientUnits="userSpaceOnUse">
<stop stop-color="#36F1B9"/>
<stop offset="1" stop-color="#3484A4"/>
</linearGradient>
<linearGradient id="paint4_linear_796_22609" x1="5.80054" y1="8.2233" x2="6.56043" y2="6.06637" gradientUnits="userSpaceOnUse">
<stop stop-color="#36F1B9"/>
<stop offset="1" stop-color="#3484A4"/>
</linearGradient>
<linearGradient id="paint5_linear_796_22609" x1="5.80054" y1="11.3483" x2="6.56043" y2="9.19137" gradientUnits="userSpaceOnUse">
<stop stop-color="#36F1B9"/>
<stop offset="1" stop-color="#3484A4"/>
</linearGradient>
<linearGradient id="paint6_linear_796_22609" x1="5.80054" y1="14.4733" x2="6.56043" y2="12.3164" gradientUnits="userSpaceOnUse">
<stop stop-color="#36F1B9"/>
<stop offset="1" stop-color="#3484A4"/>
</linearGradient>
<linearGradient id="paint7_linear_796_22609" x1="13.7252" y1="11.7036" x2="14.6815" y2="10.5726" gradientUnits="userSpaceOnUse">
<stop stop-color="#36F1B9"/>
<stop offset="1" stop-color="#3484A4"/>
</linearGradient>
<linearGradient id="paint8_linear_796_22609" x1="13.7252" y1="14.8286" x2="14.6815" y2="13.6976" gradientUnits="userSpaceOnUse">
<stop stop-color="#36F1B9"/>
<stop offset="1" stop-color="#3484A4"/>
</linearGradient>
</defs>
</svg>
