<svg width="20" height="20" viewBox="0 0 20 20" fill="none" xmlns="http://www.w3.org/2000/svg">
<path d="M16.668 5.8335H3.33464C2.41416 5.8335 1.66797 6.57969 1.66797 7.50016V15.8335C1.66797 16.754 2.41416 17.5002 3.33464 17.5002H16.668C17.5884 17.5002 18.3346 16.754 18.3346 15.8335V7.50016C18.3346 6.57969 17.5884 5.8335 16.668 5.8335Z" stroke="url(#paint0_linear_1637_12457)" stroke-linecap="round" stroke-linejoin="round"/>
<path d="M13.3346 17.5V4.16667C13.3346 3.72464 13.159 3.30072 12.8465 2.98816C12.5339 2.67559 12.11 2.5 11.668 2.5H8.33464C7.89261 2.5 7.46869 2.67559 7.15612 2.98816C6.84356 3.30072 6.66797 3.72464 6.66797 4.16667V17.5" stroke="url(#paint1_linear_1637_12457)" stroke-linecap="round" stroke-linejoin="round"/>
<defs>
<linearGradient id="paint0_linear_1637_12457" x1="3.00371" y1="18.4176" x2="13.8237" y2="3.7927" gradientUnits="userSpaceOnUse">
<stop stop-color="#36F1B9"/>
<stop offset="1" stop-color="#3484A4"/>
</linearGradient>
<linearGradient id="paint1_linear_1637_12457" x1="7.20227" y1="18.6796" x2="17.5989" y2="14.3076" gradientUnits="userSpaceOnUse">
<stop stop-color="#36F1B9"/>
<stop offset="1" stop-color="#3484A4"/>
</linearGradient>
</defs>
</svg>
