<svg width="17" height="16" viewBox="0 0 17 16" fill="none" xmlns="http://www.w3.org/2000/svg">
<g id="mail 1" clip-path="url(#clip0_185_11041)">
<path id="Vector" fill-rule="evenodd" clip-rule="evenodd" d="M16.7323 4.83617C16.7492 4.9491 16.762 5.06202 16.762 5.17918V12.2931C16.762 12.8283 16.5564 13.3176 16.2223 13.682L16.207 13.7046L16.1873 13.7193C16.0328 13.8796 15.8526 14.0138 15.6541 14.115L15.6395 14.1259L15.6213 14.1314C15.4386 14.2202 15.2409 14.2812 15.0335 14.3088L15.021 14.3127H15.0022C14.929 14.3212 14.8548 14.3257 14.7795 14.3257H14.7213L14.7245 14.33L11.414 14.3257H4.79305L1.48262 14.33L1.48586 14.3257H1.48262C1.40744 14.3257 1.33315 14.3212 1.25997 14.3127H1.18605L1.10439 14.288C0.983697 14.2637 0.866695 14.2283 0.754636 14.1824L0.567551 14.1259L-4.8846e-05 13.7046L-0.351645 13.1834L-0.403433 12.9166C-0.450942 12.7674 -0.481926 12.6109 -0.494172 12.4491L-0.5 12.419L-0.496164 12.4167C-0.498598 12.3758 -0.5 12.3345 -0.5 12.293V5.17911C-0.5 5.04886 -0.487311 4.91854 -0.46186 4.79253L8.11064 9.79142L9.95021 8.71861L9.96983 8.74274L16.7363 4.83164L16.7321 4.83602L16.7323 4.83617ZM1.48262 2.00008H14.7795C15.7538 2.00008 16.5713 2.73412 16.7323 3.68954L8.12901 8.66226L-0.465917 3.65036C-0.28798 2.71665 0.521149 2.00439 1.48262 2.00439V2V2.00008Z" fill="#2E8168"/>
</g>
<defs>
<clipPath id="clip0_185_11041">
<rect width="16" height="16" fill="white" transform="translate(0.5)"/>
</clipPath>
</defs>
</svg>
