<svg width="17" height="16" viewBox="0 0 17 16" fill="none" xmlns="http://www.w3.org/2000/svg">
<g id="local_phone_black_24dp 1" clip-path="url(#clip0_185_11050)">
<path id="Vector" d="M4.91333 7.19333C5.87333 9.08 7.42 10.62 9.30667 11.5867L10.7733 10.12C10.9533 9.94 11.22 9.88 11.4533 9.96C12.2 10.2067 13.0067 10.34 13.8333 10.34C14.2 10.34 14.5 10.64 14.5 11.0067V13.3333C14.5 13.7 14.2 14 13.8333 14C7.57333 14 2.5 8.92667 2.5 2.66667C2.5 2.3 2.8 2 3.16667 2H5.5C5.86667 2 6.16667 2.3 6.16667 2.66667C6.16667 3.5 6.3 4.3 6.54667 5.04667C6.62 5.28 6.56667 5.54 6.38 5.72667L4.91333 7.19333Z" fill="#2E8168"/>
</g>
<defs>
<clipPath id="clip0_185_11050">
<rect width="16" height="16" fill="white" transform="translate(0.5)"/>
</clipPath>
</defs>
</svg>
