<svg width="113" height="55" viewBox="0 0 113 55" fill="none" xmlns="http://www.w3.org/2000/svg">
<g clip-path="url(#clip0_40_573)">
<mask id="mask0_40_573" style="mask-type:luminance" maskUnits="userSpaceOnUse" x="0" y="0" width="37" height="55">
<path d="M36.0965 7.54097C36.0763 7.17043 35.773 6.88001 35.4192 6.91005L32.0431 7.1504L33.5593 4.02586C33.721 3.69537 33.5997 3.28478 33.2864 3.11453C32.973 2.94428 32.5889 3.07447 32.4272 3.40495L30.3853 7.59104C30.3853 7.59104 30.355 7.66114 30.3449 7.69119L25.6041 12.4481L24.098 5.71832L24.846 1.04151C24.9067 0.670975 24.6742 0.320465 24.3305 0.260378C23.9868 0.20029 23.6532 0.450655 23.6027 0.811179L23.0467 4.32629L20.5702 2.08303C20.3074 1.84268 19.9031 1.87272 19.6807 2.16315C19.4583 2.45357 19.4886 2.87418 19.7515 3.12454L22.8547 5.93864L24.563 13.5798L18.0128 25.6072L11.5638 13.6198L13.2822 5.94865L16.3955 3.13456C16.6583 2.89421 16.6988 2.46358 16.4663 2.17316C16.2338 1.88274 15.8396 1.85269 15.5767 2.09304L13.1002 4.33631L12.5443 0.821194C12.4836 0.450655 12.1602 0.20029 11.8165 0.270392C11.4728 0.33048 11.2403 0.68099 11.301 1.05153L12.0389 5.71832L10.5631 12.2979L5.91327 7.6311C5.91327 7.6311 5.90316 7.60106 5.89306 7.59104L3.8613 3.39494C3.69957 3.06446 3.31546 2.93427 3.0021 3.10451C2.68874 3.27476 2.56745 3.68536 2.72918 4.01584L4.24541 7.14039L0.869262 6.90004C0.515474 6.88001 0.222335 7.16041 0.19201 7.53095C0.171793 7.90149 0.434608 8.23197 0.788396 8.252L4.98331 8.54243L10.1891 13.77L17.3861 27.1395V53.8784C17.3861 54.2489 17.6692 54.5594 18.0229 54.5594C18.3767 54.5594 18.6598 54.2589 18.6598 53.8784V27.1395L25.6749 14.2507C25.6749 14.2507 25.6951 14.2407 25.6951 14.2307L31.3557 8.54243L35.5001 8.252C35.8539 8.23197 36.1167 7.90149 36.0965 7.53095V7.54097Z" fill="white"/>
</mask>
<g mask="url(#mask0_40_573)">
<path d="M1.90735e-05 55L36.6121 55L36.6121 -3.8147e-06L1.90735e-05 -3.8147e-06L1.90735e-05 55Z" fill="url(#paint0_linear_40_573)"/>
</g>
<path d="M27.9088 35.6317V38.8764H32.9427V40.5588H27.9088V44.6448H25.968V33.9692H33.5896V35.6317H27.9088Z" fill="#EBEBEB"/>
<path d="M45.2243 37.765C45.2243 37.084 45.0019 36.5632 44.5672 36.1927C44.1326 35.8222 43.4857 35.6419 42.6467 35.6419H40.3824V39.8981H42.6467C43.4958 39.8981 44.1326 39.7178 44.5672 39.3473C45.0019 38.9667 45.2243 38.446 45.2243 37.765ZM45.2748 44.645L43.142 41.5205C43.051 41.5305 42.9196 41.5405 42.7377 41.5405H40.3824V44.655H38.4417V33.9795H42.7377C43.6373 33.9795 44.4257 34.1297 45.0929 34.4402C45.7701 34.7406 46.2856 35.1812 46.6394 35.7521C46.9932 36.3229 47.1752 36.9939 47.1752 37.785C47.1752 38.5762 46.9831 39.2772 46.5889 39.858C46.2149 40.4389 45.669 40.8695 44.9514 41.1499L47.347 44.655H45.2647L45.2748 44.645Z" fill="#EBEBEB"/>
<path d="M58.456 40.6189L56.4849 35.9521L54.534 40.6189H58.456ZM59.0928 42.1712H53.877L52.8459 44.6448H50.8445L55.5448 33.9692H57.4553L62.1657 44.6448H60.134L59.0928 42.1712Z" fill="#EBEBEB"/>
<path d="M71.162 44.7953C70.1108 44.7953 69.1505 44.565 68.3014 44.0943C67.4523 43.6136 66.7953 42.9626 66.3 42.1214C65.8249 41.2902 65.5823 40.3488 65.5823 39.2973C65.5823 38.2458 65.8249 37.3044 66.3101 36.4732C66.7953 35.642 67.4624 34.9911 68.3115 34.5204C69.1707 34.0397 70.1209 33.7993 71.1721 33.7993C72.0313 33.7993 72.8097 33.9495 73.5172 34.26C74.2248 34.5604 74.8212 35.0111 75.3064 35.5919L74.053 36.7937C73.2949 35.9625 72.3649 35.5419 71.2631 35.5419C70.5454 35.5419 69.9086 35.7021 69.3425 36.0326C68.7765 36.343 68.3317 36.7937 68.0184 37.3645C67.705 37.9353 67.5433 38.5763 67.5433 39.2973C67.5433 40.0184 67.705 40.6693 68.0184 41.2301C68.3317 41.801 68.7765 42.2516 69.3425 42.5721C69.9086 42.8825 70.5454 43.0428 71.2631 43.0428C72.3649 43.0428 73.2949 42.6222 74.053 41.7809L75.3064 43.0027C74.8212 43.5835 74.2147 44.0242 73.5071 44.3346C72.7996 44.6351 72.0212 44.7953 71.162 44.7953Z" fill="#EBEBEB"/>
<path d="M82.1497 35.6417H78.6826V33.9692H87.5374V35.6417H84.0804V44.6448H82.1497V35.6417Z" fill="#EBEBEB"/>
<path d="M97.5849 40.6189L95.6138 35.9521L93.6629 40.6189H97.5849ZM98.2217 42.1712H93.0059L91.9748 44.6448H89.9734L94.6737 33.9692H96.5842L101.295 44.6448H99.2629L98.2217 42.1712Z" fill="#EBEBEB"/>
<path d="M105.601 33.9692H107.542V42.9723H113V44.6448H105.601V33.9692Z" fill="#EBEBEB"/>
</g>
<defs>
<linearGradient id="paint0_linear_40_573" x1="36.6121" y1="27.5" x2="1.90735e-05" y2="27.5" gradientUnits="userSpaceOnUse">
<stop stop-color="#E6CA2F"/>
<stop offset="0.39" stop-color="#AFBF5A"/>
<stop offset="1" stop-color="#51AEA6"/>
</linearGradient>
<clipPath id="clip0_40_573">
<rect width="113" height="55" fill="white"/>
</clipPath>
</defs>
</svg>
