<svg width="183" height="60" viewBox="0 0 183 60" fill="none" xmlns="http://www.w3.org/2000/svg">
<g clip-path="url(#clip0_1601_5935)">
<path d="M100.585 28.3467L99.0125 24.5313L97.3979 28.3467H100.585ZM100.776 28.8623H97.187L96.5581 30.3524C96.4027 30.719 96.3248 30.9928 96.3248 31.173C96.3248 31.3177 96.3927 31.444 96.5268 31.5531C96.6608 31.6619 96.952 31.7334 97.3979 31.765V32.0225H94.4791V31.765C94.8663 31.6957 95.1173 31.605 95.2304 31.4941C95.4637 31.2712 95.7214 30.8189 96.0037 30.1362L99.2656 22.3659H99.5045L102.732 30.2198C102.992 30.8506 103.229 31.2609 103.44 31.4482C103.652 31.6367 103.947 31.7416 104.325 31.765V32.0225H100.667V31.765C101.036 31.7465 101.286 31.6847 101.416 31.5777C101.546 31.4706 101.611 31.3401 101.611 31.1876C101.611 30.9828 101.52 30.6607 101.337 30.2198L100.776 28.8623Z" fill="#162340"/>
<path d="M108.667 26.7872L112.086 30.2471C112.647 30.8185 113.126 31.2078 113.523 31.4133C113.919 31.6202 114.315 31.7372 114.712 31.7657V32.0234H110.302V31.7657C110.566 31.7657 110.757 31.7201 110.873 31.6295C110.989 31.5395 111.047 31.4378 111.047 31.3269C111.047 31.216 111.025 31.1161 110.982 31.0272C110.939 30.9397 110.797 30.7747 110.555 30.5333L107.355 27.3095V30.352C107.355 30.8298 107.385 31.1456 107.443 31.2992C107.489 31.4144 107.585 31.515 107.73 31.5989C107.927 31.7098 108.134 31.7657 108.353 31.7657H108.667V32.0234H104.715V31.7657H105.044C105.427 31.7657 105.705 31.6519 105.877 31.4243C105.987 31.2761 106.042 30.9184 106.042 30.352V24.2531C106.042 23.7742 106.012 23.4563 105.952 23.2985C105.908 23.1875 105.814 23.0897 105.673 23.0062C105.472 22.8953 105.262 22.8391 105.044 22.8391H104.715V22.5817H108.667V22.8391H108.353C108.139 22.8391 107.932 22.8921 107.73 22.9991C107.59 23.0734 107.491 23.1847 107.437 23.3333C107.382 23.4819 107.355 23.7884 107.355 24.2531V27.1427C107.446 27.0538 107.758 26.7594 108.291 26.2574C109.646 24.9955 110.464 24.1532 110.746 23.7305C110.869 23.5452 110.931 23.382 110.931 23.2437C110.931 23.1367 110.883 23.0417 110.787 22.9614C110.691 22.88 110.53 22.8391 110.302 22.8391H110.09V22.5817H113.495V22.8391C113.295 22.8433 113.111 22.8718 112.948 22.9226C112.783 22.9735 112.583 23.0723 112.346 23.2192C112.11 23.3649 111.817 23.601 111.471 23.9249C111.371 24.0188 110.908 24.4942 110.083 25.3529L108.667 26.7872Z" fill="#162340"/>
<path d="M121.017 22.3658V25.6312H120.764C120.682 25.0047 120.535 24.5059 120.324 24.134C120.111 23.7631 119.809 23.4691 119.416 23.2497C119.025 23.0321 118.62 22.923 118.2 22.923C117.726 22.923 117.334 23.0695 117.024 23.3649C116.713 23.6604 116.558 23.9953 116.558 24.3715C116.558 24.6584 116.657 24.9212 116.852 25.1576C117.135 25.5061 117.808 25.9704 118.87 26.55C119.736 27.0236 120.328 27.3873 120.644 27.6398C120.961 27.8933 121.205 28.1909 121.376 28.5351C121.547 28.8782 121.632 29.238 121.632 29.6138C121.632 30.3288 121.36 30.945 120.816 31.4623C120.27 31.98 119.57 32.2385 118.712 32.2385C118.444 32.2385 118.191 32.2183 117.953 32.1763C117.813 32.1528 117.52 32.0686 117.075 31.9217C116.63 31.7763 116.349 31.7027 116.23 31.7027C116.117 31.7027 116.026 31.7375 115.96 31.8076C115.894 31.8769 115.845 32.0206 115.813 32.2385H115.56V29.0015H115.813C115.932 29.6789 116.091 30.1863 116.291 30.5223C116.493 30.8593 116.798 31.1384 117.212 31.3617C117.624 31.5847 118.077 31.6956 118.569 31.6956C119.139 31.6956 119.588 31.5431 119.919 31.2362C120.249 30.9297 120.415 30.5681 120.415 30.1507C120.415 29.9182 120.352 29.6842 120.227 29.4467C120.101 29.2103 119.907 28.9895 119.642 28.7857C119.464 28.6463 118.979 28.3498 118.186 27.8975C117.393 27.4453 116.829 27.0837 116.494 26.8149C116.159 26.5457 115.905 26.2485 115.731 25.9235C115.558 25.5985 115.471 25.2412 115.471 24.8511C115.471 24.1735 115.727 23.59 116.237 23.1C116.748 22.6101 117.397 22.3658 118.186 22.3658C118.678 22.3658 119.201 22.4892 119.751 22.7345C120.007 22.8504 120.188 22.9087 120.291 22.9087C120.412 22.9087 120.508 22.8732 120.583 22.8007C120.659 22.7285 120.718 22.5838 120.764 22.3658H121.017Z" fill="#162340"/>
<path d="M128.915 26.7872L132.334 30.2471C132.895 30.8185 133.374 31.2078 133.771 31.4133C134.167 31.6202 134.563 31.7372 134.96 31.7657V32.0234H130.55V31.7657C130.813 31.7657 131.004 31.7201 131.12 31.6295C131.236 31.5395 131.295 31.4378 131.295 31.3269C131.295 31.216 131.273 31.1161 131.229 31.0272C131.187 30.9397 131.044 30.7747 130.803 30.5333L127.603 27.3095V30.352C127.603 30.8298 127.632 31.1456 127.691 31.2992C127.736 31.4144 127.832 31.515 127.978 31.5989C128.174 31.7098 128.382 31.7657 128.601 31.7657H128.915V32.0234H124.963V31.7657H125.291C125.674 31.7657 125.951 31.6519 126.125 31.4243C126.234 31.2761 126.289 30.9184 126.289 30.352V24.2531C126.289 23.7742 126.259 23.4563 126.2 23.2985C126.154 23.1875 126.061 23.0897 125.92 23.0062C125.72 22.8953 125.51 22.8391 125.291 22.8391H124.963V22.5817H128.915V22.8391H128.601C128.386 22.8391 128.179 22.8921 127.978 22.9991C127.837 23.0734 127.739 23.1847 127.685 23.3333C127.63 23.4819 127.603 23.7884 127.603 24.2531V27.1427C127.693 27.0538 128.006 26.7594 128.539 26.2574C129.894 24.9955 130.711 24.1532 130.994 23.7305C131.117 23.5452 131.179 23.382 131.179 23.2437C131.179 23.1367 131.131 23.0417 131.035 22.9614C130.939 22.88 130.777 22.8391 130.55 22.8391H130.338V22.5817H133.743V22.8391C133.542 22.8433 133.359 22.8718 133.195 22.9226C133.032 22.9735 132.831 23.0723 132.595 23.2192C132.356 23.3649 132.064 23.601 131.719 23.9249C131.618 24.0188 131.155 24.4942 130.33 25.3529L128.915 26.7872Z" fill="#162340"/>
<path d="M136.772 28.6317H139.659V26.8219C139.659 26.498 139.639 26.285 139.599 26.1823C139.569 26.1047 139.504 26.0375 139.407 25.9814C139.276 25.9071 139.136 25.8704 138.989 25.8704H138.769V25.6973H141.426V25.8704H141.207C141.06 25.8704 140.921 25.906 140.79 25.9775C140.692 26.0272 140.626 26.1026 140.59 26.2036C140.555 26.3046 140.538 26.5101 140.538 26.8219V30.9033C140.538 31.224 140.558 31.4349 140.597 31.5376C140.628 31.6162 140.691 31.6823 140.786 31.7382C140.919 31.8135 141.06 31.8505 141.207 31.8505H141.426V32.0237H138.769V31.8505H138.989C139.244 31.8505 139.428 31.7741 139.544 31.6223C139.621 31.5223 139.659 31.2831 139.659 30.9033V28.9769H136.772V30.9033C136.772 31.224 136.793 31.4349 136.832 31.5376C136.862 31.6162 136.926 31.6823 137.024 31.7382C137.156 31.8135 137.294 31.8505 137.441 31.8505H137.666V32.0237H135.003V31.8505H135.224C135.481 31.8505 135.667 31.7741 135.783 31.6223C135.856 31.5223 135.893 31.2831 135.893 30.9033V26.8219C135.893 26.498 135.873 26.285 135.834 26.1823C135.802 26.1047 135.74 26.0375 135.646 25.9814C135.511 25.9071 135.371 25.8704 135.224 25.8704H135.003V25.6973H137.666V25.8704H137.441C137.294 25.8704 137.156 25.906 137.024 25.9775C136.929 26.0272 136.864 26.1026 136.828 26.2036C136.791 26.3046 136.772 26.5101 136.772 26.8219V28.6317Z" fill="#162340"/>
<path d="M145.783 29.5598L144.73 27.0033L143.649 29.5598H145.783ZM145.912 29.905H143.508L143.086 30.9034C142.982 31.1498 142.93 31.3329 142.93 31.4545C142.93 31.5512 142.975 31.6355 143.065 31.708C143.154 31.7813 143.348 31.8293 143.649 31.8506V32.0227H141.692V31.8506C141.953 31.8037 142.12 31.7436 142.196 31.6682C142.353 31.5196 142.524 31.2159 142.715 30.7587L144.899 25.5527H145.059L147.222 30.8145C147.396 31.2373 147.555 31.5125 147.697 31.6387C147.839 31.7639 148.036 31.8353 148.29 31.8506V32.0227H145.84V31.8506C146.087 31.8382 146.253 31.7966 146.34 31.724C146.428 31.6529 146.471 31.5665 146.471 31.4634C146.471 31.3258 146.41 31.11 146.288 30.8145L145.912 29.905Z" fill="#162340"/>
<path d="M148.272 25.6974H149.958L153.755 30.4419V26.7936C153.755 26.4042 153.712 26.1628 153.627 26.0661C153.514 25.9346 153.335 25.8695 153.091 25.8695H152.877V25.6974H155.038V25.8695H154.818C154.555 25.8695 154.37 25.9509 154.259 26.113C154.192 26.2119 154.159 26.4387 154.159 26.7936V32.1255H153.994L149.898 27.0318V30.9266C149.898 31.3159 149.939 31.558 150.022 31.6547C150.137 31.7852 150.316 31.8506 150.557 31.8506H150.778V32.0227H148.616V31.8506H148.83C149.095 31.8506 149.285 31.7689 149.394 31.6082C149.461 31.5082 149.495 31.281 149.495 30.9266V26.5276C149.315 26.3125 149.178 26.171 149.085 26.1027C148.992 26.0345 148.855 25.9715 148.675 25.9114C148.586 25.8837 148.453 25.8695 148.272 25.8695V25.6974Z" fill="#162340"/>
<path d="M69.4473 40.2415C69.6894 40.2885 69.9034 40.323 70.0905 40.3464C70.2775 40.3699 70.4364 40.3813 70.5687 40.3813C71.0426 40.3813 71.4519 40.1939 71.7957 39.8209C72.1399 39.4472 72.312 38.9633 72.312 38.3695C72.312 37.961 72.2302 37.5813 72.0659 37.2307C71.902 36.8805 71.6698 36.6177 71.3687 36.4435C71.0679 36.2703 70.7255 36.1825 70.3436 36.1825C70.1104 36.1825 69.8124 36.2273 69.4473 36.3151V40.2415ZM69.4473 40.6391V43.3889C69.4473 43.9838 69.5113 44.3525 69.6382 44.4961C69.8124 44.7009 70.0734 44.8026 70.4254 44.8026H70.7806V45.0593H66.8076V44.8026H67.1568C67.5486 44.8026 67.8288 44.6732 67.9977 44.4126C68.089 44.2689 68.1349 43.9279 68.1349 43.3889V37.2901C68.1349 36.6959 68.0727 36.3262 67.95 36.1825C67.7719 35.9781 67.5077 35.876 67.1568 35.876H66.8076V35.6186H70.2064C71.0355 35.6186 71.6901 35.7061 72.169 35.8803C72.6473 36.0545 73.0512 36.3479 73.3794 36.7614C73.7075 37.1738 73.8714 37.6638 73.8714 38.2298C73.8714 38.9999 73.6215 39.6264 73.1223 40.1103C72.6231 40.5928 71.918 40.8335 71.0067 40.8335C70.7827 40.8335 70.5417 40.8172 70.2814 40.7845C70.0215 40.7528 69.7434 40.7041 69.4473 40.6391Z" fill="#162340"/>
<path d="M76.2924 41.669H79.1781V39.8589C79.1781 39.5353 79.1592 39.322 79.1191 39.2192C79.0881 39.1421 79.0241 39.0749 78.926 39.0187C78.7952 38.9444 78.6561 38.9077 78.51 38.9077H78.2899V38.7346H80.9466V38.9077H80.7276C80.5808 38.9077 80.4414 38.9433 80.3105 39.0148C80.2124 39.0645 80.1466 39.1399 80.1104 39.2405C80.0755 39.3415 80.0584 39.5474 80.0584 39.8589V43.9403C80.0584 44.2613 80.0784 44.4718 80.1175 44.5749C80.1484 44.6532 80.2106 44.7197 80.3056 44.7755C80.4396 44.8498 80.5808 44.8875 80.7276 44.8875H80.9466V45.0596H78.2899V44.8875H78.51C78.7632 44.8875 78.948 44.811 79.064 44.6596C79.14 44.5597 79.1781 44.3204 79.1781 43.9403V42.0142H76.2924V43.9403C76.2924 44.2613 76.3123 44.4718 76.3525 44.5749C76.3824 44.6532 76.4464 44.7197 76.5445 44.7755C76.6757 44.8498 76.8147 44.8875 76.9605 44.8875H77.1856V45.0596H74.5239V44.8875H74.744C75 44.8875 75.187 44.811 75.3032 44.6596C75.3761 44.5597 75.4131 44.3204 75.4131 43.9403V39.8589C75.4131 39.5353 75.3932 39.322 75.353 39.2192C75.3221 39.1421 75.2602 39.0749 75.166 39.0187C75.0312 38.9444 74.8912 38.9077 74.744 38.9077H74.5239V38.7346H77.1856V38.9077H76.9605C76.8147 38.9077 76.6757 38.9433 76.5445 39.0148C76.4492 39.0645 76.3845 39.1399 76.3475 39.2405C76.3105 39.3415 76.2924 39.5474 76.2924 39.8589V41.669Z" fill="#162340"/>
<path d="M85.3037 42.597L84.2505 40.0405L83.1693 42.597H85.3037ZM85.4317 42.9422H83.027L82.6061 43.9403C82.5019 44.187 82.45 44.3691 82.45 44.4903C82.45 44.587 82.4951 44.6717 82.5851 44.7453C82.675 44.8185 82.8692 44.8661 83.1693 44.8875V45.0596H81.2126V44.8875C81.4726 44.8409 81.6397 44.7808 81.7168 44.7054C81.8729 44.5565 82.0446 44.2532 82.2349 43.7959L84.4194 38.5899H84.5794L86.7422 43.8517C86.9161 44.2745 87.075 44.5493 87.2173 44.6749C87.3584 44.8011 87.5565 44.8711 87.8093 44.8875V45.0596H85.3588V44.8875C85.607 44.8743 85.7737 44.8327 85.8608 44.7613C85.9479 44.6901 85.991 44.6034 85.991 44.4996C85.991 44.363 85.9298 44.1472 85.8078 43.8517L85.4317 42.9422Z" fill="#162340"/>
<path d="M89.8442 41.8081C89.9021 41.8081 89.9522 41.8088 89.9953 41.811C90.0383 41.812 90.0731 41.8131 90.1002 41.8131C90.6936 41.8131 91.1394 41.6826 91.4406 41.4209C91.7418 41.1592 91.8918 40.8271 91.8918 40.4229C91.8918 40.0279 91.7709 39.7068 91.5277 39.4593C91.2845 39.2129 90.9634 39.0895 90.5634 39.0895C90.3864 39.0895 90.1464 39.118 89.8442 39.1774V41.8081ZM94.2562 45.0593H92.5969L90.4945 42.1025C90.3394 42.1086 90.2122 42.1118 90.1144 42.1118C90.0742 42.1118 90.0322 42.1107 89.986 42.1096C89.9402 42.1075 89.8932 42.1054 89.8442 42.1025V43.9411C89.8442 44.3383 89.8861 44.5857 89.9722 44.6814C90.0884 44.819 90.2623 44.8872 90.4945 44.8872H90.7373V45.0593H88.0756V44.8872H88.3099C88.5716 44.8872 88.7601 44.8005 88.8731 44.6263C88.9368 44.5295 88.9691 44.3006 88.9691 43.9411V39.8543C88.9691 39.4561 88.9268 39.2087 88.8408 39.1119C88.722 38.9754 88.545 38.9071 88.3099 38.9071H88.0756V38.734H90.3394C90.9986 38.734 91.4847 38.7831 91.7986 38.8808C92.1108 38.9793 92.3768 39.1599 92.5947 39.4227C92.8141 39.6855 92.9229 39.9991 92.9229 40.3617C92.9229 40.7507 92.7981 41.0892 92.5499 41.374C92.3007 41.6602 91.9146 41.8632 91.3926 41.9813L92.6762 43.7953C92.9691 44.2117 93.2202 44.4897 93.4314 44.6263C93.6426 44.7628 93.9174 44.8495 94.2562 44.8872V45.0593Z" fill="#162340"/>
<path d="M98.0128 45.0598L95.6121 39.7368V43.9636C95.6121 44.353 95.6541 44.5955 95.7366 44.6922C95.8493 44.8227 96.0285 44.8877 96.2724 44.8877H96.4918V45.0598H94.3289V44.8877H94.549C94.8121 44.8877 94.9981 44.8063 95.109 44.6452C95.1751 44.5453 95.2089 44.3185 95.2089 43.9636V39.8307C95.2089 39.5505 95.178 39.3489 95.1168 39.2244C95.0742 39.1338 94.9963 39.0584 94.8807 38.9983C94.767 38.9375 94.5831 38.9066 94.3289 38.9066V38.7345H96.0886L98.3431 43.6838L100.561 38.7345H102.32V38.9066H102.104C101.838 38.9066 101.651 38.9883 101.54 39.1501C101.473 39.249 101.44 39.4762 101.44 39.8307V43.9636C101.44 44.353 101.483 44.5955 101.568 44.6922C101.681 44.8227 101.86 44.8877 102.104 44.8877H102.32V45.0598H99.6804V44.8877H99.9005C100.166 44.8877 100.353 44.8063 100.459 44.6452C100.527 44.5453 100.561 44.3185 100.561 43.9636V39.7368L98.1639 45.0598H98.0128Z" fill="#162340"/>
<path d="M106.681 42.597L105.627 40.0405L104.546 42.597H106.681ZM106.809 42.9422H104.405L103.983 43.9403C103.879 44.187 103.827 44.3691 103.827 44.4903C103.827 44.587 103.872 44.6717 103.962 44.7453C104.052 44.8185 104.246 44.8661 104.546 44.8875V45.0596H102.589V44.8875C102.85 44.8409 103.017 44.7808 103.093 44.7054C103.25 44.5565 103.422 44.2532 103.611 43.7959L105.796 38.5899H105.956L108.119 43.8517C108.293 44.2745 108.452 44.5493 108.594 44.6749C108.736 44.8011 108.933 44.8711 109.187 44.8875V45.0596H106.736V44.8875C106.984 44.8743 107.151 44.8327 107.237 44.7613C107.325 44.6901 107.368 44.6034 107.368 44.4996C107.368 44.363 107.307 44.1472 107.185 43.8517L106.809 42.9422Z" fill="#162340"/>
<path d="M114.942 38.5899L115.084 40.7399H114.942C114.753 40.0963 114.482 39.6327 114.13 39.3507C113.779 39.0674 113.357 38.9259 112.866 38.9259C112.454 38.9259 112.081 39.0329 111.749 39.2459C111.416 39.4585 111.154 39.7977 110.962 40.2642C110.771 40.7307 110.675 41.3102 110.675 42.0039C110.675 42.5774 110.765 43.0723 110.947 43.4923C111.127 43.9129 111.397 44.2347 111.759 44.4576C112.122 44.6816 112.535 44.7939 112.999 44.7939C113.402 44.7939 113.757 44.7061 114.066 44.5308C114.374 44.3548 114.713 44.0053 115.084 43.483L115.225 43.5765C114.914 44.1397 114.549 44.5515 114.134 44.8131C113.719 45.0738 113.226 45.2053 112.655 45.2053C111.626 45.2053 110.829 44.8163 110.263 44.038C109.842 43.4606 109.631 42.779 109.631 41.995C109.631 41.3632 109.77 40.7836 110.048 40.2553C110.327 39.7266 110.709 39.317 111.196 39.0258C111.683 38.7356 112.215 38.5899 112.793 38.5899C113.242 38.5899 113.684 38.7019 114.121 38.9259C114.249 38.9941 114.34 39.029 114.396 39.029C114.478 39.029 114.549 38.998 114.611 38.939C114.691 38.8558 114.748 38.7385 114.781 38.5899H114.942Z" fill="#162340"/>
<path d="M117.512 39.0796V41.5802H118.876C119.231 41.5802 119.467 41.5251 119.586 41.4163C119.745 41.2734 119.833 41.0209 119.852 40.6615H120.022V42.8627H119.852C119.809 42.5548 119.767 42.3575 119.724 42.2707C119.669 42.1608 119.578 42.0751 119.453 42.014C119.328 41.9511 119.136 41.9205 118.876 41.9205H117.512V44.0055C117.512 44.2856 117.524 44.4556 117.548 44.5167C117.573 44.5765 117.616 44.6245 117.676 44.6604C117.738 44.697 117.854 44.7141 118.025 44.7141H119.078C119.429 44.7141 119.684 44.6899 119.844 44.6398C120.001 44.59 120.155 44.4922 120.302 44.3464C120.491 44.153 120.684 43.8629 120.883 43.4735H121.067L120.531 45.0593H115.742V44.8872H115.962C116.11 44.8872 116.248 44.8517 116.379 44.7806C116.478 44.7304 116.543 44.6561 116.579 44.5562C116.614 44.4567 116.631 44.2529 116.631 43.9443V39.8351C116.631 39.4341 116.591 39.1866 116.512 39.0938C116.404 38.9697 116.219 38.9075 115.962 38.9075H115.742V38.7343H120.531L120.6 40.1196H120.421C120.357 39.7875 120.284 39.5585 120.207 39.4341C120.129 39.3096 120.014 39.2151 119.862 39.15C119.739 39.1031 119.524 39.0796 119.215 39.0796H117.512Z" fill="#162340"/>
<path d="M125.757 38.9071V38.735H127.957V38.9071H127.722C127.479 38.9071 127.29 39.0109 127.16 39.2197C127.096 39.3157 127.064 39.5397 127.064 39.8913V42.4566C127.064 43.0913 127.001 43.5834 126.877 43.9336C126.754 44.2831 126.511 44.5836 126.15 44.8339C125.787 45.0838 125.295 45.209 124.672 45.209C123.994 45.209 123.48 45.0899 123.128 44.8492C122.777 44.6102 122.527 44.2892 122.381 43.8838C122.283 43.6079 122.235 43.0885 122.235 42.3265V39.8547C122.235 39.4653 122.182 39.2097 122.076 39.0895C121.971 38.9683 121.801 38.9071 121.566 38.9071H121.332V38.735H124.017V38.9071H123.778C123.523 38.9071 123.338 38.9896 123.229 39.1546C123.153 39.2666 123.113 39.4998 123.113 39.8547V42.6106C123.113 42.8559 123.137 43.1382 123.181 43.455C123.225 43.7729 123.305 44.0193 123.421 44.1974C123.537 44.3745 123.704 44.5203 123.923 44.6355C124.142 44.7507 124.409 44.8076 124.727 44.8076C125.133 44.8076 125.496 44.718 125.817 44.5377C126.138 44.3574 126.357 44.1274 126.474 43.8451C126.593 43.5642 126.652 43.0863 126.652 42.415V39.8547C126.652 39.4593 126.609 39.2118 126.523 39.1119C126.403 38.9754 126.226 38.9071 125.991 38.9071H125.757Z" fill="#162340"/>
<path d="M133.486 38.7346L133.555 40.2176H133.382C133.347 39.957 133.301 39.7703 133.244 39.6583C133.149 39.477 133.023 39.3447 132.866 39.259C132.709 39.1733 132.502 39.1307 132.245 39.1307H131.371V43.9637C131.371 44.3527 131.411 44.5952 131.494 44.6919C131.61 44.8224 131.789 44.8875 132.029 44.8875H132.245V45.0596H129.611V44.8875H129.831C130.093 44.8875 130.279 44.8061 130.389 44.6453C130.457 44.5454 130.49 44.3182 130.49 43.9637V39.1307H129.744C129.454 39.1307 129.248 39.1531 129.126 39.1957C128.966 39.2548 128.831 39.3693 128.717 39.5371C128.604 39.7053 128.538 39.9314 128.516 40.2176H128.342L128.416 38.7346H133.486Z" fill="#162340"/>
<path d="M136.684 44.8877V45.0598H134.022V44.8877H134.244C134.499 44.8877 134.686 44.8113 134.801 44.6584C134.875 44.5599 134.912 44.3192 134.912 43.9405V39.8541C134.912 39.5341 134.892 39.3226 134.852 39.2195C134.822 39.1419 134.759 39.0747 134.663 39.0189C134.529 38.9446 134.39 38.9069 134.244 38.9069H134.022V38.7348H136.684V38.9069H136.46C136.206 38.9069 136.022 38.9834 135.906 39.1359C135.83 39.2358 135.791 39.4751 135.791 39.8541V43.9405C135.791 44.2612 135.811 44.4721 135.851 44.5741C135.881 44.6534 135.946 44.7195 136.043 44.7757C136.174 44.85 136.313 44.8877 136.46 44.8877H136.684Z" fill="#162340"/>
<path d="M142.563 38.5899L142.705 40.7399H142.563C142.374 40.0963 142.103 39.6327 141.751 39.3507C141.4 39.0674 140.979 38.9259 140.487 38.9259C140.075 38.9259 139.702 39.0329 139.37 39.2459C139.037 39.4585 138.775 39.7977 138.583 40.2642C138.393 40.7307 138.297 41.3102 138.297 42.0039C138.297 42.5774 138.387 43.0723 138.568 43.4923C138.748 43.9129 139.019 44.2347 139.38 44.4576C139.743 44.6816 140.156 44.7939 140.62 44.7939C141.023 44.7939 141.379 44.7061 141.688 44.5308C141.995 44.3548 142.335 44.0053 142.705 43.483L142.846 43.5765C142.535 44.1397 142.171 44.5515 141.755 44.8131C141.34 45.0738 140.847 45.2053 140.276 45.2053C139.247 45.2053 138.45 44.8163 137.884 44.038C137.463 43.4606 137.252 42.779 137.252 41.995C137.252 41.3632 137.391 40.7836 137.669 40.2553C137.948 39.7266 138.331 39.317 138.817 39.0258C139.304 38.7356 139.836 38.5899 140.414 38.5899C140.863 38.5899 141.306 38.7019 141.743 38.9259C141.871 38.9941 141.962 39.029 142.017 39.029C142.1 39.029 142.171 38.998 142.233 38.939C142.312 38.8558 142.369 38.7385 142.402 38.5899H142.563Z" fill="#162340"/>
<path d="M147.336 42.597L146.282 40.0405L145.201 42.597H147.336ZM147.464 42.9422H145.06L144.638 43.9403C144.534 44.187 144.482 44.3691 144.482 44.4903C144.482 44.587 144.527 44.6717 144.617 44.7453C144.707 44.8185 144.901 44.8661 145.201 44.8875V45.0596H143.244V44.8875C143.505 44.8409 143.672 44.7808 143.749 44.7054C143.905 44.5565 144.077 44.2532 144.267 43.7959L146.451 38.5899H146.611L148.774 43.8517C148.948 44.2745 149.107 44.5493 149.249 44.6749C149.391 44.8011 149.588 44.8711 149.842 44.8875V45.0596H147.392V44.8875C147.639 44.8743 147.806 44.8327 147.893 44.7613C147.98 44.6901 148.023 44.6034 148.023 44.4996C148.023 44.363 147.962 44.1472 147.84 43.8517L147.464 42.9422Z" fill="#162340"/>
<path d="M155.326 43.31L155.478 43.3427L154.946 45.0601H150.136V44.8876H150.369C150.632 44.8876 150.819 44.8001 150.932 44.6259C150.997 44.526 151.029 44.297 151.029 43.9354V39.854C151.029 39.459 150.986 39.2126 150.9 39.1116C150.781 38.9751 150.604 38.9068 150.369 38.9068H150.136V38.7347H152.949V38.9068C152.619 38.904 152.387 38.9353 152.254 39.0007C152.121 39.0657 152.03 39.1482 151.981 39.2481C151.932 39.347 151.908 39.5852 151.908 39.961V43.9354C151.908 44.1943 151.932 44.3713 151.981 44.4681C152.018 44.5324 152.075 44.5811 152.151 44.6117C152.227 44.6433 152.466 44.6586 152.866 44.6586H153.32C153.796 44.6586 154.131 44.6231 154.323 44.5516C154.515 44.4794 154.69 44.3532 154.849 44.1719C155.009 43.9895 155.167 43.7022 155.326 43.31Z" fill="#162340"/>
<path d="M159.981 38.5899V40.7776H159.811C159.756 40.358 159.658 40.0238 159.516 39.7746C159.374 39.5257 159.171 39.3283 158.909 39.1826C158.647 39.0357 158.374 38.9625 158.092 38.9625C157.775 38.9625 157.512 39.0613 157.305 39.259C157.097 39.4567 156.994 39.6818 156.994 39.9331C156.994 40.1259 157.059 40.3008 157.19 40.4597C157.379 40.6933 157.83 41.0048 158.542 41.3927C159.123 41.7106 159.519 41.9541 159.731 42.1234C159.944 42.2923 160.107 42.4931 160.221 42.7232C160.335 42.9532 160.393 43.1936 160.393 43.4464C160.393 43.925 160.21 44.3374 159.846 44.6848C159.481 45.0311 159.011 45.2053 158.436 45.2053C158.256 45.2053 158.087 45.1911 157.928 45.1627C157.834 45.147 157.637 45.0901 157.339 44.9923C157.042 44.8946 156.853 44.8459 156.774 44.8459C156.697 44.8459 156.637 44.8693 156.592 44.9152C156.548 44.9618 156.515 45.0585 156.495 45.2053H156.325V43.0357H156.495C156.574 43.4891 156.68 43.8293 156.815 44.0555C156.949 44.2795 157.155 44.4679 157.431 44.6165C157.708 44.7662 158.01 44.8405 158.34 44.8405C158.723 44.8405 159.024 44.7388 159.246 44.5319C159.467 44.3275 159.578 44.085 159.578 43.8059C159.578 43.6491 159.536 43.4923 159.452 43.3344C159.368 43.1744 159.237 43.0275 159.06 42.8903C158.941 42.7975 158.616 42.5987 158.084 42.2951C157.552 41.9929 157.174 41.7515 156.95 41.5701C156.725 41.3909 156.555 41.1911 156.439 40.9731C156.323 40.7552 156.265 40.5159 156.265 40.2553C156.265 39.8009 156.436 39.4098 156.778 39.0816C157.12 38.7538 157.555 38.5899 158.084 38.5899C158.414 38.5899 158.764 38.6723 159.133 38.8373C159.304 38.9148 159.425 38.9532 159.496 38.9532C159.575 38.9532 159.64 38.9291 159.69 38.8811C159.741 38.8334 159.781 38.7367 159.811 38.5899H159.981Z" fill="#162340"/>
<path d="M168.621 43.31L168.772 43.3427L168.241 45.0601H163.43V44.8876H163.664C163.927 44.8876 164.115 44.8001 164.227 44.6259C164.292 44.526 164.324 44.297 164.324 43.9354V39.854C164.324 39.459 164.281 39.2126 164.196 39.1116C164.077 38.9751 163.899 38.9068 163.664 38.9068H163.43V38.7347H166.244V38.9068C165.913 38.904 165.682 38.9353 165.549 39.0007C165.416 39.0657 165.325 39.1482 165.276 39.2481C165.227 39.347 165.203 39.5852 165.203 39.961V43.9354C165.203 44.1943 165.227 44.3713 165.276 44.4681C165.313 44.5324 165.37 44.5811 165.446 44.6117C165.522 44.6433 165.761 44.6586 166.161 44.6586H166.614C167.092 44.6586 167.426 44.6231 167.618 44.5516C167.81 44.4794 167.986 44.3532 168.144 44.1719C168.304 43.9895 168.462 43.7022 168.621 43.31Z" fill="#162340"/>
<path d="M173.542 38.7346L173.61 40.2176H173.437C173.402 39.957 173.356 39.7703 173.299 39.6583C173.204 39.477 173.078 39.3447 172.921 39.259C172.764 39.1733 172.557 39.1307 172.301 39.1307H171.426V43.9637C171.426 44.3527 171.467 44.5952 171.55 44.6919C171.665 44.8224 171.844 44.8875 172.085 44.8875H172.301V45.0596H169.666V44.8875H169.887C170.148 44.8875 170.335 44.8061 170.444 44.6453C170.513 44.5454 170.545 44.3182 170.545 43.9637V39.1307H169.799C169.509 39.1307 169.303 39.1531 169.181 39.1957C169.021 39.2548 168.886 39.3693 168.772 39.5371C168.66 39.7053 168.593 39.9314 168.571 40.2176H168.397L168.471 38.7346H173.542Z" fill="#162340"/>
<path d="M175.777 44.603C176.166 44.6898 176.491 44.7335 176.753 44.7335C177.462 44.7335 178.049 44.48 178.517 43.9726C178.985 43.4663 179.217 42.779 179.217 41.9101C179.217 41.0372 178.985 40.3477 178.517 39.8446C178.049 39.3405 177.45 39.0887 176.717 39.0887C176.442 39.0887 176.129 39.1335 175.777 39.2242V44.603ZM174.005 45.0596V44.8871H174.238C174.501 44.8871 174.687 44.8018 174.798 44.6308C174.864 44.5287 174.898 44.2976 174.898 43.941V39.8535C174.898 39.4596 174.855 39.2117 174.769 39.1122C174.65 38.9757 174.473 38.9074 174.238 38.9074H174.005V38.7342H176.534C177.462 38.7342 178.169 38.8413 178.652 39.056C179.136 39.2711 179.525 39.6285 179.82 40.1287C180.116 40.6297 180.262 41.2082 180.262 41.8653C180.262 42.7442 180.001 43.4795 179.474 44.0715C178.885 44.7303 177.987 45.0596 176.78 45.0596H174.005Z" fill="#162340"/>
<path d="M181.794 44.1546C181.938 44.1546 182.058 44.2055 182.155 44.3064C182.253 44.4071 182.302 44.5294 182.302 44.673C182.302 44.8156 182.252 44.939 182.153 45.0385C182.054 45.1406 181.934 45.1914 181.794 45.1914C181.653 45.1914 181.533 45.1406 181.434 45.0385C181.334 44.939 181.284 44.8156 181.284 44.673C181.284 44.5262 181.334 44.4042 181.434 44.3032C181.533 44.2044 181.653 44.1546 181.794 44.1546Z" fill="#162340"/>
<path d="M34.6214 48.7747C40.9553 46.9382 45.9426 41.8609 47.7464 35.4122H34.6214V48.7747Z" fill="#409F83"/>
<path d="M47.7459 24.7478C45.9422 18.2984 40.9548 13.22 34.6209 11.3846V24.7478H47.7459Z" fill="#409F83"/>
<path d="M11.0244 35.4124C12.8267 41.8608 17.8155 46.9385 24.1483 48.7749V35.4124H11.0244Z" fill="#409F83"/>
<path d="M24.1481 11.3844C17.8153 13.2197 12.8268 18.2981 11.0242 24.7476H24.1481V11.3844Z" fill="#409F83"/>
<path d="M14.0331 34.3032H44.736V25.8566H14.0331V34.3032Z" fill="#539FC8"/>
<path d="M25.2374 45.7109H33.5335V14.4487H25.2374V45.7109Z" fill="#539FC8"/>
<path d="M15.2863 9.72372C18.2463 7.77527 21.4453 6.5063 24.7029 5.86345C22.4255 6.54079 20.2047 7.55519 18.1112 8.93439C6.45292 16.6051 3.10892 32.4455 10.6421 44.3147C15.3294 51.7013 23.1235 55.808 31.1509 56.0096L30.8757 59.8108C21.74 60.1735 12.6577 55.7632 7.33825 47.3806C-0.68024 34.7456 2.87994 17.8866 15.2863 9.72372Z" fill="#3A809D"/>
<path d="M23.8518 0.513561C21.3419 1.25916 18.8982 2.37667 16.5938 3.89312C3.76216 12.3358 0.0800239 29.7715 8.37122 42.8385C16.6617 55.9031 33.7885 59.6492 46.6183 51.2076C53.2 46.8787 57.3654 40.1818 58.7506 32.9249C57.8845 41.6801 53.2651 49.9742 45.4418 55.1201C31.7849 64.1057 13.5598 60.1178 4.73531 46.2106C-4.09029 32.3045 -0.170997 13.7488 13.4838 4.76209C16.7438 2.61703 20.2628 1.22147 23.8518 0.513561Z" fill="#162340"/>
<path d="M42.0146 46.9595C39.1648 48.4222 36.1671 49.2503 33.174 49.5088C35.2868 49.123 37.3813 48.4261 39.397 47.3904C50.614 41.6325 55.1203 27.7061 49.4649 16.2839C45.9467 9.17848 39.322 4.71946 32.1159 3.75199L32.7239 0.358215C40.9764 0.925327 48.7324 5.7847 52.7296 13.8526C58.7484 26.0059 53.9509 40.8279 42.0146 46.9595Z" fill="#162340"/>
<path d="M33.437 54.4045C35.7637 53.9789 38.0692 53.2149 40.2871 52.0771C52.6306 45.7347 57.5927 30.4085 51.3673 17.8378C45.1444 5.26463 30.088 0.215748 17.7435 6.55423C11.4128 9.80437 7.03059 15.4229 5.09601 21.8161C6.70347 14.0234 11.6446 7.01361 19.1717 3.14943C32.3127 -3.59759 48.3351 1.77841 54.9613 15.1569C61.586 28.5386 56.3035 44.8536 43.1668 51.5996C40.0308 53.2099 36.7309 54.1226 33.437 54.4045Z" fill="#3A809D"/>
</g>
<defs>
<clipPath id="clip0_1601_5935">
<rect width="182.4" height="60" fill="white"/>
</clipPath>
</defs>
</svg>
