<svg width="179" height="45" viewBox="0 0 179 45" fill="none" xmlns="http://www.w3.org/2000/svg">
<path d="M85.927 16.1172L84.2592 12.0708L82.5469 16.1172H85.927ZM86.1295 16.664H82.3233L81.6563 18.2443C81.4915 18.633 81.4089 18.9234 81.4089 19.1146C81.4089 19.268 81.4809 19.4019 81.6231 19.5176C81.7653 19.633 82.0741 19.7088 82.5469 19.7424V20.0154H79.4515V19.7424C79.8622 19.6689 80.1284 19.5727 80.2483 19.4551C80.4957 19.2186 80.769 18.739 81.0684 18.015L84.5277 9.77446H84.7811L88.2034 18.1036C88.4794 18.7725 88.7309 19.2077 88.9545 19.4064C89.1793 19.6063 89.4922 19.7175 89.8934 19.7424V20.0154H86.0137V19.7424C86.4055 19.7228 86.6706 19.6572 86.8086 19.5437C86.9462 19.4302 87.0145 19.2918 87.0145 19.13C87.0145 18.9128 86.9187 18.5712 86.7245 18.1036L86.1295 16.664Z" fill="#162340"/>
<path d="M94.4985 14.4635L98.1245 18.1327C98.7195 18.7387 99.2267 19.1516 99.6475 19.3695C100.068 19.589 100.488 19.7131 100.909 19.7432V20.0166H96.2319V19.7432C96.5121 19.7432 96.7146 19.695 96.8375 19.5988C96.9604 19.5034 97.0219 19.3956 97.0219 19.2779C97.0219 19.1603 96.9989 19.0543 96.9533 18.96C96.9077 18.8673 96.7568 18.6923 96.5004 18.4363L93.1068 15.0174V18.244C93.1068 18.7508 93.1388 19.0856 93.2003 19.2485C93.2489 19.3707 93.3507 19.4774 93.5042 19.5664C93.7135 19.684 93.9329 19.7432 94.1652 19.7432H94.4985V20.0166H90.3074V19.7432H90.6554C91.0615 19.7432 91.3564 19.6226 91.5396 19.3812C91.6554 19.224 91.7139 18.8447 91.7139 18.244V11.7761C91.7139 11.2681 91.6829 10.931 91.6192 10.7636C91.5717 10.646 91.4722 10.5423 91.3225 10.4537C91.1102 10.336 90.8873 10.2764 90.6554 10.2764H90.3074V10.0034H94.4985V10.2764H94.1652C93.9386 10.2764 93.7188 10.3326 93.5042 10.4461C93.356 10.5249 93.2508 10.643 93.1935 10.8006C93.1354 10.9582 93.1068 11.2832 93.1068 11.7761V14.8405C93.2029 14.7463 93.534 14.434 94.0996 13.9016C95.5359 12.5634 96.4039 11.6701 96.7029 11.2218C96.8334 11.0253 96.899 10.8522 96.899 10.7055C96.899 10.592 96.8481 10.4914 96.7463 10.4061C96.6445 10.3198 96.4736 10.2764 96.2319 10.2764H96.0068V10.0034H99.6181V10.2764C99.4058 10.281 99.2116 10.3111 99.0377 10.365C98.8635 10.419 98.6516 10.5238 98.4001 10.6795C98.149 10.8341 97.839 11.0845 97.4721 11.428C97.3658 11.5276 96.8748 12.0317 95.9993 12.9423L94.4985 14.4635Z" fill="#162340"/>
<path d="M107.595 9.77445V13.2375H107.327C107.24 12.5731 107.085 12.0441 106.86 11.6496C106.635 11.2563 106.315 10.9445 105.898 10.7119C105.483 10.4811 105.053 10.3653 104.608 10.3653C104.105 10.3653 103.69 10.5207 103.361 10.834C103.032 11.1474 102.867 11.5026 102.867 11.9015C102.867 12.2058 102.972 12.4845 103.179 12.7352C103.479 13.1048 104.192 13.5972 105.319 14.2118C106.237 14.7141 106.865 15.0998 107.201 15.3676C107.536 15.6364 107.795 15.952 107.976 16.317C108.158 16.6809 108.248 17.0625 108.248 17.4611C108.248 18.2194 107.959 18.8728 107.382 19.4215C106.804 19.9705 106.061 20.2446 105.151 20.2446C104.867 20.2446 104.599 20.2231 104.346 20.1786C104.198 20.1538 103.887 20.0644 103.415 19.9087C102.943 19.7544 102.645 19.6764 102.519 19.6764C102.4 19.6764 102.303 19.7133 102.233 19.7876C102.163 19.8611 102.111 20.0135 102.077 20.2446H101.808V16.8118H102.077C102.203 17.5301 102.372 18.0682 102.584 18.4245C102.798 18.782 103.122 19.078 103.56 19.3148C103.997 19.5512 104.477 19.6688 104.999 19.6688C105.604 19.6688 106.08 19.5071 106.432 19.1817C106.782 18.8566 106.957 18.4731 106.957 18.0305C106.957 17.7839 106.891 17.5357 106.758 17.2839C106.625 17.0331 106.419 16.7989 106.138 16.5829C105.949 16.4351 105.435 16.1206 104.593 15.6409C103.752 15.1613 103.154 14.7778 102.799 14.4928C102.444 14.2073 102.175 13.8921 101.99 13.5474C101.806 13.2028 101.714 12.8238 101.714 12.4102C101.714 11.6915 101.986 11.0727 102.527 10.5531C103.068 10.0335 103.757 9.77445 104.593 9.77445C105.115 9.77445 105.67 9.9053 106.253 10.1655C106.525 10.2884 106.716 10.3502 106.826 10.3502C106.954 10.3502 107.055 10.3125 107.135 10.2356C107.216 10.1591 107.279 10.0056 107.327 9.77445H107.595Z" fill="#162340"/>
<path d="M115.972 14.4635L119.598 18.1327C120.193 18.7387 120.7 19.1516 121.121 19.3695C121.541 19.589 121.961 19.7131 122.383 19.7432V20.0166H117.705V19.7432C117.984 19.7432 118.187 19.695 118.31 19.5988C118.433 19.5034 118.495 19.3956 118.495 19.2779C118.495 19.1603 118.472 19.0543 118.426 18.96C118.381 18.8673 118.229 18.6923 117.974 18.4363L114.58 15.0174V18.244C114.58 18.7508 114.611 19.0856 114.674 19.2485C114.722 19.3707 114.823 19.4774 114.978 19.5664C115.186 19.684 115.406 19.7432 115.639 19.7432H115.972V20.0166H111.781V19.7432H112.129C112.535 19.7432 112.829 19.6226 113.013 19.3812C113.129 19.224 113.187 18.8447 113.187 18.244V11.7761C113.187 11.2681 113.155 10.931 113.093 10.7636C113.044 10.646 112.944 10.5423 112.796 10.4537C112.583 10.336 112.361 10.2764 112.129 10.2764H111.781V10.0034H115.972V10.2764H115.639C115.411 10.2764 115.191 10.3326 114.978 10.4461C114.828 10.5249 114.724 10.643 114.667 10.8006C114.609 10.9582 114.58 11.2832 114.58 11.7761V14.8405C114.676 14.7463 115.007 14.434 115.573 13.9016C117.01 12.5634 117.876 11.6701 118.176 11.2218C118.307 11.0253 118.372 10.8522 118.372 10.7055C118.372 10.592 118.321 10.4914 118.22 10.4061C118.118 10.3198 117.946 10.2764 117.705 10.2764H117.481V10.0034H121.091V10.2764C120.878 10.281 120.685 10.3111 120.511 10.365C120.337 10.419 120.124 10.5238 119.874 10.6795C119.621 10.8341 119.311 11.0845 118.946 11.428C118.838 11.5276 118.347 12.0317 117.473 12.9423L115.972 14.4635Z" fill="#162340"/>
<path d="M124.304 16.4193H127.365V14.5C127.365 14.1565 127.344 13.9306 127.302 13.8217C127.27 13.7395 127.201 13.6682 127.098 13.6086C126.959 13.5298 126.811 13.491 126.656 13.491H126.422V13.3073H129.24V13.491H129.008C128.852 13.491 128.704 13.5287 128.566 13.6045C128.461 13.6573 128.391 13.7372 128.353 13.8443C128.316 13.9514 128.298 14.1693 128.298 14.5V18.8284C128.298 19.1686 128.319 19.3922 128.361 19.5011C128.394 19.5845 128.46 19.6546 128.561 19.7138C128.702 19.7938 128.852 19.833 129.008 19.833H129.24V20.0166H126.422V19.833H126.656C126.925 19.833 127.121 19.7519 127.244 19.5909C127.325 19.4849 127.365 19.2312 127.365 18.8284V16.7855H124.304V18.8284C124.304 19.1686 124.327 19.3922 124.368 19.5011C124.4 19.5845 124.468 19.6546 124.571 19.7138C124.712 19.7938 124.858 19.833 125.014 19.833H125.253V20.0166H122.428V19.833H122.662C122.934 19.833 123.132 19.7519 123.255 19.5909C123.333 19.4849 123.371 19.2312 123.371 18.8284V14.5C123.371 14.1565 123.351 13.9306 123.309 13.8217C123.275 13.7395 123.209 13.6682 123.11 13.6086C122.966 13.5298 122.818 13.491 122.662 13.491H122.428V13.3073H125.253V13.491H125.014C124.858 13.491 124.712 13.5287 124.571 13.6045C124.471 13.6573 124.402 13.7372 124.363 13.8443C124.324 13.9514 124.304 14.1693 124.304 14.5V16.4193Z" fill="#162340"/>
<path d="M133.861 17.4036L132.744 14.6925L131.597 17.4036H133.861ZM133.997 17.7698H131.447L131 18.8286C130.889 19.0899 130.834 19.2841 130.834 19.4131C130.834 19.5156 130.882 19.605 130.977 19.6819C131.072 19.7596 131.278 19.8105 131.597 19.8331V20.0156H129.522V19.8331C129.798 19.7833 129.976 19.7196 130.057 19.6397C130.222 19.4821 130.404 19.16 130.606 18.6751L132.923 13.154H133.092L135.386 18.7343C135.571 19.1827 135.739 19.4745 135.89 19.6084C136.04 19.7411 136.25 19.8169 136.519 19.8331V20.0156H133.92V19.8331C134.182 19.8199 134.359 19.7758 134.451 19.6989C134.544 19.6235 134.589 19.5318 134.589 19.4225C134.589 19.2766 134.525 19.0477 134.395 18.7343L133.997 17.7698Z" fill="#162340"/>
<path d="M136.5 13.3077H138.288L142.315 18.3393V14.4702C142.315 14.0573 142.269 13.8012 142.179 13.6987C142.059 13.5592 141.869 13.4902 141.61 13.4902H141.383V13.3077H143.676V13.4902H143.443C143.164 13.4902 142.967 13.5765 142.849 13.7485C142.778 13.8533 142.743 14.0939 142.743 14.4702V20.1248H142.568L138.224 14.7228V18.8533C138.224 19.2662 138.268 19.5229 138.356 19.6255C138.478 19.7639 138.668 19.8333 138.923 19.8333H139.158V20.0158H136.865V19.8333H137.092C137.373 19.8333 137.574 19.7466 137.69 19.5761C137.761 19.4702 137.797 19.2292 137.797 18.8533V14.1881C137.606 13.96 137.461 13.8099 137.362 13.7375C137.263 13.6651 137.118 13.5984 136.927 13.5347C136.832 13.5052 136.691 13.4902 136.5 13.4902V13.3077Z" fill="#162340"/>
<path d="M52.9051 28.732C53.1619 28.7817 53.3889 28.8183 53.5872 28.8432C53.7856 28.8681 53.9541 28.8802 54.0944 28.8802C54.597 28.8802 55.031 28.6814 55.3957 28.2859C55.7607 27.8896 55.9432 27.3764 55.9432 26.7467C55.9432 26.3134 55.8564 25.9107 55.6822 25.5389C55.5084 25.1675 55.2622 24.8888 54.9428 24.7041C54.6238 24.5204 54.2607 24.4273 53.8557 24.4273C53.6083 24.4273 53.2924 24.4748 52.9051 24.568V28.732ZM52.9051 29.1535V32.0698C52.9051 32.7007 52.973 33.0917 53.1076 33.244C53.2924 33.4612 53.5691 33.5691 53.9424 33.5691H54.3191V33.8413H50.1057V33.5691H50.476C50.8915 33.5691 51.1887 33.4318 51.3678 33.1554C51.4647 33.0031 51.5133 32.6415 51.5133 32.0698V25.6019C51.5133 24.9718 51.4473 24.5796 51.3172 24.4273C51.1283 24.2105 50.8482 24.1023 50.476 24.1023H50.1057V23.8293H53.7102C54.5895 23.8293 55.2837 23.922 55.7916 24.1068C56.2988 24.2916 56.7271 24.6026 57.0751 25.0412C57.4232 25.4786 57.597 25.9982 57.597 26.5985C57.597 27.4152 57.3319 28.0796 56.8025 28.5928C56.2731 29.1045 55.5254 29.3598 54.5589 29.3598C54.3214 29.3598 54.0657 29.3425 53.7897 29.3078C53.5141 29.2742 53.2192 29.2225 52.9051 29.1535Z" fill="#162340"/>
<path d="M60.1644 30.2458H63.2247V28.3261C63.2247 27.983 63.2047 27.7567 63.1621 27.6478C63.1293 27.5659 63.0614 27.4947 62.9574 27.4351C62.8186 27.3563 62.6712 27.3174 62.5162 27.3174H62.2828V27.1338H65.1003V27.3174H64.868C64.7123 27.3174 64.5644 27.3551 64.4257 27.4309C64.3216 27.4837 64.2518 27.5637 64.2134 27.6704C64.1764 27.7775 64.1583 27.9958 64.1583 28.3261V32.6545C64.1583 32.995 64.1794 33.2183 64.2209 33.3276C64.2537 33.4106 64.3197 33.4811 64.4204 33.5403C64.5626 33.6191 64.7123 33.659 64.868 33.659H65.1003V33.8416H62.2828V33.659H62.5162C62.7847 33.659 62.9807 33.578 63.1037 33.4173C63.1844 33.3114 63.2247 33.0576 63.2247 32.6545V30.6119H60.1644V32.6545C60.1644 32.995 60.1855 33.2183 60.2281 33.3276C60.2598 33.4106 60.3277 33.4811 60.4317 33.5403C60.5709 33.6191 60.7183 33.659 60.8729 33.659H61.1116V33.8416H58.2888V33.659H58.5222C58.7937 33.659 58.9921 33.578 59.1154 33.4173C59.1927 33.3114 59.2319 33.0576 59.2319 32.6545V28.3261C59.2319 27.983 59.2108 27.7567 59.1682 27.6478C59.1353 27.5659 59.0697 27.4947 58.9698 27.4351C58.8269 27.3563 58.6783 27.3174 58.5222 27.3174H58.2888V27.1338H61.1116V27.3174H60.8729C60.7183 27.3174 60.5709 27.3551 60.4317 27.4309C60.3307 27.4837 60.262 27.5637 60.2228 27.6704C60.1836 27.7775 60.1644 27.9958 60.1644 28.3261V30.2458Z" fill="#162340"/>
<path d="M69.721 31.2299L68.6042 28.5188L67.4575 31.2299H69.721ZM69.8568 31.5961H67.3066L66.8602 32.6545C66.7497 32.9162 66.6947 33.1093 66.6947 33.2379C66.6947 33.3404 66.7425 33.4302 66.8379 33.5082C66.9333 33.5859 67.1392 33.6364 67.4575 33.659V33.8416H65.3824V33.659C65.6581 33.6097 65.8353 33.5459 65.9171 33.466C66.0827 33.308 66.2648 32.9864 66.4665 32.5014L68.7833 26.9803H68.9529L71.2467 32.5606C71.4311 33.009 71.5996 33.3005 71.7505 33.4336C71.9001 33.5674 72.1102 33.6417 72.3783 33.659V33.8416H69.7795V33.659C70.0427 33.6451 70.2195 33.601 70.3119 33.5252C70.4043 33.4498 70.4499 33.3578 70.4499 33.2477C70.4499 33.1029 70.3851 32.874 70.2557 32.5606L69.8568 31.5961Z" fill="#162340"/>
<path d="M74.5362 30.3934C74.5977 30.3934 74.6508 30.3941 74.6965 30.3964C74.7421 30.3975 74.779 30.3986 74.8077 30.3986C75.437 30.3986 75.9099 30.2602 76.2293 29.9827C76.5486 29.7052 76.7078 29.353 76.7078 28.9243C76.7078 28.5054 76.5796 28.1649 76.3216 27.9024C76.0637 27.6411 75.7232 27.5103 75.299 27.5103C75.1112 27.5103 74.8567 27.5404 74.5362 27.6034V30.3934ZM79.2153 33.8413H77.4555L75.2259 30.7056C75.0615 30.712 74.9265 30.7154 74.8228 30.7154C74.7802 30.7154 74.7357 30.7142 74.6867 30.7131C74.638 30.7109 74.5882 30.7086 74.5362 30.7056V32.6554C74.5362 33.0766 74.5807 33.339 74.672 33.4405C74.7953 33.5864 74.9796 33.6588 75.2259 33.6588H75.4834V33.8413H72.6606V33.6588H72.9091C73.1867 33.6588 73.3865 33.5668 73.5064 33.382C73.5739 33.2795 73.6082 33.0366 73.6082 32.6554V28.3213C73.6082 27.899 73.5634 27.6366 73.4721 27.534C73.3462 27.3892 73.1584 27.3168 72.9091 27.3168H72.6606V27.1332H75.0615C75.7606 27.1332 76.276 27.1852 76.609 27.2889C76.94 27.3934 77.2221 27.5849 77.4532 27.8636C77.6859 28.1422 77.8013 28.4748 77.8013 28.8594C77.8013 29.2719 77.6689 29.6309 77.4057 29.933C77.1414 30.2365 76.7319 30.4518 76.1784 30.577L77.5396 32.5008C77.8503 32.9424 78.1165 33.2372 78.3405 33.382C78.5645 33.5268 78.8559 33.6188 79.2153 33.6588V33.8413Z" fill="#162340"/>
<path d="M83.1992 33.8418L80.6532 28.1966V32.6793C80.6532 33.0922 80.6977 33.3493 80.7852 33.4519C80.9047 33.5903 81.0948 33.6593 81.3534 33.6593H81.5861V33.8418H79.2924V33.6593H79.5258C79.8048 33.6593 80.002 33.5729 80.1197 33.4021C80.1898 33.2962 80.2256 33.0556 80.2256 32.6793V28.2962C80.2256 27.9991 80.1928 27.7853 80.128 27.6533C80.0827 27.5571 80.0001 27.4772 79.8776 27.4135C79.7569 27.349 79.562 27.3162 79.2924 27.3162V27.1337H81.1585L83.5495 32.3825L85.9013 27.1337H87.7671V27.3162H87.5382C87.2561 27.3162 87.0574 27.4029 86.9398 27.5745C86.8685 27.6793 86.8338 27.9202 86.8338 28.2962V32.6793C86.8338 33.0922 86.8794 33.3493 86.9696 33.4519C87.0891 33.5903 87.2791 33.6593 87.5382 33.6593H87.7671V33.8418H84.9677V33.6593H85.2011C85.4824 33.6593 85.6807 33.5729 85.7931 33.4021C85.8651 33.2962 85.9013 33.0556 85.9013 32.6793V28.1966L83.3595 33.8418H83.1992Z" fill="#162340"/>
<path d="M92.3917 31.2299L91.2744 28.5188L90.1278 31.2299H92.3917ZM92.5282 31.5961H89.9784L89.5305 32.6545C89.4204 32.9162 89.3653 33.1093 89.3653 33.2379C89.3653 33.3404 89.4128 33.4302 89.5086 33.5082C89.6036 33.5859 89.8095 33.6364 90.1278 33.659V33.8416H88.0527V33.659C88.3288 33.6097 88.5067 33.5459 88.5874 33.466C88.753 33.308 88.9355 32.9864 89.1368 32.5014L91.4539 26.9803H91.6236L93.917 32.5606C94.1017 33.009 94.2703 33.3005 94.4211 33.4336C94.5716 33.5674 94.7805 33.6417 95.0501 33.659V33.8416H92.4509V33.659C92.7134 33.6451 92.8902 33.601 92.9822 33.5252C93.075 33.4498 93.1206 33.3578 93.1206 33.2477C93.1206 33.1029 93.0557 32.874 92.9264 32.5606L92.5282 31.5961Z" fill="#162340"/>
<path d="M101.152 26.9803L101.303 29.2604H101.152C100.952 28.5779 100.665 28.0862 100.291 27.7872C99.9194 27.4867 99.4719 27.3366 98.9511 27.3366C98.5141 27.3366 98.1185 27.4501 97.7664 27.676C97.413 27.9015 97.1351 28.2612 96.9315 28.7559C96.7298 29.2506 96.628 29.8653 96.628 30.6009C96.628 31.2091 96.7234 31.734 96.9157 32.1794C97.1065 32.6254 97.3938 32.9667 97.7769 33.2031C98.1619 33.4407 98.5997 33.5598 99.0922 33.5598C99.5198 33.5598 99.8964 33.4667 100.224 33.2808C100.551 33.0941 100.91 32.7235 101.303 32.1696L101.453 32.2687C101.123 32.866 100.736 33.3027 100.296 33.5802C99.8561 33.8566 99.3331 33.9961 98.7271 33.9961C97.6359 33.9961 96.7905 33.5836 96.191 32.7582C95.7441 32.1458 95.5201 31.4229 95.5201 30.5915C95.5201 29.9214 95.668 29.3068 95.9628 28.7465C96.2581 28.1858 96.6642 27.7514 97.1796 27.4426C97.6962 27.1349 98.2607 26.9803 98.8738 26.9803C99.3501 26.9803 99.8191 27.0991 100.282 27.3366C100.418 27.409 100.515 27.446 100.573 27.446C100.661 27.446 100.736 27.4132 100.802 27.3506C100.886 27.2623 100.947 27.1379 100.982 26.9803H101.152Z" fill="#162340"/>
<path d="M103.878 27.4997V30.1517H105.325C105.702 30.1517 105.952 30.0932 106.078 29.9778C106.247 29.8262 106.34 29.5585 106.361 29.1773H106.541V31.5118H106.361C106.315 31.1852 106.271 30.9759 106.225 30.8839C106.166 30.7674 106.07 30.6765 105.937 30.6117C105.804 30.5449 105.601 30.5125 105.325 30.5125H103.878V32.7237C103.878 33.0208 103.891 33.201 103.916 33.2659C103.943 33.3292 103.989 33.3801 104.052 33.4182C104.118 33.4571 104.241 33.4752 104.422 33.4752H105.539C105.912 33.4752 106.182 33.4495 106.351 33.3964C106.519 33.3436 106.682 33.2399 106.837 33.0853C107.038 32.8801 107.243 32.5725 107.453 32.1596H107.648L107.08 33.8413H102.001V33.6588H102.235C102.391 33.6588 102.538 33.6211 102.677 33.5457C102.782 33.4925 102.851 33.4137 102.889 33.3078C102.927 33.2022 102.944 32.9861 102.944 32.6588V28.301C102.944 27.8756 102.902 27.6132 102.818 27.5148C102.703 27.3832 102.507 27.3172 102.235 27.3172H102.001V27.1336H107.08L107.153 28.6026H106.963C106.895 28.2505 106.819 28.0076 106.737 27.8756C106.654 27.7437 106.532 27.6434 106.371 27.5744C106.241 27.5246 106.013 27.4997 105.685 27.4997H103.878Z" fill="#162340"/>
<path d="M112.623 27.3168V27.1343H114.956V27.3168H114.707C114.448 27.3168 114.249 27.4269 114.11 27.6482C114.042 27.75 114.008 27.9876 114.008 28.3605V31.0811C114.008 31.7542 113.942 32.276 113.811 32.6474C113.679 33.0181 113.423 33.3367 113.039 33.6022C112.655 33.8673 112.133 34 111.472 34C110.753 34 110.207 33.8737 109.834 33.6184C109.463 33.365 109.197 33.0245 109.043 32.5946C108.938 32.302 108.888 31.7511 108.888 30.9431V28.3217C108.888 27.9088 108.831 27.6377 108.719 27.5102C108.608 27.3816 108.427 27.3168 108.178 27.3168H107.93V27.1343H110.777V27.3168H110.523C110.253 27.3168 110.058 27.4042 109.941 27.5792C109.86 27.698 109.819 27.9453 109.819 28.3217V31.2444C109.819 31.5045 109.843 31.8039 109.89 32.1399C109.938 32.477 110.023 32.7383 110.145 32.9272C110.268 33.115 110.445 33.2696 110.677 33.3918C110.909 33.514 111.193 33.5743 111.53 33.5743C111.961 33.5743 112.346 33.4793 112.686 33.2881C113.027 33.0969 113.259 32.8529 113.383 32.5535C113.509 32.2557 113.571 31.7489 113.571 31.037V28.3217C113.571 27.9024 113.526 27.6399 113.435 27.534C113.308 27.3892 113.12 27.3168 112.871 27.3168H112.623Z" fill="#162340"/>
<path d="M120.819 27.1338L120.892 28.7066H120.709C120.671 28.4302 120.623 28.2322 120.562 28.1134C120.462 27.9211 120.328 27.7809 120.162 27.69C119.995 27.5991 119.775 27.5539 119.503 27.5539H118.576V32.6794C118.576 33.0919 118.619 33.3491 118.706 33.4517C118.829 33.59 119.019 33.659 119.274 33.659H119.503V33.8416H116.71V33.659H116.943C117.221 33.659 117.418 33.5727 117.535 33.4023C117.607 33.2963 117.642 33.0554 117.642 32.6794V27.5539H116.851C116.543 27.5539 116.325 27.5776 116.195 27.6229C116.025 27.6855 115.882 27.8069 115.761 27.9849C115.641 28.1632 115.571 28.403 115.548 28.7066H115.363L115.442 27.1338H120.819Z" fill="#162340"/>
<path d="M124.211 33.6593V33.8418H121.388V33.6593H121.622C121.893 33.6593 122.091 33.5782 122.214 33.4161C122.292 33.3116 122.331 33.0564 122.331 32.6548V28.3211C122.331 27.9817 122.31 27.7574 122.268 27.648C122.235 27.5658 122.169 27.4945 122.068 27.4353C121.926 27.3565 121.777 27.3166 121.622 27.3166H121.388V27.134H124.211V27.3166H123.973C123.703 27.3166 123.508 27.3976 123.386 27.5594C123.305 27.6653 123.263 27.9191 123.263 28.3211V32.6548C123.263 32.9949 123.284 33.2185 123.327 33.3267C123.359 33.4108 123.428 33.4809 123.531 33.5405C123.669 33.6193 123.817 33.6593 123.973 33.6593H124.211Z" fill="#162340"/>
<path d="M130.445 26.9803L130.596 29.2604H130.445C130.245 28.5779 129.958 28.0862 129.584 27.7872C129.212 27.4867 128.765 27.3366 128.244 27.3366C127.807 27.3366 127.412 27.4501 127.059 27.676C126.706 27.9015 126.428 28.2612 126.224 28.7559C126.023 29.2506 125.921 29.8653 125.921 30.6009C125.921 31.2091 126.016 31.734 126.209 32.1794C126.399 32.6254 126.687 32.9667 127.07 33.2031C127.455 33.4407 127.893 33.5598 128.385 33.5598C128.813 33.5598 129.189 33.4667 129.517 33.2808C129.844 33.0941 130.203 32.7235 130.596 32.1696L130.746 32.2687C130.416 32.866 130.03 33.3027 129.589 33.5802C129.149 33.8566 128.626 33.9961 128.02 33.9961C126.929 33.9961 126.083 33.5836 125.484 32.7582C125.037 32.1458 124.813 31.4229 124.813 30.5915C124.813 29.9214 124.961 29.3068 125.256 28.7465C125.551 28.1858 125.957 27.7514 126.473 27.4426C126.989 27.1349 127.554 26.9803 128.167 26.9803C128.643 26.9803 129.112 27.0991 129.576 27.3366C129.711 27.409 129.808 27.446 129.866 27.446C129.954 27.446 130.03 27.4132 130.095 27.3506C130.179 27.2623 130.24 27.1379 130.275 26.9803H130.445Z" fill="#162340"/>
<path d="M135.507 31.2299L134.39 28.5188L133.243 31.2299H135.507ZM135.643 31.5961H133.094L132.646 32.6545C132.535 32.9162 132.481 33.1093 132.481 33.2379C132.481 33.3404 132.528 33.4302 132.624 33.5082C132.719 33.5859 132.925 33.6364 133.243 33.659V33.8416H131.168V33.659C131.444 33.6097 131.622 33.5459 131.703 33.466C131.868 33.308 132.051 32.9864 132.252 32.5014L134.569 26.9803H134.739L137.032 32.5606C137.217 33.009 137.386 33.3005 137.536 33.4336C137.687 33.5674 137.896 33.6417 138.165 33.659V33.8416H135.566V33.659C135.829 33.6451 136.005 33.601 136.097 33.5252C136.19 33.4498 136.236 33.3578 136.236 33.2477C136.236 33.1029 136.171 32.874 136.042 32.5606L135.643 31.5961Z" fill="#162340"/>
<path d="M143.981 31.9861L144.141 32.0208L143.578 33.842H138.476V33.6592H138.724C139.003 33.6592 139.201 33.5664 139.321 33.3816C139.39 33.2757 139.424 33.0328 139.424 32.6494V28.3209C139.424 27.902 139.378 27.6407 139.287 27.5336C139.161 27.3888 138.973 27.3164 138.724 27.3164H138.476V27.1339H141.46V27.3164C141.109 27.3134 140.864 27.3466 140.723 27.416C140.582 27.485 140.485 27.5725 140.434 27.6784C140.382 27.7832 140.356 28.0359 140.356 28.4344V32.6494C140.356 32.9239 140.382 33.1117 140.434 33.2142C140.473 33.2825 140.532 33.3341 140.614 33.3666C140.695 33.4001 140.948 33.4163 141.371 33.4163H141.853C142.358 33.4163 142.713 33.3786 142.917 33.3028C143.121 33.2263 143.306 33.0924 143.475 32.9001C143.644 32.7067 143.812 32.402 143.981 31.9861Z" fill="#162340"/>
<path d="M148.918 26.9803V29.3004H148.737C148.679 28.8555 148.575 28.501 148.424 28.2367C148.274 27.9727 148.058 27.7635 147.78 27.6089C147.502 27.4531 147.214 27.3755 146.915 27.3755C146.579 27.3755 146.3 27.4803 146.08 27.6899C145.859 27.8996 145.75 28.1383 145.75 28.4049C145.75 28.6092 145.819 28.7948 145.958 28.9633C146.159 29.211 146.637 29.5414 147.392 29.9527C148.007 30.2898 148.427 30.5481 148.653 30.7276C148.878 30.9067 149.051 31.1198 149.172 31.3637C149.293 31.6077 149.355 31.8626 149.355 32.1307C149.355 32.6383 149.161 33.0757 148.774 33.4441C148.387 33.8113 147.889 33.9961 147.28 33.9961C147.088 33.9961 146.909 33.981 146.741 33.9508C146.641 33.9343 146.432 33.8739 146.116 33.7702C145.801 33.6665 145.6 33.6149 145.516 33.6149C145.435 33.6149 145.371 33.6398 145.324 33.6884C145.277 33.7378 145.242 33.8404 145.22 33.9961H145.04V31.6952H145.22C145.304 32.176 145.417 32.5368 145.56 32.7766C145.702 33.0142 145.921 33.214 146.214 33.3717C146.507 33.5304 146.828 33.6092 147.178 33.6092C147.583 33.6092 147.903 33.5014 148.138 33.2819C148.372 33.0651 148.49 32.8079 148.49 32.5119C148.49 32.3456 148.445 32.1794 148.357 32.0119C148.267 31.8423 148.129 31.6865 147.941 31.541C147.814 31.4426 147.47 31.2318 146.906 30.9098C146.342 30.5892 145.941 30.3332 145.703 30.1409C145.465 29.9509 145.284 29.7389 145.161 29.5078C145.038 29.2767 144.977 29.0229 144.977 28.7465C144.977 28.2646 145.158 27.8498 145.521 27.5018C145.884 27.1541 146.345 26.9803 146.906 26.9803C147.256 26.9803 147.626 27.0678 148.018 27.2427C148.2 27.3249 148.328 27.3656 148.403 27.3656C148.487 27.3656 148.556 27.34 148.609 27.2891C148.663 27.2386 148.706 27.136 148.737 26.9803H148.918Z" fill="#162340"/>
<path d="M158.081 31.9861L158.241 32.0208L157.678 33.842H152.576V33.6592H152.823C153.102 33.6592 153.301 33.5664 153.42 33.3816C153.489 33.2757 153.523 33.0328 153.523 32.6494V28.3209C153.523 27.902 153.478 27.6407 153.388 27.5336C153.261 27.3888 153.072 27.3164 152.823 27.3164H152.576V27.1339H155.559V27.3164C155.209 27.3134 154.964 27.3466 154.822 27.416C154.681 27.485 154.585 27.5725 154.533 27.6784C154.481 27.7832 154.456 28.0359 154.456 28.4344V32.6494C154.456 32.9239 154.481 33.1117 154.533 33.2142C154.572 33.2825 154.633 33.3341 154.713 33.3666C154.794 33.4001 155.048 33.4163 155.472 33.4163H155.952C156.459 33.4163 156.813 33.3786 157.017 33.3028C157.22 33.2263 157.407 33.0924 157.574 32.9001C157.744 32.7067 157.912 32.402 158.081 31.9861Z" fill="#162340"/>
<path d="M163.299 27.1338L163.371 28.7066H163.188C163.151 28.4302 163.102 28.2322 163.041 28.1134C162.941 27.9211 162.807 27.7809 162.641 27.69C162.474 27.5991 162.255 27.5539 161.983 27.5539H161.055V32.6794C161.055 33.0919 161.098 33.3491 161.186 33.4517C161.308 33.59 161.498 33.659 161.754 33.659H161.983V33.8416H159.189V33.659H159.422C159.7 33.659 159.898 33.5727 160.014 33.4023C160.086 33.2963 160.121 33.0554 160.121 32.6794V27.5539H159.33C159.022 27.5539 158.804 27.5776 158.674 27.6229C158.505 27.6855 158.361 27.8069 158.24 27.9849C158.122 28.1632 158.051 28.403 158.027 28.7066H157.842L157.921 27.1338H163.299Z" fill="#162340"/>
<path d="M165.67 33.3574C166.082 33.4494 166.426 33.4958 166.705 33.4958C167.456 33.4958 168.079 33.2269 168.575 32.6888C169.071 32.1519 169.318 31.423 169.318 30.5014C169.318 29.5757 169.071 28.8446 168.575 28.311C168.079 27.7763 167.444 27.5094 166.666 27.5094C166.374 27.5094 166.043 27.5569 165.67 27.653V33.3574ZM163.79 33.8416V33.6587H164.037C164.316 33.6587 164.514 33.5682 164.631 33.3868C164.702 33.2786 164.737 33.0335 164.737 32.6553V28.3205C164.737 27.9027 164.692 27.6398 164.601 27.5343C164.474 27.3895 164.287 27.3171 164.037 27.3171H163.79V27.1334H166.472C167.456 27.1334 168.207 27.2469 168.719 27.4747C169.232 27.7028 169.645 28.0818 169.958 28.6123C170.271 29.1436 170.426 29.7571 170.426 30.4539C170.426 31.3861 170.149 32.1658 169.59 32.7937C168.966 33.4924 168.013 33.8416 166.734 33.8416H163.79Z" fill="#162340"/>
<path d="M172.05 32.8819C172.203 32.8819 172.33 32.9358 172.433 33.0429C172.537 33.1496 172.589 33.2793 172.589 33.4317C172.589 33.5829 172.536 33.7137 172.431 33.8193C172.326 33.9275 172.199 33.9814 172.05 33.9814C171.901 33.9814 171.774 33.9275 171.668 33.8193C171.563 33.7137 171.51 33.5829 171.51 33.4317C171.51 33.2759 171.563 33.1466 171.668 33.0395C171.774 32.9347 171.901 32.8819 172.05 32.8819Z" fill="#162340"/>
<path d="M25.9659 36.5811C30.7163 35.2037 34.4569 31.3957 35.8097 26.5592H25.9659V36.5811Z" fill="#409F83"/>
<path d="M35.8093 18.5608C34.4565 13.7237 30.716 9.91492 25.9656 8.53839V18.5608H35.8093Z" fill="#409F83"/>
<path d="M8.26819 26.5594C9.61992 31.3957 13.3615 35.204 18.1111 36.5813V26.5594H8.26819Z" fill="#409F83"/>
<path d="M18.111 8.53839C13.3614 9.91492 9.62007 13.7237 8.26807 18.5608H18.111V8.53839Z" fill="#409F83"/>
<path d="M10.5247 25.7275H33.5519V19.3926H10.5247V25.7275Z" fill="#539FC8"/>
<path d="M18.9279 34.2832H25.15V10.8365H18.9279V34.2832Z" fill="#539FC8"/>
<path d="M11.4647 7.29292C13.6847 5.83158 16.0839 4.87985 18.5271 4.39772C16.8191 4.90572 15.1535 5.66652 13.5834 6.70092C4.83963 12.454 2.33163 24.3342 7.98149 33.2361C11.497 38.7761 17.3426 41.8561 23.3631 42.0073L23.1567 44.8582C16.305 45.1302 9.49323 41.8225 5.50363 35.5356C-0.510241 26.0593 2.15989 13.415 11.4647 7.29292Z" fill="#3A809D"/>
<path d="M17.8887 0.385239C16.0063 0.944439 14.1735 1.78257 12.4452 2.9199C2.82151 9.2519 0.0599111 22.3287 6.27831 32.129C12.4962 41.9274 25.3412 44.737 34.9636 38.4058C39.8999 35.1591 43.0239 30.1364 44.0628 24.6938C43.4132 31.2602 39.9487 37.4807 34.0812 41.3402C23.8386 48.0794 10.1698 45.0884 3.55138 34.658C-3.06782 24.2284 -0.128355 10.3116 10.1127 3.57164C12.5578 1.96284 15.197 0.916172 17.8887 0.385239Z" fill="#162340"/>
<path d="M31.5108 35.2196C29.3735 36.3167 27.1252 36.9377 24.8804 37.1316C26.4649 36.8423 28.0359 36.3196 29.5476 35.5428C37.9604 31.2244 41.3401 20.7796 37.0985 12.2129C34.4599 6.88386 29.4913 3.53959 24.0868 2.81399L24.5428 0.268661C30.7321 0.693996 36.5492 4.33853 39.5471 10.3895C44.0612 19.5044 40.4631 30.6209 31.5108 35.2196Z" fill="#162340"/>
<path d="M25.0778 40.8035C26.8228 40.4843 28.5519 39.9112 30.2153 39.0579C39.4729 34.3011 43.1945 22.8064 38.5255 13.3784C33.8583 3.94853 22.566 0.161865 13.3076 4.91573C8.55962 7.35333 5.27295 11.5672 3.82202 16.3621C5.02762 10.5176 8.73349 5.26027 14.3788 2.36213C24.2346 -2.69814 36.2514 1.33387 41.2209 11.3677C46.1895 21.404 42.2276 33.6403 32.3751 38.6997C30.0231 39.9075 27.5482 40.592 25.0778 40.8035Z" fill="#3A809D"/>
</svg>
