<svg width="51" height="50" viewBox="0 0 51 50" fill="none" xmlns="http://www.w3.org/2000/svg">
<g id="4041815_doctor_health_hospital_man_medic_icon 1">
<g id="Group">
<g id="Group_2">
<path id="Vector" d="M3.63477 47.1152C3.63477 45.6729 3.92323 42.6921 4.5963 41.5382C5.46169 40.0959 7.28861 38.6536 8.53861 38.0767L13.3463 35.6729" stroke="url(#paint0_linear_74_3913)" stroke-width="2" stroke-miterlimit="10" stroke-linecap="round" stroke-linejoin="round"/>
<path id="Vector_2" d="M22.8654 47.1158L16.5192 32.2119L13.25 35.5773V47.1158" stroke="url(#paint1_linear_74_3913)" stroke-width="2" stroke-miterlimit="10" stroke-linecap="round" stroke-linejoin="round"/>
<path id="Vector_3" d="M47.8661 47.1158C47.8661 45.6735 47.5777 42.6927 46.9046 41.5388C46.0392 40.0965 44.2123 38.6542 42.9623 38.0773L38.1546 35.6735L34.9815 32.2119L33.9238 34.6158" stroke="url(#paint2_linear_74_3913)" stroke-width="2" stroke-miterlimit="10" stroke-linecap="round" stroke-linejoin="round"/>
<path id="Vector_4" d="M37.2892 39.4229H27.6738V47.1152H37.2892V39.4229Z" stroke="url(#paint3_linear_74_3913)" stroke-width="2" stroke-miterlimit="10" stroke-linecap="round" stroke-linejoin="round"/>
<path id="Vector_5" d="M32.5774 6.25015C34.5966 7.11553 36.8081 9.32707 36.8081 11.9232C36.8081 12.2117 36.8081 12.5963 36.712 12.8848C36.712 13.2694 36.5197 14.7117 36.2312 16.2502C37.1928 16.3463 37.962 17.1155 38.0581 17.9809V18.0771C38.0581 18.1732 38.0581 18.2694 38.0581 18.3655V18.4617C38.0581 19.0386 37.8658 20.0002 37.7697 20.4809C37.6735 20.7694 37.5774 21.2502 37.4812 21.7309C37.2889 22.2117 37.1928 22.6925 37.0966 22.8848C36.712 23.7502 35.7505 24.1348 34.7889 23.9425C34.5966 24.6155 34.4043 25.1925 34.4043 25.1925C33.8274 27.1155 32.6735 28.654 31.0389 29.8078C29.4043 31.154 27.4812 32.0194 25.6543 32.0194C23.9235 32.0194 21.8081 31.0578 20.2697 29.8078C18.6351 28.654 17.4812 27.0194 16.9043 25.1925C16.9043 25.1925 16.8081 24.7117 16.5197 23.9425C16.3274 23.9425 16.1351 24.0386 16.0389 24.0386C15.2697 24.0386 14.5966 23.654 14.212 22.9809C14.0197 22.5002 13.5389 21.0578 13.4428 20.5771C13.3466 20.0963 13.1543 19.2309 13.1543 18.5578V18.4617C13.1543 18.3655 13.1543 18.2694 13.1543 18.1732V18.0771C13.2505 17.2117 14.0197 16.4425 14.9812 16.3463C14.7889 14.8078 14.5966 13.3655 14.5005 12.9809C14.5005 12.6925 14.4043 12.3078 14.4043 12.0194C14.4043 8.46169 16.6158 5.38477 19.7889 4.03861C21.2312 3.26938 23.3466 2.88477 25.6543 2.88477H25.7505C28.9235 2.88477 32.4812 2.88477 32.4812 2.88477" stroke="url(#paint4_linear_74_3913)" stroke-width="2" stroke-miterlimit="10" stroke-linecap="round" stroke-linejoin="round"/>
<path id="Vector_6" d="M32.2886 12.5005C31.904 11.3466 30.8463 10.5774 29.5963 10.5774H23.8271C22.5771 10.5774 21.5194 9.80814 21.1348 8.6543" stroke="url(#paint5_linear_74_3913)" stroke-width="2" stroke-miterlimit="10" stroke-linecap="round" stroke-linejoin="round"/>
<path id="Vector_7" d="M32.4805 37.5V40.3846" stroke="url(#paint6_linear_74_3913)" stroke-width="2" stroke-miterlimit="10" stroke-linecap="round" stroke-linejoin="round"/>
</g>
</g>
</g>
<defs>
<linearGradient id="paint0_linear_74_3913" x1="4.41309" y1="48.015" x2="15.2487" y2="39.3135" gradientUnits="userSpaceOnUse">
<stop stop-color="#36F1B9"/>
<stop offset="1" stop-color="#3484A4"/>
</linearGradient>
<linearGradient id="paint1_linear_74_3913" x1="14.0206" y1="48.2878" x2="26.8769" y2="40.44" gradientUnits="userSpaceOnUse">
<stop stop-color="#36F1B9"/>
<stop offset="1" stop-color="#3484A4"/>
</linearGradient>
<linearGradient id="paint2_linear_74_3913" x1="35.0412" y1="48.2878" x2="49.3888" y2="35.5885" gradientUnits="userSpaceOnUse">
<stop stop-color="#36F1B9"/>
<stop offset="1" stop-color="#3484A4"/>
</linearGradient>
<linearGradient id="paint3_linear_74_3913" x1="28.4445" y1="47.7201" x2="35.801" y2="39.0194" gradientUnits="userSpaceOnUse">
<stop stop-color="#36F1B9"/>
<stop offset="1" stop-color="#3484A4"/>
</linearGradient>
<linearGradient id="paint4_linear_74_3913" x1="15.1502" y1="34.3104" x2="42.7818" y2="11.9631" gradientUnits="userSpaceOnUse">
<stop stop-color="#36F1B9"/>
<stop offset="1" stop-color="#3484A4"/>
</linearGradient>
<linearGradient id="paint5_linear_74_3913" x1="22.0287" y1="12.8029" x2="24.4288" y2="6.21723" gradientUnits="userSpaceOnUse">
<stop stop-color="#36F1B9"/>
<stop offset="1" stop-color="#3484A4"/>
</linearGradient>
<linearGradient id="paint6_linear_74_3913" x1="32.5606" y1="40.6115" x2="34.2176" y2="40.068" gradientUnits="userSpaceOnUse">
<stop stop-color="#36F1B9"/>
<stop offset="1" stop-color="#3484A4"/>
</linearGradient>
</defs>
</svg>
