<svg width="51" height="50" viewBox="0 0 51 50" fill="none" xmlns="http://www.w3.org/2000/svg">
<g id="aspirin 1" clip-path="url(#clip0_74_3889)">
<path id="Vector" d="M13.0682 39.5373C13.4507 39.5373 13.7607 39.2273 13.7607 38.8447C13.7607 38.4622 13.4507 38.1522 13.0682 38.1522H1.68408V21.9172H23.8354V34.1788C23.8354 34.5613 24.1454 34.8714 24.5279 34.8714C24.9104 34.8714 25.2205 34.5613 25.2205 34.1788V18.8412C25.2205 17.3396 24.4716 15.941 23.2179 15.1008C22.0537 14.3184 21.4127 13.1163 21.4127 11.7163V8.78613H22.3772C23.1596 8.78613 23.7961 8.15088 23.7961 7.37012V1.81543C23.7961 1.03457 23.1596 0.399414 22.3772 0.399414H3.14209C2.36123 0.399414 1.72607 1.03467 1.72607 1.81543V7.37012C1.72607 8.15098 2.36133 8.78613 3.14209 8.78613H4.10947V11.7163C4.10947 13.1191 3.46797 14.3207 2.30225 15.1002C1.04785 15.9411 0.298828 17.3396 0.298828 18.8412V44.3572C0.298828 45.9591 1.60205 47.2622 3.20391 47.2622H13.043C13.4255 47.2622 13.7355 46.9522 13.7355 46.5696C13.7355 46.1871 13.4255 45.8771 13.043 45.8771H3.20391C2.36592 45.8771 1.68408 45.1953 1.68408 44.3573V39.5374H13.0682V39.5373ZM3.11133 7.37012V1.81543C3.11133 1.7999 3.12656 1.78457 3.14219 1.78457H22.3774C22.3952 1.78457 22.411 1.80176 22.411 1.81543V7.37012C22.411 7.38369 22.3952 7.40098 22.3774 7.40098H3.14209C3.12656 7.40098 3.11133 7.38565 3.11133 7.37012ZM3.07295 16.2513C4.63457 15.2068 5.49473 13.5963 5.49473 11.7163V8.78613H20.0276V11.7163C20.0276 13.5922 20.8862 15.2023 22.446 16.2509C23.316 16.834 23.8354 17.8023 23.8354 18.8412V20.532H1.68408V18.8412C1.68408 17.8023 2.20352 16.8341 3.07295 16.2513ZM41.1583 23.4518V6.51777C41.1583 4.40586 39.44 2.6875 37.328 2.6875C35.216 2.6875 33.4978 4.40576 33.4978 6.51777V23.452C32.3319 24.5237 31.6696 26.0247 31.6696 27.6205C31.6696 30.7405 34.208 33.2789 37.328 33.2789C40.4496 33.2789 42.9894 30.7405 42.9894 27.6205C42.9894 26.0257 42.3262 24.5248 41.1583 23.4518ZM37.3281 31.8937C34.9719 31.8937 33.055 29.9768 33.055 27.6205C33.055 26.3297 33.6285 25.1209 34.6286 24.3043C34.7896 24.1729 34.8832 23.9759 34.8832 23.7679V6.51777C34.8832 5.16953 35.98 4.07275 37.3282 4.07275C38.6765 4.07275 39.7732 5.16953 39.7732 6.51777V23.7678C39.7732 23.9758 39.8668 24.1728 40.0278 24.3043C41.0297 25.1223 41.6042 26.331 41.6042 27.6204C41.6042 29.9767 39.6859 31.8937 37.3281 31.8937ZM38.0207 25.3235V13.5137C38.0207 13.1312 37.7106 12.8211 37.3281 12.8211C36.9456 12.8211 36.6355 13.1312 36.6355 13.5137V25.3235C35.5846 25.6252 34.813 26.5944 34.813 27.741C34.813 29.1279 35.9413 30.2562 37.3281 30.2562C38.7149 30.2562 39.8434 29.1278 39.8434 27.741C39.8434 26.5943 39.0717 25.6251 38.0207 25.3235ZM37.3281 28.8709C36.7051 28.8709 36.1982 28.3641 36.1982 27.741C36.1982 27.1179 36.7051 26.611 37.3281 26.611C37.9513 26.611 38.4581 27.1179 38.4581 27.741C38.4581 28.3641 37.9513 28.8709 37.3281 28.8709ZM27.1749 8.12158C27.1749 7.73906 27.485 7.429 27.8675 7.429H31.8239C32.2064 7.429 32.5165 7.73906 32.5165 8.12158C32.5165 8.5041 32.2064 8.81416 31.8239 8.81416H27.8675C27.485 8.81416 27.1749 8.5041 27.1749 8.12158ZM32.5166 10.7602C32.5166 11.1427 32.2065 11.4527 31.824 11.4527H29.8472C29.4646 11.4527 29.1546 11.1427 29.1546 10.7602C29.1546 10.3776 29.4646 10.0676 29.8472 10.0676H31.824C32.2064 10.0676 32.5166 10.3776 32.5166 10.7602ZM27.1749 13.3987C27.1749 13.0162 27.485 12.7062 27.8675 12.7062H31.8239C32.2064 12.7062 32.5165 13.0162 32.5165 13.3987C32.5165 13.7812 32.2064 14.0913 31.8239 14.0913H27.8675C27.485 14.0913 27.1749 13.7812 27.1749 13.3987ZM32.5166 16.0372C32.5166 16.4197 32.2065 16.7298 31.824 16.7298H29.8472C29.4646 16.7298 29.1546 16.4197 29.1546 16.0372C29.1546 15.6547 29.4646 15.3446 29.8472 15.3446H31.824C32.2064 15.3446 32.5166 15.6547 32.5166 16.0372ZM50.1455 14.9436C50.0354 14.6859 49.7823 14.5215 49.5009 14.5231L47.1757 14.549V8.06279C47.1757 7.68027 46.8656 7.37022 46.4831 7.37022C46.1006 7.37022 45.7905 7.68027 45.7905 8.06279V14.5645L43.4499 14.5905C43.1698 14.5937 42.9191 14.7651 42.8148 15.0251C42.7105 15.2851 42.7731 15.5823 42.9733 15.7782L46.0324 18.77C46.1672 18.9018 46.3419 18.9675 46.5166 18.9675C46.6965 18.9675 46.8762 18.8979 47.0119 18.7591L50.0038 15.7C50.1996 15.4996 50.2555 15.2011 50.1455 14.9436ZM46.5058 17.2953L45.1372 15.9569L46.4828 15.942H46.4832L47.8441 15.9269L46.5058 17.2953ZM34.3672 36.8856C32.2292 36.2558 29.401 35.9088 26.4038 35.9088C23.4066 35.9088 20.5785 36.2557 18.4404 36.8856C16.0121 37.6009 14.7235 38.6207 14.7141 39.8347C14.7141 39.8357 14.714 39.8425 14.714 39.8483V39.8484V39.8486V39.8568L14.7141 45.6749C14.7235 46.8889 16.0121 47.9087 18.4404 48.624C20.5784 49.2538 23.4066 49.6008 26.4038 49.6008C29.401 49.6008 32.2291 49.2539 34.3672 48.624C36.7955 47.9087 38.0841 46.8889 38.0937 45.6695V39.8484C38.0937 39.8466 38.0937 39.8364 38.0936 39.8347C38.0841 38.6207 36.7955 37.6009 34.3672 36.8856ZM36.7084 39.8485C36.7084 40.7146 33.0712 42.4001 26.4038 42.4001C25.3835 42.4001 24.4351 42.3603 23.5588 42.2903L31.5438 37.6796C34.9088 38.2292 36.7037 39.2393 36.7084 39.8485ZM26.4038 37.2941C27.4245 37.2941 28.3735 37.3342 29.2503 37.4044L21.2641 42.0158C17.8924 41.4666 16.0993 40.4562 16.0993 39.8484C16.0993 39.8479 16.0992 39.8474 16.0992 39.8468V39.8455C16.1061 38.9796 19.7493 37.2941 26.4038 37.2941ZM26.4038 48.2155C19.7493 48.2155 16.1061 46.5301 16.0992 45.6695V41.823C16.6504 42.1678 17.4049 42.5038 18.4317 42.8066C20.5707 43.4376 23.4019 43.7852 26.4038 43.7852C29.4058 43.7852 32.2369 43.4376 34.3759 42.8066C35.4026 42.5037 36.1572 42.1678 36.7084 41.823V45.6641C36.7017 46.5301 33.0584 48.2155 26.4038 48.2155Z" fill="url(#paint0_linear_74_3889)"/>
</g>
<defs>
<linearGradient id="paint0_linear_74_3889" x1="4.29824" y1="53.4698" x2="51.9759" y2="7.7166" gradientUnits="userSpaceOnUse">
<stop stop-color="#36F1B9"/>
<stop offset="1" stop-color="#3484A4"/>
</linearGradient>
<clipPath id="clip0_74_3889">
<rect width="50" height="50" fill="white" transform="translate(0.25)"/>
</clipPath>
</defs>
</svg>
