<svg width="51" height="50" viewBox="0 0 51 50" fill="none" xmlns="http://www.w3.org/2000/svg">
<g id="standarize 1">
<path id="Vector" fill-rule="evenodd" clip-rule="evenodd" d="M41.0121 40.147C41.0121 40.5126 40.7153 40.8095 40.3494 40.8095H22.6182C22.2519 40.8095 21.9553 40.5125 21.9553 40.147C21.9553 39.7804 22.2519 39.484 22.6182 39.484H40.3494C40.7153 39.484 41.0121 39.7804 41.0121 40.147ZM41.0121 34.0881C41.0121 34.4542 40.7153 34.7512 40.3494 34.7512H29.9393C29.5734 34.7512 29.2766 34.4543 29.2766 34.0881C29.2766 33.7215 29.5734 33.4256 29.9393 33.4256H40.3495C40.7153 33.4256 41.0121 33.7215 41.0121 34.0881ZM41.0121 28.0286C41.0121 28.3953 40.7153 28.6911 40.3494 28.6911H32.402C32.0359 28.6911 31.7393 28.3952 31.7393 28.0286C31.7393 27.663 32.0359 27.3661 32.402 27.3661H40.3494C40.7153 27.3661 41.0121 27.663 41.0121 28.0286ZM41.0121 21.9697C41.0121 22.3364 40.7153 22.6322 40.3494 22.6322H32.402C32.0359 22.6322 31.7393 22.3364 31.7393 21.9697C31.7393 21.6041 32.0359 21.3072 32.402 21.3072H40.3494C40.7153 21.3072 41.0121 21.6041 41.0121 21.9697ZM41.0121 15.9113C41.0121 16.2769 40.7153 16.5738 40.3494 16.5738H29.9393C29.5734 16.5738 29.2766 16.2769 29.2766 15.9113C29.2766 15.5452 29.5734 15.2483 29.9393 15.2483H40.3495C40.7153 15.2482 41.0121 15.5452 41.0121 15.9113ZM32.8035 10.5149H22.6182C22.2519 10.5149 21.9553 10.2185 21.9553 9.85236C21.9553 9.48676 22.2519 9.18986 22.6182 9.18986H32.8034C33.1695 9.18986 33.4661 9.48676 33.4661 9.85236C33.4661 10.2185 33.1695 10.5149 32.8035 10.5149ZM19.3615 23.2293C19.6074 23.5002 19.5871 23.919 19.316 24.1653L15.2354 27.8658C14.9312 28.1424 14.4499 28.0787 14.2295 27.728L12.6163 25.1668C12.4213 24.8566 12.5142 24.4474 12.8239 24.2521C13.1336 24.0579 13.5429 24.1505 13.7379 24.4596L14.9302 26.3535L18.4255 23.1841C18.6968 22.9377 19.1158 22.9584 19.3615 23.2293ZM16.2574 30.4674C19.2725 30.4674 21.7253 28.0148 21.7253 24.9997C21.7253 21.9851 19.2725 19.5309 16.2574 19.5309C13.2423 19.5309 10.7893 21.9851 10.7893 24.9997C10.7893 28.0148 13.2423 30.4674 16.2574 30.4674ZM23.0509 24.9997C23.0509 21.2534 20.0034 18.2059 16.2574 18.2059C12.5115 18.2059 9.46392 21.2535 9.46392 24.9997C9.46392 28.7454 12.5115 31.793 16.2574 31.793C20.0034 31.793 23.0509 28.7454 23.0509 24.9997ZM44.6197 45.5429C45.4341 45.5429 46.0968 44.8804 46.0968 44.0657V12.4449H40.9105C39.3652 12.4449 38.1082 11.1875 38.1082 9.64206V4.45646H18.397C17.5826 4.45646 16.9201 5.11896 16.9201 5.93256V12.2917H18.3584C18.7623 12.2917 19.1175 12.5498 19.2424 12.9335L20.1173 15.6256C20.948 15.9683 21.7276 16.419 22.4423 16.9709L25.2142 16.3824C25.6092 16.2973 26.0103 16.4761 26.2126 16.8257L28.3135 20.465C28.5156 20.8152 28.4696 21.252 28.199 21.5522L26.3039 23.6568C26.4224 24.5482 26.422 25.4497 26.3037 26.342L28.1992 28.4477C28.4697 28.7473 28.5156 29.1847 28.3136 29.5343L26.2127 33.1731C26.0107 33.5232 25.6097 33.7015 25.2146 33.6174L22.4433 33.0294C21.7291 33.5807 20.9489 34.0309 20.1171 34.3741L19.2426 37.0651C19.1177 37.4498 18.7625 37.7074 18.3586 37.7074H16.9203V44.0659C16.9203 44.8806 17.5828 45.5431 18.3972 45.5431H44.6197V45.5429ZM13.5616 33.6656L14.444 36.3822H18.0708L18.953 33.6667C19.0153 33.4751 19.1616 33.3224 19.3506 33.2516C20.259 32.9105 21.1011 32.4236 21.8535 31.8031C22.0094 31.6749 22.2152 31.6248 22.4127 31.6674L25.2083 32.2613L27.0217 29.1206L25.1098 26.9968C24.9749 26.8473 24.9156 26.644 24.9483 26.445C25.1064 25.4861 25.1069 24.5119 24.9487 23.5533C24.9159 23.3543 24.9753 23.151 25.11 23.002L27.0217 20.8788L25.2083 17.7376L22.4117 18.332C22.2142 18.3746 22.0084 18.324 21.8527 18.1963C21.0998 17.5758 20.2582 17.0889 19.3508 16.7489C19.1619 16.6781 19.0155 16.5254 18.9531 16.3328L18.0707 13.6173H14.4439L13.5615 16.3328C13.4991 16.5254 13.3528 16.6782 13.1639 16.7489C12.2566 17.0889 11.4149 17.5758 10.662 18.1963C10.5061 18.324 10.3003 18.3746 10.103 18.332L7.30612 17.7376L5.49292 20.8788L7.40472 23.002C7.53942 23.151 7.59892 23.3543 7.56602 23.5533C7.40822 24.5096 7.40812 25.4892 7.56602 26.446C7.59892 26.645 7.53942 26.8472 7.40472 26.9973L5.49292 29.1206L7.30612 32.2613L10.103 31.6674C10.3005 31.6248 10.506 31.6749 10.662 31.8031C11.4147 32.4236 12.2566 32.9105 13.1639 33.2505C13.3529 33.3213 13.4992 33.474 13.5616 33.6656ZM39.4336 5.39406L45.1595 11.1194H40.9105C40.0961 11.1194 39.4336 10.4569 39.4336 9.64216V5.39406ZM47.2279 11.3141L39.2394 3.32506C39.1151 3.20056 38.9465 3.13086 38.7709 3.13086H18.397C16.8519 3.13086 15.5947 4.38826 15.5947 5.93256V12.2917H14.1563C13.7526 12.2917 13.3974 12.5498 13.2725 12.9335L12.3975 15.6256C11.5669 15.9683 10.7871 16.419 10.0725 16.9709L7.30082 16.3824C6.90562 16.2983 6.50422 16.4761 6.30222 16.8257L4.20132 20.465C3.99922 20.8152 4.04522 21.252 4.31562 21.5522L6.21092 23.6568C6.09262 24.5473 6.09262 25.4526 6.21092 26.343L4.31562 28.4476C4.04512 28.7483 3.99922 29.1846 4.20132 29.5342L6.30222 33.173C6.50432 33.5231 6.90542 33.7014 7.30062 33.6173L10.0725 33.0282C10.787 33.5795 11.5669 34.0308 12.3975 34.3729L13.2725 37.0661C13.3974 37.4498 13.7526 37.7073 14.1563 37.7073H15.5947V44.0658C15.5947 45.6111 16.8519 46.8686 18.397 46.8686H44.6196C46.1649 46.8686 47.4221 45.6111 47.4221 44.0658V11.7819C47.4221 11.6063 47.3523 11.4376 47.2279 11.3141Z" fill="url(#paint0_linear_74_3884)"/>
</g>
<defs>
<linearGradient id="paint0_linear_74_3884" x1="7.55012" y1="50.308" x2="49.8816" y2="10.6145" gradientUnits="userSpaceOnUse">
<stop stop-color="#36F1B9"/>
<stop offset="1" stop-color="#3484A4"/>
</linearGradient>
</defs>
</svg>
