<svg width="51" height="50" viewBox="0 0 51 50" fill="none" xmlns="http://www.w3.org/2000/svg">
<g id="gift-card (1) 1">
<g id="ICON">
<path id="Vector" fill-rule="evenodd" clip-rule="evenodd" d="M10.2828 11.7189H5.71875C4.42422 11.7189 3.375 12.7682 3.375 14.0627V35.9377C3.375 37.2322 4.42422 38.2814 5.71875 38.2814H20.7227L28.8125 46.3713C29.2523 46.8111 29.8484 47.058 30.4695 47.058C31.0914 47.058 31.6875 46.8111 32.1273 46.3713L40.2172 38.2814H44.7812C46.0758 38.2814 47.125 37.2322 47.125 35.9377C47.125 31.4486 47.125 18.5518 47.125 14.0627C47.125 12.7682 46.0758 11.7189 44.7812 11.7189H29.7773L21.6875 3.6291C21.2477 3.18926 20.6516 2.94238 20.0305 2.94238C19.4086 2.94238 18.8125 3.18926 18.3727 3.6291L10.2828 11.7189ZM22.9328 38.2814L29.9172 45.2666C30.0641 45.4127 30.2625 45.4955 30.4695 45.4955C30.6773 45.4955 30.8758 45.4127 31.0227 45.2666L38.007 38.2814H22.9328ZM32.0945 21.8486C32.0297 21.8658 31.9609 21.8752 31.8906 21.8752H4.9375V35.9377C4.9375 36.3689 5.2875 36.7189 5.71875 36.7189H36.1875V25.0197L33.0211 28.1666C32.7156 28.4705 32.2203 28.4689 31.9164 28.1635C31.6125 27.8572 31.6141 27.3619 31.9195 27.058L35.5648 23.4353C34.6187 23.0557 33.2477 22.4728 32.0945 21.8486ZM45.5625 21.8752H41.7758C40.6383 22.4869 39.2992 23.0564 38.3664 23.4307L42.0023 27.0658C42.307 27.3705 42.307 27.8658 42.0023 28.1705C41.6969 28.4752 41.2023 28.4752 40.8969 28.1705L37.75 25.0236V36.7189H44.7812C45.2125 36.7189 45.5625 36.3689 45.5625 35.9377V21.8752ZM35.6266 21.7955C34.1984 21.2205 32.2156 20.3307 31.4219 19.5361C30.8844 18.9994 30.8844 18.1275 31.4219 17.59C31.9586 17.0533 32.8305 17.0533 33.3672 17.59C34.1617 18.3846 35.0523 20.3666 35.6266 21.7955ZM38.293 21.7955C38.868 20.3666 39.7578 18.3846 40.5523 17.59C41.0891 17.0533 41.9609 17.0533 42.4984 17.59C43.0352 18.1275 43.0352 18.9994 42.4984 19.5361C41.7039 20.3307 39.7219 21.2205 38.293 21.7955ZM36.1875 13.2814H5.71875C5.2875 13.2814 4.9375 13.6314 4.9375 14.0627V20.3127H30.0336C29.1797 19.1627 29.2742 17.5283 30.3164 16.4853C31.4633 15.3385 33.3258 15.3385 34.4727 16.4853C35.0328 17.0463 35.6469 18.1369 36.1875 19.2619V13.2814ZM37.75 13.2814V19.2252C38.2867 18.1135 38.893 17.04 39.4477 16.4853C40.5945 15.3385 42.4562 15.3385 43.6031 16.4853C44.6461 17.5283 44.7406 19.1627 43.8867 20.3127H45.5625V14.0627C45.5625 13.6314 45.2125 13.2814 44.7812 13.2814H37.75ZM27.5672 11.7189L20.5828 4.73379C20.4359 4.5877 20.2375 4.50488 20.0305 4.50488C19.8227 4.50488 19.6242 4.5877 19.4773 4.73379L12.493 11.7189H27.5672Z" fill="url(#paint0_linear_74_3926)"/>
</g>
</g>
<defs>
<linearGradient id="paint0_linear_74_3926" x1="6.88133" y1="50.5271" x2="49.5804" y2="10.4619" gradientUnits="userSpaceOnUse">
<stop stop-color="#36F1B9"/>
<stop offset="1" stop-color="#3484A4"/>
</linearGradient>
</defs>
</svg>
