<svg width="51" height="50" viewBox="0 0 51 50" fill="none" xmlns="http://www.w3.org/2000/svg">
<g id="patient 1" clip-path="url(#clip0_74_3903)">
<path id="Vector" d="M28.9834 43.3999C27.339 43.3999 25.1501 42.9888 22.8945 41.3888C22.8834 41.3777 22.8723 41.3666 22.8501 41.3554C22.8056 41.3221 18.2723 37.5221 12.0612 39.5443C11.7723 39.6443 11.4612 39.4777 11.3612 39.1888C11.2612 38.8999 11.4279 38.5888 11.7167 38.4888C15.2834 37.3332 18.3056 37.9332 20.2167 38.6554C22.1612 39.3777 23.3723 40.3443 23.5501 40.4999C27.539 43.3221 31.239 41.9888 31.3945 41.9332C31.4056 41.9221 31.4279 41.9221 31.4501 41.911L47.0612 37.7332C48.2501 37.411 48.9612 36.1777 48.6501 34.9888C48.4945 34.411 48.1279 33.9332 47.6056 33.6332C47.0834 33.3332 46.4834 33.2554 45.9056 33.411L33.139 36.811C32.839 36.8888 32.539 36.711 32.4612 36.4221C32.3834 36.1221 32.5612 35.8221 32.8501 35.7443L45.6167 32.3221C46.4834 32.0888 47.3834 32.211 48.1612 32.6554C48.939 33.0999 49.4945 33.8221 49.7279 34.6888C50.2056 36.4777 49.139 38.311 47.3612 38.7888L31.7723 42.9665C31.5612 43.0443 30.5056 43.3999 28.9834 43.3999Z" fill="url(#paint0_linear_74_3903)"/>
<path id="Vector_2" d="M29.7496 39.3334C29.0829 39.3334 28.4162 39.1667 27.8051 38.8112L19.8051 34.1889C19.5384 34.0334 19.4496 33.7 19.6051 33.4334C19.7607 33.1667 20.094 33.0778 20.3607 33.2334L28.3607 37.8556C29.694 38.6223 31.4051 38.1667 32.1829 36.8334C32.9496 35.5 32.494 33.7889 31.1607 33.0112C29.7384 32.1889 28.4162 31.3445 27.1384 30.5223C21.2718 26.7667 16.6496 23.7889 8.82734 27.2334C8.54956 27.3556 8.21622 27.2334 8.094 26.9445C7.97178 26.6667 8.094 26.3334 8.38289 26.2112C16.7496 22.5334 21.8384 25.8 27.7384 29.5889C29.0051 30.4 30.3162 31.2445 31.7162 32.0445C33.5829 33.1223 34.2273 35.5112 33.1496 37.3778C32.4162 38.6223 31.094 39.3334 29.7496 39.3334Z" fill="url(#paint1_linear_74_3903)"/>
<path id="Vector_3" d="M6.19456 44.2332C6.09456 44.2332 6.00567 44.211 5.91678 44.1554C5.79456 44.0777 5.69456 43.9554 5.66122 43.8221L0.739002 25.4777C0.661224 25.1777 0.839002 24.8777 1.12789 24.7999L7.60567 23.0665C7.75011 23.0332 7.89456 23.0443 8.02789 23.1221C8.15011 23.1999 8.25011 23.3221 8.28345 23.4554L13.1946 41.7999C13.2723 42.0999 13.0946 42.3999 12.8057 42.4777L6.339 44.2221C6.29456 44.2332 6.239 44.2332 6.19456 44.2332ZM1.96122 25.7221L6.58345 42.9999L11.9946 41.5554L7.37233 24.2777L1.96122 25.7221Z" fill="url(#paint2_linear_74_3903)"/>
<path id="Vector_4" d="M47.8279 29.1669H28.2724C27.9612 29.1669 27.7168 28.9224 27.7168 28.6113V26.1113C27.7168 22.1891 29.9057 18.6558 33.4279 16.878C33.6835 16.7447 34.0057 16.8336 34.1501 17.0891C34.9835 18.478 36.439 19.3002 38.0501 19.3002C39.6612 19.3002 41.1168 18.478 41.9501 17.0891C42.0946 16.8336 42.4168 16.7447 42.6724 16.878C46.1946 18.6558 48.3835 22.1891 48.3835 26.1113V28.6113C48.3835 28.9113 48.139 29.1669 47.8279 29.1669ZM28.8279 28.0558H47.2835V26.1113C47.2835 22.778 45.5057 19.7447 42.6168 18.1002C41.5612 19.5336 39.8612 20.4113 38.0612 20.4113C36.2612 20.4113 34.5612 19.5336 33.5057 18.1002C30.6168 19.7558 28.839 22.778 28.839 26.1113V28.0558H28.8279Z" fill="url(#paint3_linear_74_3903)"/>
<path id="Vector_5" d="M38.0501 17.233C34.9279 17.233 32.3945 14.6997 32.3945 11.5774C32.3945 8.45521 34.9279 5.92188 38.0501 5.92188C41.1723 5.92188 43.7056 8.45521 43.7056 11.5774C43.7056 14.6997 41.1723 17.233 38.0501 17.233ZM38.0501 7.03299C35.5501 7.03299 33.5056 9.06632 33.5056 11.5774C33.5056 14.0774 35.539 16.1219 38.0501 16.1219C40.5612 16.1219 42.5945 14.0885 42.5945 11.5774C42.5945 9.07743 40.5612 7.03299 38.0501 7.03299Z" fill="url(#paint4_linear_74_3903)"/>
<path id="Vector_6" d="M17.428 22.033C16.0168 22.033 14.8724 20.8886 14.8724 19.4775V17.1997H12.5946C11.1835 17.1997 10.0391 16.0553 10.0391 14.6441C10.0391 13.233 11.1835 12.0886 12.5946 12.0886H14.8724V9.7997C14.8724 8.38859 16.0168 7.24414 17.428 7.24414C18.8391 7.24414 19.9835 8.38859 19.9835 9.7997V12.0775H22.2613C23.6724 12.0775 24.8168 13.2219 24.8168 14.633C24.8168 16.0441 23.6724 17.1886 22.2613 17.1886H19.9835V19.4664C19.9946 20.8886 18.8391 22.033 17.428 22.033ZM12.5946 13.1886C11.7946 13.1886 11.1502 13.8441 11.1502 14.633C11.1502 15.4219 11.8057 16.0775 12.5946 16.0775H15.428C15.7391 16.0775 15.9835 16.3219 15.9835 16.633V19.4664C15.9835 20.2664 16.6391 20.9108 17.428 20.9108C18.2168 20.9108 18.8724 20.2553 18.8724 19.4664V16.633C18.8724 16.3219 19.1168 16.0775 19.428 16.0775H22.2613C23.0613 16.0775 23.7057 15.4219 23.7057 14.633C23.7057 13.8441 23.0502 13.1886 22.2613 13.1886H19.428C19.1168 13.1886 18.8724 12.9441 18.8724 12.633V9.7997C18.8724 8.9997 18.2168 8.35525 17.428 8.35525C16.628 8.35525 15.9835 9.01081 15.9835 9.7997V12.633C15.9835 12.9441 15.7391 13.1886 15.428 13.1886H12.5946Z" fill="url(#paint5_linear_74_3903)"/>
</g>
<defs>
<linearGradient id="paint0_linear_74_3903" x1="14.4184" y1="44.2801" x2="20.5136" y2="24.4399" gradientUnits="userSpaceOnUse">
<stop stop-color="#36F1B9"/>
<stop offset="1" stop-color="#3484A4"/>
</linearGradient>
<linearGradient id="paint1_linear_74_3903" x1="10.1006" y1="40.4918" x2="22.7816" y2="19.6217" gradientUnits="userSpaceOnUse">
<stop stop-color="#36F1B9"/>
<stop offset="1" stop-color="#3484A4"/>
</linearGradient>
<linearGradient id="paint2_linear_74_3903" x1="1.72188" y1="45.8991" x2="19.2057" y2="36.1442" gradientUnits="userSpaceOnUse">
<stop stop-color="#36F1B9"/>
<stop offset="1" stop-color="#3484A4"/>
</linearGradient>
<linearGradient id="paint3_linear_74_3903" x1="29.3731" y1="30.1381" x2="40.1893" y2="13.0134" gradientUnits="userSpaceOnUse">
<stop stop-color="#36F1B9"/>
<stop offset="1" stop-color="#3484A4"/>
</linearGradient>
<linearGradient id="paint4_linear_74_3903" x1="33.3011" y1="18.1225" x2="44.2544" y2="7.75888" gradientUnits="userSpaceOnUse">
<stop stop-color="#36F1B9"/>
<stop offset="1" stop-color="#3484A4"/>
</linearGradient>
<linearGradient id="paint5_linear_74_3903" x1="11.2234" y1="23.196" x2="25.5439" y2="9.65671" gradientUnits="userSpaceOnUse">
<stop stop-color="#36F1B9"/>
<stop offset="1" stop-color="#3484A4"/>
</linearGradient>
<clipPath id="clip0_74_3903">
<rect width="50" height="50" fill="white" transform="translate(0.25)"/>
</clipPath>
</defs>
</svg>
