<svg width="51" height="50" viewBox="0 0 51 50" fill="none" xmlns="http://www.w3.org/2000/svg">
<g id="health-service 1">
<g id="Group">
<path id="Vector" d="M43.444 35.385C42.377 35.0146 41.2325 35.0809 40.2222 35.5711L31.4125 39.8414C31.5453 38.4369 30.9663 37.016 29.7905 36.1071C26.6854 33.713 23.5802 31.3162 20.4748 28.9193L20.3501 28.823C19.6817 28.3087 18.9459 28.0586 18.1004 28.0586H3.18223C2.81406 28.0586 2.51562 28.357 2.51562 28.7252C2.51562 29.0934 2.81406 29.3918 3.18223 29.3918H18.1005C18.6482 29.3918 19.1048 29.5468 19.5364 29.879L19.6604 29.9746C22.7658 32.3716 25.8712 34.7686 28.976 37.1623C30.0023 37.9558 30.3631 39.3202 29.895 40.5037C29.8939 40.5065 29.8924 40.5093 29.8912 40.5121C29.8678 40.5719 29.8421 40.6307 29.8146 40.6888C29.8107 40.6966 29.8067 40.7044 29.8028 40.7123C29.7184 40.8866 29.6166 41.0525 29.4984 41.2064C28.527 42.4638 26.7125 42.6965 25.4541 41.7259L18.7614 36.5606C18.47 36.3357 18.0514 36.3896 17.8265 36.6812C17.6016 36.9726 17.6555 37.3912 17.9469 37.6161L24.6397 42.7814C25.4054 43.3721 26.3113 43.6579 27.2112 43.6579C28.474 43.6579 29.7244 43.0945 30.5548 42.0199C30.6571 41.8866 30.7492 41.7468 30.8345 41.603L40.8041 36.7705C41.4941 36.4356 42.2764 36.3909 43.0069 36.6442C43.7362 36.8975 44.3214 37.416 44.6545 38.1047C45.3472 39.5361 44.7486 41.2639 43.3202 41.9562C41.4324 42.8713 39.7741 43.6974 38.3111 44.4262C32.7544 47.194 29.8953 48.6183 27.1607 48.6183C27.0896 48.6183 27.0181 48.6173 26.947 48.6154C24.1358 48.5388 21.1437 46.951 15.1823 43.7874C13.9291 43.1224 12.5088 42.3687 10.9443 41.5521C10.8491 41.5023 10.7434 41.4765 10.6359 41.4765H3.18223C2.81406 41.4765 2.51562 41.7749 2.51562 42.1431C2.51562 42.5112 2.81406 42.8097 3.18223 42.8097H10.4725C11.9759 43.595 13.345 44.3215 14.5575 44.9649C20.8765 48.3183 24.0104 49.9517 27.1633 49.9514C30.152 49.951 33.1576 48.4826 38.9057 45.6194C40.3657 44.8921 42.0206 44.0679 43.9019 43.1558C45.9913 42.1433 46.8674 39.6169 45.8547 37.524C45.3661 36.5147 44.5101 35.755 43.444 35.385Z" fill="url(#paint0_linear_74_3894)"/>
<g id="Group_2">
<path id="Vector_2" d="M45.5684 5.80244H39.7473V3.56787C39.7473 1.62744 38.1687 0.0488281 36.2282 0.0488281H27.0365C25.0961 0.0488281 23.5175 1.62754 23.5175 3.56787V5.80234H17.772C15.8881 5.80234 14.3555 7.33496 14.3555 9.21885V25.5404C14.3555 25.9086 14.6539 26.207 15.0221 26.207C15.3902 26.207 15.6887 25.9086 15.6887 25.5404V9.21895C15.6887 8.07022 16.6232 7.13564 17.772 7.13564H45.5684C46.7171 7.13564 47.6517 8.07022 47.6517 9.21895V28.6548C47.6517 29.8036 46.7171 30.7382 45.5684 30.7382H26.3564C25.9883 30.7382 25.6899 31.0366 25.6899 31.4048C25.6899 31.7729 25.9884 32.0714 26.3564 32.0714H45.5684C47.4522 32.0714 48.9849 30.5387 48.9849 28.6548V9.21895C48.9849 7.33506 47.4522 5.80244 45.5684 5.80244ZM36.0285 5.80244H27.2361V3.76768H36.0285V5.80244ZM38.4142 5.80244H37.3617V3.56787C37.3617 2.95352 36.8427 2.43447 36.2282 2.43447H27.0365C26.4221 2.43447 25.903 2.95352 25.903 3.56787V5.80234H24.8505V3.56787C24.8505 2.3626 25.8312 1.38203 27.0364 1.38203H36.2281C37.4334 1.38203 38.4141 2.3626 38.4141 3.56787L38.4142 5.80244Z" fill="url(#paint1_linear_74_3894)"/>
<path id="Vector_3" d="M34.1366 10.6787H29.2008C28.8326 10.6787 28.5342 10.9771 28.5342 11.3453V15.8007H24.0787C23.7105 15.8007 23.4121 16.0991 23.4121 16.4673V21.4031C23.4121 21.7713 23.7105 22.0697 24.0787 22.0697H28.5342V26.5252C28.5342 26.8934 28.8326 27.1918 29.2008 27.1918H34.1366C34.5048 27.1918 34.8032 26.8934 34.8032 26.5252V22.0697H39.2588C39.627 22.0697 39.9254 21.7713 39.9254 21.4031V16.4673C39.9254 16.0991 39.627 15.8007 39.2588 15.8007H34.8032V11.3453C34.8031 10.9771 34.5048 10.6787 34.1366 10.6787ZM38.5922 17.1339V20.7365H34.1366C33.7685 20.7365 33.4701 21.035 33.4701 21.4031V25.8587H29.8674V21.4031C29.8674 21.035 29.5689 20.7365 29.2009 20.7365H24.7453V17.1339H29.2009C29.569 17.1339 29.8674 16.8355 29.8674 16.4673V12.0119H33.4701V16.4673C33.4701 16.8355 33.7686 17.1339 34.1366 17.1339H38.5922Z" fill="url(#paint2_linear_74_3894)"/>
</g>
</g>
</g>
<defs>
<linearGradient id="paint0_linear_74_3894" x1="6.02279" y1="51.673" x2="23.5707" y2="18.486" gradientUnits="userSpaceOnUse">
<stop stop-color="#36F1B9"/>
<stop offset="1" stop-color="#3484A4"/>
</linearGradient>
<linearGradient id="paint1_linear_74_3894" x1="17.1308" y1="34.5895" x2="48.1799" y2="2.8208" gradientUnits="userSpaceOnUse">
<stop stop-color="#36F1B9"/>
<stop offset="1" stop-color="#3484A4"/>
</linearGradient>
<linearGradient id="paint2_linear_74_3894" x1="24.7356" y1="28.4903" x2="40.7263" y2="13.3604" gradientUnits="userSpaceOnUse">
<stop stop-color="#36F1B9"/>
<stop offset="1" stop-color="#3484A4"/>
</linearGradient>
</defs>
</svg>
