<svg width="100" height="100" viewBox="0 0 100 100" fill="none" xmlns="http://www.w3.org/2000/svg">
<g id="_x3C_Layer_x3E_">
<g id="Ct_x2C__mri_x2C__scan_x2C__tomography_x2C__person_1_">
<g id="XMLID_2300_">
<g id="XMLID_2345_">
<path id="Vector" d="M60.9375 96.875H45.3125C44.45 96.875 43.75 96.175 43.75 95.3125C43.75 94.45 44.45 93.75 45.3125 93.75H60.9375C79.0312 93.75 93.75 74.125 93.75 50C93.75 25.875 79.0312 6.25 60.9375 6.25H45.3125C44.45 6.25 43.75 5.55 43.75 4.6875C43.75 3.825 44.45 3.125 45.3125 3.125H60.9375C80.7531 3.125 96.875 24.1531 96.875 50C96.875 75.8469 80.7531 96.875 60.9375 96.875Z" fill="url(#paint0_linear_393_17908)"/>
</g>
<g id="XMLID_2335_">
<path id="Vector_2" d="M45.3125 96.875C37.2406 96.875 29.6219 93.4781 23.275 87.05C22.6687 86.4375 22.675 85.4469 23.2875 84.8406C23.9 84.2344 24.8906 84.2406 25.4969 84.8562C31.2438 90.675 38.0938 93.75 45.3125 93.75C63.4062 93.75 78.125 74.125 78.125 50C78.125 25.875 63.4062 6.25 45.3125 6.25C27.2188 6.25 12.5 25.875 12.5 50C12.5 51.525 12.5594 53.0312 12.675 54.5125C12.7406 55.3719 12.0938 56.125 11.2344 56.1906C10.3781 56.2563 9.62188 55.6094 9.55625 54.7531C9.44063 53.1906 9.375 51.6031 9.375 50C9.375 24.1531 25.4969 3.125 45.3125 3.125C65.1281 3.125 81.25 24.1531 81.25 50C81.25 75.8469 65.1281 96.875 45.3125 96.875Z" fill="url(#paint1_linear_393_17908)"/>
</g>
<g id="XMLID_2329_">
<path id="Vector_3" d="M45.3125 87.5C44.45 87.5 43.75 86.8 43.75 85.9375C43.75 85.075 44.45 84.375 45.3125 84.375C58.2375 84.375 68.75 68.9531 68.75 50C68.75 31.0469 58.2375 15.625 45.3125 15.625C32.3875 15.625 21.875 31.0469 21.875 50C21.875 51.525 21.9406 53.025 22.0719 54.4969C22.1469 55.3562 21.5125 56.1156 20.6531 56.1906C19.8563 56.2719 19.0344 55.6344 18.9594 54.7719C18.8187 53.1938 18.75 51.5906 18.75 50C18.75 29.3219 30.6656 12.5 45.3125 12.5C59.9594 12.5 71.875 29.3219 71.875 50C71.875 70.6781 59.9594 87.5 45.3125 87.5Z" fill="url(#paint2_linear_393_17908)"/>
</g>
<g id="XMLID_2327_">
<path id="Vector_4" d="M45.3125 87.5H4.6875C3.825 87.5 3.125 86.8 3.125 85.9375C3.125 85.075 3.825 84.375 4.6875 84.375H45.3125C46.175 84.375 46.875 85.075 46.875 85.9375C46.875 86.8 46.175 87.5 45.3125 87.5Z" fill="url(#paint3_linear_393_17908)"/>
</g>
<g id="XMLID_2325_">
<path id="Vector_5" d="M50 78.375C44.8312 78.375 40.625 74.1687 40.625 69C40.625 63.8312 44.8312 59.625 50 59.625C55.1687 59.625 59.375 63.8312 59.375 69C59.375 74.1687 55.1687 78.375 50 78.375ZM50 62.75C46.5531 62.75 43.75 65.5531 43.75 69C43.75 72.4469 46.5531 75.25 50 75.25C53.4469 75.25 56.25 72.4469 56.25 69C56.25 65.5531 53.4469 62.75 50 62.75Z" fill="url(#paint4_linear_393_17908)"/>
</g>
<g id="XMLID_2323_">
<path id="Vector_6" d="M26.5625 81.25H4.6875C3.825 81.25 3.125 80.55 3.125 79.6875C3.125 78.825 3.825 78.125 4.6875 78.125H26.5625C28.6437 78.125 30.6063 77.3125 32.0844 75.8344C33.5625 74.3563 34.375 72.3938 34.375 70.3125C34.375 66.0062 30.8719 62.5 26.5625 62.5H4.6875C3.825 62.5 3.125 61.8 3.125 60.9375C3.125 60.075 3.825 59.375 4.6875 59.375H26.5625C32.5938 59.375 37.5 64.2812 37.5 70.3125C37.5 73.2281 36.3625 75.975 34.2938 78.0438C32.225 80.1125 29.4813 81.25 26.5625 81.25Z" fill="url(#paint5_linear_393_17908)"/>
</g>
<g id="XMLID_2305_">
<g id="XMLID_2321_">
<path id="Vector_7" d="M89.0617 6.25H88.7461C87.8836 6.25 87.1836 5.55 87.1836 4.6875C87.1836 3.825 87.8836 3.125 88.7461 3.125H89.0617C89.9242 3.125 90.6242 3.825 90.6242 4.6875C90.6242 5.55 89.9242 6.25 89.0617 6.25Z" fill="url(#paint6_linear_393_17908)"/>
</g>
<g id="XMLID_2310_">
<path id="Vector_8" d="M82.8117 6.25H82.4961C81.6336 6.25 80.9336 5.55 80.9336 4.6875C80.9336 3.825 81.6336 3.125 82.4961 3.125H82.8117C83.6742 3.125 84.3742 3.825 84.3742 4.6875C84.3742 5.55 83.6742 6.25 82.8117 6.25Z" fill="url(#paint7_linear_393_17908)"/>
</g>
<g id="XMLID_2307_">
<path id="Vector_9" d="M95.3117 6.25H94.9961C94.1336 6.25 93.4336 5.55 93.4336 4.6875C93.4336 3.825 94.1336 3.125 94.9961 3.125H95.3117C96.1742 3.125 96.8742 3.825 96.8742 4.6875C96.8742 5.55 96.1742 6.25 95.3117 6.25Z" fill="url(#paint8_linear_393_17908)"/>
</g>
</g>
</g>
</g>
</g>
<defs>
<linearGradient id="paint0_linear_393_17908" x1="48.0077" y1="104.247" x2="123.737" y2="63.6446" gradientUnits="userSpaceOnUse">
<stop stop-color="#36F1B9"/>
<stop offset="1" stop-color="#3484A4"/>
</linearGradient>
<linearGradient id="paint1_linear_393_17908" x1="15.1354" y1="104.247" x2="101.566" y2="41.5513" gradientUnits="userSpaceOnUse">
<stop stop-color="#36F1B9"/>
<stop offset="1" stop-color="#3484A4"/>
</linearGradient>
<linearGradient id="paint2_linear_393_17908" x1="23.0077" y1="93.3978" x2="90.287" y2="48.3075" gradientUnits="userSpaceOnUse">
<stop stop-color="#36F1B9"/>
<stop offset="1" stop-color="#3484A4"/>
</linearGradient>
<linearGradient id="paint3_linear_393_17908" x1="6.63133" y1="87.7457" x2="7.08635" y2="81.7185" gradientUnits="userSpaceOnUse">
<stop stop-color="#36F1B9"/>
<stop offset="1" stop-color="#3484A4"/>
</linearGradient>
<linearGradient id="paint4_linear_393_17908" x1="42.1277" y1="79.8494" x2="60.2846" y2="62.6701" gradientUnits="userSpaceOnUse">
<stop stop-color="#36F1B9"/>
<stop offset="1" stop-color="#3484A4"/>
</linearGradient>
<linearGradient id="paint5_linear_393_17908" x1="5.87998" y1="82.9702" x2="25.5295" y2="53.7549" gradientUnits="userSpaceOnUse">
<stop stop-color="#36F1B9"/>
<stop offset="1" stop-color="#3484A4"/>
</linearGradient>
<linearGradient id="paint6_linear_393_17908" x1="87.4593" y1="6.49574" x2="90.4876" y2="3.34114" gradientUnits="userSpaceOnUse">
<stop stop-color="#36F1B9"/>
<stop offset="1" stop-color="#3484A4"/>
</linearGradient>
<linearGradient id="paint7_linear_393_17908" x1="81.2093" y1="6.49574" x2="84.2376" y2="3.34114" gradientUnits="userSpaceOnUse">
<stop stop-color="#36F1B9"/>
<stop offset="1" stop-color="#3484A4"/>
</linearGradient>
<linearGradient id="paint8_linear_393_17908" x1="93.7093" y1="6.49574" x2="96.7376" y2="3.34114" gradientUnits="userSpaceOnUse">
<stop stop-color="#36F1B9"/>
<stop offset="1" stop-color="#3484A4"/>
</linearGradient>
</defs>
</svg>
