<svg width="100" height="100" viewBox="0 0 100 100" fill="none" xmlns="http://www.w3.org/2000/svg">
<g id="_x3C_Layer_x3E_">
<g id="medical_equipment_x2C__ultrasound_x2C__Scan_x2C__ultrasonography_1_">
<g id="XMLID_3008_">
<g id="Group">
<g id="XMLID_8_">
<path id="Vector" d="M65.625 41.7969C66.2722 41.7969 66.7969 41.2722 66.7969 40.625C66.7969 39.9778 66.2722 39.4531 65.625 39.4531C64.9778 39.4531 64.4531 39.9778 64.4531 40.625C64.4531 41.2722 64.9778 41.7969 65.625 41.7969Z" fill="url(#paint0_linear_393_17940)"/>
</g>
</g>
<g id="Group_2">
<g id="XMLID_7_">
<path id="Vector_2" d="M65.625 43.3594C67.1352 43.3594 68.3594 42.1352 68.3594 40.625C68.3594 39.1148 67.1352 37.8906 65.625 37.8906C64.1148 37.8906 62.8906 39.1148 62.8906 40.625C62.8906 42.1352 64.1148 43.3594 65.625 43.3594Z" fill="url(#paint1_linear_393_17940)"/>
</g>
</g>
</g>
<g id="XMLID_2980_">
<g id="XMLID_3006_">
<path id="Vector_3" d="M92.1875 78.125H85.9375C85.075 78.125 84.375 77.425 84.375 76.5625C84.375 75.7 85.075 75 85.9375 75H92.1875C93.0469 75 93.75 74.2969 93.75 73.4375V45.3125C93.75 44.45 94.45 43.75 95.3125 43.75C96.175 43.75 96.875 44.45 96.875 45.3125V73.4375C96.875 76.0219 94.7719 78.125 92.1875 78.125Z" fill="url(#paint2_linear_393_17940)"/>
</g>
<g id="XMLID_3004_">
<path id="Vector_4" d="M45.3094 78.125H7.8125C5.22812 78.125 3.125 76.0219 3.125 73.4375V7.8125C3.125 5.22812 5.22812 3.125 7.8125 3.125H92.1875C94.7719 3.125 96.875 5.22812 96.875 7.8125V39.0625C96.875 39.925 96.175 40.625 95.3125 40.625C94.45 40.625 93.75 39.925 93.75 39.0625V7.8125C93.75 6.95312 93.0469 6.25 92.1875 6.25H7.8125C6.95312 6.25 6.25 6.95312 6.25 7.8125V73.4375C6.25 74.2969 6.95312 75 7.8125 75H45.3094C46.1719 75 46.8719 75.7 46.8719 76.5625C46.8719 77.425 46.1719 78.125 45.3094 78.125Z" fill="url(#paint3_linear_393_17940)"/>
</g>
<g id="XMLID_2991_">
<g id="XMLID_3002_">
<path id="Vector_5" d="M17.1875 53.125H10.9375C10.075 53.125 9.375 52.425 9.375 51.5625C9.375 50.7 10.075 50 10.9375 50H17.1875C18.05 50 18.75 50.7 18.75 51.5625C18.75 52.425 18.05 53.125 17.1875 53.125Z" fill="url(#paint4_linear_393_17940)"/>
</g>
<g id="XMLID_3000_">
<path id="Vector_6" d="M17.1875 62.5H10.9375C10.075 62.5 9.375 61.8 9.375 60.9375C9.375 60.075 10.075 59.375 10.9375 59.375H17.1875C18.05 59.375 18.75 60.075 18.75 60.9375C18.75 61.8 18.05 62.5 17.1875 62.5Z" fill="url(#paint5_linear_393_17940)"/>
</g>
<g id="XMLID_2998_">
<path id="Vector_7" d="M17.1875 34.375H10.9375C10.075 34.375 9.375 33.675 9.375 32.8125C9.375 31.95 10.075 31.25 10.9375 31.25H17.1875C18.05 31.25 18.75 31.95 18.75 32.8125C18.75 33.675 18.05 34.375 17.1875 34.375Z" fill="url(#paint6_linear_393_17940)"/>
</g>
<g id="XMLID_2996_">
<path id="Vector_8" d="M17.1875 43.75H10.9375C10.075 43.75 9.375 43.05 9.375 42.1875C9.375 41.325 10.075 40.625 10.9375 40.625H17.1875C18.05 40.625 18.75 41.325 18.75 42.1875C18.75 43.05 18.05 43.75 17.1875 43.75Z" fill="url(#paint7_linear_393_17940)"/>
</g>
<g id="XMLID_2994_">
<path id="Vector_9" d="M17.1875 15.625H10.9375C10.075 15.625 9.375 14.925 9.375 14.0625C9.375 13.2 10.075 12.5 10.9375 12.5H17.1875C18.05 12.5 18.75 13.2 18.75 14.0625C18.75 14.925 18.05 15.625 17.1875 15.625Z" fill="url(#paint8_linear_393_17940)"/>
</g>
<g id="XMLID_2992_">
<path id="Vector_10" d="M17.1875 25H10.9375C10.075 25 9.375 24.3 9.375 23.4375C9.375 22.575 10.075 21.875 10.9375 21.875H17.1875C18.05 21.875 18.75 22.575 18.75 23.4375C18.75 24.3 18.05 25 17.1875 25Z" fill="url(#paint9_linear_393_17940)"/>
</g>
</g>
<g id="XMLID_2989_">
<path id="Vector_11" d="M65.6257 96.8811C59.5288 96.8811 53.4319 95.6123 47.7507 93.0686C46.9632 92.7186 46.6101 91.7936 46.9632 91.0061C47.3132 90.2155 48.2413 89.8624 49.0257 90.2186C59.5819 94.9405 71.6944 94.9311 82.2507 90.2061C83.0351 89.8467 83.9601 90.2061 84.3132 90.9936C84.6663 91.7811 84.3132 92.7061 83.5257 93.0561C77.8413 95.6061 71.7319 96.8811 65.6257 96.8811Z" fill="url(#paint10_linear_393_17940)"/>
</g>
<g id="XMLID_2987_">
<path id="Vector_12" d="M65.6257 71.8743C62.8757 71.8743 60.1226 71.5524 57.4476 70.9212C56.6038 70.7243 56.0851 69.8837 56.2851 69.0431C56.4819 68.2056 57.3132 67.6712 58.1632 67.8806C65.1257 69.5087 72.4663 68.8118 79.0507 65.8556C79.8351 65.4962 80.7632 65.8493 81.1163 66.6399C81.4694 67.4274 81.1194 68.3524 80.3319 68.7056C75.6538 70.8087 70.7069 71.8743 65.6257 71.8743Z" fill="url(#paint11_linear_393_17940)"/>
</g>
<g id="XMLID_2985_">
<path id="Vector_13" d="M65.6253 89.0689C60.6159 89.0689 55.6097 88.0251 50.944 85.9345C50.1565 85.5845 49.8034 84.6595 50.1565 83.872C50.5097 83.0845 51.4347 82.7282 52.219 83.0845C60.7472 86.9001 70.5284 86.8939 79.0534 83.0751C79.8378 82.7126 80.7628 83.072 81.1159 83.8626C81.469 84.6501 81.1159 85.5751 80.3284 85.9251C75.6597 88.0189 70.6409 89.0689 65.6253 89.0689Z" fill="url(#paint12_linear_393_17940)"/>
</g>
<g id="XMLID_2983_">
<path id="Vector_14" d="M65.625 81.2496C62.7188 81.2496 59.8375 80.8996 57.0594 80.2027C52.9063 79.1965 50 75.4496 50 71.0933V66.9058C50 63.6965 51.3062 60.5465 53.5812 58.2683C55.275 56.5746 56.25 54.2308 56.25 51.8433V40.6246C56.25 35.1308 60.9969 30.7058 66.5937 31.2902C71.3094 31.759 75 36.0527 75 41.0621V51.8433C75 54.234 75.975 56.5746 77.6688 58.2715C79.9438 60.5465 81.25 63.6965 81.25 66.9058V71.0933C81.25 75.4496 78.3438 79.1965 74.1813 80.2058C71.4125 80.8996 68.5312 81.2496 65.625 81.2496ZM65.6313 34.3652C62.1813 34.3652 59.375 37.1746 59.375 40.6246V51.8433C59.375 55.0527 58.0688 58.2027 55.7938 60.4808C54.1 62.1746 53.125 64.5183 53.125 66.9058V71.0933C53.125 73.9558 55.0937 76.509 57.8062 77.1652C62.8906 78.4402 68.3688 78.4371 73.4344 77.1683C76.1563 76.509 78.125 73.9558 78.125 71.0933V66.9058C78.125 64.5152 77.15 62.1746 75.4562 60.4777C73.1812 58.2027 71.875 55.0527 71.875 51.8433V41.0621C71.875 37.6371 69.4187 34.7121 66.2812 34.3965C66.0625 34.3746 65.8438 34.3652 65.6313 34.3652Z" fill="url(#paint13_linear_393_17940)"/>
</g>
<g id="XMLID_2981_">
<path id="Vector_15" d="M95.3125 46.875H92.1875C87.8781 46.875 84.375 43.3719 84.375 39.0625V27.3438C84.375 22.6031 80.5219 18.75 75.7812 18.75C71.0406 18.75 67.1875 22.6031 67.1875 27.3438V32.8125C67.1875 33.675 66.4875 34.375 65.625 34.375C64.7625 34.375 64.0625 33.675 64.0625 32.8125V27.3438C64.0625 20.8844 69.3219 15.625 75.7812 15.625C82.2406 15.625 87.5 20.8844 87.5 27.3438V39.0625C87.5 41.6469 89.6031 43.75 92.1875 43.75H95.3125C96.175 43.75 96.875 44.45 96.875 45.3125C96.875 46.175 96.175 46.875 95.3125 46.875Z" fill="url(#paint14_linear_393_17940)"/>
</g>
</g>
</g>
</g>
<defs>
<linearGradient id="paint0_linear_393_17940" x1="64.641" y1="41.9812" x2="66.9106" y2="39.8338" gradientUnits="userSpaceOnUse">
<stop stop-color="#36F1B9"/>
<stop offset="1" stop-color="#3484A4"/>
</linearGradient>
<linearGradient id="paint1_linear_393_17940" x1="63.3289" y1="43.7894" x2="68.6247" y2="38.7788" gradientUnits="userSpaceOnUse">
<stop stop-color="#36F1B9"/>
<stop offset="1" stop-color="#3484A4"/>
</linearGradient>
<linearGradient id="paint2_linear_393_17940" x1="85.3768" y1="80.8282" x2="105.889" y2="73.7706" gradientUnits="userSpaceOnUse">
<stop stop-color="#36F1B9"/>
<stop offset="1" stop-color="#3484A4"/>
</linearGradient>
<linearGradient id="paint3_linear_393_17940" x1="10.6386" y1="84.0228" x2="82.3654" y2="-0.808311" gradientUnits="userSpaceOnUse">
<stop stop-color="#36F1B9"/>
<stop offset="1" stop-color="#3484A4"/>
</linearGradient>
<linearGradient id="paint4_linear_393_17940" x1="10.1264" y1="53.3707" x2="12.0261" y2="47.9784" gradientUnits="userSpaceOnUse">
<stop stop-color="#36F1B9"/>
<stop offset="1" stop-color="#3484A4"/>
</linearGradient>
<linearGradient id="paint5_linear_393_17940" x1="10.1264" y1="62.7457" x2="12.0261" y2="57.3534" gradientUnits="userSpaceOnUse">
<stop stop-color="#36F1B9"/>
<stop offset="1" stop-color="#3484A4"/>
</linearGradient>
<linearGradient id="paint6_linear_393_17940" x1="10.1264" y1="34.6207" x2="12.0261" y2="29.2284" gradientUnits="userSpaceOnUse">
<stop stop-color="#36F1B9"/>
<stop offset="1" stop-color="#3484A4"/>
</linearGradient>
<linearGradient id="paint7_linear_393_17940" x1="10.1264" y1="43.9957" x2="12.0261" y2="38.6034" gradientUnits="userSpaceOnUse">
<stop stop-color="#36F1B9"/>
<stop offset="1" stop-color="#3484A4"/>
</linearGradient>
<linearGradient id="paint8_linear_393_17940" x1="10.1264" y1="15.8707" x2="12.0261" y2="10.4784" gradientUnits="userSpaceOnUse">
<stop stop-color="#36F1B9"/>
<stop offset="1" stop-color="#3484A4"/>
</linearGradient>
<linearGradient id="paint9_linear_393_17940" x1="10.1264" y1="25.2457" x2="12.0261" y2="19.8534" gradientUnits="userSpaceOnUse">
<stop stop-color="#36F1B9"/>
<stop offset="1" stop-color="#3484A4"/>
</linearGradient>
<linearGradient id="paint10_linear_393_17940" x1="49.8415" y1="97.417" x2="52.2825" y2="84.6658" gradientUnits="userSpaceOnUse">
<stop stop-color="#36F1B9"/>
<stop offset="1" stop-color="#3484A4"/>
</linearGradient>
<linearGradient id="paint11_linear_393_17940" x1="58.2467" y1="72.3587" x2="61.1591" y2="61.1691" gradientUnits="userSpaceOnUse">
<stop stop-color="#36F1B9"/>
<stop offset="1" stop-color="#3484A4"/>
</linearGradient>
<linearGradient id="paint12_linear_393_17940" x1="52.5227" y1="89.5513" x2="54.8913" y2="78.1425" gradientUnits="userSpaceOnUse">
<stop stop-color="#36F1B9"/>
<stop offset="1" stop-color="#3484A4"/>
</linearGradient>
<linearGradient id="paint13_linear_393_17940" x1="52.5045" y1="85.1823" x2="95.0022" y2="60.0571" gradientUnits="userSpaceOnUse">
<stop stop-color="#36F1B9"/>
<stop offset="1" stop-color="#3484A4"/>
</linearGradient>
<linearGradient id="paint14_linear_393_17940" x1="66.6923" y1="49.3324" x2="96.9995" y2="19.2232" gradientUnits="userSpaceOnUse">
<stop stop-color="#36F1B9"/>
<stop offset="1" stop-color="#3484A4"/>
</linearGradient>
</defs>
</svg>
