<svg width="50" height="50" viewBox="0 0 50 50" fill="none" xmlns="http://www.w3.org/2000/svg">
<g opacity="0.2">
<path d="M15.1991 28.7202L23.5215 20.3767L15.1815 12.0567C12.8232 9.7026 9.01912 9.65377 6.73029 11.9485C4.44206 14.2432 4.49912 18.0461 6.85794 20.3997L15.1991 28.7202Z" stroke="url(#paint0_linear_74_3818)" stroke-width="2" stroke-miterlimit="10" stroke-linejoin="round"/>
<path d="M34.8028 28.7202L26.4805 20.3767L34.8211 12.0567C37.1793 9.7026 40.9834 9.65377 43.2722 11.9485C45.5605 14.2432 45.5034 18.0461 43.1446 20.3997L34.8028 28.7202Z" stroke="url(#paint1_linear_74_3818)" stroke-width="2" stroke-miterlimit="10" stroke-linejoin="round"/>
<path d="M9.14249 18.1093C8.04073 17.0099 7.98661 15.271 9.02073 14.2334" stroke="url(#paint2_linear_74_3818)" stroke-width="2" stroke-miterlimit="10" stroke-linecap="round" stroke-linejoin="round"/>
<path d="M25.1203 28.6693C25.7541 28.6693 26.268 28.1555 26.268 27.5217C26.268 26.8878 25.7541 26.374 25.1203 26.374C24.4865 26.374 23.9727 26.8878 23.9727 27.5217C23.9727 28.1555 24.4865 28.6693 25.1203 28.6693Z" fill="url(#paint3_linear_74_3818)"/>
<path d="M22.4393 32.7848C23.0734 32.7848 23.5875 32.2707 23.5875 31.6365C23.5875 31.0024 23.0734 30.4883 22.4393 30.4883C21.8051 30.4883 21.291 31.0024 21.291 31.6365C21.291 32.2707 21.8051 32.7848 22.4393 32.7848Z" fill="url(#paint4_linear_74_3818)"/>
<path d="M27.0598 33.9838C27.6936 33.9838 28.2074 33.47 28.2074 32.8361C28.2074 32.2023 27.6936 31.6885 27.0598 31.6885C26.4259 31.6885 25.9121 32.2023 25.9121 32.8361C25.9121 33.47 26.4259 33.9838 27.0598 33.9838Z" fill="url(#paint5_linear_74_3818)"/>
<path d="M21.8279 36.357C22.4621 36.357 22.9762 35.8429 22.9762 35.2088C22.9762 34.5746 22.4621 34.0605 21.8279 34.0605C21.1938 34.0605 20.6797 34.5746 20.6797 35.2088C20.6797 35.8429 21.1938 36.357 21.8279 36.357Z" fill="url(#paint6_linear_74_3818)"/>
<path d="M18.6476 38.4252C19.2815 38.4252 19.7953 37.9114 19.7953 37.2775C19.7953 36.6437 19.2815 36.1299 18.6476 36.1299C18.0138 36.1299 17.5 36.6437 17.5 37.2775C17.5 37.9114 18.0138 38.4252 18.6476 38.4252Z" fill="url(#paint7_linear_74_3818)"/>
<path d="M23.1443 40.4771C23.7785 40.4771 24.2926 39.9631 24.2926 39.3289C24.2926 38.6947 23.7785 38.1807 23.1443 38.1807C22.5102 38.1807 21.9961 38.6947 21.9961 39.3289C21.9961 39.9631 22.5102 40.4771 23.1443 40.4771Z" fill="url(#paint8_linear_74_3818)"/>
<path d="M31.5891 38.6898C32.2229 38.6898 32.7367 38.176 32.7367 37.5422C32.7367 36.9084 32.2229 36.3945 31.5891 36.3945C30.9552 36.3945 30.4414 36.9084 30.4414 37.5422C30.4414 38.176 30.9552 38.6898 31.5891 38.6898Z" fill="url(#paint9_linear_74_3818)"/>
<path d="M26.593 38.3734C27.2268 38.3734 27.7406 37.8596 27.7406 37.2258C27.7406 36.5919 27.2268 36.0781 26.593 36.0781C25.9591 36.0781 25.4453 36.5919 25.4453 37.2258C25.4453 37.8596 25.9591 38.3734 26.593 38.3734Z" fill="url(#paint10_linear_74_3818)"/>
</g>
<defs>
<linearGradient id="paint0_linear_74_3818" x1="6.53111" y1="30.172" x2="24.4091" y2="13.2481" gradientUnits="userSpaceOnUse">
<stop stop-color="#36F1B9"/>
<stop offset="1" stop-color="#3484A4"/>
</linearGradient>
<linearGradient id="paint1_linear_74_3818" x1="27.9608" y1="30.172" x2="45.8389" y2="13.2476" gradientUnits="userSpaceOnUse">
<stop stop-color="#36F1B9"/>
<stop offset="1" stop-color="#3484A4"/>
</linearGradient>
<linearGradient id="paint2_linear_74_3818" x1="8.34848" y1="18.4141" x2="9.86532" y2="18.0944" gradientUnits="userSpaceOnUse">
<stop stop-color="#36F1B9"/>
<stop offset="1" stop-color="#3484A4"/>
</linearGradient>
<linearGradient id="paint3_linear_74_3818" x1="24.1566" y1="28.8498" x2="26.3793" y2="26.7468" gradientUnits="userSpaceOnUse">
<stop stop-color="#36F1B9"/>
<stop offset="1" stop-color="#3484A4"/>
</linearGradient>
<linearGradient id="paint4_linear_74_3818" x1="21.4751" y1="32.9653" x2="23.6989" y2="30.8612" gradientUnits="userSpaceOnUse">
<stop stop-color="#36F1B9"/>
<stop offset="1" stop-color="#3484A4"/>
</linearGradient>
<linearGradient id="paint5_linear_74_3818" x1="26.0961" y1="34.1643" x2="28.3188" y2="32.0612" gradientUnits="userSpaceOnUse">
<stop stop-color="#36F1B9"/>
<stop offset="1" stop-color="#3484A4"/>
</linearGradient>
<linearGradient id="paint6_linear_74_3818" x1="20.8637" y1="36.5376" x2="23.0876" y2="34.4335" gradientUnits="userSpaceOnUse">
<stop stop-color="#36F1B9"/>
<stop offset="1" stop-color="#3484A4"/>
</linearGradient>
<linearGradient id="paint7_linear_74_3818" x1="17.684" y1="38.6057" x2="19.9066" y2="36.5027" gradientUnits="userSpaceOnUse">
<stop stop-color="#36F1B9"/>
<stop offset="1" stop-color="#3484A4"/>
</linearGradient>
<linearGradient id="paint8_linear_74_3818" x1="22.1801" y1="40.6577" x2="24.404" y2="38.5536" gradientUnits="userSpaceOnUse">
<stop stop-color="#36F1B9"/>
<stop offset="1" stop-color="#3484A4"/>
</linearGradient>
<linearGradient id="paint9_linear_74_3818" x1="30.6254" y1="38.8703" x2="32.8481" y2="36.7673" gradientUnits="userSpaceOnUse">
<stop stop-color="#36F1B9"/>
<stop offset="1" stop-color="#3484A4"/>
</linearGradient>
<linearGradient id="paint10_linear_74_3818" x1="25.6293" y1="38.5539" x2="27.852" y2="36.4509" gradientUnits="userSpaceOnUse">
<stop stop-color="#36F1B9"/>
<stop offset="1" stop-color="#3484A4"/>
</linearGradient>
</defs>
</svg>
