<svg width="80" height="80" viewBox="0 0 80 80" fill="none" xmlns="http://www.w3.org/2000/svg">
<g id="&#208;&#161;&#208;&#187;&#208;&#190;&#208;&#185;_1" clip-path="url(#clip0_393_18460)">
<path id="Vector" d="M71.8193 62.0568C71.5006 46.8755 68.1631 35.1255 62.6693 29.8818L61.9693 29.2192C62.6818 29.2693 65.5006 29.4818 65.9756 29.5068C68.5193 29.6318 70.5318 26.563 70.7568 24.5068C70.8276 23.0665 70.3369 21.655 69.3881 20.5693C69.0351 20.1262 68.5951 19.7601 68.0953 19.4936C67.5955 19.227 67.0464 19.0656 66.4818 19.0192C65.6693 18.9818 62.8131 18.713 62.0318 18.6505C63.2818 15.663 64.3506 12.9192 64.8568 11.3942C65.6256 9.09425 63.8881 6.9755 61.7818 6.0755C59.8568 5.2255 58.0631 5.6255 57.3131 7.03175C56.7381 8.11925 55.6818 9.8755 55.0381 10.9192L53.3131 10.2942C53.5915 8.82472 53.9461 7.37068 54.3756 5.938C54.5345 5.49529 54.5672 5.01713 54.4701 4.55691C54.3729 4.09668 54.1498 3.67251 53.8256 3.33175C52.5631 1.8755 47.2381 -0.1495 46.1443 3.26925C45.8068 4.31925 44.9693 6.39425 44.4693 7.59425L42.7943 7.263C42.6267 5.95127 42.5578 4.6288 42.5881 3.30675C42.6256 1.6255 41.0506 0.28175 38.7506 0.0379999C36.4506 -0.20575 33.8818 0.70675 33.4068 3.2505C32.3256 9.088 29.4006 14.5005 27.6443 17.3755C27.0193 12.4567 26.7818 8.15675 26.7443 7.838C26.7443 7.63175 24.6756 3.06925 18.7818 3.06925C13.7381 3.06925 11.2818 7.44425 11.1756 7.65675C11.0693 7.86925 8.38183 28.8505 8.17558 37.838C8.12558 40.6255 9.13183 47.6255 12.9631 55.1068C12.5693 59.563 11.9068 66.7442 11.7131 67.6068C10.9693 70.913 13.8506 73.1442 17.0381 73.8568C20.6006 74.688 24.6506 74.6505 26.8881 71.0318C29.6538 72.9168 32.625 74.481 35.7443 75.6943C43.1256 78.5567 49.5381 80.0005 54.8568 80.0005C59.2318 80.0005 62.8193 79.038 65.5818 77.1068C69.8693 74.1068 71.9693 69.0443 71.8193 62.0568ZM17.6068 71.4317C17.4443 71.3942 13.6256 70.4755 14.1568 68.138C14.3443 67.288 14.7818 62.4443 15.1318 58.8943C17.7377 62.9799 21.025 66.5884 24.8506 69.563C23.6068 71.7318 21.3818 72.2943 17.6068 71.4193V71.4317ZM64.1506 75.0693C58.7193 78.863 49.2131 78.2755 36.6506 73.3692C14.6131 64.7505 10.5568 43.1943 10.6756 37.8943C10.8693 29.5693 13.2631 11.0192 13.5693 8.638C13.9943 7.9505 15.7006 5.56925 18.7818 5.56925C22.4693 5.56925 23.9256 7.9755 24.2443 8.60675C24.4068 10.763 25.6256 26.2505 28.2318 32.2755C28.4693 32.8255 28.8256 33.5255 29.2318 34.3817C31.4193 38.8068 35.4818 47.0443 33.2443 52.6068C32.3443 54.8192 30.5381 56.3568 27.7193 57.3943C27.4069 57.5053 27.1513 57.7359 27.0089 58.0354C26.8665 58.3349 26.8489 58.6787 26.96 58.9911C27.071 59.3036 27.3017 59.5591 27.6011 59.7015C27.9006 59.8439 28.2444 59.8616 28.5568 59.7505C32.0443 58.5005 34.4006 56.4193 35.5568 53.5443C38.2256 46.9442 33.8381 38.0505 31.4756 33.2755C31.0818 32.4693 30.7381 31.7755 30.5256 31.288C29.5443 29.0005 28.7568 25.038 28.1568 21.1005C28.4568 20.8692 34.1818 12.8005 35.8631 3.70675C36.0756 2.5755 37.6693 2.45675 38.4818 2.5255C39.5318 2.63175 40.0881 3.08175 40.0881 3.24425C40.0452 5.01856 40.1687 6.79298 40.4568 8.54425C40.5018 8.78988 40.6193 9.01641 40.7942 9.19464C40.9691 9.37288 41.1934 9.49465 41.4381 9.54425L45.0006 10.2505C45.283 10.3059 45.5759 10.2622 45.8298 10.1267C46.0838 9.99121 46.2832 9.77223 46.3943 9.50675C46.4568 9.3505 48.0131 5.66925 48.5381 4.03175C48.5381 3.938 48.8756 3.8505 49.3006 3.863C50.5506 3.90675 51.8693 4.7005 52.0256 5.113C51.458 6.99735 50.9907 8.91045 50.6256 10.8442C50.5702 11.1347 50.6196 11.4353 50.7649 11.6927C50.9102 11.9502 51.1421 12.1478 51.4193 12.2505L55.1006 13.6193C55.3723 13.7287 55.6739 13.7392 55.9526 13.649C56.2314 13.5587 56.4696 13.3735 56.6256 13.1255C56.7068 12.9942 58.6256 9.913 59.5256 8.213C59.5756 8.11925 60.0756 8.0505 60.7756 8.363C61.7943 8.8005 62.7318 9.7755 62.4568 10.5942C61.9193 12.2005 60.7631 15.2318 59.3318 18.463L57.7631 18.3755C46.3818 17.8005 43.3256 17.6505 41.8568 22.7505C40.2631 28.338 37.7318 32.4505 35.9631 32.313C35.6316 32.2881 35.3037 32.396 35.0517 32.6128C34.7997 32.8297 34.6442 33.1377 34.6193 33.4692C34.5945 33.8008 34.7023 34.1286 34.9192 34.3806C35.136 34.6326 35.4441 34.7881 35.7756 34.813C40.5506 35.188 43.4756 26.2005 44.2631 23.438C45.1131 20.4692 46.1381 20.2755 57.6381 20.8568C60.9756 21.0193 65.8193 21.4818 66.3068 21.4818C66.7943 21.4818 68.3443 22.8693 68.2193 24.2005C68.1131 25.3193 66.8818 27.0443 66.0506 26.9942C65.2193 26.9443 57.0131 26.3255 55.0006 26.5817C54.2691 26.6669 53.5802 26.9698 53.023 27.4513C52.4657 27.9327 52.066 28.5704 51.8756 29.2817C50.6256 33.213 53.6818 40.5317 56.9881 43.5068C58.9098 45.0658 61.0384 46.351 63.3131 47.3255C63.619 47.4518 63.9624 47.4517 64.2682 47.3252C64.574 47.1987 64.8172 46.956 64.9443 46.6505C65.0086 46.4953 65.041 46.3287 65.0395 46.1607C65.038 45.9928 65.0026 45.8268 64.9355 45.6728C64.8685 45.5188 64.771 45.3799 64.649 45.2643C64.527 45.1488 64.383 45.0591 64.2256 45.0005C62.1923 44.174 60.2959 43.0445 58.6006 41.6505C55.6881 39.0755 53.3381 32.7318 54.2256 30.0255C54.2692 29.768 54.3973 29.5324 54.5897 29.3558C54.7821 29.1793 55.0278 29.0718 55.2881 29.0505C56.2312 28.9614 57.1797 28.9426 58.1256 28.9943C58.5318 29.388 59.4131 30.2442 60.9381 31.6943C65.8818 36.4067 69.0131 47.7755 69.3131 62.1068C69.4506 68.213 67.7068 72.5693 64.1506 75.0567V75.0693Z" fill="url(#paint0_linear_393_18460)"/>
</g>
<defs>
<linearGradient id="paint0_linear_393_18460" x1="13.2753" y1="86.2915" x2="87.8382" y2="30.1592" gradientUnits="userSpaceOnUse">
<stop stop-color="#36F1B9"/>
<stop offset="1" stop-color="#3484A4"/>
</linearGradient>
<clipPath id="clip0_393_18460">
<rect width="80" height="80" fill="white"/>
</clipPath>
</defs>
</svg>
