<svg width="100" height="100" viewBox="0 0 100 100" fill="none" xmlns="http://www.w3.org/2000/svg">
<g id="Layer_1">
<path id="Vector" d="M39.2188 78.1244C33.5938 76.7181 29.8438 74.5306 27.8125 71.5619C27.6562 71.2494 27.5 70.9369 27.3438 70.4681C26.875 69.2181 25.9375 67.4994 23.75 67.0306C21.4062 66.5619 19.375 67.9681 17.9688 68.9056L12.3438 72.6556L14.375 75.6244L20 71.8744C21.0938 71.0931 22.1875 70.3119 23.125 70.6244C23.4375 70.6244 23.5937 71.0931 24.0625 72.0306C24.2187 72.4994 24.5312 73.1244 24.8437 73.5931C27.3437 77.3431 31.875 79.9994 38.4375 81.5619C38.5938 81.5619 38.9062 81.7181 39.0625 81.7181C39.5312 80.4681 40.3125 79.3744 41.25 78.4369C40.4688 78.4369 39.8438 78.2806 39.2188 78.1244Z" fill="url(#paint0_linear_393_17785)"/>
<path id="Vector_2" d="M83.2812 58.75C82.1875 61.25 80.7812 63.5938 79.375 65.7812C75.1562 71.7188 69.6875 75.9375 63.5938 77.8125C61.875 78.4375 60 78.75 58.125 79.0625C58.9062 80 59.5313 81.0938 60 82.3438C61.5625 82.0313 63.125 81.7188 64.6875 81.0938C71.5625 78.9063 77.8125 74.2188 82.3438 67.6563C83.9062 65.3125 85.3125 62.9688 86.5625 60.3125C85.3125 60 84.2187 59.5312 83.2812 58.75Z" fill="url(#paint1_linear_393_17785)"/>
<path id="Vector_3" d="M86.0938 38.5938C87.1875 38.125 88.4375 37.9688 89.6875 37.8125C88.9063 34.2188 87.5 30.9375 85.3125 28.2812C80.4688 22.0312 72.1875 20.3125 65.4688 19.5312C65.3125 19.5312 65.1563 19.5312 64.8438 19.5312C64.375 19.5312 63.9062 19.375 63.4375 19.375C61.7188 19.2188 60 18.2812 59.0625 17.0312L58.9063 16.875C58.75 15.9375 58.5938 13.125 58.5938 10.7813V10.625C58.5938 9.53125 58.5938 8.28125 58.4375 7.34375V7.1875L54.8438 7.5V7.65625C54.8438 8.4375 54.8438 9.53125 55 10.625V10.7813C55.1563 16.25 55.3125 17.9688 55.9375 18.9063C57.6563 21.25 60.1563 22.6563 63.125 22.9688C63.5938 22.9688 64.0625 23.125 64.375 23.125C64.6875 23.125 64.8438 23.125 65.1563 23.2812C71.25 23.9062 78.5938 25.4688 82.5 30.625C84.375 32.8125 85.4688 35.625 86.0938 38.5938Z" fill="url(#paint2_linear_393_17785)"/>
<path id="Vector_4" d="M43.2812 7.34375V7.5C43.2812 8.75 43.5937 13.4375 43.75 17.0312C45 17.1875 46.25 17.5 47.5 18.125C47.3437 15.1563 47.0312 9.6875 46.875 7.5V7.1875L43.2812 7.34375Z" fill="url(#paint3_linear_393_17785)"/>
<path id="Vector_5" d="M3.28125 67.9688L2.96875 68.4375L5.9375 70.4687L6.25 69.8438C7.34375 68.125 8.4375 66.4062 9.84375 64.8438C11.0938 63.5938 12.6562 62.3438 14.5312 61.4062C16.4062 60.4687 17.8125 59.8438 19.2188 59.6875C19.5312 59.6875 20 59.5312 20.4688 59.5312C22.5 59.375 24.8438 59.0625 26.7188 57.3438C29.2188 54.8438 32.6562 55.1562 36.5625 55.4688C39.2188 55.625 42.0312 55.9375 44.6875 55.1562C49.2188 53.9062 52.8125 51.0938 54.8437 47.0312C56.875 42.9688 57.1875 38.125 55.4687 33.5937C54.8437 32.0312 54.2187 30.625 53.2812 29.0625C53.125 30.7812 52.5 32.1875 51.5625 33.5937C51.7188 33.9062 51.875 34.375 52.0312 34.8437C53.4375 38.4375 53.2812 42.1875 51.5625 45.3125C50 48.4375 47.1875 50.625 43.75 51.5625C41.7188 52.1875 39.375 51.875 36.875 51.7187C32.6563 51.4062 27.8125 50.9375 24.2188 54.5313C23.4375 55.7813 21.875 55.9375 20.3125 56.0938C19.8438 56.0938 19.375 56.25 18.9063 56.25C17.0313 56.5625 15.1562 57.1875 12.9688 58.4375C10.625 59.5313 8.75 60.9375 7.34375 62.5C5.78125 64.2188 4.53125 66.25 3.28125 67.9688Z" fill="url(#paint4_linear_393_17785)"/>
<path id="Vector_6" d="M73.2816 64.6875C73.9066 63.9063 74.5316 63.125 75.1566 62.1875C75.6253 61.4062 76.2503 60.625 76.7191 59.8438C77.8128 58.125 77.8128 56.0938 76.7191 54.375C75.7816 52.6563 74.0628 51.7188 72.0316 51.7188H69.0628C63.2816 51.7188 57.6566 53.5938 52.9691 56.7188C50.9378 58.125 48.7503 59.2188 46.2503 59.8438C42.8128 60.7813 39.3753 60.4687 36.4066 60.3125C36.2503 60.3125 36.0941 60.3125 35.7816 60.3125C33.9066 60 30.0003 59.5313 29.5316 62.5C29.2191 64.2188 30.4691 65.7812 31.2503 66.875L31.5628 67.1875C33.9066 70.4688 37.9691 72.5 43.5941 73.4375C46.0941 73.9062 48.5941 74.0625 50.9378 74.0625C60.3128 73.9063 67.9691 70.7813 73.2816 64.6875ZM44.2191 69.8438C39.5316 69.0625 36.2503 67.5 34.5316 65L34.2191 64.5312C34.0628 64.375 33.7503 63.9063 33.4378 63.5938C34.0628 63.5938 35.0003 63.75 35.4691 63.75C35.7816 63.75 36.0941 63.9063 36.2503 63.9063C39.5316 64.2188 43.2816 64.5313 47.3441 63.2813C50.1566 62.5 52.8128 61.25 55.1566 59.6875C59.2191 56.875 64.0628 55.3125 69.2191 55.3125H72.1878C73.1253 55.3125 73.5941 55.9375 73.7503 56.25C74.0628 56.875 74.0628 57.5 73.7503 58.125C73.2816 58.9063 72.8128 59.5313 72.3441 60.1563C71.8753 60.9375 71.2503 61.7188 70.6253 62.3438C62.8128 71.25 50.7816 70.9375 44.2191 69.8438Z" fill="url(#paint5_linear_393_17785)"/>
<path id="Vector_7" d="M90.3125 40.7812C85.4687 40.7812 81.5625 44.6875 81.5625 49.5313C81.5625 54.375 85.4687 58.2812 90.3125 58.2812C95.1562 58.2812 99.0625 54.375 99.0625 49.5313C99.0625 44.6875 95.1562 40.7812 90.3125 40.7812ZM90.3125 54.2188C87.6562 54.2188 85.4688 52.0312 85.4688 49.375C85.4688 46.7188 87.6562 44.5312 90.3125 44.5312C92.9687 44.5312 95.1563 46.7188 95.1563 49.375C95.1563 52.0312 92.9687 54.2188 90.3125 54.2188Z" fill="url(#paint6_linear_393_17785)"/>
<path id="Vector_8" d="M33.9062 27.8125C33.9062 32.6562 37.8125 36.5625 42.6562 36.5625C47.5 36.5625 51.4063 32.6562 51.4063 27.8125C51.4063 22.9687 47.5 19.0625 42.6562 19.0625C37.8125 19.0625 33.9062 22.9687 33.9062 27.8125ZM47.3437 27.8125C47.3437 30.4687 45.1563 32.6562 42.5 32.6562C39.8438 32.6562 37.6562 30.4687 37.6562 27.8125C37.6562 25.1562 39.8438 22.9688 42.5 22.9688C45.1563 22.9688 47.3437 25.1562 47.3437 27.8125Z" fill="url(#paint7_linear_393_17785)"/>
<path id="Vector_9" d="M49.375 77.6562C44.5313 77.6562 40.625 81.5625 40.625 86.4062C40.625 91.25 44.5313 95.1563 49.375 95.1563C54.2188 95.1563 58.125 91.25 58.125 86.4062C58.125 81.5625 54.0625 77.6562 49.375 77.6562ZM49.375 91.0937C46.7188 91.0937 44.5313 88.9063 44.5313 86.25C44.5313 83.5938 46.7188 81.4062 49.375 81.4062C52.0313 81.4062 54.2188 83.5938 54.2188 86.25C54.2188 88.9063 52.0313 91.0937 49.375 91.0937Z" fill="url(#paint8_linear_393_17785)"/>
</g>
<defs>
<linearGradient id="paint0_linear_393_17785" x1="14.6604" y1="82.8804" x2="26.6522" y2="60.691" gradientUnits="userSpaceOnUse">
<stop stop-color="#36F1B9"/>
<stop offset="1" stop-color="#3484A4"/>
</linearGradient>
<linearGradient id="paint1_linear_393_17785" x1="60.4041" y1="84.1991" x2="83.0905" y2="58.3275" gradientUnits="userSpaceOnUse">
<stop stop-color="#36F1B9"/>
<stop offset="1" stop-color="#3484A4"/>
</linearGradient>
<linearGradient id="paint2_linear_393_17785" x1="57.6363" y1="41.0634" x2="88.0599" y2="9.12725" gradientUnits="userSpaceOnUse">
<stop stop-color="#36F1B9"/>
<stop offset="1" stop-color="#3484A4"/>
</linearGradient>
<linearGradient id="paint3_linear_393_17785" x1="43.6194" y1="18.9851" x2="50.4519" y2="16.4916" gradientUnits="userSpaceOnUse">
<stop stop-color="#36F1B9"/>
<stop offset="1" stop-color="#3484A4"/>
</linearGradient>
<linearGradient id="paint4_linear_393_17785" x1="7.26576" y1="73.7248" x2="46.6098" y2="25.5225" gradientUnits="userSpaceOnUse">
<stop stop-color="#36F1B9"/>
<stop offset="1" stop-color="#3484A4"/>
</linearGradient>
<linearGradient id="paint5_linear_393_17785" x1="33.3339" y1="75.8196" x2="50.4889" y2="40.9092" gradientUnits="userSpaceOnUse">
<stop stop-color="#36F1B9"/>
<stop offset="1" stop-color="#3484A4"/>
</linearGradient>
<linearGradient id="paint6_linear_393_17785" x1="82.965" y1="59.6574" x2="99.9115" y2="43.6234" gradientUnits="userSpaceOnUse">
<stop stop-color="#36F1B9"/>
<stop offset="1" stop-color="#3484A4"/>
</linearGradient>
<linearGradient id="paint7_linear_393_17785" x1="35.3088" y1="37.9386" x2="52.2552" y2="21.9046" gradientUnits="userSpaceOnUse">
<stop stop-color="#36F1B9"/>
<stop offset="1" stop-color="#3484A4"/>
</linearGradient>
<linearGradient id="paint8_linear_393_17785" x1="42.0275" y1="96.5324" x2="58.974" y2="80.4984" gradientUnits="userSpaceOnUse">
<stop stop-color="#36F1B9"/>
<stop offset="1" stop-color="#3484A4"/>
</linearGradient>
</defs>
</svg>
