<svg width="100" height="100" viewBox="0 0 100 100" fill="none" xmlns="http://www.w3.org/2000/svg">
<g id="Layer_1">
<path id="Vector" d="M11.0941 13.9062C11.0941 9.21875 10.4691 4.53125 3.90663 3.90625C3.43788 3.90625 2.96913 4.0625 2.50038 4.375C2.18788 4.6875 1.87538 5 1.87538 5.625C1.71913 6.5625 2.50038 7.5 3.59413 7.5C7.03163 7.8125 7.50038 9.6875 7.50038 13.9062C7.50038 34.8437 7.50038 43.2812 7.50038 63.9062V80.9375C7.50038 87.1875 10.3129 91.875 15.6254 94.375C17.9691 95.4688 20.3129 96.0938 22.6566 96.0938H22.9691H23.2816C25.6254 96.0938 27.9691 95.4688 30.3129 94.375C35.6254 91.875 38.4379 87.1875 38.4379 80.9375V63.2812C38.4379 42.9687 38.4379 34.5312 38.4379 13.9062C38.4379 9.6875 38.7504 7.8125 42.3441 7.5C43.2816 7.34375 44.0629 6.5625 44.0629 5.46875C44.0629 5 43.7504 4.53125 43.4379 4.21875C43.1254 3.90625 42.6566 3.75 42.0316 3.75C35.4691 4.375 34.8441 9.0625 34.8441 13.75C34.8441 33.2812 34.8441 41.7188 34.8441 60V80.7812C34.8441 85.625 32.8129 89.0625 28.7504 90.9375C26.8754 91.875 25.0004 92.3437 23.2816 92.3437H22.9691H22.8129C21.0941 92.3437 19.2191 91.875 17.3441 90.9375C12.9691 89.2188 10.9379 85.9375 10.9379 80.9375V61.875C10.9379 42.0312 10.9379 34.2188 11.0941 13.9062Z" fill="url(#paint0_linear_393_17805)"/>
<path id="Vector_2" d="M19.6875 55.1562C18.2813 55.1562 17.1875 56.25 17.1875 57.6563C17.1875 59.0625 18.2813 60.1563 19.6875 60.1563C21.0938 60.1563 22.1875 59.0625 22.1875 57.6563C22.1875 56.25 21.0938 55.1562 19.6875 55.1562Z" fill="url(#paint1_linear_393_17805)"/>
<path id="Vector_3" d="M22.8125 69.8438C22.8125 71.25 23.9063 72.3438 25.3125 72.3438C26.7188 72.3438 27.8125 71.25 27.8125 69.8438C27.8125 68.4375 26.7188 67.3438 25.3125 67.3438C23.9063 67.3438 22.8125 68.4375 22.8125 69.8438Z" fill="url(#paint2_linear_393_17805)"/>
<path id="Vector_4" d="M17.9688 82.0312C17.9688 83.4375 19.0625 84.5312 20.4688 84.5312C21.875 84.5312 22.9687 83.4375 22.9687 82.0312C22.9687 80.625 21.875 79.5312 20.4688 79.5312C18.9063 79.6875 17.9688 80.625 17.9688 82.0312Z" fill="url(#paint3_linear_393_17805)"/>
<path id="Vector_5" d="M17.8125 35C16.4062 35 15.3125 36.0938 15.3125 37.5C15.3125 38.9063 16.4062 40 17.8125 40C19.2187 40 20.3125 38.9063 20.3125 37.5C20.3125 36.0938 19.2187 35 17.8125 35Z" fill="url(#paint4_linear_393_17805)"/>
<path id="Vector_6" d="M25.3125 47.1875C25.3125 48.5938 26.4062 49.6875 27.8125 49.6875C29.2187 49.6875 30.3125 48.5938 30.3125 47.1875C30.3125 45.7813 29.2187 44.6875 27.8125 44.6875C26.4062 44.6875 25.3125 45.7813 25.3125 47.1875Z" fill="url(#paint5_linear_393_17805)"/>
<path id="Vector_7" d="M26.25 20.625C24.8437 20.625 23.75 21.7188 23.75 23.125C23.75 24.5313 24.8437 25.625 26.25 25.625C27.6562 25.625 28.75 24.5313 28.75 23.125C28.75 21.7188 27.5 20.625 26.25 20.625Z" fill="url(#paint6_linear_393_17805)"/>
<path id="Vector_8" d="M97.5004 4.375C97.1879 4.0625 96.7191 3.90625 96.0941 3.90625C89.5316 4.53125 88.9066 9.21875 88.9066 13.9062C88.9066 33.75 88.9066 42.1875 88.9066 60.7812V80.7812C88.9066 85.625 86.8754 89.0625 82.8129 90.9375C80.9379 91.875 79.0629 92.3437 77.3441 92.3437H77.0316H76.8754C75.1566 92.3437 73.2816 91.875 71.4066 90.9375C67.3441 89.0625 65.3129 85.7812 65.3129 80.7812V61.7187C65.3129 41.7187 65.3129 34.0625 65.3129 13.75C65.3129 9.0625 64.6879 4.375 58.1254 3.75C57.6566 3.75 57.1879 3.90625 56.7191 4.21875C56.5629 4.6875 56.2504 5 56.2504 5.625C56.0941 6.5625 56.8754 7.5 57.9691 7.65625C61.4066 7.96875 61.8754 9.84375 61.8754 14.0625C61.8754 35 61.8754 43.4375 61.8754 64.0625V81.0938C61.8754 87.3438 64.6879 92.0312 70.0004 94.5312C72.3441 95.625 74.6879 96.25 77.0316 96.25H77.3441H77.6566C80.0004 96.25 82.3441 95.625 84.6879 94.5312C90.0004 92.0312 92.8129 87.3438 92.8129 81.0938V63.4375C92.8129 43.125 92.8129 34.6875 92.8129 14.0625C92.8129 9.84375 93.1254 7.96875 96.7191 7.65625C97.6566 7.5 98.4379 6.71875 98.4379 5.625C98.1254 5 97.8129 4.6875 97.5004 4.375Z" fill="url(#paint7_linear_393_17805)"/>
<path id="Vector_9" d="M74.0625 55.1562C72.6563 55.1562 71.5625 56.25 71.5625 57.6563C71.5625 59.0625 72.6563 60.1563 74.0625 60.1563C75.4688 60.1563 76.5625 59.0625 76.5625 57.6563C76.5625 56.25 75.4688 55.1562 74.0625 55.1562Z" fill="url(#paint8_linear_393_17805)"/>
<path id="Vector_10" d="M77.1875 69.8438C77.1875 71.25 78.2812 72.3438 79.6875 72.3438C81.0937 72.3438 82.1875 71.25 82.1875 69.8438C82.1875 68.4375 81.0937 67.3438 79.6875 67.3438C78.2812 67.3438 77.1875 68.4375 77.1875 69.8438Z" fill="url(#paint9_linear_393_17805)"/>
<path id="Vector_11" d="M72.1875 82.0312C72.1875 83.4375 73.2812 84.5312 74.6875 84.5312C76.0937 84.5312 77.1875 83.4375 77.1875 82.0312C77.1875 80.625 76.0937 79.5312 74.6875 79.5312C73.2812 79.6875 72.1875 80.625 72.1875 82.0312Z" fill="url(#paint10_linear_393_17805)"/>
<path id="Vector_12" d="M72.1875 35C70.7813 35 69.6875 36.0938 69.6875 37.5C69.6875 38.9063 70.7813 40 72.1875 40C73.5938 40 74.6875 38.9063 74.6875 37.5C74.6875 36.0938 73.5938 35 72.1875 35Z" fill="url(#paint11_linear_393_17805)"/>
<path id="Vector_13" d="M79.6875 47.1875C79.6875 48.5938 80.7812 49.6875 82.1875 49.6875C83.5937 49.6875 84.6875 48.5938 84.6875 47.1875C84.6875 45.7813 83.5937 44.6875 82.1875 44.6875C80.625 44.6875 79.6875 45.7813 79.6875 47.1875Z" fill="url(#paint12_linear_393_17805)"/>
<path id="Vector_14" d="M80.625 20.625C79.2187 20.625 78.125 21.7188 78.125 23.125C78.125 24.5313 79.2187 25.625 80.625 25.625C82.0312 25.625 83.125 24.5313 83.125 23.125C82.9688 21.7188 81.875 20.625 80.625 20.625Z" fill="url(#paint13_linear_393_17805)"/>
</g>
<defs>
<linearGradient id="paint0_linear_393_17805" x1="5.23817" y1="103.355" x2="70.4956" y2="75.1343" gradientUnits="userSpaceOnUse">
<stop stop-color="#36F1B9"/>
<stop offset="1" stop-color="#3484A4"/>
</linearGradient>
<linearGradient id="paint1_linear_393_17805" x1="17.5882" y1="60.5494" x2="22.4301" y2="55.9683" gradientUnits="userSpaceOnUse">
<stop stop-color="#36F1B9"/>
<stop offset="1" stop-color="#3484A4"/>
</linearGradient>
<linearGradient id="paint2_linear_393_17805" x1="23.2132" y1="72.7369" x2="28.0551" y2="68.1558" gradientUnits="userSpaceOnUse">
<stop stop-color="#36F1B9"/>
<stop offset="1" stop-color="#3484A4"/>
</linearGradient>
<linearGradient id="paint3_linear_393_17805" x1="18.3695" y1="84.9244" x2="23.2113" y2="80.3433" gradientUnits="userSpaceOnUse">
<stop stop-color="#36F1B9"/>
<stop offset="1" stop-color="#3484A4"/>
</linearGradient>
<linearGradient id="paint4_linear_393_17805" x1="15.7132" y1="40.3932" x2="20.5551" y2="35.812" gradientUnits="userSpaceOnUse">
<stop stop-color="#36F1B9"/>
<stop offset="1" stop-color="#3484A4"/>
</linearGradient>
<linearGradient id="paint5_linear_393_17805" x1="25.7132" y1="50.0807" x2="30.5551" y2="45.4995" gradientUnits="userSpaceOnUse">
<stop stop-color="#36F1B9"/>
<stop offset="1" stop-color="#3484A4"/>
</linearGradient>
<linearGradient id="paint6_linear_393_17805" x1="24.1507" y1="26.0182" x2="28.9926" y2="21.437" gradientUnits="userSpaceOnUse">
<stop stop-color="#36F1B9"/>
<stop offset="1" stop-color="#3484A4"/>
</linearGradient>
<linearGradient id="paint7_linear_393_17805" x1="59.6132" y1="103.524" x2="124.905" y2="75.3355" gradientUnits="userSpaceOnUse">
<stop stop-color="#36F1B9"/>
<stop offset="1" stop-color="#3484A4"/>
</linearGradient>
<linearGradient id="paint8_linear_393_17805" x1="71.9632" y1="60.5494" x2="76.8051" y2="55.9683" gradientUnits="userSpaceOnUse">
<stop stop-color="#36F1B9"/>
<stop offset="1" stop-color="#3484A4"/>
</linearGradient>
<linearGradient id="paint9_linear_393_17805" x1="77.5882" y1="72.7369" x2="82.4301" y2="68.1558" gradientUnits="userSpaceOnUse">
<stop stop-color="#36F1B9"/>
<stop offset="1" stop-color="#3484A4"/>
</linearGradient>
<linearGradient id="paint10_linear_393_17805" x1="72.5882" y1="84.9244" x2="77.4301" y2="80.3433" gradientUnits="userSpaceOnUse">
<stop stop-color="#36F1B9"/>
<stop offset="1" stop-color="#3484A4"/>
</linearGradient>
<linearGradient id="paint11_linear_393_17805" x1="70.0882" y1="40.3932" x2="74.9301" y2="35.812" gradientUnits="userSpaceOnUse">
<stop stop-color="#36F1B9"/>
<stop offset="1" stop-color="#3484A4"/>
</linearGradient>
<linearGradient id="paint12_linear_393_17805" x1="80.0882" y1="50.0807" x2="84.9301" y2="45.4995" gradientUnits="userSpaceOnUse">
<stop stop-color="#36F1B9"/>
<stop offset="1" stop-color="#3484A4"/>
</linearGradient>
<linearGradient id="paint13_linear_393_17805" x1="78.5257" y1="26.0182" x2="83.3676" y2="21.437" gradientUnits="userSpaceOnUse">
<stop stop-color="#36F1B9"/>
<stop offset="1" stop-color="#3484A4"/>
</linearGradient>
</defs>
</svg>
