<svg width="100" height="100" viewBox="0 0 100 100" fill="none" xmlns="http://www.w3.org/2000/svg">
<g id="Layer_1">
<g id="Group">
<path id="Vector" d="M98.3135 33.8306C96.6619 25.164 89.8559 20.0973 83.9316 18.87C82.6165 16.4518 77.6104 9.00941 65.9044 9.00941C63.9407 9.00941 61.8619 9.22759 59.7195 9.65487C57.671 8.92759 48.4377 5.87305 38.1044 5.87305C23.8498 5.87305 13.8801 11.7973 9.24073 23.0064C7.29831 24.8185 -3.61381 35.9155 4.44679 49.1912C4.08013 52.2276 3.19528 66.0973 16.5044 71.5094C16.9953 74.0155 19.4801 80.0791 31.9407 80.2155V92.6549C31.9407 93.467 32.5983 94.1246 33.4074 94.1246H45.5104C46.1741 94.1246 46.7589 93.6791 46.9316 93.0397C46.9862 92.8488 52.1347 74.2367 63.0892 69.5215C65.2013 69.2549 80.0529 66.87 86.9832 52.2791C89.1104 50.7609 99.971 42.5367 98.3135 33.8306ZM85.9195 49.4064C82.9619 46.87 73.3438 40.1064 60.4438 46.1943C59.7104 46.5427 59.3953 47.4155 59.7468 48.1518C60.0922 48.8852 60.965 49.2034 61.7013 48.8518C73.2619 43.3943 81.571 49.4518 84.0044 51.6064C77.2589 64.9094 62.7135 66.6124 62.5619 66.6276C62.4226 66.6427 62.2801 66.6791 62.1498 66.7337C51.265 71.2367 45.7529 86.87 44.4165 91.1882H34.8771V79.9427C37.465 79.3761 43.465 77.7458 46.6013 74.2791C47.1498 73.6791 47.1044 72.7488 46.5013 72.2033C45.9013 71.6579 44.968 71.7003 44.4226 72.3064C41.3286 75.7215 34.1801 77.1033 33.268 77.267L32.371 77.2791C20.971 77.2791 19.5316 72.0306 19.3498 70.7397C20.2832 69.0003 26.6832 59.1458 49.7074 63.7882C50.5013 63.9458 51.2771 63.4306 51.4377 62.6367C51.5983 61.8427 51.0832 61.067 50.2862 60.9064C27.5347 56.3276 19.4559 65.1215 17.2195 68.5791C5.04376 63.2852 7.31043 49.7246 7.41952 49.1337C7.48316 48.77 7.41346 48.3912 7.21346 48.0761C-0.753205 35.5973 10.9316 25.4155 11.4347 24.9882C11.6074 24.8337 11.7559 24.6367 11.8407 24.4155C15.9922 14.0609 24.8286 8.81244 38.1044 8.81244C49.0256 8.81244 58.9953 12.5155 59.0923 12.5518C59.3559 12.6518 59.6438 12.6761 59.9135 12.6155C62.0013 12.173 64.0165 11.9488 65.9044 11.9488C77.5922 11.9488 81.4468 20.4094 81.6013 20.773C81.8044 21.2337 82.2286 21.564 82.7256 21.6397C87.8256 22.4215 93.971 26.7458 95.4256 34.3852C96.6226 40.673 88.6741 47.3185 85.9195 49.4064Z" fill="url(#paint0_linear_393_17732)"/>
<g id="Group_2">
<path id="Vector_2" d="M30.8366 29.4195C30.482 29.8953 30.4487 30.5347 30.7517 31.0468C31.0517 31.5559 31.6245 31.8407 32.2154 31.7559C32.7487 31.6862 45.4184 30.1165 48.5639 43.4104C48.7275 44.0862 49.3275 44.5407 49.9972 44.5407C50.1093 44.5407 50.2214 44.5286 50.3336 44.5014C51.1245 44.3135 51.6124 43.5226 51.4275 42.7317C48.6033 30.7983 39.0942 28.9407 34.4305 28.768C35.1336 26.5498 34.8336 24.2347 34.276 22.2801C35.2305 22.4135 36.3911 22.5226 37.6851 22.5226C41.4457 22.5226 46.3154 21.6195 50.4093 17.9074C51.0123 17.362 51.0608 16.4347 50.5124 15.8317C49.9639 15.2286 49.0396 15.1832 48.4366 15.7286C42.8305 20.8074 35.1972 19.5468 33.0427 19.0589C32.6608 18.2832 32.3487 17.768 32.3002 17.6923C31.8639 17.0074 30.9608 16.8044 30.273 17.2377C29.5851 17.671 29.3851 18.5771 29.8184 19.262C29.8608 19.3226 33.7366 25.5468 30.8366 29.4195Z" fill="url(#paint1_linear_393_17732)"/>
<path id="Vector_3" d="M26.7274 58.1957C27.5214 58.0411 28.0426 57.2684 27.888 56.4714C27.485 54.4229 26.7274 52.7623 25.8032 51.4138C24.3547 47.7593 27.3911 44.3926 27.5214 44.2502C28.0729 43.6563 28.0365 42.726 27.4456 42.1744C26.8517 41.626 25.9274 41.6532 25.3729 42.2441C25.2426 42.3835 23.0638 44.8108 22.585 48.1381C20.388 46.5654 18.3547 46.0532 18.188 46.0169C17.4002 45.8351 16.6092 46.3169 16.4183 47.1048C16.2274 47.8957 16.7153 48.6866 17.5062 48.8744C17.5668 48.8866 23.7123 50.426 25.0032 57.032C25.1395 57.732 25.7547 58.2199 26.4456 58.2199C26.5395 58.2229 26.6335 58.2138 26.7274 58.1957Z" fill="url(#paint2_linear_393_17732)"/>
<path id="Vector_4" d="M74.8129 19.5649C72.7189 20.4831 69.7098 22.6558 67.8826 26.0285C67.7644 26.0406 67.6462 26.0406 67.5311 26.0831C64.5038 27.1891 60.1462 24.4134 58.728 23.2528C58.1038 22.7376 57.1765 22.8315 56.6614 23.4558C56.1462 24.0831 56.2341 25.0073 56.8614 25.5225C57.0795 25.7043 61.4856 29.274 65.9947 29.274C66.2129 29.274 66.4311 29.2406 66.6492 29.2225C66.2068 31.0497 66.1189 33.1103 66.5917 35.4164C66.7341 36.1103 67.3492 36.5891 68.0311 36.5891C68.1311 36.5891 68.2311 36.58 68.328 36.5588C69.128 36.3952 69.6371 35.6194 69.4735 34.8225C67.6735 26.0649 75.6553 22.4043 75.9977 22.2558C76.7371 21.9285 77.0735 21.0588 76.7462 20.3164C76.4159 19.577 75.5523 19.2406 74.8129 19.5649Z" fill="url(#paint3_linear_393_17732)"/>
<path id="Vector_5" d="M90.212 35.1672C84.3878 34.8823 82.0787 31.3641 81.9726 31.1914C81.5454 30.5035 80.6454 30.2884 79.9605 30.7096C79.2666 31.1308 79.0454 32.0369 79.4696 32.7278C79.5939 32.9338 82.606 37.7369 90.0696 38.1005C90.0939 38.1005 90.1181 38.1005 90.1423 38.1005C90.9211 38.1005 91.5726 37.4884 91.606 36.7035C91.6484 35.8975 91.0211 35.2066 90.212 35.1672Z" fill="url(#paint4_linear_393_17732)"/>
<path id="Vector_6" d="M72.3197 50.0435C71.6258 49.6284 70.7258 49.8556 70.3046 50.5496C67.2561 55.6435 61.3137 55.7405 61.0622 55.7435C60.2501 55.7496 59.5985 56.4071 59.6016 57.2162C59.6046 58.0284 60.2591 58.6799 61.0652 58.6799C61.3834 58.6799 68.9076 58.6071 72.8258 52.0587C73.244 51.3617 73.0167 50.4587 72.3197 50.0435Z" fill="url(#paint5_linear_393_17732)"/>
<path id="Vector_7" d="M40.1118 69.1379C32.4785 65.3289 26.5118 69.0561 26.2603 69.2167C25.5785 69.6561 25.3815 70.5622 25.8179 71.247C26.2543 71.9319 27.1634 72.1319 27.8482 71.6895C27.8937 71.6592 32.6391 68.6986 38.7997 71.7652C39.0088 71.8713 39.2331 71.9198 39.4543 71.9198C39.9937 71.9198 40.5118 71.6198 40.7724 71.1046C41.133 70.3834 40.8391 69.5016 40.1118 69.1379Z" fill="url(#paint6_linear_393_17732)"/>
<path id="Vector_8" d="M51.8664 48.3767C48.7967 47.9222 45.9846 48.707 43.7028 49.7585C40.0452 48.9858 38.7846 44.9495 38.7331 44.7707C38.5058 43.9949 37.6876 43.5464 36.9119 43.7707C36.1361 43.9979 35.6846 44.804 35.9058 45.5828C35.9664 45.7858 37.1331 49.5737 40.4725 51.5949C39.2846 52.4252 38.521 53.1161 38.4392 53.1979C37.8543 53.7585 37.8361 54.6858 38.3907 55.2737C38.6816 55.5767 39.0664 55.7282 39.4573 55.7282C39.8179 55.7282 40.1846 55.5949 40.4695 55.3222C40.521 55.2737 45.6967 50.4404 51.4361 51.2858C52.2361 51.4101 52.9846 50.8464 53.1058 50.0464C53.224 49.2434 52.6695 48.4949 51.8664 48.3767Z" fill="url(#paint7_linear_393_17732)"/>
<path id="Vector_9" d="M17.4726 30.8472C23.0151 28.9897 25.2393 21.7957 25.3393 21.4624C25.5726 20.6866 25.1332 19.8684 24.3575 19.6351C23.5787 19.4018 22.7605 19.8381 22.5272 20.6139C22.5029 20.6866 20.2999 27.7503 15.4363 28.3048C14.9787 28.3563 14.5726 28.62 14.3332 29.0139C14.1029 29.4109 14.0666 29.8927 14.2393 30.3169C16.3757 35.5775 11.1545 39.0957 10.9302 39.2442C10.2545 39.6897 10.0666 40.6018 10.509 41.2775C10.7908 41.7078 11.2605 41.9442 11.7393 41.9442C12.012 41.9442 12.2908 41.8684 12.5363 41.7078C14.8969 40.1745 18.6302 36.0897 17.4726 30.8472Z" fill="url(#paint8_linear_393_17732)"/>
</g>
</g>
</g>
<defs>
<linearGradient id="paint0_linear_393_17732" x1="9.2872" y1="101.064" x2="94.8136" y2="12.1493" gradientUnits="userSpaceOnUse">
<stop stop-color="#36F1B9"/>
<stop offset="1" stop-color="#3484A4"/>
</linearGradient>
<linearGradient id="paint1_linear_393_17732" x1="31.3432" y1="46.8364" x2="58.061" y2="27.8925" gradientUnits="userSpaceOnUse">
<stop stop-color="#36F1B9"/>
<stop offset="1" stop-color="#3484A4"/>
</linearGradient>
<linearGradient id="paint2_linear_393_17732" x1="17.3017" y1="59.5132" x2="31.9968" y2="49.7545" gradientUnits="userSpaceOnUse">
<stop stop-color="#36F1B9"/>
<stop offset="1" stop-color="#3484A4"/>
</linearGradient>
<linearGradient id="paint3_linear_393_17732" x1="57.9728" y1="37.9376" x2="74.4736" y2="19.2318" gradientUnits="userSpaceOnUse">
<stop stop-color="#36F1B9"/>
<stop offset="1" stop-color="#3484A4"/>
</linearGradient>
<linearGradient id="paint4_linear_393_17732" x1="80.244" y1="38.6986" x2="86.9889" y2="28.3336" gradientUnits="userSpaceOnUse">
<stop stop-color="#36F1B9"/>
<stop offset="1" stop-color="#3484A4"/>
</linearGradient>
<linearGradient id="paint5_linear_393_17732" x1="60.6782" y1="59.3753" x2="68.7207" y2="47.8166" gradientUnits="userSpaceOnUse">
<stop stop-color="#36F1B9"/>
<stop offset="1" stop-color="#3484A4"/>
</linearGradient>
<linearGradient id="paint6_linear_393_17732" x1="26.8154" y1="72.2783" x2="29.2794" y2="64.3222" gradientUnits="userSpaceOnUse">
<stop stop-color="#36F1B9"/>
<stop offset="1" stop-color="#3484A4"/>
</linearGradient>
<linearGradient id="paint7_linear_393_17732" x1="37.2339" y1="56.6731" x2="48.3568" y2="41.5448" gradientUnits="userSpaceOnUse">
<stop stop-color="#36F1B9"/>
<stop offset="1" stop-color="#3484A4"/>
</linearGradient>
<linearGradient id="paint8_linear_393_17732" x1="11.4823" y1="43.7035" x2="31.1846" y2="31.0944" gradientUnits="userSpaceOnUse">
<stop stop-color="#36F1B9"/>
<stop offset="1" stop-color="#3484A4"/>
</linearGradient>
</defs>
</svg>
