<svg width="100" height="100" viewBox="0 0 100 100" fill="none" xmlns="http://www.w3.org/2000/svg">
<g id="Layer_1">
<g id="Group">
<path id="Vector" d="M2.65663 16.0938C2.81288 16.0938 2.81288 16.0938 2.96913 16.0938C15.7816 17.1875 25.6254 18.125 36.0941 19.8438L36.8754 20C41.8754 20.7812 46.8754 21.5625 50.4691 24.8438C51.5629 25.9375 52.6566 27.0312 53.5941 28.4375C56.0941 31.4062 58.7504 34.8438 63.2816 35.9375C64.0629 36.0938 64.8441 36.25 65.6254 36.25C67.5004 36.25 69.5316 35.625 71.4066 34.375C74.3754 32.5 76.5629 29.375 77.0316 26.0938C78.2816 18.4375 73.5941 10.4688 66.2504 8.125C63.2816 7.1875 60.7816 6.5625 58.2816 6.25C45.3129 4.84375 31.4066 3.28125 15.6254 1.71875C12.8129 1.5625 10.0004 1.40625 7.18788 1.25C5.93788 1.25 4.68788 1.09375 3.43788 1.09375C2.34413 1.09375 1.40663 1.875 1.40663 2.96875C1.40663 4.0625 2.18788 5 3.28163 5C4.53163 5 5.78163 5.15625 7.03163 5.15625C9.84413 5.3125 12.6566 5.46875 15.4691 5.78125C31.0941 7.34375 45.1566 8.90625 57.9691 10.3125C60.1566 10.625 62.6566 11.0938 65.1566 12.0312C70.6254 13.9062 74.2191 19.8438 73.2816 25.7812C72.9691 27.8125 71.4066 30 69.3754 31.4062C67.8129 32.5 66.0941 32.8125 64.5316 32.3438C61.2504 31.4062 59.0629 28.9062 56.8754 26.0938C55.7816 24.6875 54.6879 23.4375 53.2816 22.1875C48.9066 18.125 42.9691 17.1875 37.6566 16.25L36.8754 16.0938C26.0941 14.2188 15.7816 13.2813 3.28163 12.1875C2.81288 12.1875 2.34413 12.1875 2.18788 12.3438C1.09413 12.5 0.312878 13.4375 0.469128 14.5313C0.625378 15.625 1.71913 16.25 2.65663 16.0938Z" fill="url(#paint0_linear_393_17769)"/>
<path id="Vector_2" d="M91.8744 5.78136C89.9994 2.96886 87.1869 1.56261 83.9057 2.18761C81.7182 2.50011 80.3119 3.43761 79.5307 4.84386C78.7494 6.25011 79.0619 7.96886 79.9994 9.84386C82.3432 14.2189 83.2807 18.4376 82.9682 22.5001C82.6557 25.9376 84.3744 28.2814 87.3432 28.7501C87.6557 28.7501 87.9682 28.7501 88.2807 28.7501C91.0932 28.7501 93.4369 26.8751 94.0619 24.2189C94.6869 21.8751 94.9994 19.5314 94.9994 17.1876C94.9994 13.1251 93.9057 9.21886 91.8744 5.78136ZM90.3119 23.5939C89.9994 24.6876 89.0619 25.3126 87.9682 25.1564C87.4994 25.1564 86.7182 25.0001 86.8744 23.1251C87.3432 18.1251 86.2494 13.2814 83.4369 8.12511C82.9682 7.18761 82.9682 6.71886 82.9682 6.71886C82.9682 6.71886 83.2807 6.40636 84.3744 6.25011C84.6869 6.25011 84.9994 6.25011 85.1557 6.25011C86.5619 6.25011 87.6557 6.87511 88.4369 8.12511C90.1557 10.9376 91.0932 14.0626 91.0932 17.6564C91.0932 19.5314 90.7807 21.5626 90.3119 23.5939Z" fill="url(#paint1_linear_393_17769)"/>
<path id="Vector_3" d="M91.4068 38.2804C88.5943 35.9366 84.5318 34.8429 80.3131 35.3116C76.0943 35.7804 72.5006 37.8116 69.3756 39.6866C67.9693 40.4679 66.8756 41.5616 65.9381 42.8116C64.6881 44.6866 64.2193 46.7179 64.6881 48.7491C65.3131 50.7804 66.8756 52.4991 69.0631 53.5929C71.8756 54.8429 74.6881 56.2491 76.7193 58.1241C77.5006 58.7491 78.1256 59.6866 78.7506 60.3116C79.5318 61.2491 79.8443 62.1866 80.1568 63.9054V64.0616C80.4693 65.4679 80.9381 66.8741 81.0943 68.4366C81.5631 71.2491 82.0318 74.2179 82.1881 77.4991C82.3443 78.9054 82.5006 92.0304 82.5006 96.8741C82.5006 97.9679 83.4381 98.7491 84.3756 98.7491C85.4693 98.7491 86.2506 97.8116 86.2506 96.7179C86.2506 95.9366 86.0943 78.9054 85.9381 77.0304C85.6256 73.5929 85.3131 70.3116 84.6881 67.4991C84.3756 65.9366 84.0631 64.3741 83.5943 62.9679V62.8116C83.1256 61.0929 82.6568 59.5304 81.4068 57.9679C80.7818 57.1866 80.0006 56.0929 78.9068 55.1554C76.4068 52.9679 73.4381 51.4054 70.3131 49.9991C69.0631 49.3741 68.2818 48.5929 67.9693 47.6554C67.8131 46.8741 67.9693 45.9366 68.5943 44.9991C69.2193 44.2179 70.0006 43.4366 70.7818 42.9679C73.5943 41.2491 76.8756 39.5304 80.3131 39.0616C83.2818 38.5929 86.4068 39.3741 88.2818 41.0929C91.4068 43.7491 92.0318 48.5929 92.3443 53.2804L95.1568 96.8741C95.1568 97.9679 96.0943 98.7491 97.0318 98.7491H97.1881C98.2818 98.7491 99.0631 97.8116 99.0631 96.7179L96.2506 53.1241C96.4068 47.6554 95.6256 42.0304 91.4068 38.2804Z" fill="url(#paint2_linear_393_17769)"/>
<path id="Vector_4" d="M63.75 57.3438C61.875 56.875 60 57.1875 58.2812 58.2812C56.7187 59.375 55.4687 60.9375 55.1562 62.6562L54.5313 65.625C54.375 66.25 54.2188 66.875 54.2188 67.6562L53.9062 70C53.75 70.625 53.75 71.25 53.75 72.0312L53.5937 73.5937C53.5937 74.375 53.4375 75 53.4375 75.7812C53.4375 76.7188 53.4375 77.8125 53.4375 78.9062V79.375C53.4375 80.1562 53.4375 81.0938 53.5937 81.875C53.5937 82.8125 53.75 83.75 53.9062 84.5312V85.1562C54.0625 85.9375 54.0625 86.7188 54.2188 87.5C54.375 88.2812 54.5312 89.2188 54.6875 89.8438L55.7812 94.5312C56.25 96.4062 57.9687 97.6562 59.8437 97.6562H60.1562C61.25 97.6562 62.3437 97.1875 62.9687 96.25C63.75 95.4687 64.0625 94.375 64.0625 93.2812L63.9063 89.8438V88.9063C63.9063 88.2813 63.9063 87.6562 63.9063 86.875C63.9063 86.25 64.0625 85.625 64.0625 85V84.375C64.0625 83.5938 64.2188 82.9687 64.375 82.1875C64.375 81.5625 64.5313 80.9375 64.6875 80.3125L64.8437 79.6875C65 78.9062 65.1562 78.125 65.3125 77.3438C65.4687 76.875 65.625 76.25 65.7812 75.7812L66.25 74.375C66.4063 73.9062 66.5625 73.4375 66.7188 72.9688L67.3437 71.0937C67.5 70.625 67.8125 70.1562 67.9687 69.6875L68.75 67.1875C68.9062 66.7187 69.0625 66.4062 69.2187 65.9375C70 62.0313 67.6562 58.125 63.75 57.3438ZM65.3125 65C65.3125 65.1562 65.1562 65.4687 65 65.625L64.0625 68.125C63.9062 68.5937 63.5937 69.0625 63.4375 69.6875L62.6562 71.7188C62.5 72.1875 62.3437 72.8125 62.1875 73.2813L61.7187 74.6875C61.5625 75.3125 61.4062 75.9375 61.25 76.4063C61.0938 77.1875 60.9375 77.9688 60.7813 78.9062L60.625 79.6875C60.4687 80.3125 60.4687 81.0937 60.3125 81.7187C60.1562 82.5 60.1563 83.2812 60 84.0625V84.6875C60 85.4688 59.8437 86.0938 59.8437 86.7188C59.8437 87.5 59.8437 88.2813 59.8437 88.9063V90L60 93.5938C60 93.75 59.8437 93.9062 59.8437 93.9062C59.6875 93.9062 59.6875 93.9062 59.5312 93.75L58.4375 89.0625C58.2813 88.4375 58.125 87.6562 57.9687 86.875C57.8125 86.25 57.8125 85.4688 57.6563 84.6875V84.2188C57.5 83.4375 57.5 82.6562 57.3438 81.7187C57.3438 80.9375 57.3437 80.1562 57.1875 79.375V78.9062C57.1875 77.9688 57.1875 77.0312 57.1875 76.0938C57.1875 75.4688 57.1875 74.6875 57.3438 74.0625L57.5 72.6562C57.5 72.0312 57.6563 71.4062 57.6563 70.7812L57.9687 68.4375C58.125 67.8125 58.125 67.1875 58.2812 66.5625L58.9062 63.75C59.0625 62.9687 59.6875 62.1875 60.3125 61.7187C60.7812 61.4062 61.4062 61.25 62.0312 61.25C62.3438 61.25 62.5 61.25 62.8125 61.25C64.6875 61.5625 65.7812 63.2812 65.3125 65Z" fill="url(#paint3_linear_393_17769)"/>
</g>
</g>
<defs>
<linearGradient id="paint0_linear_393_17769" x1="6.60304" y1="39.0146" x2="33.3412" y2="-16.2392" gradientUnits="userSpaceOnUse">
<stop stop-color="#36F1B9"/>
<stop offset="1" stop-color="#3484A4"/>
</linearGradient>
<linearGradient id="paint1_linear_393_17769" x1="80.3631" y1="30.8504" x2="102.524" y2="18.3591" gradientUnits="userSpaceOnUse">
<stop stop-color="#36F1B9"/>
<stop offset="1" stop-color="#3484A4"/>
</linearGradient>
<linearGradient id="paint2_linear_393_17769" x1="67.279" y1="103.746" x2="117.421" y2="77.9485" gradientUnits="userSpaceOnUse">
<stop stop-color="#36F1B9"/>
<stop offset="1" stop-color="#3484A4"/>
</linearGradient>
<linearGradient id="paint3_linear_393_17769" x1="54.7143" y1="100.843" x2="80.3983" y2="91.2894" gradientUnits="userSpaceOnUse">
<stop stop-color="#36F1B9"/>
<stop offset="1" stop-color="#3484A4"/>
</linearGradient>
</defs>
</svg>
