<svg width="100" height="100" viewBox="0 0 100 100" fill="none" xmlns="http://www.w3.org/2000/svg">
<g id="Layer_1">
<g id="Group">
<path id="Vector" d="M12.4995 91.4062C13.2808 91.4062 14.062 91.4062 14.8433 91.4062H15.7808C20.7808 91.25 25.4683 90.9375 29.8433 89.375C32.6558 88.4375 35.7808 87.0313 37.4995 83.9063C38.9058 81.4063 39.062 78.4375 39.2183 75.9375C39.2183 75.4688 39.3745 75 39.3745 74.5313V74.2188C39.5308 72.0312 39.8433 69.6875 39.8433 67.3438C39.8433 66.25 39.062 65.3125 37.9683 65.3125C36.8745 65.3125 35.937 66.0938 35.937 67.1875C35.937 69.375 35.6245 71.5625 35.4683 73.75V74.0625C35.4683 74.5313 35.312 75 35.312 75.625C35.1558 77.9688 34.9995 80.3125 33.9058 82.0312C32.9683 83.75 31.0933 84.6875 28.437 85.625C24.5308 87.0312 20.1558 87.3438 15.4683 87.5H14.5308C11.7183 87.6562 8.74954 87.8125 7.18704 85.9375C4.06204 82.6562 5.15579 75.3125 5.93704 69.8438C6.09329 68.5938 6.24954 67.3438 6.40579 66.4062C7.49954 55.3125 9.99955 46.875 14.2183 40.3125C18.2808 33.75 25.1558 26.875 30.6245 26.875C31.8745 26.875 32.6558 27.1875 33.2808 27.8125C35.312 30 34.8433 35.7812 34.687 38.2812C34.687 38.75 34.5308 39.0625 34.5308 39.5312C34.3745 40.9375 34.2183 42.3438 34.687 43.9062C35.312 45.9375 35.7808 47.5 36.0933 49.0625V51.25C36.0933 52.3438 36.8745 53.2812 37.9683 53.2812C39.062 53.2812 39.8433 52.3438 39.9995 51.4063V49.2188C39.9995 49.0625 39.9995 48.75 39.9995 48.5937C39.687 46.875 39.2183 45 38.5933 42.9688C38.2808 42.0312 38.437 41.25 38.5933 40.1562C38.5933 39.6875 38.7495 39.2187 38.7495 38.75C39.062 35.3125 39.5308 28.9063 36.2495 25.3125C34.8433 23.75 32.9683 23.125 30.7808 23.125C21.0933 23.125 12.0308 36.875 11.0933 38.4375C6.56204 45.625 3.90579 54.5313 2.65579 66.25C2.49954 67.1875 2.34329 68.4375 2.18704 69.5312C1.24954 75.7812 0.155794 84.2188 4.53079 88.9062C6.71829 91.0938 9.84329 91.4062 12.4995 91.4062Z" fill="url(#paint0_linear_393_17716)"/>
<path id="Vector_2" d="M25.9375 68.9058C25.9375 69.5308 25.9375 70.1558 25.7812 70.7808C25.625 72.187 25.1562 73.437 24.375 74.687C23.75 75.6245 24.0625 76.8745 25 77.3433C25.3125 77.4995 25.625 77.6558 26.0937 77.6558C26.7187 77.6558 27.3437 77.3433 27.8125 76.7183C28.75 75.1558 29.5312 73.2808 29.6875 71.2495C29.8437 70.4683 29.8437 69.687 29.8437 68.9058C29.8437 67.9683 29.8437 67.187 30 66.4058C30.1562 65.6245 30.625 64.9995 31.25 64.2183C31.25 64.2183 31.25 64.062 31.4062 64.062C33.2812 63.9058 35.1562 63.5933 37.0312 62.6558C38.9062 61.7183 40.625 60.4683 42.0312 59.062C44.8437 56.2495 46.875 52.3433 47.8125 48.1245C48.75 43.437 48.2812 32.3433 47.9687 21.562C47.8125 17.3433 47.6562 13.2808 47.6562 9.99952C47.6562 8.90577 46.7187 7.96827 45.625 8.12452C44.5312 8.12452 43.75 9.06202 43.75 10.1558C43.75 13.437 43.9062 17.4995 44.0625 21.8745C44.375 31.8745 44.8437 43.2808 44.0625 47.4995C43.2812 51.0933 41.7187 54.062 39.375 56.4058C38.125 57.6558 36.875 58.5933 35.3125 59.3745C33.5937 60.1558 31.5625 60.312 29.5312 60.4683C28.2812 60.6245 27.0312 60.6245 25.9375 60.937C25.625 58.5933 24.6875 56.4058 23.9062 54.2183C23.125 52.4995 22.5 50.937 22.1875 49.2183C21.7187 47.0308 21.5625 42.9683 25 40.4683C25.9375 39.8433 26.0937 38.5933 25.4687 37.812C24.8437 37.0308 23.5937 36.7183 22.8125 37.3433C19.0625 39.9995 17.5 44.687 18.5937 49.8433C18.9062 52.0308 19.8437 53.9058 20.625 55.7808C21.5625 57.9683 22.5 59.9995 22.5 62.187C20 63.5933 18.5937 65.937 17.3437 67.9683C16.4062 69.5308 15.625 70.937 14.375 71.8745C13.5937 72.4995 13.4375 73.7495 14.2187 74.687C14.5312 75.1558 15.1562 75.312 15.7812 75.312C16.25 75.312 16.7187 75.1558 17.0312 74.8433C18.75 73.437 19.6875 71.7183 20.7812 69.9995C22.0312 67.812 23.2812 65.937 25.3125 65.1558C25.9375 64.9995 26.4062 64.8433 27.0312 64.687C26.875 64.9995 26.875 65.312 26.7187 65.6245C26.0937 66.7183 25.9375 67.812 25.9375 68.9058Z" fill="url(#paint1_linear_393_17716)"/>
<path id="Vector_3" d="M56.7184 10C56.7184 8.90625 55.7809 7.96875 54.8434 7.96875C53.7497 7.96875 52.9684 8.90625 52.8122 9.84375C52.8122 12.3438 52.6559 16.0937 52.4996 20.3125C52.0309 31.0937 51.7184 43.4375 52.6559 48.125C53.5934 52.3437 55.4684 56.25 58.4372 59.0625C59.8434 60.4687 61.5622 61.7187 63.4372 62.6562C65.3122 63.5937 67.1872 63.9062 69.0622 64.0625C69.0622 64.0625 69.0622 64.2187 69.2184 64.2187C69.8434 65 70.3122 65.625 70.4684 66.4062C70.6247 67.1875 70.6247 67.9687 70.6247 68.9062C70.6247 69.6875 70.6247 70.4687 70.7809 71.25C71.0934 73.2812 71.7184 75 72.6559 76.7187C72.9684 77.3437 73.5934 77.6562 74.3747 77.6562C74.6872 77.6562 75.1559 77.5 75.4684 77.3438C76.4059 76.7188 76.7184 75.625 76.0934 74.6875C75.3122 73.5938 74.9997 72.3438 74.6872 70.7812C74.6872 70.1562 74.5309 69.5312 74.5309 68.9062C74.5309 67.8125 74.5309 66.7187 74.2184 65.625C74.2184 65.3125 74.0622 65 73.9059 64.6875C74.5309 64.8438 75.1559 65 75.6247 65.1562C77.6559 65.9375 78.9059 67.8125 80.1559 70C81.2497 71.7187 82.3434 73.4375 83.9059 74.8438C84.2184 75.1562 84.6872 75.3125 85.1559 75.3125C85.7809 75.3125 86.2497 75.1562 86.7184 74.6875C87.3434 73.9062 87.3434 72.6562 86.5622 71.875C85.3122 70.9375 84.5309 69.375 83.5934 67.9687C82.3434 65.9375 80.9372 63.5937 78.4372 62.1875C78.4372 60 79.3747 57.9687 80.3122 55.7812C81.0934 53.9062 81.8747 52.0312 82.3434 49.8437C83.2809 44.5312 81.7184 40 78.1247 37.3437C77.1872 36.7187 76.0934 36.875 75.4684 37.8125C74.8434 38.75 74.9997 39.8437 75.9372 40.4687C79.2184 42.9687 79.0622 47.0312 78.7497 49.2187C78.4372 50.9375 77.8122 52.5 77.0309 54.2187C76.0934 56.25 75.1559 58.4375 74.9997 60.9375C73.7497 60.7812 72.4997 60.625 71.4059 60.4688C69.3747 60.3125 67.3434 60.1562 65.6247 59.375C64.0622 58.5938 62.8122 57.6562 61.5622 56.4062C59.2184 54.0625 57.6559 50.9375 56.8747 47.5C56.0934 43.2812 56.5622 30.1562 56.8747 20.625C56.5622 16.25 56.7184 12.6562 56.7184 10Z" fill="url(#paint2_linear_393_17716)"/>
<path id="Vector_4" d="M69.8438 22.9688C68.9063 22.9688 68.125 23.125 67.1875 23.2812C66.5625 23.4375 66.0938 23.75 65.625 24.0625C61.5625 26.875 61.4062 33.2813 61.875 38.5938C61.875 39.0625 62.0313 39.5312 62.0313 40C62.1875 41.0938 62.1875 41.875 62.0313 42.8125C61.4063 45 60.9375 46.7187 60.625 48.4375C60.625 48.5937 60.625 48.9063 60.625 49.0625V51.25C60.625 52.3437 61.5625 53.125 62.6562 53.125C63.75 53.125 64.5312 52.1875 64.5312 51.0938V48.9062C64.8438 47.3437 65.3125 45.625 65.9375 43.5938C66.4063 41.875 66.25 40.4688 66.0938 39.2188C66.0938 38.75 65.9375 38.4375 65.9375 37.9687C65.625 34.0625 65.4687 28.5938 68.125 26.875C68.125 26.875 68.2812 26.7188 68.4375 26.7188C68.9062 26.5625 69.5312 26.5625 70 26.5625C75.4688 26.5625 82.3438 33.5938 86.4062 40C90 45.625 92.1875 51.7188 93.4375 59.6875C94.0625 63.2812 94.375 66.7188 94.6875 69.8438C94.8438 71.875 95 73.75 95 75.3125C95 75.7812 95 76.25 95 76.875C95.1562 82.3438 95 85.9375 91.25 87.0312C85.7813 88.4375 75.3125 88.2812 69.5313 84.2188C67.1875 82.5 65.9375 80.4688 65.7812 77.9688C65.625 76.7188 65.625 75.3125 65.4688 73.9062V73.5937C65.3125 71.4062 65 69.2188 65 67.0312C65 65.9375 64.0625 65.1562 62.9688 65.1562C61.875 65.1562 61.0937 66.0938 61.0937 67.1875C61.0937 69.5312 61.4063 71.875 61.5625 74.0625V74.375C61.7188 75.625 61.875 77.0312 61.875 78.2812C62.1875 82.0312 64.0625 85.1562 67.1875 87.5C71.7188 90.7812 78.125 91.875 83.75 91.875C87.0312 91.875 90 91.5625 92.1875 90.9375C99.2188 89.0625 99.0625 81.7188 98.9062 76.875C98.9062 76.4062 98.9062 75.9375 98.9062 75.4687C98.9062 73.75 98.75 71.875 98.5938 69.6875C98.2812 66.4062 97.9688 62.9688 97.3438 59.2188C96.0938 50.7813 93.75 44.2188 89.8438 38.125C88.5938 36.5625 79.5313 22.9688 69.8438 22.9688Z" fill="url(#paint3_linear_393_17716)"/>
</g>
</g>
<defs>
<linearGradient id="paint0_linear_393_17716" x1="4.43642" y1="96.7757" x2="59.568" y2="67.2403" gradientUnits="userSpaceOnUse">
<stop stop-color="#36F1B9"/>
<stop offset="1" stop-color="#3484A4"/>
</linearGradient>
<linearGradient id="paint1_linear_393_17716" x1="16.483" y1="83.1248" x2="68.5242" y2="58.5852" gradientUnits="userSpaceOnUse">
<stop stop-color="#36F1B9"/>
<stop offset="1" stop-color="#3484A4"/>
</linearGradient>
<linearGradient id="paint2_linear_393_17716" x1="54.8635" y1="83.1363" x2="107.378" y2="58.0953" gradientUnits="userSpaceOnUse">
<stop stop-color="#36F1B9"/>
<stop offset="1" stop-color="#3484A4"/>
</linearGradient>
<linearGradient id="paint3_linear_393_17716" x1="63.6967" y1="97.2936" x2="118.781" y2="68.304" gradientUnits="userSpaceOnUse">
<stop stop-color="#36F1B9"/>
<stop offset="1" stop-color="#3484A4"/>
</linearGradient>
</defs>
</svg>
