<svg width="100" height="100" viewBox="0 0 100 100" fill="none" xmlns="http://www.w3.org/2000/svg">
<g id="7744304_courier_delivery_box_icon 1" clip-path="url(#clip0_301_15308)">
<g id="Group">
<g id="Group_2">
<g id="Group_3">
<g id="Group_4">
<path id="Vector" d="M75.707 15.9336C75.7617 16.3203 75.7891 16.7148 75.7891 17.1172C75.7891 21.8437 71.9609 25.6758 67.2383 25.6758C62.5156 25.6758 58.6875 21.8437 58.6875 17.1172V15.9336" stroke="url(#paint0_linear_301_15308)" stroke-width="3" stroke-miterlimit="10" stroke-linecap="round" stroke-linejoin="round"/>
<path id="Vector_2" d="M43.5586 40.6654L50.6094 29.3411C51.9844 27.1302 54.5703 26.138 56.9727 26.681C57.9258 26.8958 58.7852 27.4193 59.4883 28.099L71.7383 40.0247L87.2227 40.8529C89.0234 40.9505 90.4336 42.4388 90.4336 44.2435C90.4336 46.1185 88.9141 47.638 87.0391 47.638H70.3906C68.3672 47.638 66.4219 46.8646 64.9492 45.474L53.9023 35.0521" stroke="url(#paint1_linear_301_15308)" stroke-width="3" stroke-miterlimit="10" stroke-linecap="round" stroke-linejoin="round"/>
<path id="Vector_3" d="M58.2798 39.5273L50.1861 52.5352L64.0376 62.793C64.5533 63.1758 64.9712 63.6641 65.2681 64.1875L77.8462 86.6133C79.0064 88.6836 78.44 91.3594 76.4439 92.6484C74.4165 93.957 71.7837 93.4063 70.4243 91.5234L56.0103 71.6562L38.6978 58.8359C36.1939 56.9805 35.5767 53.5117 37.1861 50.9063L39.8736 46.5859" stroke="url(#paint2_linear_301_15308)" stroke-width="3" stroke-miterlimit="10" stroke-linecap="round" stroke-linejoin="round"/>
<path id="Vector_4" d="M37.1875 50.9023L25.9102 68.1094C25.3281 68.9961 24.3555 69.543 23.2969 69.5742L5.55078 70.1133C3.10938 70.1836 1.17188 72.1836 1.17188 74.625C1.17188 77.1211 3.19141 79.1406 5.68359 79.1406H26.4258C28.875 79.1406 31.1875 78.0078 32.6875 76.0742L39.4727 67.332" stroke="url(#paint3_linear_301_15308)" stroke-width="3" stroke-miterlimit="10" stroke-linecap="round" stroke-linejoin="round"/>
</g>
<path id="Vector_5" d="M78.2813 15.9297V15.3242C78.2813 10.5273 74.3945 6.64062 69.6016 6.64062H67.3633C62.5703 6.64062 58.6836 10.5273 58.6836 15.3242V15.9297H80.0391C81.1992 15.9297 82.3438 15.6992 83.4141 15.25" stroke="url(#paint4_linear_301_15308)" stroke-width="3" stroke-miterlimit="10" stroke-linecap="round" stroke-linejoin="round"/>
<path id="Vector_6" d="M73.2383 47.6367V55.5313H98.8281V29.9219H73.2383V40.1055" stroke="url(#paint5_linear_301_15308)" stroke-width="3" stroke-miterlimit="10" stroke-linecap="round" stroke-linejoin="round"/>
<path id="Vector_7" d="M89.7617 29.9258V34.6875H82.3047V29.9258" stroke="url(#paint6_linear_301_15308)" stroke-width="3" stroke-miterlimit="10" stroke-linecap="round" stroke-linejoin="round"/>
</g>
<path id="Vector_8" d="M54.0508 6.88672H43.5586" stroke="url(#paint7_linear_301_15308)" stroke-width="3" stroke-miterlimit="10" stroke-linecap="round" stroke-linejoin="round"/>
<path id="Vector_9" d="M25.5039 23.4141H14" stroke="url(#paint8_linear_301_15308)" stroke-width="3" stroke-miterlimit="10" stroke-linecap="round" stroke-linejoin="round"/>
<path id="Vector_10" d="M47.8594 40.6641H25.6094" stroke="url(#paint9_linear_301_15308)" stroke-width="3" stroke-miterlimit="10" stroke-linecap="round" stroke-linejoin="round"/>
</g>
</g>
</g>
<defs>
<linearGradient id="paint0_linear_301_15308" x1="60.0581" y1="26.4419" x2="68.4086" y2="12.5726" gradientUnits="userSpaceOnUse">
<stop stop-color="#36F1B9"/>
<stop offset="1" stop-color="#3484A4"/>
</linearGradient>
<linearGradient id="paint1_linear_301_15308" x1="47.3154" y1="49.2975" x2="63.1965" y2="15.9206" gradientUnits="userSpaceOnUse">
<stop stop-color="#36F1B9"/>
<stop offset="1" stop-color="#3484A4"/>
</linearGradient>
<linearGradient id="paint2_linear_301_15308" x1="39.6746" y1="97.5976" x2="89.6213" y2="60.6024" gradientUnits="userSpaceOnUse">
<stop stop-color="#36F1B9"/>
<stop offset="1" stop-color="#3484A4"/>
</linearGradient>
<linearGradient id="paint3_linear_301_15308" x1="4.24148" y1="81.3612" x2="30.798" y2="47.2809" gradientUnits="userSpaceOnUse">
<stop stop-color="#36F1B9"/>
<stop offset="1" stop-color="#3484A4"/>
</linearGradient>
<linearGradient id="paint4_linear_301_15308" x1="60.6656" y1="16.6602" x2="66.8447" y2="1.09513" gradientUnits="userSpaceOnUse">
<stop stop-color="#36F1B9"/>
<stop offset="1" stop-color="#3484A4"/>
</linearGradient>
<linearGradient id="paint5_linear_301_15308" x1="75.2892" y1="57.5451" x2="100.087" y2="34.0999" gradientUnits="userSpaceOnUse">
<stop stop-color="#36F1B9"/>
<stop offset="1" stop-color="#3484A4"/>
</linearGradient>
<linearGradient id="paint6_linear_301_15308" x1="82.9023" y1="35.0619" x2="87.1851" y2="28.716" gradientUnits="userSpaceOnUse">
<stop stop-color="#36F1B9"/>
<stop offset="1" stop-color="#3484A4"/>
</linearGradient>
<linearGradient id="paint7_linear_301_15308" x1="44.3995" y1="7.96536" x2="44.5929" y2="6.04513" gradientUnits="userSpaceOnUse">
<stop stop-color="#36F1B9"/>
<stop offset="1" stop-color="#3484A4"/>
</linearGradient>
<linearGradient id="paint8_linear_301_15308" x1="14.922" y1="24.4927" x2="15.0987" y2="22.5692" gradientUnits="userSpaceOnUse">
<stop stop-color="#36F1B9"/>
<stop offset="1" stop-color="#3484A4"/>
</linearGradient>
<linearGradient id="paint9_linear_301_15308" x1="27.3926" y1="41.7427" x2="27.4845" y2="39.8074" gradientUnits="userSpaceOnUse">
<stop stop-color="#36F1B9"/>
<stop offset="1" stop-color="#3484A4"/>
</linearGradient>
<clipPath id="clip0_301_15308">
<rect width="100" height="100" fill="white"/>
</clipPath>
</defs>
</svg>
