<svg width="100" height="100" viewBox="0 0 100 100" fill="none" xmlns="http://www.w3.org/2000/svg">
<g id="Frame">
<g id="_x36_1_Rx">
<g id="Group">
<path id="Vector" d="M26.9732 29.482C26.7633 29.2721 26.6582 29.0135 26.6582 28.7061V13.8637C26.6582 13.5564 26.7633 13.2934 26.9732 13.0754C27.1832 12.8572 27.4418 12.748 27.7492 12.748H33.4004C35.5994 12.748 37.2486 13.201 38.348 14.1063C39.4475 15.0119 39.9973 16.2002 39.9973 17.6715C39.9973 18.6416 39.7262 19.527 39.1852 20.3271C38.643 21.1273 37.8547 21.7059 36.8201 22.0613C37.9846 22.3686 38.7805 23.0922 39.209 24.2316C39.6375 25.3717 39.8523 26.4916 39.8523 27.5906V28.7062C39.8523 29.0135 39.7465 29.2723 39.5365 29.4822C39.3266 29.6922 39.068 29.7977 38.7605 29.7977C38.4207 29.7977 38.1498 29.6965 37.9484 29.4947C37.7461 29.2928 37.6449 29.0299 37.6449 28.7064V27.9787C37.6449 27.1707 37.5725 26.423 37.4264 25.7354C37.2812 25.0486 36.934 24.434 36.3842 23.8924C35.8344 23.3508 35.0012 23.0797 33.8855 23.0797H28.8652V28.7064C28.8652 29.0137 28.7564 29.2725 28.5379 29.4824C28.3203 29.6924 28.0568 29.7979 27.7496 29.7979C27.4424 29.7979 27.1832 29.692 26.9732 29.482ZM33.2551 20.9939C34.6457 20.9939 35.749 20.7191 36.565 20.1693C37.382 19.6195 37.7904 18.8437 37.7904 17.841C37.7904 16.8709 37.4383 16.1273 36.7348 15.6096C36.0314 15.0922 34.8307 14.8336 33.1338 14.8336H28.8646V20.9939H33.2551Z" fill="url(#paint0_linear_301_15223)"/>
<path id="Vector_2" d="M43.0896 29.4961C42.9035 29.2941 42.8109 29.0232 42.8109 28.6834C42.8109 28.441 42.892 28.2148 43.0533 28.0043L46.8127 23.5662L43.0533 18.9822C42.8748 18.7561 42.7871 18.5217 42.7871 18.2789C42.7871 17.9559 42.8922 17.6934 43.1021 17.491C43.3121 17.2887 43.5707 17.1875 43.8781 17.1875C44.2666 17.1875 44.5576 17.3254 44.7514 17.5998L48.1463 21.7959L51.5182 17.5998C51.7119 17.3254 51.9943 17.1875 52.3666 17.1875C52.6902 17.1875 52.9564 17.2887 53.1674 17.491C53.3773 17.6934 53.4824 17.9396 53.4824 18.2307C53.4824 18.473 53.4014 18.6998 53.24 18.9098L49.408 23.4209L53.1912 27.9801C53.3687 28.1742 53.4584 28.4092 53.4584 28.6834C53.4584 28.9906 53.3611 29.2537 53.1674 29.4717C52.9727 29.6898 52.6979 29.799 52.3428 29.799C51.9867 29.799 51.7033 29.6535 51.4934 29.3623L48.0498 25.2393L44.8 29.3141C44.5576 29.6377 44.2416 29.7988 43.8541 29.7988C43.5307 29.799 43.2758 29.6979 43.0896 29.4961Z" fill="url(#paint1_linear_301_15223)"/>
<path id="Vector_3" d="M39.1871 20.3271C39.7283 19.5268 39.9992 18.6416 39.9992 17.6715C39.9992 16.2002 39.4496 15.0121 38.35 14.1063C37.2506 13.201 35.6014 12.748 33.4023 12.748H27.7512C27.4437 12.748 27.1852 12.8572 26.9752 13.0754C26.7652 13.2936 26.6602 13.5564 26.6602 13.8637V28.7062C26.6602 29.0135 26.7652 29.2723 26.9752 29.4822C27.1852 29.6922 27.4437 29.7977 27.7512 29.7977C28.0584 29.7977 28.3219 29.6922 28.5395 29.4822C28.758 29.2723 28.8668 29.0135 28.8668 28.7062V23.0795H33.8869C35.0027 23.0795 35.8359 23.3506 36.3855 23.8922C36.9352 24.4338 37.2828 25.0484 37.4277 25.7352C37.5738 26.4228 37.6463 27.1705 37.6463 27.9785V28.7062C37.6463 29.0297 37.7475 29.2928 37.9498 29.4945C38.1512 29.6963 38.4223 29.7975 38.7619 29.7975C39.0691 29.7975 39.3279 29.692 39.5379 29.482C39.7479 29.2721 39.8539 29.0133 39.8539 28.7061V27.5904C39.8539 26.4914 39.6391 25.3713 39.2107 24.2312C38.7822 23.0916 37.9861 22.3682 36.8219 22.0609C37.8566 21.7057 38.6449 21.1273 39.1871 20.3271ZM36.5672 20.1697C35.7512 20.7193 34.6479 20.9943 33.2574 20.9943H28.867V14.834H33.1361C34.833 14.834 36.0338 15.0928 36.7371 15.61C37.4406 16.1277 37.7928 16.8711 37.7928 17.8414C37.7926 18.8439 37.3842 19.6199 36.5672 20.1697Z" fill="url(#paint2_linear_301_15223)"/>
<path id="Vector_4" d="M46.8127 23.5646L43.0533 28.0025C42.892 28.2131 42.8109 28.4393 42.8109 28.6816C42.8109 29.0215 42.9035 29.2926 43.0896 29.4943C43.2758 29.6961 43.5307 29.7973 43.8541 29.7973C44.2416 29.7973 44.5576 29.6359 44.7998 29.3125L48.0496 25.2377L51.4932 29.3607C51.7031 29.6518 51.9865 29.7973 52.3426 29.7973C52.6977 29.7973 52.9725 29.6881 53.1672 29.4699C53.3609 29.2518 53.4584 28.9889 53.4584 28.6816C53.4584 28.4072 53.3686 28.1725 53.1912 27.9781L49.4078 23.4189L53.2398 18.9078C53.4012 18.6979 53.4822 18.4711 53.4822 18.2287C53.4822 17.9377 53.3772 17.6914 53.1672 17.4891C52.9563 17.2867 52.69 17.1855 52.3664 17.1855C51.9941 17.1855 51.7117 17.3234 51.518 17.5979L48.1461 21.7939L44.7512 17.5979C44.5576 17.3236 44.2664 17.1857 43.8779 17.1857C43.5705 17.1857 43.3119 17.2869 43.102 17.4893C42.892 17.6916 42.7871 17.9539 42.7871 18.2771C42.7871 18.5199 42.8748 18.7543 43.0533 18.9805L46.8127 23.5646Z" fill="url(#paint3_linear_301_15223)"/>
<path id="Vector_5" d="M85.2805 95.1709V19.9619C85.2805 19.9363 85.2674 19.9135 85.2658 19.8881C85.259 19.7855 85.2395 19.6869 85.2063 19.5895C85.1932 19.5512 85.1832 19.5139 85.1664 19.4771C85.1096 19.3535 85.0381 19.2359 84.9383 19.1359L66.6883 0.885156C66.5883 0.785156 66.4711 0.713867 66.3475 0.657422C66.3094 0.639844 66.2709 0.629688 66.2313 0.616406C66.1373 0.584961 66.0422 0.566016 65.9432 0.558984C65.9154 0.557031 65.8902 0.542969 65.8623 0.542969H19.0023C16.64 0.542969 14.7188 2.46426 14.7188 4.82656V95.1711C14.7188 97.5334 16.64 99.4547 19.0023 99.4547H80.9971C83.3594 99.4545 85.2805 97.5332 85.2805 95.1709ZM81.292 18.7936H68.9775C67.9035 18.7936 67.0305 17.9205 67.0305 16.8465V4.53145L74.1613 11.6625L81.292 18.7936ZM17.0553 95.1709V4.82637C17.0553 3.75234 17.9283 2.8793 19.0023 2.8793H64.6941V16.8465C64.6941 19.2088 66.6162 21.1301 68.9777 21.1301H82.9441V95.1709C82.9441 96.2449 82.0711 97.118 80.9971 97.118H19.0023C17.9283 97.118 17.0553 96.2447 17.0553 95.1709Z" fill="url(#paint4_linear_301_15223)"/>
<path id="Vector_6" d="M73.3416 39.5938H41.6369C40.992 39.5938 40.4688 40.117 40.4688 40.7619C40.4688 41.4068 40.992 41.9301 41.6369 41.9301H73.3416C73.9865 41.9301 74.5098 41.4068 74.5098 40.7619C74.5098 40.117 73.9865 39.5938 73.3416 39.5938Z" fill="url(#paint5_linear_301_15223)"/>
<path id="Vector_7" d="M31.4611 39.5938H26.6604C26.0154 39.5938 25.4922 40.117 25.4922 40.7619C25.4922 41.4068 26.0154 41.9301 26.6604 41.9301H31.4611C32.1061 41.9301 32.6293 41.4068 32.6293 40.7619C32.6293 40.117 32.1061 39.5938 31.4611 39.5938Z" fill="url(#paint6_linear_301_15223)"/>
<path id="Vector_8" d="M73.3416 51.2148H41.6369C40.992 51.2148 40.4688 51.7381 40.4688 52.383C40.4688 53.0279 40.992 53.5512 41.6369 53.5512H73.3416C73.9865 53.5512 74.5098 53.0279 74.5098 52.383C74.5098 51.7381 73.9865 51.2148 73.3416 51.2148Z" fill="url(#paint7_linear_301_15223)"/>
<path id="Vector_9" d="M31.4611 51.2148H26.6604C26.0154 51.2148 25.4922 51.7381 25.4922 52.383C25.4922 53.0279 26.0154 53.5512 26.6604 53.5512H31.4611C32.1061 53.5512 32.6293 53.0279 32.6293 52.383C32.6293 51.7381 32.1061 51.2148 31.4611 51.2148Z" fill="url(#paint8_linear_301_15223)"/>
<path id="Vector_10" d="M73.3416 62.8379H41.6369C40.992 62.8379 40.4688 63.3611 40.4688 64.0061C40.4688 64.651 40.992 65.1742 41.6369 65.1742H73.3416C73.9865 65.1742 74.5098 64.651 74.5098 64.0061C74.5098 63.3611 73.9865 62.8379 73.3416 62.8379Z" fill="url(#paint9_linear_301_15223)"/>
<path id="Vector_11" d="M31.4611 62.8379H26.6604C26.0154 62.8379 25.4922 63.3611 25.4922 64.0061C25.4922 64.651 26.0154 65.1742 26.6604 65.1742H31.4611C32.1061 65.1742 32.6293 64.651 32.6293 64.0061C32.6293 63.3611 32.1061 62.8379 31.4611 62.8379Z" fill="url(#paint10_linear_301_15223)"/>
<path id="Vector_12" d="M73.3416 74.459H41.6369C40.992 74.459 40.4688 74.9822 40.4688 75.6272C40.4688 76.2721 40.992 76.7953 41.6369 76.7953H73.3416C73.9865 76.7953 74.5098 76.2721 74.5098 75.6272C74.5098 74.9822 73.9865 74.459 73.3416 74.459Z" fill="url(#paint11_linear_301_15223)"/>
<path id="Vector_13" d="M31.4611 74.459H26.6604C26.0154 74.459 25.4922 74.9822 25.4922 75.6272C25.4922 76.2721 26.0154 76.7953 26.6604 76.7953H31.4611C32.1061 76.7953 32.6293 76.2721 32.6293 75.6272C32.6293 74.9822 32.1061 74.459 31.4611 74.459Z" fill="url(#paint12_linear_301_15223)"/>
<path id="Vector_14" d="M61.8018 86.0801H41.635C40.99 86.0801 40.4668 86.6033 40.4668 87.2482C40.4668 87.8932 40.99 88.4164 41.635 88.4164H61.8018C62.4467 88.4164 62.9699 87.8932 62.9699 87.2482C62.9699 86.6033 62.4467 86.0801 61.8018 86.0801Z" fill="url(#paint13_linear_301_15223)"/>
<path id="Vector_15" d="M31.4592 86.0801H26.6584C26.0135 86.0801 25.4902 86.6033 25.4902 87.2482C25.4902 87.8932 26.0135 88.4164 26.6584 88.4164H31.4592C32.1041 88.4164 32.6273 87.8932 32.6273 87.2482C32.6273 86.6033 32.1041 86.0801 31.4592 86.0801Z" fill="url(#paint14_linear_301_15223)"/>
</g>
</g>
</g>
<defs>
<linearGradient id="paint0_linear_301_15223" x1="27.7273" y1="31.1386" x2="43.5422" y2="19.4318" gradientUnits="userSpaceOnUse">
<stop stop-color="#36F1B9"/>
<stop offset="1" stop-color="#3484A4"/>
</linearGradient>
<linearGradient id="paint1_linear_301_15223" x1="43.6443" y1="30.7908" x2="55.5851" y2="21.2095" gradientUnits="userSpaceOnUse">
<stop stop-color="#36F1B9"/>
<stop offset="1" stop-color="#3484A4"/>
</linearGradient>
<linearGradient id="paint2_linear_301_15223" x1="27.7292" y1="31.1384" x2="43.5441" y2="19.4316" gradientUnits="userSpaceOnUse">
<stop stop-color="#36F1B9"/>
<stop offset="1" stop-color="#3484A4"/>
</linearGradient>
<linearGradient id="paint3_linear_301_15223" x1="43.6443" y1="30.789" x2="55.5852" y2="21.208" gradientUnits="userSpaceOnUse">
<stop stop-color="#36F1B9"/>
<stop offset="1" stop-color="#3484A4"/>
</linearGradient>
<linearGradient id="paint4_linear_301_15223" x1="20.3739" y1="107.233" x2="109.341" y2="47.1825" gradientUnits="userSpaceOnUse">
<stop stop-color="#36F1B9"/>
<stop offset="1" stop-color="#3484A4"/>
</linearGradient>
<linearGradient id="paint5_linear_301_15223" x1="43.197" y1="42.1138" x2="43.524" y2="37.6057" gradientUnits="userSpaceOnUse">
<stop stop-color="#36F1B9"/>
<stop offset="1" stop-color="#3484A4"/>
</linearGradient>
<linearGradient id="paint6_linear_301_15223" x1="26.0642" y1="42.1138" x2="27.4645" y2="38.0665" gradientUnits="userSpaceOnUse">
<stop stop-color="#36F1B9"/>
<stop offset="1" stop-color="#3484A4"/>
</linearGradient>
<linearGradient id="paint7_linear_301_15223" x1="43.197" y1="53.7349" x2="43.524" y2="49.2268" gradientUnits="userSpaceOnUse">
<stop stop-color="#36F1B9"/>
<stop offset="1" stop-color="#3484A4"/>
</linearGradient>
<linearGradient id="paint8_linear_301_15223" x1="26.0642" y1="53.7349" x2="27.4645" y2="49.6876" gradientUnits="userSpaceOnUse">
<stop stop-color="#36F1B9"/>
<stop offset="1" stop-color="#3484A4"/>
</linearGradient>
<linearGradient id="paint9_linear_301_15223" x1="43.197" y1="65.3579" x2="43.524" y2="60.8499" gradientUnits="userSpaceOnUse">
<stop stop-color="#36F1B9"/>
<stop offset="1" stop-color="#3484A4"/>
</linearGradient>
<linearGradient id="paint10_linear_301_15223" x1="26.0642" y1="65.3579" x2="27.4645" y2="61.3106" gradientUnits="userSpaceOnUse">
<stop stop-color="#36F1B9"/>
<stop offset="1" stop-color="#3484A4"/>
</linearGradient>
<linearGradient id="paint11_linear_301_15223" x1="43.197" y1="76.979" x2="43.524" y2="72.471" gradientUnits="userSpaceOnUse">
<stop stop-color="#36F1B9"/>
<stop offset="1" stop-color="#3484A4"/>
</linearGradient>
<linearGradient id="paint12_linear_301_15223" x1="26.0642" y1="76.979" x2="27.4645" y2="72.9317" gradientUnits="userSpaceOnUse">
<stop stop-color="#36F1B9"/>
<stop offset="1" stop-color="#3484A4"/>
</linearGradient>
<linearGradient id="paint13_linear_301_15223" x1="42.2703" y1="88.6001" x2="42.7617" y2="84.1223" gradientUnits="userSpaceOnUse">
<stop stop-color="#36F1B9"/>
<stop offset="1" stop-color="#3484A4"/>
</linearGradient>
<linearGradient id="paint14_linear_301_15223" x1="26.0622" y1="88.6001" x2="27.4625" y2="84.5528" gradientUnits="userSpaceOnUse">
<stop stop-color="#36F1B9"/>
<stop offset="1" stop-color="#3484A4"/>
</linearGradient>
</defs>
</svg>
