<svg width="100" height="100" viewBox="0 0 100 100" fill="none" xmlns="http://www.w3.org/2000/svg">
<g id="Layer_1">
<g id="Group">
<path id="Vector" d="M62.3322 94.9998H19.7458C14.3804 94.9998 10.0156 90.6348 10.0156 85.2694V35.2634C10.0156 29.898 14.3804 25.5332 19.7458 25.5332H62.332C67.6974 25.5332 72.0624 29.8982 72.0624 35.2634V44.7186C72.0624 45.4542 71.4658 46.0508 70.73 46.0508C69.9942 46.0508 69.3978 45.4544 69.3978 44.7186V35.2634C69.3978 31.3674 66.2278 28.1976 62.332 28.1976H19.7458C15.85 28.1976 12.68 31.3676 12.68 35.2634V85.2694C12.68 89.1654 15.85 92.3352 19.7458 92.3352H62.332C66.2278 92.3352 69.3978 89.1652 69.3978 85.2694V82.2874C69.3978 81.5518 69.9942 80.9552 70.73 80.9552C71.4658 80.9552 72.0624 81.5518 72.0624 82.2874V85.2694C72.0626 90.6348 67.6976 94.9998 62.3322 94.9998Z" fill="url(#paint0_linear_301_15245)"/>
<path id="Vector_2" d="M62.1851 28.1992H19.8929C19.4413 28.1992 19.0205 27.971 18.7753 27.5918C18.5295 27.2132 18.4923 26.7358 18.6763 26.3232L22.4611 17.8548C22.6757 17.3754 23.1519 17.0664 23.6775 17.0664H58.4005C58.9261 17.0664 59.4023 17.3754 59.6169 17.8548L63.4015 26.3232C63.5857 26.7358 63.5487 27.2132 63.3027 27.5918C63.0573 27.971 62.6365 28.1992 62.1851 28.1992ZM21.9477 25.5348H60.1301L57.5365 19.731H24.5413L21.9477 25.5348Z" fill="url(#paint1_linear_301_15245)"/>
<path id="Vector_3" d="M68.5361 19.7296H13.5433C12.8077 19.7296 12.2109 19.133 12.2109 18.3972V11.2416C12.2111 7.7998 15.0109 5 18.4527 5H63.6267C67.0685 5 69.8683 7.7998 69.8683 11.2416V18.3972C69.8683 19.133 69.2719 19.7296 68.5361 19.7296ZM14.8755 17.065H67.2037V11.2416C67.2037 9.2692 65.5989 7.6644 63.6267 7.6644H18.4527C16.4803 7.6644 14.8755 9.2692 14.8755 11.2416V17.065Z" fill="url(#paint2_linear_301_15245)"/>
<path id="Vector_4" d="M39.4594 79.3679H11.3478C10.6122 79.3679 10.0156 78.7715 10.0156 78.0355V40.2033C10.0156 39.4677 10.612 38.8711 11.3478 38.8711H39.4594C50.6242 38.8711 59.708 47.9549 59.708 59.1195C59.708 70.2841 50.6242 79.3679 39.4594 79.3679ZM12.68 76.7033H39.4594C49.1552 76.7033 57.0434 68.8151 57.0434 59.1193C57.0434 49.4237 49.1552 41.5355 39.4594 41.5355H12.68V76.7033Z" fill="url(#paint3_linear_301_15245)"/>
<path id="Vector_5" d="M41.0387 51.7818H20.5431C19.8075 51.7818 19.2109 51.1854 19.2109 50.4494C19.2109 49.7138 19.8073 49.1172 20.5431 49.1172H41.0387C41.7743 49.1172 42.3711 49.7136 42.3711 50.4494C42.3711 51.1854 41.7743 51.7818 41.0387 51.7818Z" fill="url(#paint4_linear_301_15245)"/>
<path id="Vector_6" d="M45.2391 60.4517H20.5431C19.8075 60.4517 19.2109 59.8553 19.2109 59.1193C19.2109 58.3837 19.8073 57.7871 20.5431 57.7871H45.2391C45.9747 57.7871 46.5713 58.3835 46.5713 59.1193C46.5713 59.8553 45.9747 60.4517 45.2391 60.4517Z" fill="url(#paint5_linear_301_15245)"/>
<path id="Vector_7" d="M41.0387 69.1216H20.5431C19.8075 69.1216 19.2109 68.5252 19.2109 67.7894C19.2109 67.0536 19.8073 66.457 20.5431 66.457H41.0387C41.7743 66.457 42.3711 67.0534 42.3711 67.7894C42.3711 68.5252 41.7743 69.1216 41.0387 69.1216Z" fill="url(#paint6_linear_301_15245)"/>
<path id="Vector_8" d="M81.7567 83.6195H70.2173C65.6801 83.6195 61.9883 79.9279 61.9883 75.3905C61.9883 70.8531 65.6799 67.1621 70.2173 67.1621H81.7567C86.2941 67.1621 89.9857 70.8531 89.9857 75.3905C89.9857 79.9279 86.2941 83.6195 81.7567 83.6195ZM70.2173 69.8267C67.1489 69.8267 64.6529 72.3227 64.6529 75.3905C64.6529 78.4589 67.1489 80.9549 70.2173 80.9549H81.7567C84.8253 80.9549 87.3213 78.4589 87.3213 75.3905C87.3213 72.3227 84.8253 69.8267 81.7567 69.8267H70.2173Z" fill="url(#paint7_linear_301_15245)"/>
<path id="Vector_9" d="M75.9886 83.6195C75.253 83.6195 74.6562 83.0229 74.6562 82.2871V68.4943C74.6562 67.7587 75.2528 67.1621 75.9886 67.1621C76.7244 67.1621 77.3208 67.7585 77.3208 68.4943V82.2871C77.3206 83.0229 76.7242 83.6195 75.9886 83.6195Z" fill="url(#paint8_linear_301_15245)"/>
<path id="Vector_10" d="M73.3721 69.8234C71.3015 69.8234 69.2289 69.0486 67.6313 67.4932C64.3815 64.3272 64.3129 59.107 67.4785 55.857L75.5299 47.5902C78.6961 44.3398 83.9169 44.2726 87.1661 47.4374C88.7403 48.9708 89.6237 51.0256 89.6525 53.2238C89.6817 55.4212 88.8531 57.499 87.3191 59.0738L79.2677 67.34C77.6575 68.9932 75.5155 69.8234 73.3721 69.8234ZM81.4253 47.7704C79.9755 47.7704 78.5275 48.3318 77.4383 49.4494L69.3869 57.716C67.2461 59.9142 67.2929 63.4432 69.4903 65.584C70.5547 66.6208 71.9395 67.192 73.4461 67.162C74.9325 67.1424 76.3221 66.5452 77.3589 65.4804L85.4103 57.2142C86.4471 56.1492 87.0079 54.7444 86.9883 53.2586C86.9687 51.7722 86.3717 50.3826 85.3067 49.3458C84.2271 48.294 82.8253 47.7704 81.4253 47.7704Z" fill="url(#paint9_linear_301_15245)"/>
<path id="Vector_11" d="M82.3378 63.6096C82.0026 63.6096 81.6672 63.484 81.4082 63.2316L71.5276 53.6072C71.0006 53.094 70.9896 52.2502 71.5028 51.7234C72.0154 51.1958 72.8598 51.1846 73.3868 51.6986L83.2674 61.323C83.7942 61.8362 83.8054 62.68 83.292 63.207C83.0312 63.475 82.6846 63.6096 82.3378 63.6096Z" fill="url(#paint10_linear_301_15245)"/>
<path id="Vector_12" d="M41.0392 19.7282C40.3036 19.7282 39.707 19.1316 39.707 18.3958V13.141C39.707 12.4052 40.3034 11.8086 41.0392 11.8086C41.775 11.8086 42.3716 12.405 42.3716 13.141V18.3958C42.3716 19.1316 41.7748 19.7282 41.0392 19.7282Z" fill="url(#paint11_linear_301_15245)"/>
<path id="Vector_13" d="M47.8478 19.7282C47.1122 19.7282 46.5156 19.1316 46.5156 18.3958V13.141C46.5156 12.4052 47.112 11.8086 47.8478 11.8086C48.5836 11.8086 49.1802 12.405 49.1802 13.141V18.3958C49.1802 19.1316 48.5836 19.7282 47.8478 19.7282Z" fill="url(#paint12_linear_301_15245)"/>
<path id="Vector_14" d="M54.6564 19.7282C53.9208 19.7282 53.3242 19.1316 53.3242 18.3958V13.141C53.3242 12.4052 53.9206 11.8086 54.6564 11.8086C55.3922 11.8086 55.9888 12.405 55.9888 13.141V18.3958C55.9886 19.1316 55.3922 19.7282 54.6564 19.7282Z" fill="url(#paint13_linear_301_15245)"/>
<path id="Vector_15" d="M61.4633 19.7282C60.7277 19.7282 60.1309 19.1316 60.1309 18.3958V13.141C60.1309 12.4052 60.7275 11.8086 61.4633 11.8086C62.1991 11.8086 62.7955 12.405 62.7955 13.141V18.3958C62.7953 19.1316 62.1989 19.7282 61.4633 19.7282Z" fill="url(#paint14_linear_301_15245)"/>
<path id="Vector_16" d="M34.2306 19.7282C33.4948 19.7282 32.8984 19.1316 32.8984 18.3958V13.141C32.8984 12.4052 33.4948 11.8086 34.2306 11.8086C34.9662 11.8086 35.5628 12.405 35.5628 13.141V18.3958C35.5628 19.1316 34.9664 19.7282 34.2306 19.7282Z" fill="url(#paint15_linear_301_15245)"/>
<path id="Vector_17" d="M27.4222 19.7282C26.6866 19.7282 26.0898 19.1316 26.0898 18.3958V13.141C26.0898 12.4052 26.6864 11.8086 27.4222 11.8086C28.158 11.8086 28.7544 12.405 28.7544 13.141V18.3958C28.7544 19.1316 28.158 19.7282 27.4222 19.7282Z" fill="url(#paint16_linear_301_15245)"/>
<path id="Vector_18" d="M20.6156 19.7282C19.88 19.7282 19.2832 19.1316 19.2832 18.3958V13.141C19.2832 12.4052 19.8798 11.8086 20.6156 11.8086C21.3514 11.8086 21.9478 12.405 21.9478 13.141V18.3958C21.9478 19.1316 21.3514 19.7282 20.6156 19.7282Z" fill="url(#paint17_linear_301_15245)"/>
</g>
</g>
<defs>
<linearGradient id="paint0_linear_301_15245" x1="14.9884" y1="100.462" x2="81.4177" y2="44.3232" gradientUnits="userSpaceOnUse">
<stop stop-color="#36F1B9"/>
<stop offset="1" stop-color="#3484A4"/>
</linearGradient>
<linearGradient id="paint1_linear_301_15245" x1="22.1636" y1="29.0747" x2="27.4531" y2="8.86468" gradientUnits="userSpaceOnUse">
<stop stop-color="#36F1B9"/>
<stop offset="1" stop-color="#3484A4"/>
</linearGradient>
<linearGradient id="paint2_linear_301_15245" x1="16.8319" y1="20.8879" x2="24.022" y2="-5.74181" gradientUnits="userSpaceOnUse">
<stop stop-color="#36F1B9"/>
<stop offset="1" stop-color="#3484A4"/>
</linearGradient>
<linearGradient id="paint3_linear_301_15245" x1="13.9982" y1="82.5524" x2="52.8405" y2="37.4565" gradientUnits="userSpaceOnUse">
<stop stop-color="#36F1B9"/>
<stop offset="1" stop-color="#3484A4"/>
</linearGradient>
<linearGradient id="paint4_linear_301_15245" x1="21.0671" y1="51.9913" x2="21.6864" y2="46.8981" gradientUnits="userSpaceOnUse">
<stop stop-color="#36F1B9"/>
<stop offset="1" stop-color="#3484A4"/>
</linearGradient>
<linearGradient id="paint5_linear_301_15245" x1="21.4037" y1="60.6612" x2="21.9302" y2="55.5469" gradientUnits="userSpaceOnUse">
<stop stop-color="#36F1B9"/>
<stop offset="1" stop-color="#3484A4"/>
</linearGradient>
<linearGradient id="paint6_linear_301_15245" x1="21.0671" y1="69.3312" x2="21.6864" y2="64.2379" gradientUnits="userSpaceOnUse">
<stop stop-color="#36F1B9"/>
<stop offset="1" stop-color="#3484A4"/>
</linearGradient>
<linearGradient id="paint7_linear_301_15245" x1="64.2321" y1="84.9137" x2="78.5415" y2="61.8812" gradientUnits="userSpaceOnUse">
<stop stop-color="#36F1B9"/>
<stop offset="1" stop-color="#3484A4"/>
</linearGradient>
<linearGradient id="paint8_linear_301_15245" x1="74.8698" y1="84.9137" x2="79.6479" y2="84.1817" gradientUnits="userSpaceOnUse">
<stop stop-color="#36F1B9"/>
<stop offset="1" stop-color="#3484A4"/>
</linearGradient>
<linearGradient id="paint9_linear_301_15245" x1="67.1124" y1="71.767" x2="91.0344" y2="49.3264" gradientUnits="userSpaceOnUse">
<stop stop-color="#36F1B9"/>
<stop offset="1" stop-color="#3484A4"/>
</linearGradient>
<linearGradient id="paint10_linear_301_15245" x1="72.1304" y1="64.576" x2="84.042" y2="53.0714" gradientUnits="userSpaceOnUse">
<stop stop-color="#36F1B9"/>
<stop offset="1" stop-color="#3484A4"/>
</linearGradient>
<linearGradient id="paint11_linear_301_15245" x1="39.9206" y1="20.351" x2="44.3609" y2="18.9374" gradientUnits="userSpaceOnUse">
<stop stop-color="#36F1B9"/>
<stop offset="1" stop-color="#3484A4"/>
</linearGradient>
<linearGradient id="paint12_linear_301_15245" x1="46.7292" y1="20.351" x2="51.1695" y2="18.9374" gradientUnits="userSpaceOnUse">
<stop stop-color="#36F1B9"/>
<stop offset="1" stop-color="#3484A4"/>
</linearGradient>
<linearGradient id="paint13_linear_301_15245" x1="53.5378" y1="20.351" x2="57.978" y2="18.9374" gradientUnits="userSpaceOnUse">
<stop stop-color="#36F1B9"/>
<stop offset="1" stop-color="#3484A4"/>
</linearGradient>
<linearGradient id="paint14_linear_301_15245" x1="60.3444" y1="20.351" x2="64.7847" y2="18.9374" gradientUnits="userSpaceOnUse">
<stop stop-color="#36F1B9"/>
<stop offset="1" stop-color="#3484A4"/>
</linearGradient>
<linearGradient id="paint15_linear_301_15245" x1="33.112" y1="20.351" x2="37.552" y2="18.9376" gradientUnits="userSpaceOnUse">
<stop stop-color="#36F1B9"/>
<stop offset="1" stop-color="#3484A4"/>
</linearGradient>
<linearGradient id="paint16_linear_301_15245" x1="26.3034" y1="20.351" x2="30.7437" y2="18.9374" gradientUnits="userSpaceOnUse">
<stop stop-color="#36F1B9"/>
<stop offset="1" stop-color="#3484A4"/>
</linearGradient>
<linearGradient id="paint17_linear_301_15245" x1="19.4968" y1="20.351" x2="23.937" y2="18.9374" gradientUnits="userSpaceOnUse">
<stop stop-color="#36F1B9"/>
<stop offset="1" stop-color="#3484A4"/>
</linearGradient>
</defs>
</svg>
