<svg width="81" height="80" viewBox="0 0 81 80" fill="none" xmlns="http://www.w3.org/2000/svg">
<g opacity="0.2">
<path d="M43.0718 68.973V69.7594C43.0718 70.1764 42.7341 70.5144 42.3168 70.5144C41.8995 70.5144 41.5618 70.1763 41.5618 69.7594V68.973C41.5618 68.5559 41.8995 68.218 42.3168 68.218C42.7341 68.218 43.0718 68.5559 43.0718 68.973ZM30.9227 29.1553V21.9814C30.9227 21.5644 31.2604 21.2264 31.6777 21.2264H37.8624C38.2798 21.2264 38.6174 21.5645 38.6174 21.9814V29.1553C38.6174 29.5723 38.2798 29.9103 37.8624 29.9103H31.6777C31.2604 29.9103 30.9227 29.5722 30.9227 29.1553ZM32.4329 28.4002H37.1076V22.7364H32.4329V28.4002ZM42.0476 29.1553V21.9814C42.0476 21.5644 42.3852 21.2264 42.8026 21.2264H48.9873C49.4046 21.2264 49.7423 21.5645 49.7423 21.9814V29.1553C49.7423 29.5723 49.4046 29.9103 48.9873 29.9103H42.8026C42.3852 29.9103 42.0476 29.5722 42.0476 29.1553ZM43.5577 28.4002H48.2324V22.7364H43.5577V28.4002ZM30.9227 43.0248V35.8506C30.9227 35.4336 31.2604 35.0956 31.6777 35.0956H37.8624C38.2798 35.0956 38.6174 35.4338 38.6174 35.8506V43.0248C38.6174 43.4419 38.2798 43.7798 37.8624 43.7798H31.6777C31.2604 43.7798 30.9227 43.4417 30.9227 43.0248ZM32.4329 42.2698H37.1076V36.6056H32.4329V42.2698ZM42.0476 43.0248V35.8506C42.0476 35.4336 42.3852 35.0956 42.8026 35.0956H48.9873C49.4046 35.0956 49.7423 35.4338 49.7423 35.8506V43.0248C49.7423 43.4419 49.4046 43.7798 48.9873 43.7798H42.8026C42.3852 43.7798 42.0476 43.4417 42.0476 43.0248ZM43.5577 42.2698H48.2324V36.6056H43.5577V42.2698ZM37.8626 57.6491H31.6779C31.2605 57.6491 30.9229 57.3109 30.9229 56.8941V49.7202C30.9229 49.3031 31.2605 48.9652 31.6779 48.9652H37.8626C38.2799 48.9652 38.6176 49.3033 38.6176 49.7202V56.8941C38.6176 57.3109 38.2799 57.6491 37.8626 57.6491ZM37.1074 50.4752H32.4327V56.1389H37.1074V50.4752ZM42.0476 56.8941V49.7202C42.0476 49.3031 42.3852 48.9652 42.8026 48.9652H48.9873C49.4046 48.9652 49.7423 49.3033 49.7423 49.7202V56.8941C49.7423 57.3111 49.4046 57.6491 48.9873 57.6491H42.8026C42.3852 57.6491 42.0476 57.3109 42.0476 56.8941ZM43.5577 56.1389H48.2324V50.4752H43.5577V56.1389ZM14.8541 42.2237V48.4933C14.8541 48.9103 14.5165 49.2483 14.0991 49.2483H8.69367C8.27633 49.2483 7.93867 48.9102 7.93867 48.4933V42.2237C7.93867 41.8067 8.27633 41.4688 8.69367 41.4688H14.099C14.5165 41.4686 14.8541 41.8067 14.8541 42.2237ZM13.344 42.9787H9.44867V47.7383H13.344V42.9787ZM24.5759 42.2237V48.4933C24.5759 48.9103 24.2382 49.2483 23.8209 49.2483H18.4162C17.9988 49.2483 17.6612 48.9102 17.6612 48.4933V42.2237C17.6612 41.8067 17.9988 41.4688 18.4162 41.4688H23.8209C24.238 41.4686 24.5759 41.8067 24.5759 42.2237ZM23.0657 42.9787H19.1712V47.7383H23.0657V42.9787ZM14.8541 53.2763V59.5455C14.8541 59.9625 14.5165 60.3005 14.0991 60.3005H8.69367C8.27633 60.3005 7.93867 59.9623 7.93867 59.5455V53.2763C7.93867 52.8592 8.27633 52.5213 8.69367 52.5213H14.099C14.5165 52.5213 14.8541 52.8594 14.8541 53.2763ZM13.344 54.0313H9.44867V58.7903H13.344V54.0313ZM24.5759 53.2763V59.5455C24.5759 59.9625 24.2382 60.3005 23.8209 60.3005H18.4162C17.9988 60.3005 17.6612 59.9623 17.6612 59.5455V53.2763C17.6612 52.8592 17.9988 52.5213 18.4162 52.5213H23.8209C24.238 52.5213 24.5759 52.8594 24.5759 53.2763ZM23.0657 54.0313H19.1712V58.7903H23.0657V54.0313ZM14.8541 64.3289V70.5981C14.8541 71.0152 14.5165 71.3531 14.0991 71.3531H8.69367C8.27633 71.3531 7.93867 71.015 7.93867 70.5981V64.3289C7.93867 63.9119 8.27633 63.5739 8.69367 63.5739H14.099C14.5165 63.5739 14.8541 63.9119 14.8541 64.3289ZM13.344 65.0839H9.44867V69.843H13.344V65.0839ZM24.5759 64.3289V70.5981C24.5759 71.0152 24.2382 71.3531 23.8209 71.3531H18.4162C17.9988 71.3531 17.6612 71.015 17.6612 70.5981V64.3289C17.6612 63.9119 17.9988 63.5739 18.4162 63.5739H23.8209C24.238 63.5739 24.5759 63.9119 24.5759 64.3289ZM23.0657 65.0839H19.1712V69.843H23.0657V65.0839ZM63.004 42.2237V48.4933C63.004 48.9103 62.6663 49.2483 62.249 49.2483H56.8443C56.427 49.2483 56.0893 48.9102 56.0893 48.4933V42.2237C56.0893 41.8067 56.427 41.4688 56.8443 41.4688H62.249C62.6663 41.4686 63.004 41.8067 63.004 42.2237ZM61.494 42.9787H57.5995V47.7383H61.494V42.9787ZM72.7265 42.2237V48.4933C72.7265 48.9103 72.3888 49.2483 71.9715 49.2483H66.5662C66.1488 49.2483 65.8112 48.9102 65.8112 48.4933V42.2237C65.8112 41.8067 66.1488 41.4688 66.5662 41.4688H71.9715C72.3888 41.4686 72.7265 41.8067 72.7265 42.2237ZM71.2165 42.9787H67.3212V47.7383H71.2165V42.9787ZM63.004 53.2763V59.5455C63.004 59.9625 62.6663 60.3005 62.249 60.3005H56.8443C56.427 60.3005 56.0893 59.9623 56.0893 59.5455V53.2763C56.0893 52.8592 56.427 52.5213 56.8443 52.5213H62.249C62.6663 52.5213 63.004 52.8594 63.004 53.2763ZM61.494 54.0313H57.5995V58.7903H61.494V54.0313ZM72.7265 53.2763V59.5455C72.7265 59.9625 72.3888 60.3005 71.9715 60.3005H66.5662C66.1488 60.3005 65.8112 59.9623 65.8112 59.5455V53.2763C65.8112 52.8592 66.1488 52.5213 66.5662 52.5213H71.9715C72.3888 52.5213 72.7265 52.8594 72.7265 53.2763ZM71.2165 54.0313H67.3212V58.7903H71.2165V54.0313ZM63.004 64.3289V70.5981C63.004 71.0152 62.6663 71.3531 62.249 71.3531H56.8443C56.427 71.3531 56.0893 71.015 56.0893 70.5981V64.3289C56.0893 63.9119 56.427 63.5739 56.8443 63.5739H62.249C62.6663 63.5739 63.004 63.9119 63.004 64.3289ZM61.494 65.0839H57.5995V69.843H61.494V65.0839ZM72.7265 64.3289V70.5981C72.7265 71.0152 72.3888 71.3531 71.9715 71.3531H66.5662C66.1488 71.3531 65.8112 71.015 65.8112 70.5981V64.3289C65.8112 63.9119 66.1488 63.5739 66.5662 63.5739H71.9715C72.3888 63.5739 72.7265 63.9119 72.7265 64.3289ZM71.2165 65.0839H67.3212V69.843H71.2165V65.0839ZM1.82617 75.6778C1.82617 75.2608 2.16383 74.9228 2.58117 74.9228H4.37289V37.1405C4.37289 36.7234 4.71055 36.3855 5.12789 36.3855H26.6315V7.86484C26.6315 7.61234 26.7576 7.37672 26.9677 7.23656C27.1763 7.09641 27.444 7.07031 27.6763 7.16766L53.5685 17.9364C53.8502 18.0536 54.0338 18.3286 54.0338 18.6336V36.3855H75.5374C75.9548 36.3855 76.2924 36.7236 76.2924 37.1405V74.9228H78.0841C78.5015 74.9228 78.8391 75.2609 78.8391 75.6778C78.8391 76.0947 78.5015 76.4328 78.0841 76.4328C76.6246 76.432 90.2166 76.4325 2.58148 76.4328C2.16398 76.433 1.82617 76.0948 1.82617 75.6778ZM54.0337 74.9228H74.7821V37.8956H54.0337V74.9228ZM44.4152 63.0231H36.2501V74.923H44.4152V63.0231ZM28.1415 74.9228H34.7399V63.023H32.9785C32.5612 63.023 32.2235 62.6848 32.2235 62.268C32.2235 61.8511 32.5612 61.513 32.9785 61.513H47.6868C48.1041 61.513 48.4418 61.8511 48.4418 62.268C48.4418 62.6848 48.1041 63.023 47.6868 63.023H45.9254V74.9228H52.5238C52.5238 63.9462 52.5238 29.7009 52.5238 19.137L28.1415 8.99656V74.9228ZM5.88305 74.9228H26.6315V37.8956H5.88305V74.9228ZM64.4079 8.61984C64.8252 8.61984 65.1629 8.28172 65.1629 7.86484C65.1629 7.59469 65.3266 7.44969 65.424 7.38734C65.5884 7.28266 65.786 7.26609 65.9526 7.34313C66.1716 7.44531 66.426 7.43609 66.6368 7.31844C66.8477 7.20156 66.9899 6.99109 67.0195 6.75188C67.1388 5.79672 67.9551 5.07625 68.918 5.07625C69.878 5.07625 70.6921 5.79625 70.8107 6.75109C70.8402 6.98891 70.9802 7.19828 71.189 7.31594C71.3976 7.43422 71.6505 7.44609 71.868 7.34734C72.1238 7.23313 72.3304 7.33703 72.4085 7.38719C72.4859 7.43766 72.6673 7.58516 72.6673 7.865C72.6673 8.28203 73.0049 8.62 73.4223 8.62C73.8396 8.62 74.1773 8.28188 74.1773 7.865C74.1773 7.15672 73.8226 6.50469 73.229 6.12016C72.8913 5.90109 72.5063 5.78906 72.1179 5.78656C71.6268 4.47891 70.3652 3.56641 68.9179 3.56641C67.469 3.56641 66.2052 4.47781 65.7135 5.78437C65.3309 5.78766 64.9488 5.89906 64.6112 6.115C64.011 6.49797 63.6526 7.1525 63.6526 7.865C63.6529 8.28172 63.9905 8.61984 64.4079 8.61984ZM5.12805 22.7364C5.54539 22.7364 5.88305 22.3983 5.88305 21.9814C5.88305 21.7108 6.0468 21.5659 6.14398 21.5036C6.30836 21.3992 6.50602 21.3819 6.67258 21.4597C6.89164 21.5614 7.14523 21.553 7.35602 21.435C7.56758 21.3181 7.70992 21.1077 7.73945 20.8684C7.85883 19.9128 8.67508 19.1925 9.63805 19.1925C10.598 19.1925 11.4121 19.9128 11.5307 20.8677C11.5602 21.1055 11.7002 21.3152 11.909 21.4325C12.1184 21.5505 12.3691 21.563 12.5888 21.4639C12.8432 21.3503 13.0512 21.4539 13.1279 21.5037C13.206 21.5542 13.3874 21.7017 13.3874 21.9816C13.3874 22.3986 13.7251 22.7366 14.1424 22.7366C14.5598 22.7366 14.8974 22.3984 14.8974 21.9816C14.8974 21.2733 14.5427 20.6208 13.9491 20.2362C13.6115 20.0177 13.2265 19.9052 12.838 19.9027C12.347 18.595 11.0854 17.6825 9.63805 17.6825C8.18914 17.6825 6.92539 18.5942 6.43367 19.9008C6.05102 19.9041 5.66977 20.015 5.33133 20.2311C4.73117 20.6141 4.37273 21.2686 4.37273 21.9816C4.37289 22.3983 4.7107 22.7364 5.12805 22.7364Z" fill="url(#paint0_linear_283_4396)"/>
</g>
<defs>
<linearGradient id="paint0_linear_283_4396" x1="7.99836" y1="82.1628" x2="78.668" y2="11.4931" gradientUnits="userSpaceOnUse">
<stop stop-color="#36F1B9"/>
<stop offset="1" stop-color="#3484A4"/>
</linearGradient>
</defs>
</svg>
