<svg width="50" height="50" viewBox="0 0 50 50" fill="none" xmlns="http://www.w3.org/2000/svg">
<g opacity="0.2" clip-path="url(#clip0_74_3802)">
<path d="M25.0001 5.46875C30.3934 5.46875 35.2762 7.65489 38.8108 11.1894C42.3453 14.7239 44.5314 19.6068 44.5314 25.0001C44.5314 30.3934 42.3453 35.2762 38.8108 38.8108C35.2762 42.3453 30.3934 44.5314 25.0001 44.5314C19.6068 44.5314 14.7239 42.3453 11.1894 38.8108C7.65488 35.2762 5.46875 30.3934 5.46875 25.0001C5.46875 19.6068 7.65489 14.7239 11.1894 11.1894C14.7239 7.65488 19.6068 5.46875 25.0001 5.46875ZM37.706 12.2941C34.4543 9.04248 29.9621 7.03127 25.0001 7.03127C20.038 7.03127 15.5458 9.04247 12.2941 12.2941C9.0425 15.5458 7.0313 20.038 7.0313 25C7.0313 29.9621 9.04249 34.4543 12.2941 37.706C15.5458 40.9576 20.038 42.9688 25.0001 42.9688C29.9621 42.9688 34.4543 40.9576 37.706 37.706C40.9576 34.4543 42.9688 29.9621 42.9688 25C42.9688 20.038 40.9577 15.5458 37.706 12.2941Z" fill="url(#paint0_linear_74_3802)"/>
<path fill-rule="evenodd" clip-rule="evenodd" d="M18.6924 18.6943C19.5861 18.6943 20.3105 19.4188 20.3105 20.3125C20.3105 21.2062 19.5861 21.9307 18.6924 21.9307C17.7987 21.9307 17.0742 21.2062 17.0742 20.3125C17.0742 19.4188 17.7987 18.6943 18.6924 18.6943Z" fill="url(#paint1_linear_74_3802)"/>
<path fill-rule="evenodd" clip-rule="evenodd" d="M31.3076 18.6943C32.2013 18.6943 32.9258 19.4188 32.9258 20.3125C32.9258 21.2062 32.2013 21.9307 31.3076 21.9307C30.4139 21.9307 29.6895 21.2062 29.6895 20.3125C29.6895 19.4188 30.4139 18.6943 31.3076 18.6943Z" fill="url(#paint2_linear_74_3802)"/>
<path d="M34.4455 29.2834C34.6191 28.8907 34.4415 28.4316 34.0488 28.258C33.6561 28.0844 33.197 28.262 33.0234 28.6547C32.1866 30.5378 30.7055 31.8678 28.9594 32.6437C27.7331 33.1885 26.3696 33.461 24.9992 33.461C23.6288 33.461 22.2653 33.1886 21.039 32.6437C19.2929 31.8678 17.8117 30.5378 16.975 28.6547C16.8014 28.262 16.3423 28.0844 15.9496 28.258C15.5569 28.4316 15.3793 28.8907 15.5529 29.2834C16.5586 31.5467 18.3283 33.1406 20.4104 34.0658C21.8473 34.7043 23.4268 35.0236 24.9992 35.0236C26.5717 35.0236 28.1511 34.7043 29.5881 34.0658C31.6703 33.1406 33.4399 31.5467 34.4456 29.2834H34.4455Z" fill="url(#paint3_linear_74_3802)"/>
</g>
<defs>
<linearGradient id="paint0_linear_74_3802" x1="8.59942" y1="47.6032" x2="46.4265" y2="11.8128" gradientUnits="userSpaceOnUse">
<stop stop-color="#36F1B9"/>
<stop offset="1" stop-color="#3484A4"/>
</linearGradient>
<linearGradient id="paint1_linear_74_3802" x1="17.3336" y1="22.1852" x2="20.4676" y2="19.2199" gradientUnits="userSpaceOnUse">
<stop stop-color="#36F1B9"/>
<stop offset="1" stop-color="#3484A4"/>
</linearGradient>
<linearGradient id="paint2_linear_74_3802" x1="29.9488" y1="22.1852" x2="33.0828" y2="19.2199" gradientUnits="userSpaceOnUse">
<stop stop-color="#36F1B9"/>
<stop offset="1" stop-color="#3484A4"/>
</linearGradient>
<linearGradient id="paint3_linear_74_3802" x1="17.0111" y1="35.5608" x2="21.4076" y2="23.9771" gradientUnits="userSpaceOnUse">
<stop stop-color="#36F1B9"/>
<stop offset="1" stop-color="#3484A4"/>
</linearGradient>
<clipPath id="clip0_74_3802">
<rect width="50" height="50" fill="white"/>
</clipPath>
</defs>
</svg>
