<svg width="80" height="80" viewBox="0 0 80 80" fill="none" xmlns="http://www.w3.org/2000/svg">
<g opacity="0.2">
<path fill-rule="evenodd" clip-rule="evenodd" d="M16.0525 18.7495H8.75C6.67875 18.7495 5 20.4283 5 22.4995V57.4995C5 59.5708 6.67875 61.2495 8.75 61.2495H32.7562L45.7 74.1933C46.4038 74.897 47.3575 75.292 48.3512 75.292C49.3462 75.292 50.3 74.897 51.0038 74.1933L63.9475 61.2495H71.25C73.3212 61.2495 75 59.5708 75 57.4995C75 50.317 75 29.682 75 22.4995C75 20.4283 73.3212 18.7495 71.25 18.7495H47.2437L34.3 5.80578C33.5963 5.10203 32.6425 4.70703 31.6488 4.70703C30.6538 4.70703 29.7 5.10203 28.9963 5.80578L16.0525 18.7495ZM36.2925 61.2495L47.4675 72.4258C47.7025 72.6595 48.02 72.792 48.3512 72.792C48.6837 72.792 49.0012 72.6595 49.2362 72.4258L60.4112 61.2495H36.2925ZM50.9513 34.957C50.8475 34.9845 50.7375 34.9995 50.625 34.9995H7.5V57.4995C7.5 58.1895 8.06 58.7495 8.75 58.7495H57.5V40.0308L52.4337 45.0658C51.945 45.552 51.1525 45.5495 50.6663 45.0608C50.18 44.5708 50.1825 43.7783 50.6712 43.292L56.5037 37.4958C54.99 36.8883 52.7963 35.9558 50.9513 34.957ZM72.5 34.9995H66.4412C64.6212 35.9783 62.4788 36.8895 60.9863 37.4883L66.8038 43.3045C67.2913 43.792 67.2913 44.5845 66.8038 45.072C66.315 45.5595 65.5237 45.5595 65.035 45.072L60 40.037V58.7495H71.25C71.94 58.7495 72.5 58.1895 72.5 57.4995V34.9995ZM56.6025 34.872C54.3175 33.952 51.145 32.5283 49.875 31.257C49.015 30.3983 49.015 29.0033 49.875 28.1433C50.7338 27.2845 52.1287 27.2845 52.9875 28.1433C54.2587 29.4145 55.6838 32.5858 56.6025 34.872ZM60.8687 34.872C61.7887 32.5858 63.2125 29.4145 64.4838 28.1433C65.3425 27.2845 66.7375 27.2845 67.5975 28.1433C68.4562 29.0033 68.4562 30.3983 67.5975 31.257C66.3262 32.5283 63.155 33.952 60.8687 34.872ZM57.5 21.2495H8.75C8.06 21.2495 7.5 21.8095 7.5 22.4995V32.4995H47.6538C46.2875 30.6595 46.4388 28.0445 48.1063 26.3758C49.9413 24.5408 52.9213 24.5408 54.7563 26.3758C55.6525 27.2733 56.635 29.0183 57.5 30.8183V21.2495ZM60 21.2495V30.7595C60.8587 28.9808 61.8288 27.2633 62.7163 26.3758C64.5513 24.5408 67.53 24.5408 69.365 26.3758C71.0338 28.0445 71.185 30.6595 69.8187 32.4995H72.5V22.4995C72.5 21.8095 71.94 21.2495 71.25 21.2495H60ZM43.7075 18.7495L32.5325 7.57328C32.2975 7.33953 31.98 7.20703 31.6488 7.20703C31.3163 7.20703 30.9988 7.33953 30.7638 7.57328L19.5887 18.7495H43.7075Z" fill="url(#paint0_linear_339_26111)"/>
</g>
<defs>
<linearGradient id="paint0_linear_339_26111" x1="10.6101" y1="80.8426" x2="78.9287" y2="16.7383" gradientUnits="userSpaceOnUse">
<stop stop-color="#36F1B9"/>
<stop offset="1" stop-color="#3484A4"/>
</linearGradient>
</defs>
</svg>
