<svg width="72" height="70" viewBox="0 0 72 70" fill="none" xmlns="http://www.w3.org/2000/svg">
<g id="Loyalty_Points">
<g id="Group">
<path id="Vector" d="M67.1043 25.0201L53.7428 25.0138C53.3012 25.0138 52.9418 25.3721 52.9418 25.8128C52.9418 26.2555 53.2991 26.6138 53.7408 26.6138L63.0908 26.6201L67.0022 26.6138C68.9408 26.8617 70.4022 28.7294 70.4022 30.9576V63.9336C70.4022 66.3544 68.6751 68.3242 66.5501 68.3242H5.43763C3.32096 68.3242 1.59805 66.3544 1.59805 63.9336V30.9576C1.59805 28.544 3.32096 26.5805 5.43763 26.5805L15.4408 26.5888C15.8824 26.5888 16.2408 26.2315 16.2418 25.7898C16.2428 25.3482 15.8845 24.9898 15.4428 24.9888L5.43763 24.9805C2.43867 24.9805 -0.00195312 27.6617 -0.00195312 30.9576V63.9336C-0.00195312 67.2367 2.43867 69.9242 5.43763 69.9242C8.68679 69.9242 -10.969 69.9242 66.5512 69.9242C69.5564 69.9242 72.0022 67.2367 72.0022 63.9336V30.9576C72.0022 27.9273 69.9408 25.3773 67.1043 25.0201Z" fill="url(#paint0_linear_317_1955)"/>
<path id="Vector_2" d="M6.71094 53.468C6.71094 53.9096 7.06927 54.268 7.51094 54.268H21.9234C22.3651 54.268 22.7234 53.9096 22.7234 53.468C22.7234 53.0263 22.3651 52.668 21.9234 52.668H7.51094C7.06927 52.668 6.71094 53.0263 6.71094 53.468Z" fill="url(#paint1_linear_317_1955)"/>
<path id="Vector_3" d="M6.39844 59.5773C6.39844 60.019 6.75677 60.3773 7.19844 60.3773H31.062C31.5036 60.3773 31.862 60.019 31.862 59.5773C31.862 59.1357 31.5036 58.7773 31.062 58.7773H7.19844C6.75677 58.7773 6.39844 59.1357 6.39844 59.5773Z" fill="url(#paint2_linear_317_1955)"/>
<path id="Vector_4" d="M50.9707 53.0677V60.2896C50.9707 61.025 51.5686 61.6229 52.304 61.6229H62.1842C62.9197 61.6229 63.5176 61.025 63.5176 60.2896V53.0677C63.5176 52.3323 62.9197 51.7344 62.1842 51.7344H52.304C51.5686 51.7344 50.9707 52.3323 50.9707 53.0677ZM52.5707 53.3344H61.9176V60.0229H52.5707V53.3344Z" fill="url(#paint3_linear_317_1955)"/>
<path id="Vector_5" d="M54.0503 40.4199H21.2023C20.7607 40.4199 20.4023 40.7783 20.4023 41.2199C20.4023 41.6616 20.7607 42.0199 21.2023 42.0199H54.0503C54.4919 42.0199 54.8503 41.6616 54.8503 41.2199C54.8503 40.7783 54.4919 40.4199 54.0503 40.4199Z" fill="url(#paint4_linear_317_1955)"/>
<path id="Vector_6" d="M52.7374 33.5066L49.2739 32.8577L47.8458 29.6348C47.434 28.7118 46.1703 28.717 45.7114 29.5504L44.0249 32.6421L40.5208 33.0066C39.5395 33.1079 39.1 34.2934 39.778 35.0098L42.3458 37.7264C43.0723 38.493 44.2369 37.3975 43.5083 36.6264L41.5103 34.5129L44.3989 34.2118C44.7905 34.1743 45.1364 33.9441 45.326 33.5983L46.7197 31.0431L47.901 33.7077C48.0614 34.0629 48.3853 34.3181 48.7687 34.391L51.6291 34.9264L49.4635 36.8712C48.917 37.3607 49.2704 38.266 49.9978 38.266C50.5353 38.266 50.5093 37.9887 53.3135 35.565C54.0519 34.9013 53.7013 33.686 52.7374 33.5066Z" fill="url(#paint5_linear_317_1955)"/>
<path id="Vector_7" d="M34.4331 21.7456L30.5415 22.1498L28.0019 19.1727C27.3405 18.3988 26.0766 18.7175 25.8644 19.7133L25.0456 23.5393L21.431 25.0331C20.4882 25.4224 20.4011 26.7222 21.2831 27.2352L24.6696 29.1956L24.9727 33.0966C25.0256 33.7591 25.5801 34.231 26.2019 34.231C27.0035 34.231 27.173 33.6563 29.9321 31.3008L33.7363 32.2175C34.7384 32.4545 35.5578 31.4443 35.1477 30.5216L33.5613 26.9466L35.6071 23.6123C36.1402 22.7462 35.4495 21.6446 34.4331 21.7456ZM32.0956 26.2758C31.8852 26.6206 31.856 27.0466 32.0196 27.4185L33.381 30.4862L30.1185 29.7008C29.7206 29.6018 29.3071 29.7102 29.0081 29.981L26.5102 32.2227L26.2488 28.8748C26.2165 28.4706 25.9883 28.1091 25.6394 27.9081L22.7342 26.2258L25.8363 24.9435C26.2123 24.7883 26.4863 24.4581 26.5696 24.0643L27.2717 20.782L29.4508 23.3362C29.7144 23.6435 30.1144 23.8018 30.5123 23.7612L33.8519 23.4143L32.0956 26.2758Z" fill="url(#paint6_linear_317_1955)"/>
<path id="Vector_8" d="M47.706 5.76427L43.957 4.64865L42.7508 0.92573C42.4385 -0.0356105 41.1535 -0.239851 40.5685 0.60698L38.3466 3.82781C36.032 3.82596 36.7474 3.82654 34.4341 3.82469C33.4194 3.82469 32.8385 4.98849 33.4581 5.80177L35.8351 8.90906L34.6226 12.6289C34.3051 13.6018 35.2461 14.5085 36.2008 14.1695L39.8904 12.8695L43.0539 15.1716C43.8698 15.7667 45.0342 15.1698 45.007 14.1466L44.9101 10.2351L48.0758 7.93927C48.9019 7.34048 48.6832 6.05316 47.706 5.76427ZM43.8122 9.0549C43.4831 9.29448 43.2945 9.67886 43.306 10.0799L43.3893 13.4361L40.6747 11.4611C40.4612 11.3059 40.207 11.2257 39.9508 11.2257C39.8133 11.2257 39.6747 11.2486 39.5424 11.2955L36.3758 12.4111L37.4164 9.21948C37.5424 8.83302 37.4695 8.41115 37.2237 8.09031L35.1851 5.42573L38.5414 5.42781C38.9466 5.42781 39.3247 5.22886 39.5539 4.89552L41.4591 2.13302L42.4956 5.32677C42.6206 5.71115 42.9258 6.00906 43.3133 6.12573L46.5299 7.08302L43.8122 9.0549Z" fill="url(#paint7_linear_317_1955)"/>
<path id="Vector_9" d="M27.8195 8.54063C28.2612 8.54063 28.6195 8.18229 28.6195 7.74063V3.45625C28.6195 3.01458 28.2612 2.65625 27.8195 2.65625C27.3779 2.65625 27.0195 3.01458 27.0195 3.45625V7.74063C27.0195 8.18229 27.3779 8.54063 27.8195 8.54063Z" fill="url(#paint8_linear_317_1955)"/>
<path id="Vector_10" d="M18.291 16.591V20.8743C18.291 21.316 18.6493 21.6743 19.091 21.6743C19.5327 21.6743 19.891 21.316 19.891 20.8743V16.591C19.891 16.1493 19.5327 15.791 19.091 15.791C18.6493 15.791 18.291 16.1493 18.291 16.591Z" fill="url(#paint9_linear_317_1955)"/>
<path id="Vector_11" d="M48.2207 22.9839C48.2207 23.4255 48.579 23.7839 49.0207 23.7839C49.4624 23.7839 49.8207 23.4255 49.8207 22.9839V18.3703C49.8207 17.9286 49.4624 17.5703 49.0207 17.5703C48.579 17.5703 48.2207 17.9286 48.2207 18.3703V22.9839Z" fill="url(#paint10_linear_317_1955)"/>
</g>
</g>
<defs>
<linearGradient id="paint0_linear_317_1955" x1="5.7688" y1="73.4585" x2="45.8406" y2="12.7163" gradientUnits="userSpaceOnUse">
<stop stop-color="#36F1B9"/>
<stop offset="1" stop-color="#3484A4"/>
</linearGradient>
<linearGradient id="paint1_linear_317_1955" x1="7.99426" y1="54.3938" x2="8.3184" y2="51.3245" gradientUnits="userSpaceOnUse">
<stop stop-color="#36F1B9"/>
<stop offset="1" stop-color="#3484A4"/>
</linearGradient>
<linearGradient id="paint2_linear_317_1955" x1="8.43921" y1="60.5032" x2="8.64441" y2="57.4133" gradientUnits="userSpaceOnUse">
<stop stop-color="#36F1B9"/>
<stop offset="1" stop-color="#3484A4"/>
</linearGradient>
<linearGradient id="paint3_linear_317_1955" x1="51.9763" y1="62.4005" x2="61.4088" y2="51.0767" gradientUnits="userSpaceOnUse">
<stop stop-color="#36F1B9"/>
<stop offset="1" stop-color="#3484A4"/>
</linearGradient>
<linearGradient id="paint4_linear_317_1955" x1="23.1632" y1="42.1457" x2="23.3151" y2="39.0497" gradientUnits="userSpaceOnUse">
<stop stop-color="#36F1B9"/>
<stop offset="1" stop-color="#3484A4"/>
</linearGradient>
<linearGradient id="paint5_linear_317_1955" x1="40.5939" y1="38.9999" x2="49.0633" y2="26.7564" gradientUnits="userSpaceOnUse">
<stop stop-color="#36F1B9"/>
<stop offset="1" stop-color="#3484A4"/>
</linearGradient>
<linearGradient id="paint6_linear_317_1955" x1="21.8819" y1="35.4492" x2="36.8583" y2="21.6164" gradientUnits="userSpaceOnUse">
<stop stop-color="#36F1B9"/>
<stop offset="1" stop-color="#3484A4"/>
</linearGradient>
<linearGradient id="paint7_linear_317_1955" x1="34.4359" y1="16.6139" x2="49.2872" y2="2.51815" gradientUnits="userSpaceOnUse">
<stop stop-color="#36F1B9"/>
<stop offset="1" stop-color="#3484A4"/>
</linearGradient>
<linearGradient id="paint8_linear_317_1955" x1="27.1478" y1="9.00336" x2="29.9019" y2="8.29481" gradientUnits="userSpaceOnUse">
<stop stop-color="#36F1B9"/>
<stop offset="1" stop-color="#3484A4"/>
</linearGradient>
<linearGradient id="paint9_linear_317_1955" x1="18.4192" y1="22.137" x2="21.1733" y2="21.4283" gradientUnits="userSpaceOnUse">
<stop stop-color="#36F1B9"/>
<stop offset="1" stop-color="#3484A4"/>
</linearGradient>
<linearGradient id="paint10_linear_317_1955" x1="48.3489" y1="24.2725" x2="51.1208" y2="23.5971" gradientUnits="userSpaceOnUse">
<stop stop-color="#36F1B9"/>
<stop offset="1" stop-color="#3484A4"/>
</linearGradient>
</defs>
</svg>
