<svg width="81" height="80" viewBox="0 0 81 80" fill="none" xmlns="http://www.w3.org/2000/svg">
<g opacity="0.2">
<path d="M15.598 37.1675C16.621 37.1675 17.5471 36.9154 18.3544 36.4112C19.8453 35.4851 20.7617 33.8148 20.9314 31.7081C21.0841 29.8172 20.6017 27.8148 19.6004 26.2051C17.6465 23.0681 13.7774 22.1881 10.6986 24.1081C9.20287 25.0415 8.1556 26.4087 7.75317 27.9724C7.31923 29.6403 7.62953 31.3881 8.64772 33.0221C10.1677 35.4657 13.0259 37.1675 15.598 37.1675ZM10.0271 28.559C10.2792 27.5894 10.958 26.7142 11.9374 26.1033C12.6817 25.6427 13.4817 25.4003 14.255 25.4003C15.5932 25.4003 16.7835 26.1275 17.6053 27.4487C18.3326 28.6172 18.701 30.1372 18.5895 31.5166C18.5265 32.2972 18.2477 33.7081 17.1132 34.416C15.3653 35.4948 12.095 34.113 10.6429 31.7784C9.97378 30.7069 9.76044 29.5918 10.0271 28.559Z" fill="url(#paint0_linear_446_12503)"/>
<path d="M72.9586 45.4559H38.852L33.1453 40.6293C27.412 35.7832 21.2762 35.439 14.4229 39.4972C12.7889 38.159 10.5829 37.2329 7.34409 37.2329C2.28712 37.2329 1.875 40.2705 1.875 43.9456V63.3905C1.875 66.2705 4.21924 68.6123 7.09682 68.6123H9.70773V74.6632C9.70773 75.3153 10.2338 75.839 10.8835 75.839H17.3514C18.0011 75.839 18.5247 75.3129 18.5247 74.6632V68.6123H70.6338V74.6632C70.6338 75.3153 71.1599 75.839 71.8071 75.839H78.275C78.9247 75.839 79.4483 75.3129 79.4483 74.6632V51.4753C79.4532 47.3687 77.3877 45.4559 72.9586 45.4559ZM31.6253 42.4232L36.8908 46.879L32.3065 54.4305H23.652C22.2095 51.7735 20.1198 47.9505 17.8508 43.8899C17.3489 42.9905 16.7841 42.0863 16.1126 41.2353C21.8629 38.0087 26.8302 38.3626 31.6253 42.4232ZM77.1017 73.4899H72.9853V67.439C72.9853 66.7869 72.4592 66.2632 71.812 66.2632H17.3538C16.7017 66.2632 16.178 66.7893 16.178 67.439V73.4899H12.0617V67.439C12.0617 66.7869 11.5356 66.2632 10.8859 66.2632H7.09924C5.51621 66.2632 4.22652 64.9759 4.22652 63.3905V43.9456C4.22652 40.1929 4.6653 39.582 7.34409 39.582C11.8605 39.582 13.8653 41.582 15.7974 45.0366C18.2435 49.4147 20.4786 53.5141 21.9162 56.1687C22.1223 56.5469 22.5174 56.7844 22.9489 56.7844H32.9635C33.3756 56.7844 33.7562 56.5687 33.9695 56.2196L39.075 47.8075H72.9562C76.4568 47.8075 77.0992 49.0438 77.0992 51.4778V73.4899H77.1017Z" fill="url(#paint1_linear_446_12503)"/>
<path d="M63.5192 31.8018H44.8598C42.3846 31.8018 40.3652 29.7873 40.3652 27.3073V8.65275C40.3652 6.1776 42.3822 4.1582 44.8598 4.1582H63.5168C65.9919 4.1582 68.0089 6.17517 68.0089 8.65275V27.3073C68.0089 29.7873 65.9919 31.8018 63.5192 31.8018ZM44.8598 6.51214C43.6792 6.51214 42.7192 7.47214 42.7192 8.65517V27.3097C42.7192 28.4903 43.6792 29.4527 44.8598 29.4527H63.5168C64.6949 29.4527 65.6549 28.4927 65.6549 27.3097V8.65275C65.6549 7.47214 64.6949 6.50972 63.5168 6.50972H44.8598V6.51214ZM58.2319 26.8346H50.1446V22.0224H45.3301V13.9352H50.1446V9.1279H58.2319V13.9352H63.0489V22.0224H58.2319V26.8346ZM52.4961 24.4855H55.8804V19.6709H60.6974V16.2867H55.8804V11.4746H52.4961V16.2843H47.6792V19.6685H52.4961V24.4855Z" fill="url(#paint2_linear_446_12503)"/>
</g>
<defs>
<linearGradient id="paint0_linear_446_12503" x1="8.63617" y1="38.274" x2="22.2079" y2="26.0474" gradientUnits="userSpaceOnUse">
<stop stop-color="#36F1B9"/>
<stop offset="1" stop-color="#3484A4"/>
</linearGradient>
<linearGradient id="paint1_linear_446_12503" x1="8.0921" y1="78.9167" x2="39.6111" y2="19.8079" gradientUnits="userSpaceOnUse">
<stop stop-color="#36F1B9"/>
<stop offset="1" stop-color="#3484A4"/>
</linearGradient>
<linearGradient id="paint2_linear_446_12503" x1="42.5807" y1="33.9757" x2="69.35" y2="8.64773" gradientUnits="userSpaceOnUse">
<stop stop-color="#36F1B9"/>
<stop offset="1" stop-color="#3484A4"/>
</linearGradient>
</defs>
</svg>
