<svg width="81" height="80" viewBox="0 0 81 80" fill="none" xmlns="http://www.w3.org/2000/svg">
<g opacity="0.2">
<path d="M33.7271 38.7074L20.3125 20.2383" stroke="url(#paint0_linear_446_9309)" stroke-width="2" stroke-miterlimit="10" stroke-linecap="round" stroke-linejoin="round"/>
<path d="M49.5383 42.168L61.8874 59.1701C63.6274 61.5782 63.0857 64.941 60.6775 66.681C58.2693 68.4211 54.9066 67.8794 53.1666 65.4713L45.5117 54.9323" stroke="url(#paint1_linear_446_9309)" stroke-width="2" stroke-miterlimit="10" stroke-linecap="round" stroke-linejoin="round"/>
<path d="M29.0332 13.9375L38.6872 27.2291" stroke="url(#paint2_linear_446_9309)" stroke-width="2" stroke-miterlimit="10" stroke-linecap="round" stroke-linejoin="round"/>
<path d="M26.6812 4.80134L12.334 15.168L15.8062 19.9735L30.1535 9.60687L26.6812 4.80134Z" stroke="url(#paint3_linear_446_9309)" stroke-width="2" stroke-miterlimit="10" stroke-linecap="round" stroke-linejoin="round"/>
<path d="M27.4551 52.7217L40.8999 29.8093C42.2769 27.8814 44.8617 27.2589 46.9653 28.3483C49.1758 29.493 50.1317 32.1469 49.1592 34.4383L42.0806 54.076L40.9997 61.1434C40.5519 64.0713 39.4786 66.8683 37.8527 69.344L34.3617 75.2018" stroke="url(#paint4_linear_446_9309)" stroke-width="2" stroke-miterlimit="10" stroke-linecap="round" stroke-linejoin="round"/>
<path d="M32.4062 18.5823L33.5673 17.393C34.4969 16.4407 35.808 15.961 37.1327 16.0886L57.5544 18.0565C58.4432 18.1247 59.0445 18.9929 58.796 19.849C57.6499 23.7966 53.9406 26.4387 49.8352 26.2317L38.0168 25.7724" stroke="url(#paint5_linear_446_9309)" stroke-width="2" stroke-miterlimit="10" stroke-linecap="round" stroke-linejoin="round"/>
<path d="M15.4013 75.2005L13.0979 42.3536C12.9265 39.9899 13.776 37.666 15.4316 35.9702L22.1842 29.0527" stroke="url(#paint6_linear_446_9309)" stroke-width="2" stroke-miterlimit="10" stroke-linecap="round" stroke-linejoin="round"/>
<path d="M52.2364 26.1777L64.3697 30.4249C65.1511 30.6981 65.5683 31.5481 65.3065 32.3334C64.1391 35.8355 60.3856 37.7611 56.8601 36.6666L49.3926 34.3032" stroke="url(#paint7_linear_446_9309)" stroke-width="2" stroke-miterlimit="10" stroke-linecap="round" stroke-linejoin="round"/>
<path d="M55.3503 36.1992L66.3428 40.2404C67.0343 40.4878 67.4486 41.1957 67.3257 41.9199C66.7877 45.0882 63.6255 47.0942 60.53 46.2311L51.1523 43.7828" stroke="url(#paint8_linear_446_9309)" stroke-width="2" stroke-miterlimit="10" stroke-linecap="round" stroke-linejoin="round"/>
<path d="M55.6836 44.9336L67.0779 50.7783C67.8642 51.1816 68.1896 52.1355 67.8137 52.9354C66.4902 55.7512 63.1297 56.9541 60.32 55.6178L58.8728 55.0225" stroke="url(#paint9_linear_446_9309)" stroke-width="2" stroke-miterlimit="10" stroke-linecap="round" stroke-linejoin="round"/>
<path d="M26.9121 43.7819L34.3603 39.584" stroke="url(#paint10_linear_446_9309)" stroke-width="2" stroke-miterlimit="10" stroke-linecap="round" stroke-linejoin="round"/>
<path d="M48.9214 65.209C48.9214 65.209 49.407 71.4084 44.3965 75.2001" stroke="url(#paint11_linear_446_9309)" stroke-width="2" stroke-miterlimit="10" stroke-linecap="round" stroke-linejoin="round"/>
<path d="M33.8601 21.1543L29.9453 24.1926L35.492 31.6368" stroke="url(#paint12_linear_446_9309)" stroke-width="2" stroke-miterlimit="10" stroke-linecap="round" stroke-linejoin="round"/>
<path d="M47.3145 49.0078L53.7369 57.9117L58.3052 54.5317" stroke="url(#paint13_linear_446_9309)" stroke-width="2" stroke-miterlimit="10" stroke-linecap="round" stroke-linejoin="round"/>
</g>
<defs>
<linearGradient id="paint0_linear_446_9309" x1="21.3876" y1="40.1597" x2="38.1096" y2="28.668" gradientUnits="userSpaceOnUse">
<stop stop-color="#36F1B9"/>
<stop offset="1" stop-color="#3484A4"/>
</linearGradient>
<linearGradient id="paint1_linear_446_9309" x1="46.9059" y1="69.7084" x2="69.4592" y2="55.1702" gradientUnits="userSpaceOnUse">
<stop stop-color="#36F1B9"/>
<stop offset="1" stop-color="#3484A4"/>
</linearGradient>
<linearGradient id="paint2_linear_446_9309" x1="29.8069" y1="28.2743" x2="41.8412" y2="20.0041" gradientUnits="userSpaceOnUse">
<stop stop-color="#36F1B9"/>
<stop offset="1" stop-color="#3484A4"/>
</linearGradient>
<linearGradient id="paint3_linear_446_9309" x1="17.2291" y1="19.5206" x2="14.1764" y2="9.11855" gradientUnits="userSpaceOnUse">
<stop stop-color="#36F1B9"/>
<stop offset="1" stop-color="#3484A4"/>
</linearGradient>
<linearGradient id="paint4_linear_446_9309" x1="29.225" y1="78.9282" x2="63.1571" y2="63.9664" gradientUnits="userSpaceOnUse">
<stop stop-color="#36F1B9"/>
<stop offset="1" stop-color="#3484A4"/>
</linearGradient>
<linearGradient id="paint5_linear_446_9309" x1="34.5258" y1="27.0432" x2="41.4123" y2="10.1075" gradientUnits="userSpaceOnUse">
<stop stop-color="#36F1B9"/>
<stop offset="1" stop-color="#3484A4"/>
</linearGradient>
<linearGradient id="paint6_linear_446_9309" x1="13.8061" y1="78.8295" x2="29.9585" y2="75.8132" gradientUnits="userSpaceOnUse">
<stop stop-color="#36F1B9"/>
<stop offset="1" stop-color="#3484A4"/>
</linearGradient>
<linearGradient id="paint7_linear_446_9309" x1="50.6743" y1="37.8222" x2="60.5747" y2="23.9457" gradientUnits="userSpaceOnUse">
<stop stop-color="#36F1B9"/>
<stop offset="1" stop-color="#3484A4"/>
</linearGradient>
<linearGradient id="paint8_linear_446_9309" x1="52.4503" y1="47.2367" x2="61.6173" y2="33.5099" gradientUnits="userSpaceOnUse">
<stop stop-color="#36F1B9"/>
<stop offset="1" stop-color="#3484A4"/>
</linearGradient>
<linearGradient id="paint9_linear_446_9309" x1="56.6683" y1="57.0465" x2="67.5531" y2="45.779" gradientUnits="userSpaceOnUse">
<stop stop-color="#36F1B9"/>
<stop offset="1" stop-color="#3484A4"/>
</linearGradient>
<linearGradient id="paint10_linear_446_9309" x1="27.509" y1="44.1121" x2="31.0892" y2="38.102" gradientUnits="userSpaceOnUse">
<stop stop-color="#36F1B9"/>
<stop offset="1" stop-color="#3484A4"/>
</linearGradient>
<linearGradient id="paint11_linear_446_9309" x1="44.7602" y1="75.9858" x2="51.79" y2="72.965" gradientUnits="userSpaceOnUse">
<stop stop-color="#36F1B9"/>
<stop offset="1" stop-color="#3484A4"/>
</linearGradient>
<linearGradient id="paint12_linear_446_9309" x1="30.3898" y1="32.4611" x2="38.5293" y2="28.3861" gradientUnits="userSpaceOnUse">
<stop stop-color="#36F1B9"/>
<stop offset="1" stop-color="#3484A4"/>
</linearGradient>
<linearGradient id="paint13_linear_446_9309" x1="48.1953" y1="58.6118" x2="56.7277" y2="48.6467" gradientUnits="userSpaceOnUse">
<stop stop-color="#36F1B9"/>
<stop offset="1" stop-color="#3484A4"/>
</linearGradient>
</defs>
</svg>
